<?xml version="1.0" encoding="UTF-8" standalone="no"?>
<!-- Created with Sodipodi ("http://www.sodipodi.com/") -->
<svg xmlns="http://www.w3.org/2000/svg" xmlns:cc="http://web.resource.org/cc/" xmlns:dc="http://purl.org/dc/elements/1.1/" xmlns:inkscape="http://www.inkscape.org/namespaces/inkscape" xmlns:rdf="http://www.w3.org/1999/02/22-rdf-syntax-ns#" xmlns:sodipodi="http://inkscape.sourceforge.net/DTD/sodipodi-0.dtd" xmlns:svg="http://www.w3.org/2000/svg" xmlns:xlink="http://www.w3.org/1999/xlink" height="25pt" id="svg603" inkscape:export-filename="/home/mouse/Nethome/Data/Images/Vector/MarsLumograph.png" inkscape:export-xdpi="37.650002" inkscape:export-ydpi="37.650002" inkscape:version="0.41" sodipodi:docbase="/home/mouse/Nethome/Data/Images/Vector" sodipodi:docname="MarsLumograph.svg" sodipodi:version="0.32" width="612pt">
  <sodipodi:namedview id="base" inkscape:current-layer="svg603" inkscape:cx="382.50000" inkscape:cy="15.624999" inkscape:window-height="537" inkscape:window-width="640" inkscape:window-x="0" inkscape:window-y="0" inkscape:zoom="0.71633987"/>
  <defs id="defs604">
    <linearGradient id="linearGradient766">
      <stop id="stop768" offset="0.000000" style="stop-color:#304e92;stop-opacity:1;"/>
      <stop id="stop767" offset="1.000000" style="stop-color:#cbd1ec;stop-opacity:1;"/>
    </linearGradient>
    <marker id="ArrowEnd" markerHeight="3" markerUnits="strokeWidth" markerWidth="4" orient="auto" refX="0" refY="5" viewBox="0 0 10 10">
      <path d="M 0 0 L 10 5 L 0 10 z" id="path7935"/>
    </marker>
    <marker id="ArrowStart" markerHeight="3" markerUnits="strokeWidth" markerWidth="4" orient="auto" refX="10" refY="5" viewBox="0 0 10 10">
      <path d="M 10 0 L 0 5 L 10 10 z" id="path7938"/>
    </marker>
    <defs id="defs624">
      <linearGradient gradientUnits="userSpaceOnUse" id="3" x1="730.654" x2="730.654" y1="24.4442" y2="22.5258">
        <stop id="stop626" offset="0" style="stop-color:#000000"/>
        <stop id="stop627" offset="1" style="stop-color:#3b3735"/>
      </linearGradient>
    </defs>
    <defs id="defs629">
      <linearGradient gradientUnits="userSpaceOnUse" id="4" x1="730.654" x2="730.654" y1="6.7133" y2="8.63173">
        <stop id="stop631" offset="0" style="stop-color:#000000"/>
        <stop id="stop632" offset="1" style="stop-color:#3b3735"/>
      </linearGradient>
    </defs>
    <defs id="defs635">
      <linearGradient gradientUnits="userSpaceOnUse" id="5" x1="765.425" x2="753.016" y1="8.75579" y2="18.5673">
        <stop id="stop637" offset="0" style="stop-color:#cbcbcb"/>
        <stop id="stop638" offset="0.72" style="stop-color:#3b3735"/>
        <stop id="stop639" offset="1" style="stop-color:#3b3735"/>
      </linearGradient>
    </defs>
    <defs id="defs641">
      <linearGradient gradientUnits="userSpaceOnUse" id="6" x1="730.59" x2="730.59" y1="7.83827" y2="10.0096">
        <stop id="stop643" offset="0" style="stop-color:#cbcbcb"/>
        <stop id="stop644" offset="0.98" style="stop-color:#3b3735"/>
        <stop id="stop645" offset="1" style="stop-color:#3b3735"/>
      </linearGradient>
    </defs>
    <defs id="defs647">
      <linearGradient gradientUnits="userSpaceOnUse" id="7" x1="378.127014" x2="378.127014" xlink:href="#linearGradient766" y1="9.971660" y2="7.800370"/>
    </defs>
    <defs id="defs653">
      <linearGradient gradientUnits="userSpaceOnUse" id="8" x1="701.596" x2="701.596" y1="0.710403" y2="8.34996">
        <stop id="stop655" offset="0" style="stop-color:#c6c6c6"/>
        <stop id="stop656" offset="1" style="stop-color:#f1f1f1"/>
      </linearGradient>
    </defs>
    <defs id="defs658">
      <linearGradient gradientUnits="userSpaceOnUse" id="9" x1="701.596" x2="701.596" y1="30.5375" y2="22.7729">
        <stop id="stop660" offset="0" style="stop-color:#c6c6c6"/>
        <stop id="stop661" offset="1" style="stop-color:#f1f1f1"/>
      </linearGradient>
    </defs>
  </defs>
  <g id="g608" style="font-size:12;" transform="matrix(0.999286,0,0,1.00796,1.04927,0.0178005)">
    <path d="M 58.1783 0.754547L 720.963 0.754547L 720.963 30.2461L 58.1783 30.2461L 58.1783 0.754547z" id="path609" style="stroke:none; fill:#1b4d90"/>
    <defs id="defs610">
      <linearGradient gradientUnits="userSpaceOnUse" id="1" x1="389.531" x2="389.531" y1="22.5666" y2="24.1861">
        <stop id="stop612" offset="0" style="stop-color:#1b4d90"/>
        <stop id="stop613" offset="1" style="stop-color:#1f357b"/>
      </linearGradient>
    </defs>
    <path d="M 58.2036 22.5666L 720.858 22.5666L 720.858 24.1861L 58.2036 24.1861L 58.2036 22.5666z" id="path614" style="stroke:none; fill:url(#1)"/>
    <path d="M 720.822 24.1276L 58.0722 24.1276L 58.0722 30.5406L 720.822 30.5406L 720.822 24.1276z" id="path615" style="stroke:none; fill:#1f357b"/>
    <defs id="defs616">
      <linearGradient gradientUnits="userSpaceOnUse" id="2" x1="389.531" x2="389.531" y1="8.46896" y2="6.84946">
        <stop id="stop618" offset="0" style="stop-color:#1b4d90"/>
        <stop id="stop619" offset="1" style="stop-color:#213a85"/>
      </linearGradient>
    </defs>
    <path d="M 58.2036 8.46896L 720.858 8.46896L 720.858 6.84946L 58.2036 6.84946L 58.2036 8.46896z" id="path620" style="stroke:none; fill:url(#2)"/>
    <path d="M 720.822 6.90796L 58.1793 6.90796L 58.1793 0.691559L 720.822 0.691559L 720.822 6.90796z" id="path621" style="stroke:none; fill:#213983"/>
  </g>
  <path d="M 705.393 0.68573L 755.949 0.68573L 755.949 30.5161L 705.393 30.5161L 705.393 0.68573z" id="path622" style="font-size:12;" transform="matrix(0.999286,0,0,1.00796,1.04927,0.0178005)"/>
  <path d="M 705.407 7.99802L 755.935 7.99802L 755.935 22.5258L 705.407 22.5258L 705.407 7.99802z" id="path623" style="font-size:12;fill:#363636;" transform="matrix(0.999286,0,0,1.00796,1.04927,0.0178005)"/>
  <path d="M 705.407 22.5258L 755.901 22.5258L 755.901 24.4442L 705.407 24.4442L 705.407 22.5258z" id="path628" style="font-size:12;fill:url(#3);" transform="matrix(0.999286,0,0,1.00796,1.04927,0.0178005)"/>
  <path d="M 705.407 8.63171L 755.901 8.63171L 755.901 6.71329L 705.407 6.71329L 705.407 8.63171z" id="path633" style="font-size:12;fill:url(#4);" transform="matrix(0.999286,0,0,1.00796,1.04927,0.0178005)"/>
  <path d="M 755.728 0.600708C 773.41 15.9807 755.728 30.5463 755.728 30.5463" id="path634" style="font-size:12;" transform="matrix(0.979192,0,0,1.00533,16.391,0.0981275)"/>
  <path d="M 756.523 4.3204C 768.662 13.9155 756.523 23.0026 756.523 23.0026" id="path640" style="font-size:12;fill:url(#5);" transform="matrix(0.999286,0,0,1.00796,1.04927,0.0178005)"/>
  <path d="M 705.414 7.83826L 755.767 7.83826L 755.767 10.0096L 705.414 10.0096L 705.414 7.83826z" id="path646" style="font-size:12;fill:url(#6);" transform="matrix(0.999286,0,0,1.00796,1.04927,0.0178005)"/>
  <path d="M 58.4151 7.80035L 697.838 7.80035L 697.838 9.97165L 58.4151 9.97165L 58.4151 7.80035z" id="path651" style="font-size:12;fill:url(#7);" transform="matrix(0.999896,0,0,1.00796,0.623266,0.0178005)"/>
  <path d="M 697.821 0.647919L 705.37 0.647919L 705.37 30.5818L 697.821 30.5818L 697.821 0.647919z" id="path652" style="font-size:12;fill:#f4f4f4;" transform="matrix(0.999286,0,0,1.00796,1.04927,0.0178005)"/>
  <path d="M 697.821 0.710419L 705.37 0.710419L 705.37 8.34998L 697.821 8.34998L 697.821 0.710419z" id="path657" style="font-size:12;fill:url(#8);" transform="matrix(0.999286,0,0,1.00796,1.04927,0.0178005)"/>
  <path d="M 697.821 30.5375L 705.37 30.5375L 705.37 22.7729L 697.821 22.7729L 697.821 30.5375z" id="path662" style="font-size:12;fill:url(#9);" transform="matrix(0.999286,0,0,1.00796,1.04927,0.0178005)"/>
  <path d="M 58.2022 0.587341L 0.323654 15.6113L 58.2473 30.5125" id="path664" style="font-size:12;fill:#bba075;" transform="matrix(0.997939,0,0,1.01059,1.04971,0.0162553)"/>
  <path d="M 58.1579 0.618591C 58.1579 0.618591 59.9273 0.681305 59.9273 0.681305C 59.9273 0.681305 56.3884 1.05762 59.9273 3.37796C 63.4663 5.69833 58.3348 7.14072 58.4233 9.21027C 58.5117 11.2798 61.7853 11.2798 63.1124 14.5408C 64.4395 17.8019 58.8657 17.4256 58.9541 20.3731C 59.0426 23.3206 62.9354 22.6935 63.2008 24.4495C 63.4663 26.2054 59.308 28.024 58.8657 29.0275C 58.4233 30.0309 61.1659 29.5919 61.6968 30.4071C 59.7504 30.5953 58.1579 30.4071 58.1579 30.4071C 58.1579 30.4071 58.1579 0.618591 58.1579 0.618591" id="path665" style="font-size:12;fill:#bba075;" transform="matrix(1.01444,0,0,1.01061,0.0901369,0.0161656)"/>
  <path d="M 48.344 11.8061C 38.3362 12.2436 29.2028 12.2436 23.4702 11.6811C 23.3731 12.4311 23.1787 12.6186 23.2759 12.8686C 23.3731 13.1186 46.1894 13.3866 60.5866 11.6186C 60.1306 11.2098 59.4206 10.8686 59.4206 10.8686" id="path674" style="font-size:12;fill:#b99263;" transform="matrix(1.01812,0,0,1.00796,-0.169737,0.0178005)"/>
  <path d="M 47.4238 10.0092 C 37.416 10.4467 29.2028 12.2436 23.4702 11.6811 C 23.3731 12.4311 23.7155 12.9311 23.8127 13.1811 C 23.9099 13.4311 47.3396 9.55846 59.6665 11.9311 C 60.2073 11.4442 60.5708 11.3374 61.1075 11.0249 " id="path772" sodipodi:nodetypes="ccccc" style="font-size:12;fill:#b99263;" transform="matrix(1.01812,0,0,1.00796,1.54779,5.84504)"/>
  <path d="M 47.4238 10.0092 C 37.416 10.4467 29.2028 12.2436 23.4702 11.6811 C 23.3731 12.4311 23.4096 12.966 23.5068 13.216 C 23.604 13.466 48.8971 9.97864 61.224 12.3513 C 61.6063 11.7629 59.101 11.1463 59.6377 10.8338 " id="path773" sodipodi:nodetypes="ccccc" style="font-size:12;fill:#b99263;" transform="matrix(1.01539,0.0751172,-0.0478889,0.658618,2.39916,11.6001)"/>
  <path d="M 47.7762 11.127 C 37.7684 11.5645 29.2028 12.2436 23.4702 11.6811 C 23.3731 12.4311 23.4096 12.966 23.5068 13.216 C 23.604 13.466 46.2491 11.3867 58.576 13.7593 C 58.9583 13.1709 59.4659 12.3818 60.2299 11.2854 " id="path774" sodipodi:nodetypes="ccccc" style="font-size:12;fill:#b99263;" transform="matrix(1.00442,0.167991,-0.107099,0.651492,3.488,9.52057)"/>
  <g id="g666" style="font-size:12;" transform="matrix(0.987148,0,0,0.983635,1.04927,0.395588)">
    <path d="M 25.3809 9.05847C 25.3809 9.05847 23.3447 9.8447 23.1251 12.8325C 22.9054 15.8203 24.8825 17.3929 25.5415 18.6508C 26.2005 19.9088 24.9416 22.0106 24.9416 22.0106C 24.9416 22.0106 0 15.6056 0 15.6056" id="path667" style="stroke:none; fill:#3b3735"/>
    <defs id="defs668">
      <linearGradient gradientUnits="userSpaceOnUse" id="10" x1="12.1837" x2="12.1837" y1="10.8598" y2="16.1237">
        <stop id="stop670" offset="0" style="stop-color:#b4a09c"/>
        <stop id="stop671" offset="1" style="stop-color:#3b3735"/>
      </linearGradient>
    </defs>
    <path d="M 0.684273 15.6492C 0.684273 15.6492 23.6832 10.8598 23.6832 10.8598C 23.6832 10.8598 22.4149 13.7534 23.6694 15.7489C 19.4878 16.6469 0.684273 15.6492 0.684273 15.6492" id="path672" style="stroke:none; fill:url(#10)"/>
  </g>
  <path d="M 61.0567 4.15533C 51.4973 4.07462 34.3245 6.73846 34.3245 6.73846C 34.3245 6.73846 36.7645 6.61047 46.3263 6.39249" id="path673" style="font-size:12;fill:#b98f5d;" transform="matrix(0.999286,0,0,1.00796,1.04927,0.0178005)"/>
  <text id="text675" style="font-size:14;fill:#efefef;font-family:Helvetica;" transform="scale(0.999286,1.13353)" x="723.101990" y="18.893864">
2H</text>
  <text id="text677" style="font-size:14;fill:#efefef;font-family:Helvetica;" transform="scale(0.999286,0.469783)" x="722.846008" y="14.381056">
2H</text>
  <text id="text679" style="font-size:14;fill:#cbcbcb;font-family:Helvetica;" transform="scale(0.999286,0.469783)" x="722.820007" y="62.156219">
2H</text>
  <metadata>
    <rdf:RDF>
      <cc:Work>
        <dc:format>image/svg+xml</dc:format>
        <dc:type rdf:resource="http://purl.org/dc/dcmitype/StillImage"/>
        <cc:license rdf:resource="http://creativecommons.org/licenses/publicdomain/"/>
        <dc:publisher>
          <cc:Agent rdf:about="http://openclipart.org/">
            <dc:title>Open Clip Art Library</dc:title>
          </cc:Agent>
        </dc:publisher>
        <dc:title>mars Lumagraph drawing pencil</dc:title>
        <dc:date>2008-02-06T05:11:45</dc:date>
        <dc:description/>
        <dc:source>http://openclipart.org/detail/12957/mars-lumagraph-drawing-pencil-by-anonymous-12957</dc:source>
        <dc:creator>
          <cc:Agent>
            <dc:title>Anonymous</dc:title>
          </cc:Agent>
        </dc:creator>
        <dc:subject>
          <rdf:Bag>
            <rdf:li>media</rdf:li>
            <rdf:li>clip art</rdf:li>
            <rdf:li>public domain</rdf:li>
            <rdf:li>image</rdf:li>
            <rdf:li>png</rdf:li>
            <rdf:li>svg</rdf:li>
            <rdf:li>drawing</rdf:li>
            <rdf:li>office</rdf:li>
            <rdf:li>pencil</rdf:li>
            <rdf:li>drawing</rdf:li>
            <rdf:li>office</rdf:li>
            <rdf:li>pencil</rdf:li>
          </rdf:Bag>
        </dc:subject>
      </cc:Work>
      <cc:License rdf:about="http://creativecommons.org/licenses/publicdomain/">
        <cc:permits rdf:resource="http://creativecommons.org/ns#Reproduction"/>
        <cc:permits rdf:resource="http://creativecommons.org/ns#Distribution"/>
        <cc:permits rdf:resource="http://creativecommons.org/ns#DerivativeWorks"/>
      </cc:License>
    </rdf:RDF>
  </metadata>
</svg>
