<?xml version="1.0" encoding="UTF-8" standalone="no"?>
<svg
   xmlns:dc="http://purl.org/dc/elements/1.1/"
   xmlns:cc="http://creativecommons.org/ns#"
   xmlns:rdf="http://www.w3.org/1999/02/22-rdf-syntax-ns#"
   xmlns:svg="http://www.w3.org/2000/svg"
   xmlns="http://www.w3.org/2000/svg"
   xmlns:sodipodi="http://sodipodi.sourceforge.net/DTD/sodipodi-0.dtd"
   xmlns:inkscape="http://www.inkscape.org/namespaces/inkscape"
   version="1.1"
   x="0px"
   y="0px"
   width="256"
   height="256"
   viewBox="5 -10 256 345.6"
   enable-background="new 0 0 100 100"
   xml:space="preserve"
   id="svg3262"
   inkscape:version="0.48.5 r10040"
   sodipodi:docname="noun_17516_cc.svg"><metadata
     id="metadata3421"><rdf:RDF><cc:Work
         rdf:about=""><dc:format>image/svg+xml</dc:format><dc:type
           rdf:resource="http://purl.org/dc/dcmitype/StillImage" /></cc:Work></rdf:RDF></metadata><defs
     id="defs3419" /><sodipodi:namedview
     pagecolor="#ffffff"
     bordercolor="#666666"
     borderopacity="1"
     objecttolerance="10"
     gridtolerance="10"
     guidetolerance="10"
     inkscape:pageopacity="0"
     inkscape:pageshadow="2"
     inkscape:window-width="1680"
     inkscape:window-height="984"
     id="namedview3417"
     showgrid="false"
     inkscape:zoom="1.18"
     inkscape:cx="-181.68061"
     inkscape:cy="-5.4912016"
     inkscape:window-x="0"
     inkscape:window-y="27"
     inkscape:window-maximized="1"
     inkscape:current-layer="svg3262" /><g
     id="Captions"
     transform="translate(0,210.6)" /><g
     id="Your_Icon"
     display="none"
     style="display:none"
     transform="translate(0,210.6)"><path
       display="inline"
       d="m 95,25.581 v 19.542 c 0,1.424 -0.717,2.581 -1.597,2.581 h -0.46 c -0.881,0 -1.596,-1.157 -1.596,-2.581 v -5.692 h -1.34 v 3.855 c 0,0.998 -0.81,1.808 -1.808,1.808 h -0.447 c -0.998,0 -1.809,-0.81 -1.809,-1.808 v -3.695 h -2.536 v 0.646 c 0.014,0.613 0.014,1.182 0,1.706 v 5.578 c 0,0.505 -0.858,0.96 -2.242,1.293 l 0.038,26.301 h 10.451 c 0.839,0 1.519,0.684 1.519,1.521 v 2.318 c 0,0.842 -0.68,1.523 -1.519,1.523 H 7.346 c -0.842,0 -1.525,-0.682 -1.525,-1.523 v -2.318 c 0,-0.838 0.684,-1.521 1.525,-1.521 H 53.6 c 0,0 0,0 5.957,-18.053 3.914,-12.902 0.081,-17.358 -24.01,-16.814 -13.76,0 -17.377,9.972 -17.377,12.832 v 4.004 c 0,0.986 -0.8,1.785 -1.785,1.785 H 14.64 v 5.08 h -0.288 v 1.959 h -0.577 v -1.959 h -0.288 -2.57 v -1.158 h 2.57 v -3.922 h -0.06 -1.76 c -0.988,0 -1.788,-0.799 -1.788,-1.785 V 26.833 c 0,-0.989 0.8,-1.787 1.788,-1.787 h 4.717 c 0.985,0 26.805,9.478 45.529,-0.481 0,-0.013 -0.099,-0.936 0.692,-0.936 h 6.947 4.795 1.13 c 0.005,0 0.007,0.004 0.012,0.004 0.06,-10e-4 0.114,-0.004 0.173,-0.004 5.574,0 7.746,0 7.746,1.842 v 5.8 h 1.543 0.993 v -3.804 c 0,-0.998 0.812,-1.807 1.809,-1.807 H 88.2 c 0.998,0 1.808,0.81 1.808,1.807 v 3.804 h 1.34 v -5.69 C 91.348,24.155 92.063,23 92.944,23 h 0.46 C 94.283,23 95,24.155 95,25.581 z"
       id="path3266"
       inkscape:connector-curvature="0"
       style="fill:#000000;display:inline" /></g><g
     id="Layer_9"
     display="none"
     style="display:none"
     transform="translate(0,210.6)"><path
       display="inline"
       d="m 88.041,75.968 v -1.26 C 87.83,64.559 83.812,61.177 83.812,61.177 H 59.42 c 0,0 -0.951,-0.847 -1.162,-3.383 V 43.206 c 0,0 0.211,-14.164 -12.473,-11.415 0,0 -8.139,1.479 -11.959,1.151 -0.169,-1.159 -0.804,-2.164 -1.714,-2.819 l 0.018,-1.058 c 0,-0.6 -0.601,-0.584 -0.601,-0.584 l 0.01,-1.393 c 0.863,0 1.56,-0.701 1.56,-1.563 0,-0.863 -0.697,-1.562 -1.56,-1.562 h -0.583 -0.591 c -0.144,0 -0.257,-0.021 -0.349,-0.056 0.211,-0.099 0.404,-0.225 0.578,-0.375 3.489,-0.386 16.739,-2.412 16.739,-2.412 1.383,-0.19 2.351,-1.464 2.163,-2.848 -0.188,-1.383 -1.464,-2.353 -2.848,-2.165 -0.079,0.012 -0.155,0.026 -0.23,0.044 v -0.002 l -15.646,3.85 c -0.451,-0.48 -1.086,-0.779 -1.793,-0.779 -1.36,0 -2.459,1.101 -2.459,2.459 0,0.104 0.008,0.205 0.021,0.304 v 6.497 h -1.425 c -0.678,0 -0.529,0.609 -0.529,0.609 v 0.994 c -1.098,0.765 -1.816,2.032 -1.816,3.47 v 16.63 c 0,2.113 1.552,3.86 3.579,4.172 v 1.93 h -1.024 v -0.421 c 0,-0.238 -0.234,-0.428 -0.524,-0.428 -0.288,0 -0.521,0.189 -0.521,0.428 v 2.021 c 0,0.238 0.233,0.429 0.521,0.429 0.29,0 0.524,-0.19 0.524,-0.429 v -0.422 h 1.024 v 1.509 l 0.702,0.812 h 0.303 v 1.395 H 16.187 c 0,0 -4.017,3.382 -4.228,13.531 v 1.26 l -2.325,2.257 v 5.692 H 90.368 V 78.226 L 88.041,75.968 z M 27.888,21.676 c 0,-0.572 0.465,-1.033 1.033,-1.033 0.575,0 1.037,0.461 1.037,1.033 0,0.572 -0.462,1.035 -1.037,1.035 -0.568,-10e-4 -1.033,-0.463 -1.033,-1.035 z m 17.116,36.205 c 0,0 -0.276,3.296 -1.968,3.296 H 28.954 v -1.395 h 0.303 l 0.702,-0.832 v -1.488 h 1.025 v 0.422 c 0,0.238 0.233,0.429 0.521,0.429 0.288,0 0.524,-0.19 0.524,-0.429 v -2.021 c 0,-0.238 -0.236,-0.428 -0.524,-0.428 -0.288,0 -0.521,0.189 -0.521,0.428 v 0.421 h -1.025 v -1.89 c 2.19,-0.161 3.916,-1.983 3.916,-4.212 v -6.764 h 9.373 c 0,0 2.148,-0.029 2.148,2.889 l -0.392,11.574 z"
       id="path3269"
       inkscape:connector-curvature="0"
       style="fill:#000000;display:inline" /></g><g
     id="Layer_11"
     display="none"
     style="display:none"
     transform="translate(0,210.6)"><path
       display="inline"
       d="m 92.882,58.144 v 2.353 c 0,0.161 -0.088,0.308 -0.23,0.382 -0.075,0.04 -7.535,3.954 -17.096,5.022 -3.344,0.374 -6.72,0.563 -10.033,0.563 -1.617,0 -3.219,-0.046 -4.76,-0.136 -4.136,-0.246 -7.914,-0.825 -10.926,-1.674 -5.812,-1.637 -9.728,-2.298 -10.79,-2.461 -0.008,0 -3.821,-0.69 -8.621,-0.719 l -1.355,3.982 C 29.012,65.632 28.847,65.75 28.66,65.75 L 8.31,65.746 c -0.239,0 -0.435,-0.195 -0.435,-0.435 v -8.204 c 0,-0.193 0.127,-0.362 0.312,-0.418 0.183,-0.052 0.383,0.022 0.487,0.183 L 8.658,56.861 c 0.038,0.057 1.027,1.614 3.952,1.781 2.704,0.161 12.021,-0.133 12.021,-0.133 2.216,0 9.509,-0.046 14.744,0.87 1.13,0.17 5.212,0.845 11.271,2.555 3.942,1.111 9.073,1.699 14.837,1.699 3.206,0 6.484,-0.186 9.744,-0.548 8.416,-0.939 15.94,-4.818 16.795,-5.247 l 0.213,-0.073 c 0.132,-0.068 0.302,-0.065 0.431,0.014 0.13,0.077 0.216,0.213 0.216,0.365 z M 13.881,57.776 c 0,0 4.432,0.111 11.47,-0.124 0,0 2.877,-0.059 6.927,0.191 2.229,0.113 4.59,0.31 6.674,0.648 3.071,0.413 6.269,1.027 9.177,1.939 0.798,0.208 1.631,0.43 2.517,0.681 3.926,1.106 9.032,1.695 14.767,1.699 3.132,-0.082 6.318,-0.328 9.394,-0.673 9.253,-1.031 15.825,-4.533 15.825,-4.533 1.005,-0.461 0.861,-1.611 0.861,-1.611 -0.142,-2.652 -1.944,-3.983 -1.944,-3.983 -0.772,-0.957 -4.812,-1.182 -6.64,-0.957 -5.335,0.68 -11.907,-1.093 -11.907,-1.093 -3.02,-0.611 -8.3,-3.916 -11.891,-6.349 l -2.804,2.804 C 56.222,46.5 56.112,46.542 56,46.542 c -0.109,0 -0.223,-0.042 -0.307,-0.127 -0.17,-0.169 -0.17,-0.444 0,-0.614 l 2.688,-2.689 c -1.814,-1.247 -3.056,-2.168 -3.056,-2.168 -0.002,-0.002 -0.006,-0.003 -0.008,-0.005 l -3.234,3.235 c -0.085,0.085 -0.195,0.128 -0.308,0.128 -0.113,0 -0.223,-0.042 -0.308,-0.128 -0.17,-0.17 -0.17,-0.444 0,-0.614 l 3.137,-3.135 C 53.546,39.66 52.518,38.98 51.526,38.374 l -3.5,3.501 c -0.085,0.084 -0.195,0.127 -0.308,0.127 -0.113,0 -0.223,-0.042 -0.308,-0.127 -0.169,-0.17 -0.169,-0.445 0,-0.615 l 3.35,-3.348 c -6.372,-3.713 -11.008,-4.286 -11.008,-4.286 -0.905,-0.331 -1.089,0.36 -1.089,0.36 l 0.011,1.121 c -2.021,0.755 -7.055,1.494 -12.138,1.968 -6.566,0.611 -13.234,-1.176 -15.626,-1.56 -0.736,-0.117 -0.998,0.536 -0.998,0.536 l -0.621,1.464 c 0,0 -3.081,8.128 -1.91,13.742 0,0 0.044,0.79 0.305,2.007 0.26,1.222 1.058,4.751 6.195,4.512 z"
       id="path3272"
       inkscape:connector-curvature="0"
       style="fill:#000000;display:inline" /></g><g
     id="Layer_12"
     display="none"
     style="display:none"
     transform="translate(0,210.6)"><path
       display="inline"
       d="m 92.62,62.555 v 2.337 c 0,0.161 -0.088,0.307 -0.229,0.381 -0.074,0.04 -7.49,3.93 -16.994,4.992 -3.324,0.371 -6.681,0.561 -9.975,0.561 -1.606,0 -3.198,-0.045 -4.729,-0.135 -4.112,-0.245 -7.868,-0.819 -10.862,-1.665 -5.778,-1.626 -9.67,-2.283 -10.726,-2.445 -0.009,0 -3.798,-0.687 -8.569,-0.715 l -1.348,3.958 c -0.059,0.175 -0.222,0.295 -0.408,0.295 L 8.55,70.112 c -0.238,0 -0.432,-0.193 -0.432,-0.431 v -8.157 c 0,-0.191 0.126,-0.359 0.31,-0.414 0.182,-0.053 0.381,0.022 0.484,0.18 L 8.896,61.279 c 0.038,0.059 1.021,1.606 3.929,1.772 2.688,0.16 11.949,-0.132 11.949,-0.132 2.203,0 9.454,-0.046 14.657,0.865 1.123,0.169 5.181,0.838 11.205,2.537 3.917,1.105 9.018,1.69 14.749,1.69 3.188,0 6.446,-0.185 9.686,-0.544 8.368,-0.935 15.847,-4.791 16.698,-5.217 l 0.21,-0.072 c 0.132,-0.068 0.301,-0.067 0.428,0.013 0.128,0.079 0.213,0.212 0.213,0.364 z M 14.088,62.188 c 0,0 4.405,0.11 11.401,-0.124 0,0 2.86,-0.057 6.887,0.191 2.215,0.112 4.564,0.309 6.634,0.645 3.053,0.412 6.232,1.021 9.123,1.929 0.795,0.206 1.622,0.427 2.503,0.677 3.902,1.1 8.977,1.685 14.679,1.688 3.113,-0.08 6.281,-0.324 9.337,-0.667 C 83.85,65.5 90.384,62.02 90.384,62.02 91.383,61.561 91.241,60.417 91.241,60.417 91.099,57.781 89.307,56.458 89.307,56.458 88.538,55.506 84.525,55.283 82.705,55.506 77.403,56.183 70.87,54.42 70.87,54.42 67.867,53.813 62.619,50.527 59.048,48.108 l -0.004,0.003 c -0.026,-0.02 -0.036,-0.045 -0.064,-0.063 -0.605,-0.396 -1.377,-1.082 -2.231,-1.927 l -2.991,1.704 c -0.103,0.059 -0.219,0.071 -0.327,0.042 -0.105,-0.029 -0.201,-0.099 -0.261,-0.203 -0.118,-0.207 -0.046,-0.472 0.162,-0.59 l 2.781,-1.585 C 55.318,44.668 54.457,43.717 53.573,42.7 L 50.3,44.567 c -0.104,0.059 -0.221,0.07 -0.329,0.042 -0.106,-0.031 -0.2,-0.101 -0.26,-0.203 -0.117,-0.208 -0.045,-0.471 0.161,-0.589 l 3.126,-1.781 c -0.781,-0.911 -1.57,-1.857 -2.347,-2.81 l -3.635,2.067 c -0.104,0.06 -0.221,0.07 -0.329,0.042 -0.106,-0.03 -0.2,-0.099 -0.26,-0.204 -0.118,-0.207 -0.045,-0.471 0.162,-0.589 l 3.507,-1.997 C 46.845,34.522 43.979,30.633 43.521,29.873 42.692,28.49 37.716,29.552 36.804,29.757 v -0.002 c -0.004,0.002 -6.185,1.921 -11.14,1.921 -6.729,0 -11.915,-0.061 -14.293,-0.441 -0.731,-0.117 -1.207,0.532 -1.207,0.532 l -0.402,1.456 c 0,0 -3.297,16.906 -2.133,22.485 0,0 0.044,0.786 0.303,1.994 0.256,1.215 1.048,4.724 6.156,4.486 z"
       id="path3275"
       inkscape:connector-curvature="0"
       style="fill:#000000;display:inline" /></g><g
     id="Your_Icon_copy"
     display="none"
     style="display:none"
     transform="translate(0,210.6)"><path
       display="inline"
       d="M 96.11,56.706 C 95.745,53.879 93.707,52.594 93.707,52.594 92.801,51.631 88.454,51.719 86.516,52.104 80.852,53.263 73.669,51.89 73.669,51.89 68.356,51.224 56.598,41.662 56.598,41.662 47.403,34.93 43.325,33.601 43.325,33.601 c -0.997,-0.282 -1.139,0.475 -1.139,0.475 l -2.161,18.43 0.277,0.125 c 0.911,0.248 1.697,0.831 2.235,1.618 0.017,0.025 0.035,0.049 0.051,0.074 0.02,0.029 0.037,0.06 0.057,0.088 0.367,0.584 0.599,1.271 0.645,2.007 0.009,0.109 0.014,0.22 0.014,0.331 0.006,2.054 -1.354,3.771 -3.162,4.174 l -0.479,2.297 c 0.015,0.122 0.03,0.24 0.052,0.354 0.67,0.049 5.069,0.398 11.955,1.797 7.49,1.513 17.729,1.019 27.049,-0.733 9.835,-1.852 16.601,-6.134 16.601,-6.134 1.038,-0.574 0.79,-1.798 0.79,-1.798 z M 43.975,44.068 c -0.483,0 -0.872,-0.39 -0.872,-0.872 0,-0.48 0.389,-0.87 0.872,-0.87 0.481,0 0.87,0.39 0.87,0.87 0,0.483 -0.388,0.872 -0.87,0.872 z m 1.713,14.136 c -0.483,0 -0.872,-0.39 -0.872,-0.87 0,-0.481 0.389,-0.871 0.872,-0.871 0.481,0 0.871,0.39 0.871,0.871 -10e-4,0.48 -0.391,0.87 -0.871,0.87 z m 20.854,5.384 c -0.48,0 -0.87,-0.39 -0.87,-0.869 0,-0.484 0.39,-0.872 0.87,-0.872 0.482,0 0.871,0.388 0.871,0.872 0,0.479 -0.389,0.869 -0.871,0.869 z M 36.671,53.498 c -0.212,0.007 -0.421,0.033 -0.621,0.077 L 35.918,53.101 28.47,42.71 26.392,40.219 24.022,40.856 C 18.263,42.862 9.835,43.056 7.237,42.972 6.43,42.946 6.24,43.678 6.24,43.678 L 5.78,45.32 c 0,0 -2.192,9.089 -0.184,14.911 0,0 0.156,0.835 0.597,2.099 0.439,1.266 1.764,4.926 7.209,3.976 0,0 4.741,-0.48 12.21,-1.684 0,0 6.459,-0.887 11.218,-0.98 l 0.604,-3.451 0.241,0.044 v -0.003 c 1.502,-0.405 2.582,-1.797 2.531,-3.419 -0.06,-1.892 -1.642,-3.374 -3.535,-3.315 z m -11.607,-9.03 c -0.48,0.015 -0.883,-0.364 -0.897,-0.845 -0.015,-0.48 0.362,-0.883 0.845,-0.897 0.48,-0.016 0.882,0.362 0.897,0.843 0.015,0.481 -0.363,0.882 -0.845,0.899 z m 8.224,13.881 c -0.481,0.016 -0.884,-0.361 -0.899,-0.845 -0.017,-0.479 0.362,-0.883 0.842,-0.896 0.482,-0.016 0.884,0.36 0.9,0.843 0.015,0.48 -0.363,0.881 -0.843,0.898 z"
       id="path3278"
       inkscape:connector-curvature="0"
       style="display:inline" /></g><g
     id="Layer_20"
     display="none"
     style="display:none"
     transform="translate(0,210.6)"><path
       display="inline"
       d="m 94.453,46.472 c -1.277,-1.099 -4.785,-4.01 -10.347,-1.523 -5.116,2.289 -9.037,3.652 -9.037,3.652 0,0 -6.222,2.887 -14.472,-2.733 L 44.399,33.634 42.5,32.238 c -2.517,-2.091 -2.268,1.128 -2.268,1.128 0.153,7.455 -0.854,13.566 -1.222,15.534 2.373,0.489 4.127,2.609 4.055,5.112 -0.047,1.67 -0.907,3.117 -2.179,4.008 l -0.809,4.962 c 2.462,0.19 4.392,0.612 5.98,1.401 7.645,3.796 12.409,3.93 12.409,3.93 0,0 4.97,1.775 16.885,-6.671 l 19.02,-14.287 c 0,-10e-4 0.56,-0.471 0.082,-0.883 z m -45.435,12.37 c -0.472,0 -0.851,-0.38 -0.851,-0.851 0,-0.471 0.379,-0.852 0.851,-0.852 0.471,0 0.85,0.381 0.85,0.852 0,0.471 -0.38,0.851 -0.85,0.851 z M 40.7,53.7 c -0.194,-1.868 -1.863,-3.225 -3.729,-3.031 -0.209,0.021 -0.417,0.064 -0.613,0.117 L 36.197,50.327 28.09,40.578 25.861,38.262 c 0,0 -16.146,3.534 -18.76,4.076 C 6.327,42.5 6.17,43.111 6.17,43.111 l -0.338,1.658 c 0,0 -1.526,9.14 0.872,14.764 0,0 0.213,0.813 0.735,2.03 0.53,1.224 2.101,4.745 7.421,3.422 0,0 2.893,-0.504 7.695,-1.562 5.094,-0.836 11.459,-1.557 15.025,-0.699 l 0.86,-5.459 h -0.003 l 0.003,-0.024 0.002,0.018 C 39.898,56.751 40.87,55.3 40.7,53.7 z M 15.693,45.71 c -0.471,0 -0.851,-0.381 -0.851,-0.852 0,-0.471 0.38,-0.852 0.851,-0.852 0.471,0 0.851,0.381 0.851,0.852 -0.001,0.471 -0.38,0.852 -0.851,0.852 z m 15.649,9.97 c -0.472,0 -0.852,-0.378 -0.852,-0.851 0,-0.47 0.379,-0.852 0.852,-0.852 0.471,0 0.85,0.382 0.85,0.852 -10e-4,0.473 -0.38,0.851 -0.85,0.851 z"
       id="path3281"
       inkscape:connector-curvature="0"
       style="display:inline" /></g><g
     id="Layer_20_copy"
     display="none"
     style="display:none"
     transform="translate(0,210.6)"><path
       display="inline"
       d="m 94.453,46.472 c -1.277,-1.099 -4.785,-4.01 -10.347,-1.523 -5.116,2.289 -9.037,3.652 -9.037,3.652 0,0 -6.222,2.887 -14.472,-2.733 L 44.399,33.634 42.5,32.238 c -2.517,-2.091 -2.268,1.128 -2.268,1.128 0.153,7.455 -0.854,13.566 -1.222,15.534 2.373,0.489 4.127,2.609 4.055,5.112 -0.047,1.67 -0.907,3.117 -2.179,4.008 l -0.809,4.962 c 2.462,0.19 4.392,0.612 5.98,1.401 7.645,3.796 12.409,3.93 12.409,3.93 0,0 4.97,1.775 16.885,-6.671 l 19.02,-14.287 c 0,-10e-4 0.56,-0.471 0.082,-0.883 z M 40.7,53.7 c -0.194,-1.868 -1.863,-3.225 -3.729,-3.031 -0.209,0.021 -0.417,0.064 -0.613,0.117 L 36.197,50.327 28.09,40.578 25.861,38.262 c 0,0 -16.146,3.534 -18.76,4.076 C 6.327,42.5 6.17,43.111 6.17,43.111 l -0.338,1.658 c 0,0 -1.526,9.14 0.872,14.764 0,0 0.213,0.813 0.735,2.03 0.53,1.224 2.101,4.745 7.421,3.422 0,0 2.893,-0.504 7.695,-1.562 5.094,-0.836 11.459,-1.557 15.025,-0.699 l 0.86,-5.459 h -0.003 l 0.003,-0.024 0.002,0.018 C 39.898,56.751 40.87,55.3 40.7,53.7 z"
       id="path3284"
       inkscape:connector-curvature="0"
       style="display:inline" /></g><g
     id="Your_Icon_copy_2"
     display="none"
     style="display:none"
     transform="translate(0,210.6)"><path
       display="inline"
       d="m 95.318,58.505 c 0,0 -6.766,4.282 -16.601,6.134 -9.32,1.752 -19.559,2.246 -27.049,0.733 -6.886,-1.398 -11.285,-1.748 -11.955,-1.797 -0.021,-0.114 -0.037,-0.232 -0.052,-0.354 l 0.479,-2.297 c 1.809,-0.402 3.168,-2.12 3.162,-4.174 0,-0.111 -0.005,-0.222 -0.014,-0.331 -0.045,-0.736 -0.277,-1.423 -0.645,-2.007 -0.02,-0.028 -0.037,-0.059 -0.057,-0.088 C 42.57,54.299 42.552,54.275 42.535,54.25 41.997,53.463 41.211,52.88 40.3,52.632 l -0.277,-0.125 2.161,-18.43 c 0,0 0.142,-0.757 1.139,-0.475 0,0 4.078,1.329 13.273,8.061 0,0 11.758,9.562 17.071,10.228 0,0 7.183,1.373 12.847,0.214 1.938,-0.385 6.285,-0.473 7.191,0.49 0,0 2.038,1.285 2.403,4.112 0.002,-10e-4 0.25,1.223 -0.79,1.798 z M 36.671,53.498 c -0.212,0.007 -0.421,0.033 -0.621,0.077 L 35.918,53.101 28.47,42.71 26.392,40.219 24.022,40.856 C 18.263,42.862 9.835,43.056 7.237,42.972 6.43,42.946 6.24,43.678 6.24,43.678 L 5.78,45.32 c 0,0 -2.192,9.089 -0.184,14.911 0,0 0.156,0.835 0.597,2.099 0.439,1.266 1.764,4.926 7.209,3.976 0,0 4.741,-0.48 12.21,-1.684 0,0 6.459,-0.887 11.218,-0.98 L 37.597,60.191 38,60.234 v -0.003 c 1,-0.405 2.419,-1.797 2.369,-3.419 -0.06,-1.891 -1.805,-3.373 -3.698,-3.314 z"
       id="path3287"
       inkscape:connector-curvature="0"
       style="display:inline" /></g><g
     id="Layer_5"
     display="none"
     style="display:none"
     transform="translate(0,210.6)"><path
       display="inline"
       d="m 85.617,55.809 c -0.906,-7.248 -8.412,-6.544 -8.412,-6.544 0,0 -3.605,-0.019 -7.364,2.488 -3.757,2.505 -9.827,7.803 -16.448,3.072 0,0 -1.245,-0.79 -0.896,-2.785 0.287,-1.652 5.07,-5.802 14.175,-3.729 0,0 9.289,2.911 13.597,-0.837 L 90.56,36.375 c 0,0 1.646,-1.463 2.707,-1.523 0.181,-0.009 0.345,0.021 0.482,0.105 -0.078,-0.048 -0.137,-0.084 -0.137,-0.084 0,0 0.812,0.471 1.024,-0.337 0.211,-0.811 -1.58,-2.622 -4.817,0.289 l -8.908,8.959 c 0,0 -3.022,4.066 -8.168,2.985 -4.898,-1.027 -14.304,-5.173 -21.54,2.59 l 0.05,-0.176 -31.527,-6.392 c 0,0 -10.122,-1.771 -14.48,1.372 l 38.083,8.476 -37.338,6.118 c 4.054,3.523 14.294,2.678 14.294,2.678 l 30.461,-4.852 c 0.418,0.424 0.757,0.67 0.757,0.67 1.311,1.714 6.669,3.237 6.669,3.237 7.169,9.754 18.896,5.234 18.896,5.234 0,0 9.453,-2.669 8.549,-9.915 z M 46.999,54.21 c -0.612,-0.526 -0.681,-1.448 -0.155,-2.059 0.526,-0.61 1.448,-0.68 2.059,-0.154 0.61,0.526 0.68,1.449 0.155,2.061 -0.526,0.61 -1.449,0.678 -2.059,0.152 z m 31.799,8.569 C 68.584,67.098 62.953,62.331 62.953,62.331 59.641,60.082 60.11,59.102 62.06,58.756 c 1.946,-0.345 5.057,-1.645 7.593,-3.659 2.536,-2.013 3.933,-2.521 3.933,-2.521 7.125,-3.228 9.156,2.074 9.156,2.074 1.97,4.849 -3.944,8.129 -3.944,8.129 z"
       id="path3290"
       inkscape:connector-curvature="0"
       style="display:inline" /></g><g
     id="Layer_13"
     display="none"
     style="display:none"
     transform="translate(0,210.6)"><path
       display="inline"
       d="m 85.295,56.415 c -0.577,-6.954 -7.771,-6.581 -7.771,-6.581 0,0 -3.438,-0.161 -7.126,2.083 -3.685,2.241 -9.689,7.058 -15.819,2.277 0,0 -0.986,-1.107 -0.745,-2.692 0.242,-1.582 5.068,-5.334 13.677,-2.996 0,0 8.748,3.147 13.009,-0.26 L 92.114,37.068 c 0,0 1.628,-1.331 2.645,-1.346 0.174,-0.001 0.328,0.035 0.456,0.12 -0.074,-0.049 -0.128,-0.086 -0.128,-0.086 0,0 0.757,0.481 0.991,-0.282 0.233,-0.766 -1.404,-2.565 -4.609,0.084 l -10.19,9.192 c 0,0 -3.046,3.761 -7.912,2.525 -4.578,-1.16 -13.234,-5.405 -20.396,1.356 L 52.986,48.46 16.372,47.198 c 0,0 -9.813,0.121 -13.351,3.84 l 29.95,1.375 -29.468,0.536 c 3.411,3.834 13.215,4.282 13.215,4.282 l 36.401,-0.316 c 1.661,1.511 5.796,2.878 5.796,2.878 6.456,9.593 17.828,5.744 17.828,5.744 0,0 9.128,-2.173 8.552,-9.122 z M 49.379,53.85 c -0.624,-0.525 -0.701,-1.462 -0.173,-2.086 0.529,-0.624 1.462,-0.701 2.087,-0.171 0.623,0.526 0.699,1.461 0.172,2.085 -0.527,0.624 -1.463,0.702 -2.086,0.172 z m 29.13,8.947 C 68.589,66.513 62.86,61.319 62.86,61.319 61.273,60.37 60.823,58.545 62.696,58.293 c 1.871,-0.253 4.892,-1.371 7.393,-3.19 2.5,-1.819 3.851,-2.252 3.851,-2.252 6.93,-2.797 8.659,2.342 8.659,2.342 1.685,4.706 -4.09,7.604 -4.09,7.604 z"
       id="path3293"
       inkscape:connector-curvature="0"
       style="display:inline" /></g><g
     id="Layer_6"
     display="none"
     style="display:none"
     transform="translate(0,210.6)"><path
       display="inline"
       d="m 76.043,42.034 v 13.901 c 0,0 -2.647,-1.528 -6.221,-1.652 V 51.929 H 68.534 V 54.3 c -1.264,0.084 -2.607,0.374 -3.973,0.963 v -3.981 h -1.289 v 4.559 c -1.741,0.802 -3.105,0.988 -4.021,0.946 0.079,-0.262 0.146,-0.528 0.146,-0.819 V 44.034 c 0,-0.643 -0.227,-1.211 -0.599,-1.725 1.384,0.122 3.122,0.033 5.015,-0.708 4.738,-1.859 11.287,-0.869 12.23,0.433 z m -18.075,1.337 c 0.091,0.21 0.141,0.432 0.141,0.663 v 11.933 c 0,0.21 -0.052,0.408 -0.127,0.602 -0.465,1.192 -2.311,2.063 -4.759,2.689 v -3.18 h -1.287 v 3.476 c -1.473,0.306 -3.094,0.537 -4.733,0.71 V 54.95 h -1.289 v 5.438 c -2.004,0.173 -3.976,0.261 -5.673,0.285 v -3.465 h -1.289 v 3.474 C 37.311,60.677 35.335,60.611 33.28,60.459 v -5.51 h -1.288 v 5.402 c -1.889,-0.174 -3.778,-0.428 -5.484,-0.773 v -3.5 H 25.22 v 3.208 c -2.909,-0.729 -5.006,-1.79 -5.006,-3.319 V 44.034 c 0,-3.731 12.395,-4.716 18.947,-4.716 4.93,0 13.164,0.559 16.94,2.424 10e-4,0 10e-4,0 10e-4,0 0.025,0.012 0.045,0.027 0.067,0.039 0.282,0.143 0.544,0.29 0.771,0.448 0.017,0.011 0.028,0.026 0.046,0.038 0.223,0.159 0.424,0.327 0.585,0.504 0.038,0.041 0.052,0.088 0.087,0.131 0.122,0.153 0.238,0.305 0.31,0.469 z m -23.66,0.663 c 0,0.399 2.173,0.725 4.852,0.725 2.679,0 4.852,-0.325 4.852,-0.725 0,-0.4 -2.172,-0.725 -4.852,-0.725 -2.68,0 -4.852,0.326 -4.852,0.725 z m 21.841,2.201 -0.402,-0.759 c -2.671,1.416 -9.338,2.369 -16.587,2.369 -7.224,0 -13.689,-0.907 -16.474,-2.312 l -0.386,0.77 c 2.896,1.46 9.514,2.402 16.86,2.402 7.492,0 14.161,-0.97 16.989,-2.47 z m 21.104,-3.717 v 13.854 l 2.534,1.683 V 44.2 l -2.534,-1.682 z"
       id="path3296"
       inkscape:connector-curvature="0"
       style="display:inline" /></g><g
     id="Layer_7"
     display="none"
     style="display:none"
     transform="translate(0,210.6)"><path
       display="inline"
       d="M 37.994,67.719 61.13,47.605 V 58.026 L 43.985,72.933 h -4.486 c -0.831,0 -1.505,-0.676 -1.505,-1.505 V 67.719 z M 61.13,28.801 c 0,-0.83 -0.681,-1.506 -1.511,-1.506 H 58.088 L 37.994,44.768 V 54.34 L 61.13,34.226 v -5.425 z m -1.511,44.132 c 0.83,0 1.511,-0.676 1.511,-1.505 v -2.267 l -4.339,3.771 h 2.828 z M 45.26,76.176 h 7.87 v -3.243 h 1.954 L 61.13,67.679 V 59.513 L 45.26,73.31 v 2.866 z M 39.499,27.295 c -0.831,0 -1.505,0.676 -1.505,1.506 v 3.062 l 5.254,-4.568 h -3.749 z m 13.631,0 v -3.471 h -7.87 v 3.471 h -0.307 l -6.959,6.051 v 9.937 L 56.381,27.296 H 53.13 z m 20.343,6.731 c -0.342,0.3 -0.693,0.581 -1.039,0.842 L 71.524,35.73 61.13,44.137 V 46.12 L 37.994,66.234 v -3.36 L 22.759,75.228 37.993,60.461 V 55.824 L 61.13,35.712 v 2.441 l 6.288,-6.035 2.355,-2.052 c 0.048,-0.043 0.085,-0.083 0.129,-0.123 0.052,-0.046 0.105,-0.079 0.159,-0.124 l 1.254,-1.092 0.719,-0.512 c 0,0 3.117,-2.603 4.721,-1.039 0.043,0.042 0.071,0.103 0.105,0.153 0.027,0.024 0.063,0.034 0.084,0.058 0.987,1.127 -0.567,4.098 -3.471,6.639 z m 1.881,-5.29 c -0.435,-0.493 -1.918,0.094 -3.312,1.316 -1.4,1.224 -2.177,2.612 -1.747,3.107 0.436,0.496 1.918,-0.095 3.314,-1.315 1.399,-1.22 2.176,-2.613 1.745,-3.108 z"
       id="path3299"
       inkscape:connector-curvature="0"
       style="fill:#000000;display:inline" /></g><g
     id="Layer_8"
     display="none"
     style="display:none"
     transform="translate(0,210.6)"><g
       display="inline"
       id="g3302"
       style="display:inline"><path
         d="m 93.928,44.49 c -3.945,-6.07 -12.553,-6.879 -12.553,-6.879 -9.439,-0.682 -13.14,5.765 -13.14,5.765 h -5.059 c 0,0 -2.784,0.269 -8.299,-2.189 -6.766,-2.777 -17.786,-11.194 -33.88,-12.68 0,0 -5.524,-0.89 -14.63,0.93 0,0 -2.062,1.194 0.062,1.599 14.262,-1.517 22.859,1.618 27.31,3.136 4.452,1.518 12.645,6.878 12.645,6.878 4.156,2.875 9.884,4.917 9.884,4.917 l 5.593,2.265 0.293,0.146 c -1.027,1.067 -3.804,2.439 -3.804,2.439 -4.946,1.996 -18.828,10.759 -18.828,10.759 l -4.078,2.083 c -9.026,4.425 -14.148,5.006 -14.148,5.006 -2.426,0.909 -12.847,0.606 -12.847,0.606 -2.022,1.111 0,2.123 0,2.123 8.194,0.709 13.151,0 13.151,0 10.401,-1.094 27.206,-10.509 27.206,-10.509 0,0 6.869,-4.376 12.32,-6.075 3.751,-1.169 5.302,-2.483 5.891,-3.152 h 6.17 l -1.216,7.549 0.317,0.355 c 0,0 7.866,0 8.215,0 0.184,0 0.23,-0.271 0.23,-0.271 l -1.243,-8.01 1.416,-0.02 c 0,0 5.322,0.02 10.493,5.266 0,0 0.875,1.116 1.617,0.606 0.87,-0.598 -2.84,-8.064 -12.051,-9.582 L 74.843,47.045 73.097,45.67 c 0,0 1.207,-0.914 1.51,-1.079 2.319,-1.583 5.562,-1.821 5.562,-1.821 0,0 5.841,-0.821 10.135,1.562 l 2.898,1.776 c 2.189,1.272 0.726,-1.618 0.726,-1.618 z M 68.285,43.349 c 0.134,-0.075 0.465,-0.258 0,0 l 0,0 z m 0.616,5.731 c -0.86,0 -1.559,-0.695 -1.559,-1.556 0,-0.861 0.698,-1.557 1.559,-1.557 0.857,0 1.554,0.697 1.554,1.557 0,0.86 -0.696,1.556 -1.554,1.556 z"
         id="path3304"
         inkscape:connector-curvature="0" /></g></g><g
     id="Layer_22"
     display="none"
     style="display:none"
     transform="translate(0,210.6)"><path
       display="inline"
       d="m 5.88,42.624 c 0.029,0.116 0.186,0.178 0.284,0.204 1.538,-0.566 3.905,-0.686 5.632,-0.686 0.837,0 1.404,0.029 1.404,0.029 l 53.913,2.333 c 0.144,0.02 3.032,0.443 3.969,2.321 0.828,1.663 3.574,2.439 3.601,2.448 0.033,0.011 0.386,0.138 0.909,0.393 l 0.462,0.22 -0.462,0.224 c -0.527,0.254 -0.883,0.381 -0.896,0.386 -0.045,0.015 -2.792,0.79 -3.622,2.452 -0.937,1.877 -3.824,2.293 -3.946,2.312 l -53.656,2.264 -0.048,-0.018 c -0.493,-0.191 -1.057,-0.291 -1.631,-0.291 l -0.119,0.002 c -0.789,0.018 -1.354,0.219 -1.677,0.596 -0.27,0.316 -0.397,0.764 -0.381,1.369 0.029,1.256 0.653,1.814 2.028,1.814 l 0.118,-0.002 c 0.506,-0.014 1.006,-0.105 1.482,-0.279 l 0.081,-0.016 59.704,-0.986 c -0.018,0 1.312,-0.293 1.75,-1.516 0.513,-1.439 2.462,-3.432 4.786,-3.432 h 0.103 l 0.717,-0.057 0.069,0.309 c 0.016,0.064 0.032,0.131 0.042,0.201 l 0.164,0.686 c 1.65,4.275 6.367,4.492 7.297,4.492 0.094,0 0.146,-0.004 0.149,-0.004 5.333,-0.033 5.95,-6.855 6.021,-8.336 l -2.683,0.33 c -0.097,0.248 -0.2,0.488 -0.32,0.711 -0.159,0.488 -0.443,0.859 -0.806,1.125 -0.609,0.619 -1.346,0.988 -2.142,0.98 -2.032,-0.023 -3.652,-2.447 -3.616,-5.417 0.032,-2.973 1.709,-5.362 3.742,-5.339 1.428,0.016 2.638,1.23 3.229,2.973 l 2.596,0.32 c -0.029,-0.656 -0.162,-2.372 -0.763,-4.064 -1,-2.819 -2.763,-4.26 -5.239,-4.279 -0.014,0 -0.067,-10e-4 -0.166,-10e-4 -0.93,0 -5.645,0.217 -7.306,4.512 l -0.159,0.677 c -0.006,0.048 -0.021,0.114 -0.039,0.18 l -0.067,0.308 -0.739,-0.058 -0.071,0.002 c -2.326,0 -4.275,-1.994 -4.787,-3.435 -0.442,-1.239 -1.779,-1.521 -1.793,-1.525 L 13.2,39.004 C 9.965,39.27 7.097,41.131 7.07,41.15 5.859,42.11 5.852,42.523 5.88,42.624 z m 74.522,5.798 c 0.869,0 1.574,0.707 1.574,1.577 0,0.872 -0.705,1.577 -1.574,1.577 -0.872,0 -1.579,-0.705 -1.579,-1.577 0,-0.87 0.707,-1.577 1.579,-1.577 z"
       id="path3307"
       inkscape:connector-curvature="0"
       style="display:inline" /></g><g
     id="Layer_10"
     display="none"
     style="display:none"
     transform="translate(0,210.6)"><g
       display="inline"
       id="g3310"
       style="display:inline"><path
         d="m 86.349,81.758 c 0.005,0.218 -0.071,0.428 -0.218,0.586 l -4.819,4.789 c -0.153,0.165 -0.354,0.252 -0.562,0.26 -0.21,0.008 -0.42,-0.064 -0.586,-0.217 L 32.169,34.083 24.787,42.187 c -2.076,2.124 -1.647,5.161 -1.647,5.161 l 0.199,0.746 c 0.058,0.197 0.035,0.409 -0.063,0.588 l -0.661,1.422 c -0.101,0.189 -0.267,0.318 -0.455,0.373 -0.195,0.06 -0.404,0.041 -0.592,-0.062 l -7.51,-4.267 c -0.181,-0.098 -0.317,-0.264 -0.375,-0.458 -0.06,-0.199 -0.034,-0.411 0.064,-0.591 l 1.333,-1.77 c 0.096,-0.18 0.264,-0.319 0.461,-0.375 l 0.906,-0.269 c 0,0 3.387,-0.775 5.814,-7.502 0,0 2.048,-6.133 4.501,-8.844 2.454,-2.709 6.024,-4.383 11.919,-5.196 5.894,-0.814 11.137,-3.207 11.137,-3.207 0,0 3.425,-1.544 6.249,-5.071 l 0.757,-0.257 0.61,0.674 -0.443,2.412 -3.401,3.165 c 0,0 -5.302,4.503 -12.903,7.852 -2.226,0.979 -4.099,2.541 -4.162,2.594 L 86.09,81.19 c 0.157,0.15 0.251,0.35 0.259,0.568 z"
         id="path3312"
         inkscape:connector-curvature="0" /></g></g><g
     id="Layer_23"
     display="none"
     style="display:none"
     transform="translate(0,210.6)"><path
       display="inline"
       d="m 83.096,77.068 0.024,-0.02 -0.205,-0.207 C 82.872,76.792 82.841,76.739 82.795,76.692 82.709,76.6 82.609,76.53 82.518,76.443 L 43.041,36.633 55.824,20.506 48.529,12.108 29.951,23.914 c -0.202,-0.077 -0.416,-0.131 -0.644,-0.14 -1.123,-0.043 -2.068,0.833 -2.111,1.956 -0.009,0.22 0.027,0.43 0.085,0.631 L 13.707,43.55 21.314,51.664 38.673,40.586 74.73,84.113 c 0.028,0.028 0.047,0.062 0.075,0.093 0.003,0.004 0.008,0.006 0.012,0.011 l 0.006,0.008 0.001,-10e-4 c 2.562,2.705 6.412,3.228 8.612,1.157 2.11,-1.983 1.918,-5.614 -0.34,-8.313 z"
       id="path3315"
       inkscape:connector-curvature="0"
       style="display:inline" /></g><g
     id="Layer_24"
     display="none"
     style="display:none"
     transform="translate(0,210.6)"><path
       display="inline"
       d="m 29.19,23.706 c -0.448,-0.443 -1.167,-0.464 -1.629,-0.028 l -1.216,1.143 c -0.466,0.437 -0.49,1.161 -0.067,1.637 l -4.502,4.237 -0.263,1.941 1.557,1.664 -1.938,1.816 -3,-3.188 -1.665,-0.05 -0.853,0.801 c -0.475,0.446 -0.498,1.191 -0.052,1.665 l 10.499,11.16 c 0.447,0.475 1.193,0.497 1.666,0.05 l 0.854,-0.802 0.051,-1.664 -2.995,-3.184 1.942,-1.825 1.606,1.706 1.903,-0.19 4.318,-4.063 45.215,49.973 c 0.15,0.145 0.346,0.211 0.539,0.203 0.191,-0.005 0.378,-0.085 0.52,-0.237 l 4.128,-3.896 c 0.137,-0.146 0.209,-0.339 0.203,-0.542 -0.007,-0.199 -0.094,-0.386 -0.238,-0.521 L 38.843,33.224 c 1.938,-2.003 9.624,-9.268 15.806,-5.517 0,0 0.492,0.312 0.889,-0.024 0.702,-0.592 0.2,-1.243 0.2,-1.243 C 43.644,13.57 32.138,21.321 29.19,23.706 z"
       id="path3318"
       inkscape:connector-curvature="0"
       style="display:inline" /></g><g
     id="Layer_14"
     display="none"
     style="display:none"
     transform="translate(0,210.6)"><path
       display="inline"
       d="m 79.774,65.739 c 0.575,0.674 0.526,1.223 0.526,1.223 V 72.83 H 69.05 c 0,0 -2.017,-0.039 -2.805,-1.47 0,0 -2.072,-3.401 -11.217,-3.095 H 54.21 c -9.145,-0.307 -11.216,3.095 -11.216,3.095 -0.789,1.431 -2.805,1.47 -2.805,1.47 h -11.25 v -5.868 c 0,0 -0.051,-0.549 0.526,-1.223 l 4.24,-4.885 c 0.165,-0.221 0.658,-0.344 0.658,-0.344 l 2.167,-0.648 h 35.496 l 2.847,0.648 c 0,0 0.493,0.123 0.658,0.344 l 4.243,4.885 z M 38.21,27.17 v 1.431 c 0,0 -0.689,0.888 -3.551,0.888 H 32.553 V 30.77 H 15.919 c 0,0 -2.386,-0.08 -10.36,-0.548 l -1.262,-0.1 C 4.264,30.119 4.23,30.116 4.196,30.116 c -0.414,0 -0.75,0.336 -0.75,0.751 0,0.155 0.047,0.3 0.127,0.421 l 0.072,0.105 c 0,0 8.901,14.702 28.531,14.9 l 4.15,0.019 c 3.892,0 7.354,3.325 7.354,7.215 0,2.142 -1.196,4.004 -2.956,4.956 h 27.663 c -1.925,-1.339 -3.184,-3.568 -3.184,-6.087 0,-5.117 4.669,-14.376 21.289,-17.188 l 6.854,-1.529 c 0,0 2.466,-0.295 2.466,-1.825 v -1.232 l 0.74,-0.739 V 27.17 H 38.21 z"
       id="path3321"
       inkscape:connector-curvature="0"
       style="display:inline" /></g><g
     id="Layer_14_copy"
     display="none"
     style="display:none"
     transform="translate(0,210.6)"><path
       display="inline"
       d="m 97,27 v 2.883 l -1,0.739 v 1.232 c 0,1.53 -2.562,1.825 -2.562,1.825 l -6.949,1.529 c -16.62,2.812 -21.294,12.07 -21.294,17.188 0,2.518 1.249,4.747 3.174,6.086 l 6.467,2.028 c 0,0 0.456,0.123 0.621,0.344 l 4.167,4.885 C 80.199,66.413 80,66.962 80,66.962 V 73 H 69.05 c 0,0 -2.017,-0.257 -2.805,-1.688 0,0 -2.072,-3.312 -11.217,-3.312 H 54.21 C 45.065,68 42.994,71.312 42.994,71.312 42.205,72.743 40.189,73 40.189,73 H 29 v -6.038 c 0,0 -0.081,-0.607 0.496,-1.281 l 4.21,-4.943 c 0.165,-0.221 0.658,-0.461 0.658,-0.461 L 40.734,58 h 0.015 c 1.747,0 2.933,-2.575 2.933,-4.707 0,-3.889 -3.463,-6.979 -7.354,-6.979 l -4.15,-0.018 C 12.547,46.098 3.646,31.397 3.646,31.397 L 3.574,31.295 c -0.08,-0.121 -0.127,-0.258 -0.127,-0.414 0,-0.415 0.336,-0.737 0.75,-0.737 0.033,0 0.067,0.032 0.101,0.035 L 5.56,30.336 C 13.533,30.805 15.919,31 15.919,31 H 33 v -2 h 1.659 C 37.521,29 38,28.601 38,28.601 V 27 h 59 z"
       id="path3324"
       inkscape:connector-curvature="0"
       style="display:inline" /></g><g
     id="Layer_15"
     display="none"
     style="display:none"
     transform="translate(0,210.6)"><g
       display="inline"
       id="g3327"
       style="display:inline"><path
         d="m 66.856,54.245 c 0,-0.229 0.001,-0.461 0.003,-0.69 0.371,-3.987 4.125,-5.833 8.338,-5.857 V 28.483 H 29.894 v 20.544 l 3.75,10e-4 c 4.475,0 8.458,2.045 8.458,6.518 0,2.433 -1.343,4.548 -3.326,5.655 H 70.46 c -2.179,-1.544 -3.604,-4.083 -3.604,-6.956 z"
         id="path3329"
         inkscape:connector-curvature="0" /><path
         d="M 29.205,31.151 23.16,31.15 v 1.474 H 12.479 c 0,0 -9.083,-0.035 -9.122,-0.035 -0.478,0 -0.864,0.386 -0.864,0.863 0,0.178 0.054,0.344 0.147,0.482 0,0 4.284,12.589 26.563,12.94 V 31.151 z"
         id="path3331"
         inkscape:connector-curvature="0" /><polygon
         points="92.138,34.361 78.604,28.45 75.886,28.45 75.886,47.697 77.781,47.697 86.463,40.273 92.138,40.273 "
         id="polygon3333" /><path
         d="M 73.023,61.891 H 36.778 l -6.889,4.637 c -0.662,0.775 -0.604,1.406 -0.604,1.406 v 4.787 h 10.422 l 1.604,-1.691 h 27.177 l 1.604,1.691 h 10.424 v -4.787 c 0,0 0.058,-0.631 -0.605,-1.406 l -6.888,-4.637 z"
         id="path3335"
         inkscape:connector-curvature="0" /></g></g><g
     id="Layer_18"
     display="none"
     style="display:none"
     transform="translate(0,210.6)"><path
       display="inline"
       d="M 36.355,46.249 35.838,46.232 C 5.221,43.255 4.173,30.266 4.173,30.266 c 0,0 -0.031,-0.339 -0.031,-0.481 0,-0.379 0.309,-0.686 0.688,-0.686 0.031,0 0.062,0.001 0.093,0.005 l 1.156,0.09 c 7.267,0.985 25.209,0.76 25.209,0.76 l 0.002,-0.998 h 5.143 v -1.22 h 59.425 l 0.002,5.244 c -16.391,0 -28.899,9.331 -28.899,21.132 l 0.926,4.279 H 44.971 l 1.198,-4.148 c 0,-5.703 -6.25,-7.994 -9.814,-7.994 z m 8.183,13.284 -8.106,8.271 v 4.461 h 7.374 c 3.216,-3.219 12.519,-3.311 12.519,-3.311 h 0.173 c 0,0 8.858,-0.352 12.519,3.311 h 7.374 V 67.804 L 68.285,59.533 H 44.538 z"
       id="path3338"
       inkscape:connector-curvature="0"
       style="display:inline" /></g><g
     id="Layer_19"
     display="none"
     style="display:none"
     transform="translate(0,210.6)"><g
       display="inline"
       id="g3341"
       style="display:inline"><path
         d="m 95.912,33.068 c -16.39,0 -28.897,9.329 -28.897,21.13 l 1.028,4.748 8.401,8.573 v 4.458 h -7.373 c -3.659,-3.658 -12.517,-3.31 -12.517,-3.31 h -0.172 c 0,0 -9.302,0.094 -12.518,3.31 H 36.492 V 67.52 l 8.401,-8.573 1.334,-4.615 c 0,-5.705 -6.249,-7.994 -9.812,-7.994 L 35.9,46.319 C 5.285,43.343 4.238,30.355 4.238,30.355 c 0,0 -0.031,-0.338 -0.031,-0.48 0,-0.38 0.308,-0.688 0.688,-0.688 0.032,0 0.062,0.002 0.092,0.007 l 1.156,0.088 c 7.266,0.986 25.207,0.76 25.207,0.76 l 0.002,-0.998 h 5.142 v -1.219 h 59.414 l 0.004,5.243 z"
         id="path3343"
         inkscape:connector-curvature="0" /></g></g><g
     id="Layer_16"
     display="none"
     style="display:none"
     transform="translate(0,210.6)"><path
       display="inline"
       d="m 92.676,34.299 v 5.946 h -5.707 l -8.735,7.469 h -2.513 c -4.273,0 -8.099,2.376 -8.476,6.414 -0.001,0.233 -0.001,-0.058 -0.001,0.173 0,2.891 1.432,5.444 3.623,6.999 l 9.511,4.841 c 0.666,0.78 0.607,1.415 0.607,1.415 v 4.815 H 70.5 l -1.614,-1.702 h -27.34 l -1.614,1.702 H 29.446 v -4.815 c 0,0 -0.058,-0.635 0.607,-1.415 l 8.981,-4.865 h 0.002 c 1.971,-1.121 3.304,-3.234 3.304,-5.663 0,-4.502 -4.008,-6.558 -8.509,-6.558 L 29.71,49.054 29.706,46.895 C 6.994,46.666 2.643,33.87 2.643,33.87 2.549,33.731 2.495,33.564 2.495,33.385 c 0,-0.48 0.389,-0.869 0.869,-0.869 0.04,0 9.176,0.036 9.176,0.036 h 10.745 v -1.484 l 6.546,0.002 v -2.684 l 54.295,0.078 8.55,5.835 z"
       id="path3346"
       inkscape:connector-curvature="0"
       style="display:inline" /></g><g
     id="Layer_25"
     display="none"
     style="display:none"
     transform="translate(0,210.6)"><path
       display="inline"
       clip-rule="evenodd"
       d="m 15.213,31.992 c -0.223,0.724 0.413,2.072 0.643,2.52 L 43.378,49.978 15.943,64.937 c -0.937,1.062 -0.965,2.78 -0.965,2.78 L 49.465,53.565 67.041,66.732 c -3.222,10.11 10.651,15.846 15.902,10.144 6.967,-9.962 -8.862,-16.631 -14.058,-12.748 -1.537,-1.361 -10.74,-8.36 -10.74,-8.36 -0.468,-0.411 -2.131,-3.552 -3.214,-5.655 0.806,-1.591 2.001,-3.934 2.462,-4.688 l 0.158,-0.31 0.036,-0.004 c 0.229,-0.355 0.442,-0.637 0.607,-0.781 0,0 9.29,-7.015 10.843,-8.381 5.239,3.923 21.271,-2.763 14.223,-12.808 -5.301,-5.735 -19.3,0.021 -16.076,10.182 L 49.62,46.391 15.213,31.992 z m 57.433,43.724 c -6.336,-3.727 -3.448,-7.863 -2.935,-8.502 2.268,-3.148 6.261,-1.68 6.261,-1.68 12.406,4.12 5.962,15.191 -3.326,10.182 z m 0.21,-51.417 c 9.387,-5.033 15.9,6.119 3.342,10.248 0,0 -4.037,1.468 -6.319,-1.703 -0.516,-0.643 -3.42,-4.805 2.977,-8.545 z M 49.974,48.416 c 0.848,0 1.538,0.688 1.538,1.537 0,0.849 -0.689,1.537 -1.538,1.537 -0.85,0 -1.538,-0.688 -1.538,-1.537 0,-0.849 0.689,-1.537 1.538,-1.537 z"
       id="path3349"
       inkscape:connector-curvature="0"
       style="fill:#000000;fill-rule:evenodd;display:inline" /></g><g
     id="Layer_26"
     display="none"
     style="display:none"
     transform="translate(0,210.6)"><path
       display="inline"
       d="m 69.503,57.545 c 1.425,-1.073 2.834,-2.292 4.219,-3.677 l -2.181,-2.18 c -1.135,1.132 -2.312,2.171 -3.523,3.117 l -12.6,-23.238 c 2.164,-1.445 3.59,-3.909 3.59,-6.707 0,-3.81 -2.643,-7 -6.193,-7.844 v -3.34 h -4.112 v 3.438 c -3.363,0.971 -5.822,4.071 -5.822,7.747 0,2.734 1.362,5.148 3.444,6.608 L 17.423,84.493 c -0.432,0.797 -0.514,1.264 -0.283,1.816 l 8.023,-6.602 9.328,-16.74 c 2.471,0.778 6.46,1.76 11.282,1.933 0.465,0.018 0.944,0.026 1.437,0.026 5.189,0 11.919,-1.105 18.494,-4.854 l 13.203,24.094 3.943,2.157 0.137,-3.91 L 69.503,57.545 z M 50.942,20.469 c 2.427,0 4.392,1.966 4.392,4.39 0,2.426 -1.965,4.393 -4.392,4.393 -2.425,0 -4.39,-1.967 -4.39,-4.393 0,-2.424 1.966,-4.39 4.39,-4.39 z M 46,61.823 C 41.867,61.685 38.354,60.891 36.03,60.204 L 51.024,33.291 64.23,57.388 C 58.838,60.497 52.628,62.043 46,61.823 z"
       id="path3352"
       inkscape:connector-curvature="0"
       style="display:inline" /></g><g
     id="Layer_27"
     display="none"
     style="display:none"
     transform="translate(0,210.6)"><path
       display="inline"
       d="m 71.03,60.484 h 2.333 V 58.238 H 69.56 L 55.413,31.58 C 57.575,30.134 59,27.671 59,24.875 59,21.068 56.359,17.879 52.81,17.035 V 13.696 H 48.7 v 3.437 c -3.362,0.971 -5.82,4.069 -5.82,7.742 0,2.733 1.362,5.146 3.442,6.604 L 32.179,58.238 h -3.772 v 2.246 h 2.286 L 17.463,84.429 17.46,84.325 c -0.432,0.796 -0.537,1.415 -0.306,1.967 l 8.019,-6.599 10.653,-19.209 h 13.387 v 3.817 h 3.083 V 60.484 H 65.975 L 78.89,84.149 82.828,86.303 82.966,82.396 71.03,60.484 z M 50.938,20.486 c 2.426,0 4.39,1.965 4.39,4.388 0,2.424 -1.964,4.389 -4.39,4.389 -2.423,0 -4.387,-1.965 -4.387,-4.389 0,-2.422 1.965,-4.388 4.387,-4.388 z m 1.343,37.752 v -3.955 h -3.083 v 3.955 H 37.308 L 51.02,33.3 64.492,58.238 H 52.281 z"
       id="path3355"
       inkscape:connector-curvature="0"
       style="display:inline" /></g><g
     id="Layer_28"
     display="none"
     style="display:none"
     transform="translate(0,210.6)"><path
       display="inline"
       d="m 32.943,66.45 -8.803,8.055 -2.965,1.238 1.736,-2.715 10.033,-9.318 v 2.74 z M 77.816,29.212 c -0.212,0.177 -0.441,0.316 -0.683,0.419 l -6.751,3.896 -6.365,4.887 v -2.936 l 4.104,-3.343 -10e-4,-10e-4 0,0 5.544,-6.597 c 0.151,-0.231 0.339,-0.445 0.562,-0.632 1.189,-0.991 2.958,-0.831 3.949,0.358 0.992,1.191 0.831,2.959 -0.359,3.949 z m -0.824,-3.025 c -0.467,-0.533 -1.276,-0.588 -1.811,-0.122 -0.053,0.046 -4.514,5.174 -4.514,5.174 -0.099,0.084 -0.107,0.232 -0.023,0.329 0.086,0.098 0.232,0.107 0.329,0.022 0,0 5.842,-3.544 5.896,-3.593 0.535,-0.466 0.589,-1.276 0.123,-1.81 z M 34.239,32.36 c 0.308,0.348 0.939,0.632 1.404,0.632 h 25.665 c 0.465,0 1.113,-0.269 1.442,-0.598 l 3.456,-3.456 C 66.535,28.609 66.424,28.34 65.96,28.34 H 31.532 c -0.464,0 -0.593,0.285 -0.286,0.633 l 2.993,3.387 z m 28.55,36.252 c -0.308,-0.348 -0.938,-0.633 -1.403,-0.633 h -25.78 c -0.464,0 -1.113,0.269 -1.441,0.598 l -2.879,2.88 c -0.329,0.328 -0.217,0.598 0.247,0.598 h 33.453 c 0.465,0 0.594,-0.285 0.285,-0.634 L 62.789,68.612 z M 62.261,35.844 c 0,-0.506 -0.414,-0.92 -0.921,-0.92 H 35.718 c -0.506,0 -0.92,0.414 -0.92,0.92 l 0,0.432 c 0,0.506 0.414,0.919 0.92,0.919 H 61.34 c 0.507,0 0.921,-0.415 0.921,-0.92 v -0.431 z m 0,16.476 c 0,-0.506 -0.414,-0.919 -0.92,-0.919 H 35.719 c -0.506,0 -0.92,0.413 -0.92,0.919 v 0.431 c 0,0.508 0.414,0.921 0.92,0.921 H 61.34 c 0.507,0 0.921,-0.413 0.921,-0.921 V 52.32 z m 0,4.118 c 0,-0.505 -0.414,-0.919 -0.921,-0.919 H 35.719 c -0.506,0 -0.92,0.414 -0.92,0.919 v 0.433 c 0,0.506 0.414,0.921 0.92,0.921 H 61.34 c 0.507,0 0.921,-0.415 0.921,-0.921 v -0.433 z m 0,4.121 c 0,-0.506 -0.414,-0.921 -0.921,-0.921 H 35.718 c -0.506,0 -0.92,0.415 -0.92,0.921 v 0.432 c 0,0.506 0.414,0.919 0.92,0.919 H 61.34 c 0.507,0 0.921,-0.413 0.921,-0.919 V 60.559 z M 61.34,47.281 35.718,47.282 c -0.506,0 -0.92,0.415 -0.92,0.919 v 0.432 c 0,0.505 0.414,0.92 0.92,0.92 H 61.34 c 0.507,0 0.921,-0.414 0.921,-0.92 L 62.26,48.201 c 0,-0.506 -0.413,-0.92 -0.92,-0.92 z m 0.921,-7.318 c 0,-0.305 -0.152,-0.576 -0.383,-0.743 -0.152,-0.11 -0.336,-0.177 -0.538,-0.177 H 35.718 c -0.506,0 -0.92,0.413 -0.919,0.92 v 0.431 c 0,0.506 0.414,0.92 0.92,0.92 H 61.34 c 0.507,0 0.921,-0.414 0.921,-0.92 V 39.963 z M 61.34,63.757 H 35.719 c -0.506,0 -0.92,0.415 -0.92,0.921 v 0.433 c 0,0.506 0.414,0.92 0.92,0.92 L 61.34,66.03 c 0.507,0 0.92,-0.414 0.92,-0.92 l 0.001,-0.432 c 0,-0.506 -0.414,-0.921 -0.921,-0.921 z m 0.921,-19.675 c 0,-0.506 -0.414,-0.919 -0.921,-0.919 H 35.718 c -0.506,0 -0.92,0.415 -0.92,0.919 v 0.432 c 0,0.506 0.414,0.92 0.92,0.92 L 61.34,45.433 c 0.507,0 0.921,-0.415 0.921,-0.919 v -0.432 z"
       id="path3358"
       inkscape:connector-curvature="0"
       style="display:inline" /></g><g
     id="Layer_29"
     display="none"
     style="display:none"
     transform="translate(0,210.6)"><g
       display="inline"
       id="g3361"
       style="display:inline"><path
         d="m 11.552,78.997 c -0.185,0.353 -0.049,0.79 0.303,0.975 l 5.687,2.982 c 0.353,0.187 0.79,0.05 0.975,-0.304 l 0.962,-1.911 -6.965,-3.653 -0.962,1.911 z"
         id="path3363"
         inkscape:connector-curvature="0" /><path
         d="m 88.449,78.997 -0.962,-1.911 -6.966,3.653 0.962,1.911 c 0.185,0.354 0.622,0.49 0.975,0.304 l 5.687,-2.982 c 0.352,-0.185 0.489,-0.622 0.304,-0.975 z"
         id="path3365"
         inkscape:connector-curvature="0" /><path
         d="m 85.257,72.332 -1.06,0.574 -0.478,-0.882 1.06,-0.574 -1.823,-3.375 -3.1,1.679 -0.478,-0.882 3.1,-1.679 -1.804,-3.338 -1.064,0.577 -0.478,-0.882 1.065,-0.577 -1.823,-3.375 -3.104,1.682 -0.478,-0.882 3.105,-1.682 -1.804,-3.337 -1.07,0.581 -0.478,-0.882 1.071,-0.581 -1.825,-3.375 -3.11,1.685 -0.478,-0.882 3.112,-1.685 -1.804,-3.337 -1.078,0.583 -0.477,-0.882 1.077,-0.583 -1.824,-3.375 -3.116,1.688 -0.478,-0.882 3.117,-1.688 -1.803,-3.337 -1.084,0.586 -0.477,-0.882 1.083,-0.586 -1.821,-3.375 -3.124,1.69 -0.476,-0.882 3.123,-1.69 -1.804,-3.337 -1.09,0.59 -0.478,-0.882 1.091,-0.589 -4.427,-8.191 -1.264,0.683 c -0.798,-2.66 -3.265,-4.599 -6.185,-4.599 -2.895,0 -5.345,1.906 -6.163,4.531 l -1.139,-0.615 -4.424,8.191 1.09,0.589 -0.478,0.882 -1.089,-0.59 -1.804,3.337 3.124,1.69 -0.479,0.882 -3.123,-1.69 -1.824,3.375 1.083,0.586 -0.477,0.882 -1.083,-0.586 -1.804,3.336 3.118,1.689 -0.478,0.882 -3.117,-1.688 -1.825,3.375 1.079,0.583 -0.477,0.882 -1.078,-0.583 -1.804,3.337 3.112,1.685 -0.478,0.882 -3.111,-1.685 -1.825,3.375 1.073,0.581 -0.479,0.882 -1.07,-0.581 -1.804,3.337 3.105,1.682 -0.477,0.882 -3.105,-1.682 -1.824,3.375 1.066,0.577 -0.478,0.882 -1.065,-0.577 -1.804,3.337 3.1,1.68 -0.477,0.882 -3.1,-1.679 -1.824,3.375 1.059,0.574 -0.477,0.882 -1.06,-0.574 -1.745,3.228 6.915,3.738 27.076,-50.095 c 0.864,0.429 1.836,0.671 2.865,0.671 1.076,0 2.089,-0.264 2.981,-0.729 L 80.08,79.298 87,75.56 85.257,72.332 z M 49.999,25.074 c -0.914,0 -1.656,-0.741 -1.656,-1.656 0,-0.915 0.742,-1.656 1.656,-1.656 0.914,0 1.656,0.742 1.656,1.656 -10e-4,0.915 -0.742,1.656 -1.656,1.656 z"
         id="path3367"
         inkscape:connector-curvature="0" /></g></g><g
     id="Layer_30"
     display="none"
     style="display:none"
     transform="translate(0,210.6)"><g
       display="inline"
       id="g3370"
       style="display:inline"><path
         d="M 81.824,18.176 C 80.59,16.939 78.588,16.937 77.35,18.17 c -0.23,0.232 -0.419,0.491 -0.565,0.768 l -6.835,9.258 0,0 10e-4,10e-4 -5.818,5.875 -11.297,-11.303 c -0.33,-0.33 -0.623,-0.219 -0.65,0.245 l -0.28,4.522 c -0.029,0.464 0.217,1.113 0.546,1.442 l 18.185,18.198 c 0.329,0.331 0.98,0.599 1.444,0.599 l 4.901,0.002 c 0.465,0 0.577,-0.27 0.248,-0.598 l -11.287,-11.295 5.877,-5.813 0.007,0.007 9.266,-6.891 c 0.262,-0.142 0.507,-0.32 0.727,-0.54 1.236,-1.231 1.238,-3.234 0.004,-4.471 z m -1.389,3.43 c -0.06,0.059 -0.122,0.106 -0.188,0.153 0.004,0.015 0.007,0.028 0.001,0.034 l -6.182,4.299 c -0.103,0.102 -0.27,0.103 -0.371,-10e-4 -0.103,-0.103 -0.103,-0.27 0.001,-0.373 l 4.507,-5.975 c 0.008,-0.008 0.022,-0.009 0.04,-0.007 0.045,-0.062 0.091,-0.124 0.147,-0.179 0.564,-0.565 1.481,-0.564 2.046,0.002 0.564,0.567 0.563,1.484 -0.001,2.047 z"
         id="path3372"
         inkscape:connector-curvature="0" /><path
         d="m 36.531,44.994 c -0.358,-0.358 -0.946,-0.357 -1.304,10e-4 L 34.921,45.3 c -0.359,0.358 -0.36,0.945 -10e-4,1.304 l 18.154,18.168 c 0.358,0.358 0.945,0.359 1.305,10e-4 l 0.306,-0.307 c 0.359,-0.357 0.358,-0.945 10e-4,-1.304 L 36.531,44.994 z"
         id="path3374"
         inkscape:connector-curvature="0" /><path
         d="m 30.689,50.833 c -0.359,-0.36 -0.945,-0.36 -1.304,-10e-4 l -0.305,0.306 c -0.36,0.36 -0.36,0.945 -0.002,1.305 L 47.233,70.61 c 0.358,0.358 0.945,0.358 1.305,0 l 0.306,-0.305 C 49.204,69.946 49.203,69.361 48.845,69 L 30.689,50.833 z"
         id="path3376"
         inkscape:connector-curvature="0" /><path
         d="m 33.609,47.913 c -0.359,-0.359 -0.945,-0.358 -1.304,0 l -0.306,0.307 c -0.359,0.359 -0.357,0.943 0,1.303 l 18.155,18.169 c 0.358,0.358 0.946,0.358 1.305,-10e-4 l 0.305,-0.305 c 0.359,-0.358 0.36,-0.946 0.002,-1.304 L 33.609,47.913 z"
         id="path3378"
         inkscape:connector-curvature="0" /><path
         d="m 27.615,53.745 c -0.329,-0.329 -0.979,-0.6 -1.444,-0.6 l -4.083,-0.001 c -0.466,-10e-4 -0.577,0.269 -0.248,0.599 l 11.456,11.464 -14.572,14.714 -1.472,2.832 2.816,-1.484 14.723,-14.565 10.753,10.761 c 0.33,0.329 0.623,0.219 0.651,-0.246 l 0.234,-3.752 c 0.029,-0.463 -0.218,-1.113 -0.546,-1.44 L 27.615,53.745 z"
         id="path3380"
         inkscape:connector-curvature="0" /><path
         d="m 51.134,30.401 c -0.358,-0.36 -0.944,-0.36 -1.303,0 l -0.307,0.306 c -0.358,0.358 -0.359,0.945 0,1.304 l 18.155,18.168 c 0.358,0.358 0.946,0.36 1.305,10e-4 l 0.305,-0.306 c 0.36,-0.359 0.36,-0.946 0.002,-1.305 L 51.134,30.401 z"
         id="path3382"
         inkscape:connector-curvature="0" /><path
         d="m 39.452,42.076 c -0.359,-0.359 -0.945,-0.359 -1.304,0 l -0.306,0.306 c -0.358,0.358 -0.359,0.944 0,1.304 l 18.153,18.169 c 0.359,0.359 0.947,0.359 1.306,0.001 l 0.306,-0.306 c 0.359,-0.358 0.359,-0.946 10e-4,-1.305 L 39.452,42.076 z"
         id="path3384"
         inkscape:connector-curvature="0" /><path
         d="m 45.293,36.238 c -0.358,-0.359 -0.945,-0.36 -1.304,-10e-4 l -0.306,0.308 c -0.358,0.357 -0.359,0.945 0,1.303 l 18.155,18.169 c 0.359,0.357 0.945,0.358 1.305,-0.001 l 0.306,-0.305 c 0.359,-0.358 0.358,-0.946 0,-1.305 L 45.293,36.238 z"
         id="path3386"
         inkscape:connector-curvature="0" /><path
         d="M 66.369,51.487 48.214,33.319 c -0.358,-0.359 -0.946,-0.359 -1.304,0 l -0.306,0.305 c -0.359,0.358 -0.359,0.945 -10e-4,1.305 l 18.155,18.167 c 0.357,0.359 0.945,0.359 1.305,0.001 l 0.306,-0.306 c 0.217,-0.218 0.301,-0.517 0.256,-0.799 -0.031,-0.184 -0.113,-0.363 -0.256,-0.505 z"
         id="path3388"
         inkscape:connector-curvature="0" /><path
         d="m 42.372,39.157 c -0.359,-0.358 -0.945,-0.359 -1.303,-10e-4 l -0.306,0.307 c -0.358,0.358 -0.36,0.945 -0.002,1.305 l 18.154,18.168 c 0.358,0.358 0.946,0.357 1.306,0 l 0.306,-0.307 c 0.358,-0.359 0.358,-0.946 10e-4,-1.304 L 42.372,39.157 z"
         id="path3390"
         inkscape:connector-curvature="0" /></g></g><g
     id="Layer_31"
     display="none"
     style="display:none"
     transform="translate(0,210.6)"><path
       display="inline"
       clip-rule="evenodd"
       d="m 39.841,56.57 c 2.939,-2.939 5.975,-5.303 8.672,-6.875 0,0 0.229,-0.133 0.279,-0.162 1.471,-0.854 8.557,-5.09 14.453,-10.837 l 25.922,-25.922 0.005,0.004 c 0.769,-0.665 1.931,-0.632 2.661,0.098 0.73,0.73 0.762,1.892 0.098,2.661 v 10e-4 L 66.008,41.46 c -5.745,5.896 -9.982,12.982 -10.836,14.454 -0.028,0.049 -0.161,0.279 -0.161,0.279 L 55.01,56.191 c -1.573,2.696 -3.937,5.732 -6.875,8.672 -4.482,4.482 -9.194,7.631 -12.577,8.667 l -4.383,-4.383 c 1.035,-3.384 4.184,-8.095 8.666,-12.577 z m -6.5,21.128 -6.326,-6.332 c -2.375,-0.441 -4.911,0.396 -6.473,3.739 -3.566,8.843 -12.948,8.052 -12.948,8.052 0,0 12.968,9.296 23.062,1.281 2.105,-1.67 3.05,-4.267 2.685,-6.74 z"
       id="path3393"
       inkscape:connector-curvature="0"
       style="fill-rule:evenodd;display:inline" /></g><g
     id="Layer_32"
     display="none"
     style="display:none"
     transform="translate(0,210.6)"><path
       display="inline"
       clip-rule="evenodd"
       d="M 40.927,74.846 C 30.088,97.569 8.055,83.845 8.055,83.845 c 0,0 11.092,1.666 11.336,-8.712 0.231,-9.776 9.943,-10.685 11.067,-10.757 l 10.469,10.47 z m -5.372,-15.452 -3.2,2.81 10.42,10.42 2.71,-3.205 c 2.025,0.143 3.936,-0.447 5.31,-1.82 1.625,-1.625 2.151,-4.003 1.667,-6.432 L 91.423,15.09 c 0.696,-0.696 0.696,-1.825 0,-2.521 -0.696,-0.696 -1.823,-0.696 -2.52,0 L 43.464,52.453 c -2.307,-0.368 -4.536,0.183 -6.083,1.73 -1.351,1.351 -1.942,3.222 -1.826,5.211 z"
       id="path3396"
       inkscape:connector-curvature="0"
       style="fill-rule:evenodd;display:inline" /></g><g
     id="Layer_33"
     display="none"
     style="display:none"
     transform="translate(0,210.6)"><path
       display="inline"
       d="m 87,66 v 4 H 11 v -4 h 14.094 c 0,0 3.055,-0.098 7.867,-4.76 1.707,-1.652 3.322,-3.246 4.811,-4.733 l 6.046,-5.827 18.892,-19.685 4.562,5.131 -17.1,18.037 c 3.317,0.675 7.224,2.856 14.485,8.078 0,0 3.364,2.403 6.568,2.564 0,0 0.185,-0.011 0.187,-0.015 0.692,-1.782 2.9,-3.28 1.37,-8.611 -1.01,-3.521 -5.137,-10.444 -5.137,-10.444 0,0 -2.882,-4.295 1.375,-6.176 4.256,-1.88 7.226,-3.124 13.858,-3.732 0,0 0.89,0.406 0,1.297 -0.891,0.891 -6.077,4.681 -3.303,9.584 C 81.47,50.054 85.785,55 85.644,66 H 87 z M 15.717,58.016 c 0,1.757 -0.717,2.98 -0.717,2.98 V 63 h 10 v -2.004 c 0,0 -0.774,-1.224 -0.774,-2.98 0,-1.755 -0.262,-2.134 1.41,-5.287 1.672,-3.151 1.917,-1.981 1.917,-4.489 0,-2.508 -1.507,-6.768 -7.607,-6.768 -6.1,0 -7.605,4.26 -7.605,6.768 0,2.508 0.268,1.338 1.938,4.489 1.67,3.153 1.438,3.532 1.438,5.287 z"
       id="path3399"
       inkscape:connector-curvature="0"
       style="display:inline" /></g><g
     id="Layer_33_copy"
     display="none"
     style="display:none"
     transform="translate(0,210.6)"><g
       display="inline"
       id="g3402"
       style="display:inline"><path
         d="M 85.644,66 C 85.786,55 81.47,50.054 79.577,46.708 c -2.774,-4.903 2.412,-8.694 3.303,-9.584 0.89,-0.891 0,-1.297 0,-1.297 -6.633,0.608 -9.603,1.853 -13.858,3.732 -4.257,1.881 -1.375,6.176 -1.375,6.176 0,0 4.127,6.923 5.137,10.444 1.53,5.331 -0.678,6.829 -1.37,8.611 -0.002,0.004 -0.187,0.015 -0.187,0.015 C 68.023,64.644 64.659,62.241 64.659,62.241 57.397,57.019 53.491,54.838 50.174,54.163 L 67.275,36.126 62.713,30.995 46.813,47.56 c 0.397,-1.998 0.232,-4.074 -0.518,-6.022 -0.852,-2.211 -2.513,-3.959 -4.68,-4.922 -2.165,-0.961 -4.576,-1.023 -6.786,-0.172 -3.73,1.436 -5.599,5.64 -4.163,9.369 1.179,3.063 4.63,4.597 7.692,3.418 1.225,-0.473 2.193,-1.394 2.725,-2.592 0.533,-1.199 0.567,-2.533 0.096,-3.759 -0.391,-1.019 -1.156,-1.823 -2.152,-2.265 -0.996,-0.442 -2.107,-0.471 -3.124,-0.079 -1.758,0.676 -2.639,2.657 -1.962,4.417 0.572,1.484 2.246,2.227 3.729,1.656 -0.249,-0.658 -0.327,-0.814 -0.544,-1.418 -0.704,0.271 -1.497,-0.08 -1.768,-0.785 -0.376,-0.977 0.112,-2.077 1.09,-2.453 0.639,-0.246 1.336,-0.227 1.962,0.05 0.625,0.276 1.106,0.783 1.351,1.422 0.327,0.847 0.303,1.769 -0.065,2.597 -0.368,0.83 -1.037,1.465 -1.883,1.791 -2.28,0.879 -4.851,-0.265 -5.729,-2.545 -1.135,-2.949 0.341,-6.271 3.29,-7.406 1.833,-0.705 3.831,-0.654 5.626,0.144 1.795,0.796 3.172,2.245 3.877,4.078 0.901,2.339 0.836,4.888 -0.182,7.177 -0.18,0.406 -0.393,0.787 -0.623,1.155 l -0.254,0.265 -6.046,5.827 c -1.489,1.487 -3.104,3.081 -4.811,4.733 C 28.149,65.902 25.094,66 25.094,66 H 11 v 4 h 76 v -4 h -1.356 z"
         id="path3404"
         inkscape:connector-curvature="0"
         style="fill:#000000" /><path
         d="m 15.717,58.016 c 0,1.757 -0.717,2.98 -0.717,2.98 V 63 h 10 v -2.004 c 0,0 -0.774,-1.224 -0.774,-2.98 0,-1.755 -0.262,-2.134 1.41,-5.287 1.672,-3.151 1.917,-1.981 1.917,-4.489 0,-2.508 -1.507,-6.768 -7.607,-6.768 -6.1,0 -7.605,4.26 -7.605,6.768 0,2.508 0.268,1.338 1.938,4.489 1.67,3.153 1.438,3.532 1.438,5.287 z"
         id="path3406"
         inkscape:connector-curvature="0"
         style="fill:#000000" /></g></g><g
     id="Layer_35"
     transform="matrix(5.2606352,0,0,5.2606352,-131.85352,-100.2323)"><g
       id="g3409"><path
         clip-rule="evenodd"
         d="m 74.276,39.657 c -0.164,0.165 -1.797,4.411 -7.923,-1.227 -4.249,5.392 -5.882,5.226 -5.882,5.226 l -2.287,2.288 c -0.657,0.49 -1.96,-0.329 -1.96,-0.329 l -26.31,26.304 -5.065,4.083 -0.165,-0.166 3.396,-5.757 26.306,-26.301 c 0,0 -0.816,-1.305 -0.326,-1.96 l 2.291,-2.289 c 0,0 -0.164,-1.626 5.226,-5.876 -5.634,-6.131 -1.384,-7.764 -1.221,-7.925 7.72,-4.355 11.934,0.804 12.443,1.483 0.678,0.506 5.836,4.726 1.477,12.446 z"
         id="path3411"
         inkscape:connector-curvature="0"
         style="fill-rule:evenodd" /></g></g></svg>