<?xml version="1.0" encoding="UTF-8" standalone="no"?>
<!-- Generator: Adobe Illustrator 15.1.0, SVG Export Plug-In . SVG Version: 6.00 Build 0)  -->

<svg
   xmlns:dc="http://purl.org/dc/elements/1.1/"
   xmlns:cc="http://creativecommons.org/ns#"
   xmlns:rdf="http://www.w3.org/1999/02/22-rdf-syntax-ns#"
   xmlns:svg="http://www.w3.org/2000/svg"
   xmlns="http://www.w3.org/2000/svg"
   xmlns:sodipodi="http://sodipodi.sourceforge.net/DTD/sodipodi-0.dtd"
   xmlns:inkscape="http://www.inkscape.org/namespaces/inkscape"
   version="1.1"
   id="Layer_1"
   x="0px"
   y="0px"
   width="256"
   height="256"
   viewBox="0 0 256 255.99999"
   enable-background="new 0 0 100 66.83"
   xml:space="preserve"
   inkscape:version="0.48.5 r10040"
   sodipodi:docname="drill.svg"><metadata
     id="metadata4713"><rdf:RDF><cc:Work
         rdf:about=""><dc:format>image/svg+xml</dc:format><dc:type
           rdf:resource="http://purl.org/dc/dcmitype/StillImage" /></cc:Work></rdf:RDF></metadata><defs
     id="defs4711" /><sodipodi:namedview
     pagecolor="#ffffff"
     bordercolor="#666666"
     borderopacity="1"
     objecttolerance="10"
     gridtolerance="10"
     guidetolerance="10"
     inkscape:pageopacity="0"
     inkscape:pageshadow="2"
     inkscape:window-width="1680"
     inkscape:window-height="984"
     id="namedview4709"
     showgrid="false"
     inkscape:zoom="1.1419775"
     inkscape:cx="-278.64684"
     inkscape:cy="-33.984077"
     inkscape:window-x="0"
     inkscape:window-y="27"
     inkscape:window-maximized="1"
     inkscape:current-layer="Layer_1" /><path
     d="m 227.55528,74.300118 c -1.352,-7.58398 -8.88397,-13.24796 -16.52194,-12.98796 -5.84198,-0.058 -11.69596,-0.144 -17.54994,-0.142 -9.74997,0.002 -19.50193,0.24 -29.2079,1.182 -6.80598,0.98599 -13.66395,-0.988 -20.46993,-0.208 -3.22199,0.364 -6.38998,1.08999 -9.61397,1.71399 -0.05,0.832 -0.10399,2.54599 -0.15399,3.37599 -3.74199,-0.052 -7.42998,0.26 -11.16997,0.364 -0.364,2.18199 -0.78,4.41598 -1.196,6.64998 h -2.02599 c -0.312,-2.182 -0.624,-4.36599 -0.882,-6.54598 -9.55996,-0.78 -19.639927,-1.194 -28.575896,2.64999 -2.597991,1.04 -4.467984,3.11799 -6.389977,5.09198 -0.675998,0.832 -1.869994,0.78 -2.805991,0.832 -16.835941,0.208 -33.719882,-0.26 -50.553822,0.832 -3.117989,0.57199 -3.325989,6.18197 -0.156,6.85797 17.665938,1.194 35.433876,-1.55999 53.045814,0.156 4.311985,3.27399 9.299968,5.76598 14.703949,6.90998 6.909973,0.83199 13.871953,-0.364 20.833923,-0.364 0.52,-2.54599 -0.36399,-6.23398 2.95999,-7.06598 0.26,2.44199 0.624,4.83199 0.936,7.22198 3.73999,0.052 7.48198,0.104 11.16997,0.104 0.208,0.83199 0.51999,2.44199 0.72399,3.22199 4.10599,0.77799 8.26397,1.08999 12.41996,1.40199 0.05,1.558 0.05,3.11799 0.104,4.727982 2.75199,1.61 5.81798,3.01399 8.15597,5.29999 1.196,2.75199 0.104,6.18197 1.506,8.77997 3.63798,2.18399 8.26197,2.23399 12.00195,4.20798 2.128,1.66199 1.662,4.83198 2.128,7.16998 0.41599,8.00197 2.44399,15.79394 3.63798,23.69191 -7.89597,1.196 -15.89794,0.676 -23.84791,1.714 -1.712,0.31 -3.84399,0.208 -5.29798,1.45599 -0.986,1.248 -0.986,2.90999 -0.936,4.41399 -1.714,0.41599 -4.05199,0.36799 -4.83198,2.23599 -1.352,3.22199 -0.882,6.75597 -0.416,10.07796 1.03999,6.90998 0.106,13.97595 1.61199,20.83593 1.66,2.70199 5.09198,3.47999 8.10597,3.84399 10.54397,1.76599 21.24993,0.106 31.89989,0.30999 8.31197,0.052 16.88394,1.456 24.93791,-1.03999 3.22199,-0.724 6.85998,-2.75399 7.11798,-6.33798 0.522,-6.44398 0.26,-12.98795 1.55799,-19.32793 1.198,-4.72598 -0.72599,-9.87197 -4.04998,-13.29795 -2.38799,-3.42799 -7.27598,-2.754 -10.18397,-5.35399 -1.40199,-2.12999 -0.67399,-4.98598 -1.14199,-7.37597 -0.624,-12.05196 -3.37599,-23.94992 -7.79398,-35.22388 -1.03799,-2.75399 -0.77799,-6.701972 2.546,-7.637972 5.87198,-1.248 11.94995,-1.142 17.92393,-2.07799 5.50798,-0.988 11.37996,-3.06599 14.44395,-8.15797 2.03,-4.36399 2.03,-9.45597 1.3,-14.18595 z m -192.961331,3.89798 c 1.089996,0.832 3.219989,-0.26 4.309985,0.882 0.727997,1.03999 0.987996,2.28599 1.351995,3.48199 -3.271988,0.67599 -4.415984,-2.232 -5.66198,-4.36399 z m 11.065961,3.48199 c -0.829997,-1.144 -1.557994,-2.28799 -2.233992,-3.48199 1.661994,0.988 4.831983,-0.832 5.973979,1.194 0.623998,0.88399 1.039996,1.81999 1.507995,2.75399 -1.351996,-0.102 -3.947986,-0.362 -5.247982,-0.466 z m 10.339964,0.052 c -0.831997,-1.298 -1.507995,-2.64999 -2.181992,-3.94799 1.297995,0.104 3.949986,0.364 5.247981,0.468 0.985997,1.09 1.505995,2.54599 2.181993,3.89599 -1.351996,-0.104 -3.949987,-0.312 -5.247982,-0.416 z m 10.389964,0 c -0.829998,-1.298 -1.505995,-2.64999 -2.181993,-3.94799 1.297996,0.104 3.947986,0.364 5.247982,0.468 0.987996,1.09 1.505995,2.54599 2.181992,3.89599 -1.349995,-0.104 -3.947986,-0.312 -5.247981,-0.416 z m 10.391963,0 c -0.831997,-1.298 -1.505995,-2.64999 -2.181992,-3.94799 1.297995,0.104 3.947986,0.364 5.247981,0.468 0.987997,1.09 1.505995,2.54599 2.181993,3.89599 -1.351996,-0.104 -3.947986,-0.312 -5.247982,-0.416 z"
     id="path4707"
     inkscape:connector-curvature="0"
     style="fill:#020202" /></svg>