<?xml version="1.0" encoding="UTF-8" standalone="no"?>
<svg
   xmlns:dc="http://purl.org/dc/elements/1.1/"
   xmlns:cc="http://creativecommons.org/ns#"
   xmlns:rdf="http://www.w3.org/1999/02/22-rdf-syntax-ns#"
   xmlns:svg="http://www.w3.org/2000/svg"
   xmlns="http://www.w3.org/2000/svg"
   xmlns:sodipodi="http://sodipodi.sourceforge.net/DTD/sodipodi-0.dtd"
   xmlns:inkscape="http://www.inkscape.org/namespaces/inkscape"
   version="1.0"
   id="Layer_1"
   x="0px"
   y="0px"
   width="256"
   height="256"
   viewBox="2.5 -5 256 345.6"
   enable-background="new 0 0 50 50"
   xml:space="preserve"
   inkscape:version="0.48.5 r10040"
   sodipodi:docname="noun_36753_cc.svg"><metadata
     id="metadata4660"><rdf:RDF><cc:Work
         rdf:about=""><dc:format>image/svg+xml</dc:format><dc:type
           rdf:resource="http://purl.org/dc/dcmitype/StillImage" /></cc:Work></rdf:RDF></metadata><defs
     id="defs4658" /><sodipodi:namedview
     pagecolor="#ffffff"
     bordercolor="#666666"
     borderopacity="1"
     objecttolerance="10"
     gridtolerance="10"
     guidetolerance="10"
     inkscape:pageopacity="0"
     inkscape:pageshadow="2"
     inkscape:window-width="1680"
     inkscape:window-height="984"
     id="namedview4656"
     showgrid="false"
     inkscape:zoom="0.59"
     inkscape:cx="-790.29031"
     inkscape:cy="-276.07559"
     inkscape:window-x="0"
     inkscape:window-y="27"
     inkscape:window-maximized="1"
     inkscape:current-layer="Layer_1" /><g
     id="g4644"
     transform="matrix(5.8413742,0,0,5.8413742,-15.534355,19.169154)"><circle
       cx="37.296001"
       cy="13.148"
       r="1.303"
       id="circle4646"
       sodipodi:cx="37.296001"
       sodipodi:cy="13.148"
       sodipodi:rx="1.303"
       sodipodi:ry="1.303"
       style="fill:#000000"
       d="m 38.599001,13.148 c 0,0.719627 -0.583373,1.303 -1.303,1.303 -0.719627,0 -1.303,-0.583373 -1.303,-1.303 0,-0.719627 0.583373,-1.303 1.303,-1.303 0.719627,0 1.303,0.583373 1.303,1.303 z" /><path
       d="m 32.986,18.405 m 0,0 c 0,-0.002 0,-0.004 0.004,-0.005 h -0.002 c -0.002,0.001 -0.002,0.003 -0.002,0.005 z M 48.111,4.446 47.537,3.873 43.336,8.076 c 0.258,0.551 -0.189,1.292 -0.902,2.007 -0.824,0.823 -2.053,0.931 -2.549,0.434 -0.498,-0.497 -0.389,-1.725 0.434,-2.547 0.711,-0.711 1.449,-1.159 2,-0.905 L 46.524,2.86 45.952,2.287 37.1,7.429 37.014,7.342 35.4,8.956 l 0.51,0.51 c -0.508,0.193 -0.988,0.489 -1.398,0.898 -0.387,0.39 -0.678,0.84 -0.871,1.319 l -0.328,-0.329 -2.504,2.505 1.264,3.583 c 0.02,-0.014 0.027,-0.023 0.027,-0.028 l 1.988,-1.991 c 0.127,0.178 0.266,0.349 0.424,0.508 0.162,0.16 0.336,0.302 0.516,0.429 l -2.014,2.013 C 33.01,18.372 33,18.384 32.99,18.4 l 3.582,1.26 2.521,-2.523 -0.334,-0.335 c 0.48,-0.191 0.93,-0.481 1.318,-0.87 0.412,-0.41 0.707,-0.889 0.898,-1.398 l 0.518,0.517 1.613,-1.614 -0.139,-0.139 5.144,-8.852 z M 35.684,14.761 c -0.891,-0.891 -0.891,-2.334 0,-3.225 0.891,-0.892 2.334,-0.892 3.225,0 0.891,0.891 0.891,2.334 0,3.225 -0.891,0.891 -2.335,0.89 -3.225,0 z"
       id="path4648"
       inkscape:connector-curvature="0"
       style="fill:#000000" /><path
       d="m 34.432,26.633 c 0,0 3.998,-0.955 4.238,-1.314 0.24,-0.361 -1.234,-4.671 -1.305,-5.346 0,0 -0.324,-0.129 -0.793,-0.313 L 32.988,18.4 c -0.4,0.597 -4.938,11.353 -8.976,15.391 -4.161,4.162 -9.487,5.729 -13.99,11.01 -0.273,0.319 -0.411,1.078 0,1.49 l 2.004,2.002 c 0.412,0.412 1.078,0.412 1.491,0 0,0 9.952,-7.716 13.772,-11.535 3.818,-3.82 7.143,-10.125 7.143,-10.125 z M 30.809,13.859 c -0.174,-0.438 -0.291,-0.735 -0.291,-0.735 -0.674,-0.069 -4.984,-1.543 -5.344,-1.304 -0.361,0.24 -1.315,4.24 -1.315,4.24 0,0 -6.305,3.322 -10.125,7.141 -3.82,3.82 -11.536,13.774 -11.536,13.774 -0.412,0.411 -0.412,1.078 0,1.49 L 4.2,40.468 c 0.412,0.411 1.17,0.274 1.49,0 5.279,-4.502 6.848,-9.828 11.009,-13.989 4.033,-4.034 14.764,-8.593 15.374,-9.036 l -1.264,-3.584 z"
       id="path4650"
       inkscape:connector-curvature="0"
       style="fill:#000000" /></g></svg>