<?xml version="1.0" encoding="UTF-8" standalone="no"?>
<svg
   xmlns:dc="http://purl.org/dc/elements/1.1/"
   xmlns:cc="http://creativecommons.org/ns#"
   xmlns:rdf="http://www.w3.org/1999/02/22-rdf-syntax-ns#"
   xmlns:svg="http://www.w3.org/2000/svg"
   xmlns="http://www.w3.org/2000/svg"
   xmlns:sodipodi="http://sodipodi.sourceforge.net/DTD/sodipodi-0.dtd"
   xmlns:inkscape="http://www.inkscape.org/namespaces/inkscape"
   version="1.1"
   id="Layer_1"
   x="0px"
   y="0px"
   width="256"
   height="256"
   viewBox="5 -10 256 345.6"
   enable-background="new 0 0 100 100"
   xml:space="preserve"
   inkscape:version="0.48.5 r10040"
   sodipodi:docname="noun_29633_cc.svg"><metadata
     id="metadata4114"><rdf:RDF><cc:Work
         rdf:about=""><dc:format>image/svg+xml</dc:format><dc:type
           rdf:resource="http://purl.org/dc/dcmitype/StillImage" /></cc:Work></rdf:RDF></metadata><defs
     id="defs4112" /><sodipodi:namedview
     pagecolor="#ffffff"
     bordercolor="#666666"
     borderopacity="1"
     objecttolerance="10"
     gridtolerance="10"
     guidetolerance="10"
     inkscape:pageopacity="0"
     inkscape:pageshadow="2"
     inkscape:window-width="1680"
     inkscape:window-height="984"
     id="namedview4110"
     showgrid="false"
     inkscape:zoom="1.18"
     inkscape:cx="-288.38992"
     inkscape:cy="-31.548934"
     inkscape:window-x="0"
     inkscape:window-y="27"
     inkscape:window-maximized="1"
     inkscape:current-layer="Layer_1" /><g
     id="g4102"
     transform="matrix(2.9130613,0,0,2.9130613,-10.045875,18.224768)"><path
       d="m 79.736,3.287 -15.078,15.078 4.884,4.883 -1.484,1.486 -4.885,-4.884 -4.67,4.67 4.884,4.883 -1.487,1.488 -4.883,-4.884 -4.669,4.669 4.883,4.884 -1.485,1.486 -4.884,-4.883 -4.67,4.669 4.883,4.884 -1.486,1.486 -4.884,-4.884 -4.67,4.67 4.883,4.884 -1.486,1.486 -4.883,-4.884 -4.67,4.67 4.884,4.884 -1.487,1.486 -4.883,-4.884 -4.67,4.67 4.884,4.884 -1.486,1.486 -4.884,-4.884 -4.669,4.669 4.884,4.885 -1.488,1.486 -4.883,-4.883 -4.669,4.669 4.883,4.883 -1.485,1.486 -4.886,-4.881 -4.671,4.671 4.884,4.884 -1.486,1.486 L 7.768,75.257 2.762,80.262 18.473,95.973 95.448,18.998 79.736,3.287 z m -2.464,18.175 c -1.642,-1.643 -1.641,-4.304 0,-5.944 1.643,-1.643 4.303,-1.643 5.944,-0.001 1.643,1.642 1.643,4.303 0,5.946 -1.64,1.641 -4.301,1.641 -5.944,-0.001 z"
       id="path4104"
       inkscape:connector-curvature="0" /></g></svg>