<?xml version="1.0" encoding="UTF-8" standalone="no"?>
<svg
   xmlns:dc="http://purl.org/dc/elements/1.1/"
   xmlns:cc="http://creativecommons.org/ns#"
   xmlns:rdf="http://www.w3.org/1999/02/22-rdf-syntax-ns#"
   xmlns:svg="http://www.w3.org/2000/svg"
   xmlns="http://www.w3.org/2000/svg"
   xmlns:sodipodi="http://sodipodi.sourceforge.net/DTD/sodipodi-0.dtd"
   xmlns:inkscape="http://www.inkscape.org/namespaces/inkscape"
   version="1.1"
   id="Layer_1"
   x="0px"
   y="0px"
   width="256"
   height="256"
   viewBox="5.398 -35.5 284.1265 380.16"
   enable-background="new 0 -24.5 107.96 110"
   xml:space="preserve"
   inkscape:version="0.48.5 r10040"
   sodipodi:docname="screwdriver.svg"><metadata
     id="metadata5095"><rdf:RDF><cc:Work
         rdf:about=""><dc:format>image/svg+xml</dc:format><dc:type
           rdf:resource="http://purl.org/dc/dcmitype/StillImage" /></cc:Work></rdf:RDF></metadata><defs
     id="defs5093" /><sodipodi:namedview
     pagecolor="#ffffff"
     bordercolor="#666666"
     borderopacity="1"
     objecttolerance="10"
     gridtolerance="10"
     guidetolerance="10"
     inkscape:pageopacity="0"
     inkscape:pageshadow="2"
     inkscape:window-width="1680"
     inkscape:window-height="984"
     id="namedview5091"
     showgrid="false"
     inkscape:zoom="0.59"
     inkscape:cx="-565.33972"
     inkscape:cy="-7.7483068"
     inkscape:window-x="0"
     inkscape:window-y="27"
     inkscape:window-maximized="1"
     inkscape:current-layer="Layer_1" /><path
     d="m 245.70297,12.908226 -68.32222,68.322228 c -6.40286,6.39985 -6.15914,11.517921 -11.21403,16.575821 -5.01878,5.018775 -11.08164,8.385695 -16.45848,11.150835 l -3.61966,-3.61966 c -3.77311,-3.77612 -11.2381,-2.62674 -15.1767,1.31487 l -3.737,3.734 c -3.9386,3.94161 -4.58852,10.90713 -0.81541,14.68024 l 16.74432,16.74432 -102.930158,102.92715 -8.015608,1.84142 -33.1967744,43.08991 13.4315604,13.43457 43.083894,-33.2058 1.874521,-8.13295 102.854935,-102.85494 15.94697,15.94697 c 3.77612,3.7701 11.53899,3.91754 15.4836,-0.0181 l 3.73099,-3.74001 c 3.94161,-3.93559 4.29064,-12.20094 0.52054,-15.97706 l -2.79223,-2.79222 0.11434,-0.11434 c 2.73205,-5.36179 6.111,-11.31934 11.08164,-16.28697 4.97666,-4.97064 10.09774,-4.89241 16.28998,-11.08766 l 68.52683,-68.52979 c 23.67673,-23.673726 -19.7261,-67.079569 -43.40585,-43.402834 z"
     id="path5085"
     inkscape:connector-curvature="0" /></svg>