<?xml version="1.0" encoding="UTF-8" standalone="no"?>
<!-- Created with Inkscape (http://www.inkscape.org/) -->

<svg
   xmlns:dc="http://purl.org/dc/elements/1.1/"
   xmlns:cc="http://creativecommons.org/ns#"
   xmlns:rdf="http://www.w3.org/1999/02/22-rdf-syntax-ns#"
   xmlns:svg="http://www.w3.org/2000/svg"
   xmlns="http://www.w3.org/2000/svg"
   xmlns:sodipodi="http://sodipodi.sourceforge.net/DTD/sodipodi-0.dtd"
   xmlns:inkscape="http://www.inkscape.org/namespaces/inkscape"
   id="svg2"
   sodipodi:docname="space_alien.svg"
   viewBox="0 0 256 256"
   version="1.1"
   inkscape:version="0.48.4 r9939"
   width="100%"
   height="100%">
  <defs
     id="defs6">
    <filter
       id="filter3820"
       height="1.4902"
       width="1.3543"
       y="-0.24507999"
       x="-0.17716999"
       inkscape:collect="always"
       color-interpolation-filters="sRGB">
      <feGaussianBlur
         id="feGaussianBlur3822"
         stdDeviation="10.575135"
         inkscape:collect="always" />
    </filter>
    <filter
       id="filter3835"
       height="1.6287"
       width="1.4147"
       y="-0.31437001"
       x="-0.20736"
       inkscape:collect="always"
       color-interpolation-filters="sRGB">
      <feGaussianBlur
         id="feGaussianBlur3837"
         stdDeviation="26.81104"
         inkscape:collect="always" />
    </filter>
    <filter
       id="filter3835-4"
       width="1.4147"
       y="-0.31437001"
       x="-0.20736"
       height="1.6287"
       color-interpolation-filters="sRGB"
       inkscape:collect="always">
      <feGaussianBlur
         id="feGaussianBlur3837-0"
         stdDeviation="26.81104"
         inkscape:collect="always" />
    </filter>
    <filter
       id="filter3871"
       inkscape:collect="always"
       color-interpolation-filters="sRGB">
      <feGaussianBlur
         id="feGaussianBlur3873"
         stdDeviation="1.0231607"
         inkscape:collect="always" />
    </filter>
    <filter
       id="filter3883"
       inkscape:collect="always"
       color-interpolation-filters="sRGB">
      <feGaussianBlur
         id="feGaussianBlur3885"
         stdDeviation="1.952912"
         inkscape:collect="always" />
    </filter>
  </defs>
  <sodipodi:namedview
     id="namedview4"
     bordercolor="#666666"
     inkscape:pageshadow="2"
     guidetolerance="10"
     pagecolor="#ffffff"
     gridtolerance="10"
     inkscape:window-maximized="1"
     inkscape:zoom="0.90565068"
     objecttolerance="10"
     borderopacity="1"
     inkscape:current-layer="svg2"
     inkscape:cx="-148.48494"
     inkscape:cy="250.33703"
     inkscape:window-y="27"
     inkscape:window-x="0"
     inkscape:window-width="1680"
     showgrid="false"
     inkscape:pageopacity="0"
     inkscape:window-height="984" />
  <g
     id="g3027"
     transform="matrix(0.2437023,0,0,0.2437023,42.400824,190.82469)">
    <path
       id="path3044"
       d="m 137.47083,152.0531 c 33.64121,-1.12862 63.46382,-36.63026 93.4342,-70.78461 C 267.73747,44.70894 252.88645,-17.69596 246.4777,-75.87248 230.33115,-149.0895 86.426534,-144.91007 53.93399,-257.08369 -6.6704066,-520.3694 34.052252,-714.68098 346.98337,-715.7689 c 188.31896,-0.75429 339.22253,108.72854 321.36251,344.01844 1.1609,54.62628 43.35361,70.23883 -175.54496,334.10023 -22.97325,37.83333 -46.88935,66.23529 -73.61592,66.5381 -51.01438,91.0861 32.37922,116.69755 125.99927,137.3227 -22.27245,12.16113 -2.57493,25.3712 -167.05012,33.97665 -114.2044,-11.04693 -249.3694,-19.01231 -240.66604,-48.13321 z"
       sodipodi:nodetypes="ccccccccccc"
       style="fill:#4d4d4d;stroke:#000000;stroke-width:0.9066px"
       inkscape:connector-curvature="0" />
    <path
       id="path3008"
       sodipodi:rx="156.15686"
       sodipodi:ry="100.83672"
       style="fill:#333333"
       sodipodi:type="arc"
       d="m 404.74738,415.57919 c 0,55.69059 -69.91381,100.83673 -156.15686,100.83673 -86.24306,0 -156.156865,-45.14614 -156.156865,-100.83673 0,-55.69058 69.913805,-100.83672 156.156865,-100.83672 86.24305,0 156.15686,45.14614 156.15686,100.83672 z"
       transform="matrix(0.89732548,0.13293476,-0.12935369,0.92219352,54.908585,-774.396)"
       sodipodi:cy="415.57919"
       sodipodi:cx="248.59052" />
    <path
       id="path3008-1"
       sodipodi:rx="156.15686"
       sodipodi:ry="100.83672"
       style="fill:#333333"
       sodipodi:type="arc"
       d="m 404.74738,415.57919 c 0,55.69059 -69.91381,100.83673 -156.15686,100.83673 -86.24306,0 -156.156865,-45.14614 -156.156865,-100.83673 0,-55.69058 69.913805,-100.83672 156.156865,-100.83672 86.24305,0 156.15686,45.14614 156.15686,100.83672 z"
       transform="matrix(-0.60788437,0.12382343,0.11774014,0.64817367,668.23074,-625.26574)"
       sodipodi:cy="415.57919"
       sodipodi:cx="248.59052" />
    <path
       id="path3002"
       d="m 49.459013,-380.21176 c 92.083357,-215.88866 362.639997,-105.94527 365.677107,30.47083 16.05317,-19.07577 27.51985,-42.73713 36.82156,-68.56435 l -6.34856,60.94528 c 49.48223,-39.90853 99.51749,-123.08001 214.57409,-50.77866 23.81638,-415.83929 -715.842292,-376.78296 -610.731088,27.93234 z"
       sodipodi:nodetypes="cccccc"
       style="fill:#00ffff;stroke:#000000;stroke-width:0.9066px"
       inkscape:connector-curvature="0" />
    <path
       id="path3004"
       d="m 144.68737,-443.70096 c 87.79514,-31.97578 178.15597,37.91402 236.16023,102.84471 -14.88637,-142.4178 -163.0792,-161.19348 -236.16023,-102.84471 z"
       sodipodi:nodetypes="ccc"
       style="fill:#00ffff;stroke:#000000;stroke-width:0.9066px"
       inkscape:connector-curvature="0" />
    <path
       id="path3006"
       d="m 88.819958,-390.37474 c -102.509262,172.97928 237.919042,219.20681 272.986322,116.81541 -53.51659,35.73817 -89.92565,30.42549 -126.96933,26.6631 64.38674,-5.68438 95.83669,-27.83262 112.99863,-57.13393 -107.967,56.93448 -276.304484,29.28318 -259.015622,-86.34458 z"
       sodipodi:nodetypes="ccccc"
       style="fill:#00ffff;stroke:#000000;stroke-width:0.9066px"
       inkscape:connector-curvature="0" />
    <path
       id="path3010"
       d="m 474.80763,-334.50099 c 34.26132,-42.1297 78.56233,-70.85351 149.82471,-45.70895 -41.24486,-74.00214 -131.92843,-18.70044 -149.82471,45.70895 z"
       sodipodi:nodetypes="ccc"
       style="fill:#00ffff;stroke:#000000;stroke-width:0.9066px"
       inkscape:connector-curvature="0" />
    <path
       id="path3012"
       d="m 483.70137,-281.17477 c 107.12386,53.74234 203.51357,-17.4312 168.87239,-78.7219 29.58779,8.25306 14.07224,46.84584 -12.83474,91.89298 -24.36216,40.78884 -55.0279,112.52719 -147.15025,22.37852 34.61671,16.0169 59.07043,8.32213 83.80067,1.26969 -61.06948,-5.31077 -73.9287,-21.74662 -92.69079,-36.82156 z"
       sodipodi:nodetypes="ccsccc"
       style="fill:#00ffff;stroke:#000000;stroke-width:0.9066px"
       inkscape:connector-curvature="0" />
    <path
       id="path3014"
       d="m 218.33049,-189.7623 c 179.534,56.24275 11.91816,136.28012 176.48782,182.83403 -45.79781,-61.12207 10.51021,-43.05081 -5.07877,-85.06991 l -24.21257,-4.87089 38.5024,-9.63534 c 2.43893,-6.05935 2.57057,-10.96533 1.23877,-15.13932 l -46.91745,14.08131 c 27.97405,-59.08493 76.71649,-24.13641 27.57968,-148.2291 l 15.23632,2.53939 c 2.55842,12.73229 1.88799,25.75741 11.17747,37.87775 7.00774,-29.15444 1.45491,-79.0945 4.05939,-128.03005 -71.87072,168.26496 -127.71274,112.55439 -90.14868,203.15093 -41.44068,-49.29819 -76.62946,-61.08943 -107.92166,-49.5185 z"
       sodipodi:nodetypes="ccccccccccccc"
       style="fill:#00ffff;stroke:#000000;stroke-width:0.9066px"
       inkscape:connector-curvature="0" />
    <path
       id="path3008-7"
       sodipodi:rx="156.15686"
       sodipodi:ry="100.83672"
       style="opacity:0.74349;fill:#00ffff;filter:url(#filter3835)"
       sodipodi:type="arc"
       d="m 404.74738,415.57919 c 0,55.69059 -69.91381,100.83673 -156.15686,100.83673 -86.24306,0 -156.156865,-45.14614 -156.156865,-100.83673 0,-55.69058 69.913805,-100.83672 156.156865,-100.83672 86.24305,0 156.15686,45.14614 156.15686,100.83672 z"
       transform="matrix(-0.48187603,-0.07138931,0.06946369,-0.49523932,288.0027,-138.40341)"
       sodipodi:cy="415.57919"
       sodipodi:cx="248.59052" />
    <path
       transform="matrix(0.9066,0,0,0.9066,22.795,-727.775)"
       id="path3016"
       d="m 159.28,426.27 c -44.104,-18.879 -57.889,-102.63 39.819,-89.008 -36.202,2.7318 -48.868,19.41 -28.889,55.435 -11.272,9.9198 -12.002,21.596 -10.931,33.573 z"
       sodipodi:nodetypes="cccc"
       style="opacity:0.95166997;fill:#f2f2f2;stroke:#000000;stroke-width:1px;filter:url(#filter3883)"
       inkscape:connector-curvature="0" />
    <path
       id="path3008-7-9"
       sodipodi:rx="156.15686"
       sodipodi:ry="100.83672"
       style="opacity:0.74349;fill:#00ffff;filter:url(#filter3835-4)"
       sodipodi:type="arc"
       d="m 404.74738,415.57919 c 0,55.69059 -69.91381,100.83673 -156.15686,100.83673 -86.24306,0 -156.156865,-45.14614 -156.156865,-100.83673 0,-55.69058 69.913805,-100.83672 156.156865,-100.83672 86.24305,0 156.15686,45.14614 156.15686,100.83672 z"
       transform="matrix(0.36967522,-0.0547668,-0.05328904,-0.37992886,481.67966,-161.02308)"
       sodipodi:cy="415.57919"
       sodipodi:cx="248.59052" />
    <path
       transform="matrix(0.9066,0,0,0.9066,22.795,-727.775)"
       id="path3036"
       d="m 599.57,426.85 c -11.332,-9.6965 -62.911,-21.341 -75.636,16.011 8.4654,13.994 16.931,9.7607 25.396,9.9376 9.7628,-27.606 30.533,-25.334 50.24,-25.948 z"
       sodipodi:nodetypes="cccc"
       style="opacity:0.91078001;fill:#f2f2f2;stroke:#000000;stroke-width:1px;filter:url(#filter3871)"
       inkscape:connector-curvature="0" />
    <path
       id="path3038"
       d="m 440.42936,-344.85436 47.42606,125.29212 -15.57267,25.48271 33.97665,-4.24705 c -13.26628,7.80165 -19.47377,19.83822 -23.35855,33.26859 17.93254,-12.16295 35.86419,-15.49198 53.79673,-18.40398 l -36.80796,28.31402 c -13.01605,100.17024 -42.5005,139.53481 -79.98659,149.35329 30.22967,-55.98164 -7.09923,-43.98279 -13.44942,-79.9866 l 33.97665,-4.95493 -31.14533,-16.28072 c -0.63143,-6.53015 -1.48565,-10.45129 1.41574,-13.44942 l 50.96543,9.20199 c 6.2559,-20.63784 -32.99752,-14.13117 -48.84126,-47.42605 l 2.8314,-33.97665 c 17.25532,-3.35152 22.71486,-33.24412 33.26859,-51.67258 -2.48707,-2.35951 -5.54222,-4.71903 -9.91004,-7.07846 -4.71904,17.06856 -9.43771,22.17725 -14.15656,30.43728 -1.35419,-41.29109 -1.5987,-82.58219 15.57267,-123.87782 z"
       sodipodi:nodetypes="ccccccccccccccccccc"
       style="fill:#00ffff;stroke:#000000;stroke-width:0.9066px"
       inkscape:connector-curvature="0" />
    <path
       id="path3040"
       d="m 274.07732,-59.59267 3.53928,26.89792 -1.41566,5.6628 v 5.66281 l -1.41574,26.89791 -2.83141,3.53928 -1.41574,4.95493 1.41574,7.07846 0.70785,9.20199 -2.8314,35.39276 -4.95494,19.11203 -9.20199,14.15656 c 0,0 -34.6847,33.97665 -37.51601,33.97665 -2.8314,0 -26.89792,16.98878 -26.89792,16.98878 19.85364,-2.25354 18.05948,16.39405 88.48145,-34.68471 11.76494,12.30166 26.56609,21.56802 18.40398,53.79674 26.95775,-15.1511 32.55056,-40.71178 -7.78634,-87.77338 l 1.41566,-15.57267 c 9.15938,-22.43563 2.5499,-33.99206 -4.95493,-47.42606 9.96172,-41.58484 -5.33136,-55.38782 -12.74136,-77.86334 z"
       sodipodi:nodetypes="ccccccccccccsccccccc"
       style="fill:#00ffff;stroke:#000000;stroke-width:0.9066px"
       inkscape:connector-curvature="0" />
    <path
       id="path3042"
       d="m 322.92493,-4.38073 1.41566,8.49421 c -10.51384,33.73096 -22.38668,67.35675 14.86461,104.75763 4.78503,8.34317 8.48795,17.22721 2.12353,31.14534 -28.48537,68.08747 13.55639,50.40696 19.82009,55.91999 -12.16476,-24.83177 -14.657,-49.24289 16.28072,-72.20072 24.25608,63.69591 66.54625,62.77027 113.25247,46.00995 C 376.79492,155.55738 364.8278,56.8921 398.66211,32.43204 l -23.35855,-7.78634 0.70785,26.89792 c -7.68262,14.55365 -10.73233,15.20912 -14.86461,19.11203 -0.18348,29.42371 -3.41226,40.069 -14.86462,0 -4.57144,-22.69038 6.27939,-38.52687 18.40398,-53.79673 z"
       sodipodi:nodetypes="cccccccccccccc"
       style="fill:#00ffff;stroke:#000000;stroke-width:0.9066px"
       inkscape:connector-curvature="0" />
    <path
       id="path3046"
       sodipodi:rx="65.584854"
       sodipodi:ry="52.311729"
       style="opacity:0.84758002;fill:#f9f9f9;filter:url(#filter3820)"
       sodipodi:type="arc"
       d="m 249.84706,388.79382 c 0,28.89097 -29.36334,52.31173 -65.58485,52.31173 -36.22152,0 -65.58486,-23.42076 -65.58486,-52.31173 0,-28.89097 29.36334,-52.31173 65.58486,-52.31173 36.22151,0 65.58485,23.42076 65.58485,52.31173 z"
       transform="matrix(1.2099484,-0.88695398,1.1781267,0.91095168,-443.00701,-787.59519)"
       sodipodi:cy="388.79382"
       sodipodi:cx="184.26221" />
  </g>
  <metadata
     id="metadata33">
    <rdf:RDF>
      <cc:Work>
        <dc:format>image/svg+xml</dc:format>
        <dc:type
           rdf:resource="http://purl.org/dc/dcmitype/StillImage" />
        <cc:license
           rdf:resource="http://creativecommons.org/licenses/publicdomain/" />
        <dc:publisher>
          <cc:Agent
             rdf:about="http://openclipart.org/">
            <dc:title>Openclipart</dc:title>
          </cc:Agent>
        </dc:publisher>
        <dc:title>Angry Alien</dc:title>
        <dc:date>2011-05-22T23:57:10</dc:date>
        <dc:description>angry Alien</dc:description>
        <dc:source>https://openclipart.org/detail/140047/angry-alien-by-marauder</dc:source>
        <dc:creator>
          <cc:Agent>
            <dc:title>marauder</dc:title>
          </cc:Agent>
        </dc:creator>
        <dc:subject>
          <rdf:Bag>
            <rdf:li>alien</rdf:li>
            <rdf:li>angry</rdf:li>
            <rdf:li>cosmic</rdf:li>
            <rdf:li>extraterrestrial</rdf:li>
            <rdf:li>science fiction</rdf:li>
            <rdf:li>space</rdf:li>
          </rdf:Bag>
        </dc:subject>
      </cc:Work>
      <cc:License
         rdf:about="http://creativecommons.org/licenses/publicdomain/">
        <cc:permits
           rdf:resource="http://creativecommons.org/ns#Reproduction" />
        <cc:permits
           rdf:resource="http://creativecommons.org/ns#Distribution" />
        <cc:permits
           rdf:resource="http://creativecommons.org/ns#DerivativeWorks" />
      </cc:License>
    </rdf:RDF>
  </metadata>
</svg>
