<?xml version="1.0" encoding="UTF-8" standalone="no"?>
<!-- Created with Inkscape (http://www.inkscape.org/) -->

<svg
   xmlns:dc="http://purl.org/dc/elements/1.1/"
   xmlns:cc="http://creativecommons.org/ns#"
   xmlns:rdf="http://www.w3.org/1999/02/22-rdf-syntax-ns#"
   xmlns:svg="http://www.w3.org/2000/svg"
   xmlns="http://www.w3.org/2000/svg"
   xmlns:sodipodi="http://sodipodi.sourceforge.net/DTD/sodipodi-0.dtd"
   xmlns:inkscape="http://www.inkscape.org/namespaces/inkscape"
   id="svg10054"
   sodipodi:docname="SpaceShuttle.svg"
   viewBox="0 0 256 256"
   version="1.1"
   inkscape:version="0.48.4 r9939"
   width="100%"
   height="100%">
  <defs
     id="defs3376" />
  <sodipodi:namedview
     id="base"
     bordercolor="#666666"
     inkscape:pageshadow="2"
     inkscape:window-y="27"
     fit-margin-left="0"
     pagecolor="#ffffff"
     fit-margin-top="0"
     inkscape:window-maximized="1"
     inkscape:zoom="1"
     inkscape:window-x="0"
     inkscape:window-height="984"
     showgrid="false"
     borderopacity="1.0"
     inkscape:current-layer="layer1"
     inkscape:cx="148.86733"
     inkscape:cy="204.91608"
     fit-margin-right="0"
     fit-margin-bottom="0"
     inkscape:window-width="1680"
     inkscape:pageopacity="0.0"
     inkscape:document-units="px" />
  <g
     id="layer1"
     inkscape:label="Layer 1"
     inkscape:groupmode="layer"
     transform="translate(-204.13,-440.78)">
    <g
       id="g3378"
       transform="matrix(0.59383119,0,0,0.59383119,84.064978,274.51256)"
       style="fill:#00ffff">
      <path
         inkscape:connector-curvature="0"
         style="color:#000000;fill:#00ffff;fill-opacity:0.99990000999999995"
         d="m 440.74,583.53 c -0.2082,0.13099 -0.55154,0.0387 -1.03,-0.2391 -0.4771,-0.27791 -1.0893,-0.74097 -1.8573,-1.319 -0.76803,-0.57803 -1.6932,-1.2707 -2.7936,-1.9813 -1.1003,-0.71065 -2.3758,-1.4386 -3.8112,-2.0681 -1.3995,-0.61478 -2.959,-1.1383 -4.6233,-1.4917 -1.6629,-0.35346 -3.4265,-0.53603 -5.1983,-0.49621 -2.0904,0.044 -4.2124,0.40689 -6.2049,1.0327 -1.9911,0.6258 -3.8484,1.5123 -5.4603,2.5415 -1.5705,0.9987 -2.9273,2.1385 -4.0621,3.2497 -1.1362,1.1112 -2.0531,2.1924 -2.7977,3.1084 -0.74458,0.91592 -1.321,1.6666 -1.7856,2.1573 -0.46468,0.49069 -0.82181,0.72119 -1.0838,0.63672 -0.26198,-0.0845 -0.43021,-0.48539 -0.44537,-1.2052 -0.0138,-0.71983 0.12409,-1.7604 0.53361,-3.0459 0.40815,-1.2855 1.0893,-2.8161 2.1455,-4.4214 1.0562,-1.6052 2.493,-3.2819 4.331,-4.7872 1.8904,-1.5449 4.1876,-2.8825 6.7247,-3.8022 2.5385,-0.91974 5.3114,-1.4169 8.0581,-1.4115 2.3206,0.007 4.5944,0.36775 6.6764,0.99868 2.0835,0.63095 3.9725,1.5298 5.5844,2.5605 1.6519,1.0584 3.0018,2.2445 4.0538,3.3937 1.0521,1.1492 1.8104,2.2595 2.3275,3.2114 0.51569,0.95183 0.79422,1.7449 0.89626,2.3186 0.0965,0.57371 0.0275,0.92882 -0.17788,1.0598 z"
         id="path9732" />
      <path
         inkscape:connector-curvature="0"
         style="color:#000000;fill:#00ffff;fill-opacity:0.99990000999999995"
         d="m 400.67,585.15 c -0.13788,0.23606 -0.58601,0.28449 -1.3389,0.19735 -0.75424,-0.0871 -1.8104,-0.30754 -3.1466,-0.54186 -1.3361,-0.23432 -2.9563,-0.47998 -4.7998,-0.5871 -1.8449,-0.10713 -3.9146,-0.073 -6.0808,0.24383 -2.202,0.31981 -4.5172,0.93859 -6.7688,1.887 -2.2517,0.9484 -4.4358,2.2252 -6.3676,3.7691 -1.747,1.3924 -3.3051,3.0083 -4.6151,4.7168 -1.3099,1.7084 -2.3716,3.5067 -3.1879,5.2622 -0.83283,1.783 -1.4188,3.5296 -1.8422,5.1126 -0.4247,1.583 -0.68944,3.0026 -0.89351,4.1792 -0.20407,1.1765 -0.34885,2.1114 -0.51708,2.7578 -0.16822,0.64644 -0.36263,1.0054 -0.61083,1.0441 -0.24819,0.0387 -0.55293,-0.24338 -0.87282,-0.86752 -0.3199,-0.62413 -0.65358,-1.5923 -0.89212,-2.8936 -0.23854,-1.3013 -0.37919,-2.9376 -0.27716,-4.8348 0.0965,-1.8972 0.45089,-4.0552 1.1803,-6.3193 0.71839,-2.2279 1.8036,-4.5418 3.2776,-6.7417 1.4726,-2.2 3.3327,-4.2818 5.4961,-6.0543 2.4006,-1.9634 5.1487,-3.5189 7.9809,-4.5711 2.8308,-1.0522 5.7374,-1.6009 8.4524,-1.7099 2.6695,-0.10465 5.128,0.20898 7.2239,0.73182 2.0959,0.52282 3.8277,1.2496 5.1583,1.9735 1.3292,0.72387 2.2586,1.4416 2.8198,2.0133 0.55982,0.57172 0.75286,0.99663 0.62186,1.2327 z"
         id="path9734" />
      <path
         inkscape:connector-curvature="0"
         style="color:#000000;fill:#00ffff;fill-opacity:0.99990000999999995"
         d="m 358.91,616.3 c 0.17787,0.17951 0.11031,0.58745 -0.13789,1.2166 -0.25233,0.62908 -0.69081,1.482 -1.2079,2.5742 -0.51707,1.0922 -1.11,2.4273 -1.6298,3.9954 -0.52121,1.5681 -0.96796,3.371 -1.1734,5.3324 -0.20683,1.9315 -0.17512,4.0326 0.16684,6.1645 0.34334,2.132 0.9983,4.2909 1.9759,6.2962 1.0728,2.2105 2.5564,4.2578 4.2717,5.9855 1.7167,1.7277 3.6581,3.1311 5.6202,4.159 1.929,1.016 3.8925,1.6833 5.692,2.1165 1.7994,0.43321 3.4334,0.63532 4.7915,0.75508 1.3582,0.11968 2.4433,0.16102 3.2031,0.25436 0.75838,0.0933 1.1941,0.24224 1.2672,0.50174 0.0689,0.2595 -0.21785,0.63098 -0.91281,1.0554 -0.69494,0.4244 -1.7966,0.89976 -3.3037,1.2566 -1.5057,0.35687 -3.421,0.59011 -5.634,0.47422 -2.2117,-0.11597 -4.724,-0.58752 -7.2832,-1.6064 -2.5978,-1.0395 -5.2024,-2.6386 -7.4872,-4.7497 -2.2834,-2.1111 -4.2386,-4.7303 -5.6092,-7.627 -1.2368,-2.6268 -1.9787,-5.4346 -2.2434,-8.1654 -0.26474,-2.7308 -0.0552,-5.3793 0.49087,-7.7441 0.55707,-2.4003 1.4464,-4.4831 2.4282,-6.1801 0.98313,-1.697 2.0545,-3.0112 3.0197,-3.9708 0.96521,-0.95967 1.8229,-1.5692 2.4613,-1.8969 0.63841,-0.32773 1.0576,-0.37674 1.2341,-0.19721 z"
         id="path9736" />
      <path
         inkscape:connector-curvature="0"
         style="color:#000000;fill:#00ffff;fill-opacity:0.99990000999999995"
         d="m 385.55,642.97 c 0.22475,0.0869 0.30197,0.53606 0.29231,1.3201 0,0.78406 -0.1103,1.9061 -0.13926,3.3344 -0.0276,1.4283 0,3.1673 0.27302,5.1215 0.27577,1.9542 0.79836,4.1255 1.7387,6.3039 0.90592,2.1131 2.2172,4.249 3.9242,6.184 1.7084,1.935 3.8098,3.6645 6.1787,4.941 2.8336,1.5383 6.1166,2.4197 9.3694,2.6084 1.7043,0.0946 3.4044,0.003 5.0356,-0.26119 1.6312,-0.26348 3.1921,-0.69805 4.6357,-1.2754 1.707,-0.67482 3.2665,-1.5544 4.6509,-2.5263 1.383,-0.97184 2.5909,-2.0353 3.625,-3.0949 1.1362,-1.1679 2.0642,-2.333 2.8225,-3.3966 0.75975,-1.0637 1.3513,-2.0263 1.8298,-2.8197 0.47847,-0.79345 0.84662,-1.4182 1.1486,-1.8293 0.30335,-0.41112 0.54051,-0.60869 0.72804,-0.56603 0.18753,0.0426 0.32265,0.32602 0.37919,0.85612 0.0552,0.53009 0.0275,1.3078 -0.14754,2.3084 -0.17512,1.0007 -0.50328,2.2251 -1.0659,3.6048 -0.56395,1.3797 -1.3665,2.9148 -2.4778,4.484 -1.0093,1.4275 -2.2765,2.8845 -3.825,4.2458 -1.5485,1.3614 -3.3796,2.626 -5.4727,3.6476 -1.7774,0.86094 -3.7202,1.5344 -5.7664,1.9689 -2.0449,0.43453 -4.1918,0.62976 -6.3566,0.55645 -2.0655,-0.0659 -4.1504,-0.37627 -6.1745,-0.93354 -2.0242,-0.55726 -3.9877,-1.3614 -5.816,-2.3924 -3.0266,-1.718 -5.612,-4.0161 -7.6099,-6.5653 -1.998,-2.5492 -3.4072,-5.3424 -4.2566,-8.0583 -0.87006,-2.8037 -1.1431,-5.4803 -1.0755,-7.797 0.0689,-2.3167 0.4702,-4.2756 0.95693,-5.7989 0.48537,-1.5233 1.0507,-2.6162 1.5209,-3.2987 0.47158,-0.68241 0.848,-0.95863 1.0741,-0.87181 z"
         id="path9738" />
      <path
         inkscape:connector-curvature="0"
         style="color:#000000;fill:#00ffff;fill-opacity:0.99990000999999995"
         d="m 399.92,587.91 c -0.21372,0.0403 -0.42607,0.0855 -0.63565,0.13596 -1.5085,0.36428 -2.8915,0.98466 -4.0787,1.7529 -1.1872,0.76826 -2.1814,1.6832 -2.9632,2.6347 -0.79836,0.97227 -1.372,1.9727 -1.7705,2.8968 -0.39849,0.92406 -0.62325,1.7718 -0.73907,2.4762 -0.1103,0.70438 -0.12409,1.2661 -0.0827,1.65 0.0414,0.38395 0.13789,0.59091 0.25647,0.60645 0.1241,0.0155 0.25647,-0.16028 0.42607,-0.48622 0.1696,-0.32596 0.37505,-0.80258 0.65496,-1.3839 0.27991,-0.58131 0.63703,-1.268 1.1141,-1.9994 0.47571,-0.73136 1.0714,-1.5077 1.816,-2.2451 0.72804,-0.72287 1.6022,-1.4117 2.6088,-1.9925 1.0066,-0.5808 2.1455,-1.0533 3.3644,-1.3383 0.1696,-0.0399 0.34058,-0.0761 0.51294,-0.10865 1.2217,-0.23048 2.4475,-0.2623 3.6002,-0.14183 1.1527,0.12051 2.2338,0.39318 3.1976,0.76209 1.0438,0.39787 1.958,0.90954 2.7315,1.4337 0.77492,0.52422 1.4092,1.061 1.9221,1.5278 0.51294,0.46686 0.90591,0.86396 1.2024,1.1253 0.29784,0.26134 0.50053,0.38671 0.60946,0.32609 0.11031,-0.0605 0.12409,-0.30449 0,-0.70559 -0.11031,-0.4011 -0.35162,-0.95955 -0.75976,-1.6127 -0.40676,-0.6532 -0.98726,-1.4011 -1.776,-2.1432 -0.78871,-0.74204 -1.787,-1.4776 -2.9976,-2.0734 -1.1183,-0.54924 -2.4075,-0.97151 -3.8057,-1.1799 -1.3982,-0.20838 -2.9053,-0.20195 -4.4179,0.0826 z"
         id="path9740" />
      <path
         inkscape:connector-curvature="0"
         style="color:#000000;fill:#00ffff;fill-opacity:0.99990000999999995"
         d="m 424.8,668.87 c 0.25922,-0.12975 0.62876,-0.0274 1.1045,0.25186 0.47571,0.27924 1.0603,0.73426 1.7787,1.2781 0.71976,0.54386 1.576,1.1762 2.5785,1.7881 1.0024,0.61186 2.151,1.2022 3.4085,1.6495 1.3306,0.47823 2.8088,0.80309 4.3241,0.91841 1.5168,0.11527 3.0638,0.0205 4.5144,-0.28305 1.5926,-0.32361 3.1024,-0.92195 4.4248,-1.6196 1.3223,-0.69768 2.4558,-1.4913 3.3879,-2.2056 0.93349,-0.71436 1.6712,-1.3485 2.2586,-1.7569 0.58878,-0.40842 1.0355,-0.58893 1.343,-0.44608 0.30749,0.14287 0.47709,0.61343 0.40539,1.4064 -0.0689,0.79296 -0.3916,1.9107 -1.1045,3.1911 -0.71425,1.2804 -1.8311,2.7186 -3.3961,4.0109 -0.78182,0.64619 -1.6739,1.2541 -2.6612,1.7822 -0.98727,0.52808 -2.071,0.97589 -3.2238,1.3072 -2.0821,0.5905 -4.342,0.77818 -6.5179,0.5384 -2.1758,-0.23978 -4.2621,-0.90453 -6.0408,-1.8509 -1.6781,-0.89663 -3.0542,-2.0202 -4.0994,-3.1586 -1.0466,-1.1384 -1.7636,-2.2872 -2.2158,-3.2801 -0.45088,-0.99295 -0.64117,-1.829 -0.65909,-2.4283 -0.0138,-0.59929 0.1241,-0.96317 0.39022,-1.093 z"
         id="path9742" />
      <path
         inkscape:connector-curvature="0"
         style="color:#000000;fill:#00ffff;fill-opacity:0.99990000999999995"
         d="m 441.24,652.43 c 0.31714,-0.0499 0.70185,0.42323 1.2162,1.3188 0.51294,0.89552 1.1679,2.2147 2.1207,3.7767 0.95142,1.562 2.2131,3.3678 3.8746,5.1314 1.6629,1.7636 3.7284,3.479 6.1332,4.7873 1.3789,0.75838 2.8777,1.3876 4.4454,1.8621 1.5678,0.47448 3.2017,0.79411 4.8412,0.95094 1.6381,0.15683 3.2789,0.15079 4.8632,-0.007 1.5829,-0.15799 3.108,-0.46786 4.5296,-0.89993 2.1428,-0.64497 4.069,-1.5596 5.7126,-2.5262 1.6436,-0.96666 3.0059,-1.9831 4.1049,-2.8627 1.1003,-0.8796 1.9428,-1.6215 2.5785,-2.092 0.63429,-0.47048 1.0672,-0.66853 1.3044,-0.52567 0.23855,0.14285 0.28129,0.62835 0.0552,1.4386 -0.222,0.8103 -0.71149,1.9467 -1.5843,3.28 -0.87282,1.3333 -2.1345,2.8623 -3.8539,4.3445 -1.7194,1.4822 -3.9036,2.9124 -6.4931,3.9848 -1.7291,0.7111 -3.6195,1.2512 -5.6023,1.5653 -1.9828,0.31408 -4.0552,0.40165 -6.129,0.24023 -2.0724,-0.16141 -4.1449,-0.5719 -6.1235,-1.2172 -1.9773,-0.64529 -3.8608,-1.5251 -5.572,-2.5905 -1.4837,-0.93182 -2.8225,-1.9922 -3.9973,-3.1186 -1.1762,-1.1265 -2.1882,-2.3186 -3.0418,-3.515 -1.7043,-2.3928 -2.7591,-4.7892 -3.3479,-6.8113 -0.29508,-1.0111 -0.47708,-1.9317 -0.57774,-2.7349 -0.0965,-0.80319 -0.1241,-1.4891 -0.0965,-2.0436 0.0552,-1.1092 0.31162,-1.6858 0.62876,-1.7357 z"
         id="path9744" />
      <path
         inkscape:connector-curvature="0"
         style="color:#000000;fill:#00ffff;fill-opacity:0.99990000999999995"
         d="m 478.22,658.65 c 0.15994,-0.25285 0.5805,-0.33185 1.2258,-0.2988 0.64393,0.0331 1.5168,0.17481 2.5923,0.30527 1.0741,0.13044 2.3551,0.2469 3.7712,0.21756 1.4161,-0.0294 2.9673,-0.20637 4.5089,-0.64007 1.6739,-0.46272 3.3727,-1.2407 4.9129,-2.2819 1.5388,-1.0412 2.9108,-2.3399 3.978,-3.7586 1.0576,-1.3908 1.8394,-2.9316 2.3937,-4.4058 0.55568,-1.4742 0.88661,-2.8795 1.1141,-4.0748 0.22614,-1.1953 0.35437,-2.184 0.51569,-2.891 0.16271,-0.70694 0.3654,-1.135 0.67427,-1.221 0.30887,-0.0859 0.72666,0.17266 1.1748,0.83329 0.44951,0.66063 0.92659,1.7298 1.2217,3.1864 0.29508,1.4566 0.3985,3.3042 0.0689,5.3591 -0.32679,2.0549 -1.0921,4.3117 -2.4158,6.4344 -0.67289,1.0709 -1.4768,2.0917 -2.3896,3.0226 -0.91281,0.93082 -1.9346,1.7713 -3.0294,2.4914 -1.0948,0.72017 -2.2613,1.3198 -3.4582,1.7836 -1.1969,0.46376 -2.4227,0.79152 -3.6319,0.98464 -2.2324,0.34911 -4.3531,0.22872 -6.1594,-0.15797 -1.8063,-0.3867 -3.2996,-1.032 -4.4193,-1.7062 -1.1183,-0.67418 -1.8697,-1.3722 -2.2917,-1.9361 -0.42194,-0.56397 -0.52259,-0.99307 -0.36126,-1.246 z"
         id="path9746" />
      <path
         inkscape:connector-curvature="0"
         style="color:#000000;fill:#00ffff;fill-opacity:0.99990000999999995"
         d="m 476.58,656.48 c 0.24129,-0.26321 0.46743,-0.53707 0.67701,-0.81961 0.74045,-0.99969 1.2658,-2.0904 1.5898,-3.1694 0.32541,-1.079 0.45227,-2.1456 0.42883,-3.1235 -0.0276,-1.0035 -0.20269,-1.9034 -0.45089,-2.6623 -0.24681,-0.75889 -0.5612,-1.3776 -0.86868,-1.8505 -0.30749,-0.47297 -0.60808,-0.80144 -0.84801,-0.99589 -0.23854,-0.19443 -0.41779,-0.25609 -0.51707,-0.19207 -0.0965,0.064 -0.1103,0.24916 -0.069,0.53638 0.0414,0.28721 0.13926,0.67775 0.24406,1.1634 0.11031,0.48564 0.21648,1.0675 0.28129,1.73 0.0689,0.66248 0.0827,1.4062 0,2.1946 -0.0827,0.76841 -0.2675,1.586 -0.57774,2.4035 -0.31025,0.81747 -0.74597,1.6344 -1.3182,2.3805 -0.16132,0.21091 -0.33368,0.4168 -0.51707,0.6165 -0.62738,0.68339 -1.3458,1.2538 -2.0904,1.7032 -0.74596,0.44941 -1.5181,0.7775 -2.2682,0.99436 -0.86179,0.25172 -1.7056,0.3599 -2.4668,0.38916 -0.76113,0.0292 -1.4409,-0.0202 -2.009,-0.0821 -0.56947,-0.0619 -1.0286,-0.13554 -1.3623,-0.16066 -0.33368,-0.0251 -0.54327,-3.1e-4 -0.60255,0.11238 -0.0552,0.11279 0.0413,0.30728 0.29507,0.55458 0.25923,0.24729 0.68254,0.54646 1.2768,0.82632 0.59292,0.27987 1.3582,0.53922 2.271,0.68117 0.91281,0.14195 1.9745,0.16503 3.1121,-0.0328 0.98728,-0.17378 2.0187,-0.51415 3.0128,-1.0448 0.99554,-0.53062 1.9525,-1.2517 2.7798,-2.1524 z"
         id="path9748" />
      <path
         inkscape:connector-curvature="0"
         style="color:#000000;fill:#00ffff;fill-opacity:0.99990000999999995"
         d="m 502.75,636.42 c -0.12409,-0.22526 -0.0414,-0.5578 0.19029,-0.99524 0.23579,-0.43744 0.626,-0.98219 1.0934,-1.6586 0.46743,-0.67638 1.0107,-1.4872 1.5292,-2.4425 0.51707,-0.9553 1.0093,-2.0562 1.3499,-3.2673 0.34334,-1.2019 0.54327,-2.535 0.54327,-3.9108 0,-1.3757 -0.20131,-2.7908 -0.626,-4.1192 -0.43572,-1.3828 -1.1293,-2.7092 -1.9787,-3.8753 -0.85077,-1.1661 -1.8573,-2.1686 -2.908,-2.9595 -1.041,-0.79042 -2.1483,-1.389 -3.1893,-1.8446 -1.0397,-0.45568 -2.0131,-0.7698 -2.8391,-1.0189 -0.82455,-0.24911 -1.5016,-0.4358 -1.9814,-0.63471 -0.48123,-0.1989 -0.76528,-0.41275 -0.8094,-0.67333 -0.0414,-0.26057 0.1503,-0.56921 0.62049,-0.88295 0.47157,-0.31376 1.2217,-0.63138 2.2462,-0.83427 1.0259,-0.2029 2.3275,-0.28728 3.8194,-0.0976 1.4919,0.18969 3.1728,0.65832 4.855,1.5315 1.6891,0.88327 3.3396,2.1635 4.7212,3.7878 1.3802,1.6243 2.4861,3.5897 3.1479,5.717 0.63013,2.0448 0.83559,4.183 0.66048,6.2004 -0.17512,2.0174 -0.72943,3.9096 -1.5154,5.5258 -0.79699,1.6248 -1.8077,2.9414 -2.8294,3.9425 -1.0204,1.0012 -2.049,1.6901 -2.937,2.1324 -0.88661,0.44227 -1.6326,0.64181 -2.1703,0.68127 -0.53776,0.0395 -0.86868,-0.0787 -0.99279,-0.304 z"
         id="path9750" />
      <path
         inkscape:connector-curvature="0"
         style="color:#000000;fill:#00ffff;fill-opacity:0.99990000999999995"
         d="m 494.64,603.87 c -0.0827,-0.58374 -0.18753,-1.1574 -0.32955,-1.7164 -0.39987,-1.5665 -1.041,-3.0011 -1.8201,-4.2449 -0.77905,-1.2438 -1.696,-2.2967 -2.6474,-3.145 -0.97762,-0.87206 -1.9856,-1.5242 -2.919,-1.9988 -0.93487,-0.47457 -1.7953,-0.77288 -2.5164,-0.95219 -0.71977,-0.17932 -1.3003,-0.2412 -1.7001,-0.23646 -0.40125,0.004 -0.62325,0.0746 -0.64806,0.18817 -0.0275,0.11348 0.14753,0.26385 0.4757,0.46211 0.32817,0.19828 0.81353,0.44617 1.4078,0.77991 0.59291,0.33374 1.2961,0.75466 2.0462,1.3013 0.74872,0.54662 1.5457,1.2197 2.3054,2.0442 0.73907,0.80098 1.4464,1.7495 2.0476,2.8322 0.60119,1.0827 1.0976,2.2993 1.4106,3.6044 0.11031,0.46455 0.20132,0.94133 0.26474,1.4272 0.17236,1.3076 0.15444,2.6055 0,3.8278 -0.16546,1.2223 -0.47846,2.3683 -0.88936,3.3981 -0.48536,1.2225 -1.1086,2.2885 -1.747,3.1855 -0.63841,0.89704 -1.292,1.6262 -1.8615,2.2099 -0.56809,0.58364 -1.0548,1.024 -1.3775,1.3528 -0.32266,0.32881 -0.48398,0.54893 -0.42331,0.66268 0.0552,0.11377 0.33782,0.11335 0.80112,-0.0257 0.46467,-0.13891 1.1127,-0.41899 1.8725,-0.89417 0.75976,-0.4752 1.6284,-1.1481 2.4888,-2.0618 0.86179,-0.91363 1.7126,-2.0698 2.3978,-3.4667 0.57637,-1.1779 1.0273,-2.5173 1.2782,-3.9638 0.25096,-1.4465 0.30059,-2.9996 0.0965,-4.5705 z"
         id="path9752" />
      <path
         inkscape:connector-curvature="0"
         style="color:#000000;fill:#00ffff;fill-opacity:0.99990000999999995"
         d="m 482.74,591.58 c -0.27302,-0.0247 -0.52397,-0.23183 -0.77906,-0.56626 -0.25371,-0.33443 -0.51569,-0.79676 -0.83559,-1.3309 -0.31852,-0.53412 -0.70046,-1.1418 -1.1789,-1.7454 -0.47708,-0.60363 -1.0521,-1.2035 -1.7236,-1.6813 -0.67978,-0.49836 -1.5002,-0.90473 -2.3827,-1.167 -0.88248,-0.26225 -1.8201,-0.37942 -2.6984,-0.3035 -0.76527,0.0557 -1.5416,0.25371 -2.2613,0.54634 -0.71839,0.29262 -1.3775,0.67949 -1.9401,1.1159 -0.58051,0.44262 -1.081,0.95888 -1.5071,1.4663 -0.42607,0.50744 -0.77768,1.0066 -1.0838,1.4403 -0.30748,0.43372 -0.56947,0.80301 -0.82042,1.0635 -0.25233,0.26046 -0.49502,0.41226 -0.74321,0.41396 -0.24682,0.002 -0.50053,-0.14782 -0.72528,-0.47938 -0.22475,-0.33157 -0.42193,-0.84715 -0.5088,-1.5415 -0.0827,-0.69432 -0.069,-1.5688 0.17925,-2.5542 0.24268,-0.98541 0.7046,-2.0812 1.4712,-3.1459 0.75148,-1.0373 1.7746,-2.0117 3.0225,-2.7664 1.2465,-0.75476 2.7177,-1.2862 4.2855,-1.4797 1.827,-0.21298 3.6857,0.0469 5.3293,0.69814 1.6436,0.6512 3.0638,1.688 4.1187,2.8965 1.0217,1.1883 1.6533,2.4791 1.9869,3.6584 0.33369,1.1793 0.37368,2.2454 0.26751,3.0876 -0.11032,0.8422 -0.35713,1.4627 -0.63015,1.8511 -0.27439,0.38839 -0.56947,0.54816 -0.84248,0.5235 z"
         id="path9754" />
      <path
         inkscape:connector-curvature="0"
         style="color:#000000;fill:#00ffff;fill-opacity:0.99990000999999995"
         d="m 467.04,586.07 c -0.35988,0.13375 -0.86731,-0.16779 -1.5374,-0.78096 -0.66875,-0.61317 -1.5099,-1.5351 -2.5936,-2.5736 -1.0852,-1.0385 -2.4185,-2.191 -3.9849,-3.2304 -1.565,-1.0393 -3.3589,-1.9582 -5.2452,-2.5643 -1.3058,-0.42778 -2.6722,-0.71236 -4.0249,-0.86733 -1.3527,-0.15499 -2.6916,-0.18091 -3.9449,-0.119 -1.2451,0.0651 -2.4102,0.21564 -3.4527,0.39192 -1.041,0.17628 -1.9608,0.37736 -2.737,0.53694 -0.77767,0.15956 -1.412,0.27642 -1.8946,0.29341 -0.48122,0.017 -0.81077,-0.0672 -0.9652,-0.28155 -0.15581,-0.21435 -0.13788,-0.5597 0.0827,-1.0199 0.22476,-0.46019 0.66048,-1.0351 1.332,-1.6575 0.67288,-0.62241 1.5843,-1.2908 2.7329,-1.8996 1.1472,-0.60881 2.5316,-1.1554 4.0938,-1.5267 1.5719,-0.37754 3.3258,-0.57556 5.1445,-0.5129 1.8201,0.0626 3.7022,0.38772 5.5044,0.98742 1.2961,0.43747 2.5316,1.009 3.6705,1.6791 1.1376,0.67013 2.1758,1.4383 3.09,2.257 0.91556,0.81862 1.707,1.6871 2.3703,2.5545 0.66185,0.86738 1.1968,1.7332 1.6119,2.5516 0.41641,0.81837 0.71424,1.589 0.91418,2.2769 0.20132,0.68793 0.30611,1.2931 0.33782,1.7942 0.069,1.0022 -0.14892,1.5772 -0.51018,1.7109 z"
         id="path9756" />
      <path
         inkscape:connector-curvature="0"
         style="color:#000000;fill:#00ffff;fill-opacity:0.99990000999999995"
         d="m 513.8,581.41 c -0.35161,0.23294 -0.91143,0.13016 -1.6436,-0.1845 -0.73218,-0.31463 -1.6464,-0.83486 -2.7412,-1.3897 -1.0948,-0.55488 -2.3758,-1.1416 -3.767,-1.606 -1.3913,-0.46442 -2.886,-0.80197 -4.3544,-0.92772 -1.2658,-0.1172 -2.5385,-0.0905 -3.7243,0.0172 -1.1858,0.10756 -2.2834,0.2945 -3.232,0.46444 -0.94866,0.16996 -1.7512,0.32067 -2.3744,0.35 -0.62462,0.0294 -1.0728,-0.0666 -1.2989,-0.34905 -0.22476,-0.28243 -0.22614,-0.75471 0.0689,-1.3794 0.29646,-0.62468 0.89488,-1.4006 1.8353,-2.1722 0.94039,-0.77163 2.2282,-1.5319 3.7864,-2.0706 1.5581,-0.53878 3.3837,-0.84708 5.2714,-0.78758 1.1031,0.04 2.2103,0.20345 3.272,0.47886 1.0617,0.27541 2.078,0.66244 3.0087,1.1305 0.93073,0.46803 1.776,1.0165 2.5137,1.6029 0.73631,0.58642 1.3637,1.2102 1.878,1.8264 0.51293,0.61622 0.91143,1.2244 1.2065,1.786 0.2937,0.56156 0.4826,1.0762 0.58326,1.5178 0.0965,0.44155 0.1103,0.80994 0.0689,1.0936 -0.0552,0.28363 -0.17512,0.4827 -0.35023,0.59917 z"
         id="path9758" />
      <path
         inkscape:connector-curvature="0"
         style="color:#000000;fill:#00ffff;fill-opacity:0.99990000999999995"
         d="m 515.28,647.14 c 0.27302,-0.0762 0.61222,0.0587 0.97762,0.44958 0.36539,0.3908 0.75562,1.0407 1.0548,1.9562 0.30059,0.91555 0.50328,2.0994 0.45641,3.4731 -0.0414,1.3737 -0.35024,2.9364 -1.0314,4.5104 -0.71701,1.6418 -1.8339,3.2448 -3.2762,4.5706 -1.4437,1.3258 -3.2072,2.3674 -5.0852,2.9833 -1.4409,0.4681 -2.9149,0.67984 -4.309,0.66928 -1.3954,-0.011 -2.7095,-0.24192 -3.865,-0.61559 -1.201,-0.39003 -2.2131,-0.92685 -3.0211,-1.4962 -0.80664,-0.56935 -1.4078,-1.1696 -1.8256,-1.7132 -0.41779,-0.54353 -0.65358,-1.0299 -0.74596,-1.4132 -0.0965,-0.3833 -0.0414,-0.66403 0.1241,-0.83786 0.16132,-0.17384 0.43296,-0.24164 0.79974,-0.23013 0.36677,0.011 0.82869,0.10148 1.3802,0.22487 0.55155,0.12341 1.1927,0.27968 1.9139,0.41475 0.71977,0.13513 1.5195,0.24865 2.3675,0.28299 0.81628,0.0346 1.6877,-0.003 2.5743,-0.13847 0.88798,-0.13568 1.7898,-0.36936 2.6488,-0.71273 1.1114,-0.43815 2.1841,-1.0849 3.1286,-1.8637 0.94315,-0.77876 1.7539,-1.6862 2.3813,-2.6296 0.60532,-0.89974 1.0604,-1.8593 1.4051,-2.7677 0.34333,-0.90846 0.57912,-1.7658 0.77079,-2.5016 0.19166,-0.73575 0.34333,-1.3517 0.5212,-1.8022 0.17925,-0.45051 0.38746,-0.73669 0.66048,-0.81294 z"
         id="path9760" />
      <path
         inkscape:connector-curvature="0"
         style="color:#000000;fill:#00ffff;fill-opacity:0.99990000999999995"
         d="m 534.25,627.44 c 0.19993,-0.13719 0.51984,-0.10686 0.94452,0.1241 0.42469,0.23092 0.95417,0.66391 1.5223,1.332 0.56809,0.66805 1.172,1.5732 1.7015,2.7202 0.52949,1.147 0.98038,2.5372 1.2203,4.1201 0.23027,1.5366 0.25785,3.2402 0,4.9958 -0.25509,1.7557 -0.79561,3.5611 -1.6326,5.2718 -1.0259,2.0873 -2.4833,3.9875 -4.1917,5.5126 -1.7084,1.5252 -3.6623,2.6718 -5.6106,3.3958 -1.8877,0.6966 -3.7312,0.99158 -5.3514,1.0208 -1.6188,0.0292 -3.0128,-0.20202 -4.1007,-0.52772 -1.0865,-0.32571 -1.8711,-0.74183 -2.3537,-1.1238 -0.4826,-0.38194 -0.66737,-0.72846 -0.59429,-0.99658 0.0689,-0.26811 0.40539,-0.45924 0.95417,-0.61035 0.54879,-0.1511 1.3141,-0.26493 2.2517,-0.4255 0.93762,-0.16058 2.0476,-0.37046 3.2541,-0.71937 1.2051,-0.3489 2.5054,-0.83835 3.7712,-1.5329 1.3113,-0.71353 2.6061,-1.6595 3.7602,-2.7987 1.1541,-1.1392 2.1634,-2.4681 2.9218,-3.8871 0.62875,-1.1666 1.1017,-2.4092 1.4257,-3.6441 0.32265,-1.2348 0.49777,-2.4606 0.5543,-3.6114 0.0552,-1.1857 0,-2.3035 -0.11031,-3.3026 -0.1103,-0.99915 -0.26198,-1.8804 -0.38746,-2.6216 -0.12409,-0.74118 -0.21923,-1.3437 -0.22751,-1.7968 0,-0.45304 0.0689,-0.75761 0.27577,-0.89482 z"
         id="path9762" />
      <path
         inkscape:connector-curvature="0"
         style="color:#000000;fill:#00ffff;fill-opacity:0.99990000999999995"
         d="m 552.01,612.69 c 0.1958,-0.1634 0.51431,-0.18513 0.94865,-0.0235 0.43297,0.16167 0.98175,0.50876 1.5733,1.0865 0.59154,0.5777 1.2244,1.3888 1.7746,2.445 0.54879,1.0563 1.0107,2.3594 1.2341,3.8537 0.21648,1.4774 0.19166,3.1156 -0.15168,4.7694 -0.34334,1.6539 -1.0066,3.3198 -1.9787,4.8277 -1.0534,1.6225 -2.4364,3.0142 -3.9739,4.0588 -1.5388,1.0446 -3.2238,1.7409 -4.8536,2.0946 -1.6105,0.34493 -3.1273,0.35303 -4.4206,0.16731 -1.2934,-0.18572 -2.3648,-0.56091 -3.1755,-0.9774 -0.80939,-0.4165 -1.3596,-0.8716 -1.6753,-1.2661 -0.31437,-0.39451 -0.39711,-0.72809 -0.29093,-0.97331 0.1103,-0.24521 0.40262,-0.40355 0.85075,-0.50949 0.44952,-0.1059 1.0535,-0.16159 1.7815,-0.23491 0.72804,-0.0734 1.5829,-0.16587 2.5123,-0.35038 0.92797,-0.18451 1.9318,-0.46171 2.9163,-0.89123 0.99829,-0.43004 2.0021,-1.026 2.9232,-1.7716 0.9197,-0.74557 1.7539,-1.6385 2.4102,-2.6216 0.61497,-0.91221 1.0948,-1.9278 1.4326,-2.9589 0.33782,-1.0311 0.53362,-2.0756 0.60532,-3.0635 0.0827,-0.99948 0.0276,-1.961 -0.0689,-2.8292 -0.0965,-0.86819 -0.24819,-1.6437 -0.37505,-2.3044 -0.12409,-0.66068 -0.22889,-1.2082 -0.24406,-1.6338 -0.0138,-0.42551 0.0552,-0.73035 0.24958,-0.89376 z"
         id="path9764" />
      <path
         inkscape:connector-curvature="0"
         style="color:#000000;fill:#00ffff;fill-opacity:0.99990000999999995"
         d="m 532.27,594.34 c -0.12411,-0.23139 -0.069,-0.56862 0.21234,-0.98866 0.28267,-0.42004 0.79423,-0.92283 1.5664,-1.4148 0.77216,-0.49195 1.8077,-0.97086 3.0831,-1.2897 1.2768,-0.31889 2.7936,-0.4738 4.4441,-0.31202 1.6588,0.16669 3.4168,0.65526 5.0825,1.4997 1.6643,0.84448 3.2307,2.0447 4.513,3.5184 1.2382,1.4318 2.18,3.0833 2.7784,4.7745 0.59842,1.6912 0.85627,3.4175 0.83283,5.0097 -0.0276,1.6002 -0.33782,3.0354 -0.77354,4.2234 -0.43434,1.188 -0.99416,2.1301 -1.5374,2.8208 -0.54464,0.69064 -1.0728,1.1326 -1.503,1.3641 -0.4302,0.23146 -0.76113,0.25472 -0.97623,0.11197 -0.2151,-0.14271 -0.31576,-0.451 -0.33782,-0.89964 -0.0138,-0.44863 0.0276,-1.039 0.0965,-1.7551 0.0689,-0.71606 0.14064,-1.5596 0.14892,-2.4978 0,-0.93817 -0.0552,-1.9716 -0.25647,-3.0301 -0.19856,-1.0536 -0.54189,-2.1526 -1.0424,-3.2154 -0.49915,-1.0628 -1.1541,-2.0871 -1.9401,-2.9774 -0.80526,-0.92077 -1.7746,-1.7246 -2.8088,-2.369 -1.0342,-0.64446 -2.1303,-1.1279 -3.1976,-1.4488 -1.0617,-0.32332 -2.1179,-0.49206 -3.0845,-0.5767 -0.96658,-0.0847 -1.8435,-0.0859 -2.5881,-0.0822 -0.74597,0.004 -1.3596,0.011 -1.8215,-0.048 -0.46054,-0.0589 -0.76941,-0.18592 -0.89488,-0.4173 z"
         id="path9766" />
      <path
         inkscape:connector-curvature="0"
         style="color:#000000;fill:#00ffff;fill-opacity:0.99990000999999995"
         d="m 502.81,593.06 c -0.26887,-0.11031 -0.41779,-0.5344 -0.37918,-1.2706 0.0414,-0.73622 0.2675,-1.7864 0.80664,-3.0522 0.53913,-1.2658 1.3926,-2.7463 2.6488,-4.2359 1.2575,-1.4896 2.9218,-2.9832 4.9694,-4.2113 2.1758,-1.2993 4.7488,-2.2663 7.4624,-2.7101 1.3568,-0.22187 2.7467,-0.31551 4.1269,-0.27563 1.3802,0.0399 2.7522,0.21335 4.0746,0.51165 1.4533,0.33262 2.8308,0.81366 4.098,1.3995 1.2658,0.58586 2.4213,1.276 3.4472,2.0199 1.0245,0.74388 1.9208,1.541 2.6819,2.3412 0.76251,0.80017 1.3927,1.6031 1.9015,2.3651 1.0162,1.5241 1.5443,2.8715 1.7512,3.8282 0.20545,0.95665 0.0965,1.5245 -0.19993,1.6792 -0.30059,0.15474 -0.79698,-0.0993 -1.5016,-0.65088 -0.70598,-0.55158 -1.6298,-1.3982 -2.8391,-2.3464 -1.2093,-0.9482 -2.7108,-1.9959 -4.4896,-2.898 -1.7787,-0.90208 -3.8305,-1.6529 -6.0022,-2.0099 -1.9883,-0.33612 -4.1021,-0.36045 -6.1497,-0.0776 -2.049,0.28279 -4.0235,0.87124 -5.7678,1.67 -1.6464,0.74852 -3.1093,1.6894 -4.3531,2.6457 -1.2437,0.95629 -2.2696,1.9261 -3.1052,2.7593 -0.83558,0.83312 -1.4878,1.5293 -2.0049,1.9784 -0.51845,0.44919 -0.90729,0.65073 -1.1762,0.54043 z"
         id="path9768" />
      <path
         inkscape:connector-curvature="0"
         style="color:#000000;fill:#00ffff;fill-opacity:0.99990000999999995"
         d="m 502.81,593.06 c -0.26887,-0.11031 -0.41779,-0.5344 -0.37918,-1.2706 0.0414,-0.73622 0.2675,-1.7864 0.80664,-3.0522 0.53913,-1.2658 1.3926,-2.7463 2.6488,-4.2359 1.2575,-1.4896 2.9218,-2.9832 4.9694,-4.2113 2.1758,-1.2993 4.7488,-2.2663 7.4624,-2.7101 1.3568,-0.22187 2.7467,-0.31551 4.1269,-0.27563 1.3802,0.0399 2.7522,0.21335 4.0746,0.51165 1.4533,0.33262 2.8308,0.81366 4.098,1.3995 1.2658,0.58586 2.4213,1.276 3.4472,2.0199 1.0245,0.74388 1.9208,1.541 2.6819,2.3412 0.76251,0.80017 1.3927,1.6031 1.9015,2.3651 1.0162,1.5241 1.5443,2.8715 1.7512,3.8282 0.20545,0.95665 0.0965,1.5245 -0.19993,1.6792 -0.30059,0.15474 -0.79698,-0.0993 -1.5016,-0.65088 -0.70598,-0.55158 -1.6298,-1.3982 -2.8391,-2.3464 -1.2093,-0.9482 -2.7108,-1.9959 -4.4896,-2.898 -1.7787,-0.90208 -3.8305,-1.6529 -6.0022,-2.0099 -1.9883,-0.33612 -4.1021,-0.36045 -6.1497,-0.0776 -2.049,0.28279 -4.0235,0.87124 -5.7678,1.67 -1.6464,0.74852 -3.1093,1.6894 -4.3531,2.6457 -1.2437,0.95629 -2.2696,1.9261 -3.1052,2.7593 -0.83558,0.83312 -1.4878,1.5293 -2.0049,1.9784 -0.51845,0.44919 -0.90729,0.65073 -1.1762,0.54043 z"
         id="path9770" />
      <path
         inkscape:connector-curvature="0"
         style="color:#000000;fill:#00ffff;fill-opacity:0.99990000999999995"
         d="m 272.9,595.8 c -0.48537,-0.0362 -0.97072,-0.0478 -1.4506,-0.0353 -1.9994,0.0562 -3.8953,0.52987 -5.5541,1.2686 -1.6602,0.73875 -3.0804,1.7409 -4.211,2.846 -1.1569,1.134 -2.0007,2.359 -2.595,3.5083 -0.59428,1.1492 -0.94038,2.223 -1.1334,3.1182 -0.19166,0.89515 -0.23165,1.613 -0.20545,2.102 0.0276,0.48907 0.1103,0.75077 0.23303,0.76459 0.1241,0.0138 0.25509,-0.21982 0.43986,-0.64888 0.18476,-0.42906 0.41917,-1.0546 0.7694,-1.8133 0.34885,-0.75873 0.81766,-1.652 1.4671,-2.5862 0.64944,-0.93419 1.4823,-1.91 2.5344,-2.7872 1.0259,-0.85766 2.2682,-1.6243 3.6816,-2.1855 1.4133,-0.56125 2.9976,-0.91664 4.6371,-0.94723 0.39298,-0.008 0.79009,0.003 1.19,0.0322 1.616,0.12079 3.1686,0.54753 4.5489,1.1739 1.3816,0.6263 2.5909,1.4517 3.5795,2.373 1.1196,1.039 1.9704,2.2044 2.6033,3.3178 0.6329,1.1134 1.0479,2.1756 1.3389,3.0758 0.28956,0.90025 0.45502,1.6407 0.59015,2.1537 0.13788,0.51292 0.24406,0.8003 0.37092,0.80335 0.12409,0.003 0.26335,-0.28016 0.35988,-0.83052 0.0965,-0.55036 0.14478,-1.3703 0.0275,-2.4066 -0.11031,-1.0363 -0.39022,-2.291 -0.95968,-3.641 -0.56947,-1.35 -1.4354,-2.7956 -2.6833,-4.1253 -1.1072,-1.1738 -2.5026,-2.2354 -4.1311,-3.0383 -1.6284,-0.80288 -3.4899,-1.3455 -5.4534,-1.4921 z"
         id="path9772" />
      <path
         inkscape:connector-curvature="0"
         style="color:#000000;fill:#00ffff;fill-opacity:0.99990000999999995"
         d="m 377.39,583.3 c -0.29645,0.0236 -0.60807,-0.2381 -0.9652,-0.71305 -0.35575,-0.47493 -0.76389,-1.1637 -1.3016,-1.9713 -0.53913,-0.8076 -1.212,-1.7358 -2.071,-2.6452 -0.86041,-0.90943 -1.9056,-1.799 -3.1149,-2.4767 -1.2975,-0.7436 -2.8363,-1.2664 -4.4344,-1.4903 -1.5981,-0.22394 -3.2445,-0.14734 -4.7281,0.23365 v 2e-5 c -0.96933,0.24347 -1.8959,0.60752 -2.7426,1.0432 -0.84524,0.43573 -1.6119,0.94281 -2.2834,1.4726 -0.71424,0.56268 -1.3306,1.1579 -1.8601,1.7176 -0.52948,0.55972 -0.97348,1.0842 -1.3554,1.5221 -0.38332,0.43798 -0.70598,0.7898 -0.99003,1.0169 -0.28404,0.22714 -0.53224,0.32953 -0.74734,0.27917 -0.2151,-0.0503 -0.39711,-0.25404 -0.51845,-0.62346 -0.1241,-0.36942 -0.18615,-0.90549 -0.13789,-1.5932 0.0552,-0.68773 0.21786,-1.5278 0.56672,-2.4654 0.34885,-0.93761 0.88109,-1.9726 1.6505,-3.0062 0.72528,-0.97073 1.6546,-1.9296 2.7798,-2.7745 1.1265,-0.84485 2.4502,-1.574 3.9174,-2.0906 1.1486,-0.39907 2.3661,-0.66134 3.6057,-0.77061 1.2396,-0.10934 2.4999,-0.0655 3.7312,0.12893 1.23,0.1944 2.4309,0.53926 3.5547,1.014 1.1238,0.47475 2.169,1.0791 3.1038,1.7776 1.7236,1.3048 2.9908,2.882 3.8332,4.4126 0.84111,1.5306 1.263,3.009 1.4188,4.2265 0.15581,1.2175 0.0552,2.1751 -0.13926,2.8076 -0.19442,0.63255 -0.47847,0.9444 -0.7763,0.96803 z"
         id="path9774" />
      <path
         inkscape:connector-curvature="0"
         style="color:#000000;fill:#00ffff;fill-opacity:0.99990000999999995"
         d="m 353.17,576.29 c -0.23165,0.0866 -0.53086,-0.0227 -0.90315,-0.28068 -0.37367,-0.25788 -0.82042,-0.664 -1.3761,-1.1489 -0.55568,-0.48487 -1.2217,-1.049 -2.02,-1.5986 -0.79699,-0.54967 -1.7291,-1.085 -2.7701,-1.4827 -1.0162,-0.39315 -2.1621,-0.66471 -3.363,-0.75482 -1.201,-0.09 -2.4544,0.002 -3.6361,0.31298 -1.372,0.34944 -2.7095,1.0252 -3.8622,1.899 -1.1527,0.8738 -2.1138,1.941 -2.8046,3.0637 -0.68392,1.0896 -1.1348,2.271 -1.4271,3.379 -0.29232,1.1079 -0.42883,2.1428 -0.51156,3.0199 -0.0827,0.87714 -0.11031,1.6002 -0.20131,2.1314 -0.0827,0.53123 -0.22614,0.87333 -0.47709,0.98433 -0.25096,0.111 -0.61359,-0.011 -1.0466,-0.42232 -0.43297,-0.41195 -0.93488,-1.1193 -1.3554,-2.1485 -0.42055,-1.0292 -0.75424,-2.3851 -0.78595,-3.9871 -0.0275,-1.602 0.24682,-3.4503 1.0259,-5.3193 0.40539,-0.95557 0.93349,-1.8973 1.5802,-2.7858 0.64806,-0.88848 1.4147,-1.7234 2.2834,-2.4675 1.7374,-1.4881 3.8884,-2.6009 6.1911,-3.1346 1.9704,-0.44665 3.978,-0.45801 5.8229,-0.11459 1.8449,0.34339 3.523,1.0382 4.9156,1.9248 1.423,0.9122 2.515,1.9987 3.3038,3.0562 0.79009,1.0575 1.2796,2.0842 1.5581,2.9491 0.27853,0.86491 0.34885,1.5687 0.30197,2.0617 -0.0414,0.49296 -0.21096,0.77688 -0.44262,0.86345 z"
         id="path9776" />
      <path
         inkscape:connector-curvature="0"
         style="color:#000000;fill:#00ffff;fill-opacity:0.99990000999999995"
         d="m 320.97,575.12 c -0.31025,0.0425 -0.61636,0.10204 -0.91695,0.17794 -1.0672,0.27287 -2.0283,0.74567 -2.8349,1.3284 -0.80526,0.58275 -1.4547,1.2744 -1.9428,1.9864 -0.49776,0.7316 -0.82042,1.4726 -1.0135,2.1456 -0.19304,0.67296 -0.25923,1.278 -0.25508,1.7716 0,0.49351 0.0827,0.87613 0.17373,1.1312 0.0965,0.25505 0.21235,0.38337 0.32955,0.38349 0.11031,1.3e-4 0.22889,-0.12685 0.34885,-0.34949 0.1241,-0.22269 0.24957,-0.54163 0.41918,-0.92656 0.17098,-0.38491 0.38194,-0.83654 0.66598,-1.3154 0.28405,-0.4789 0.6398,-0.98553 1.0893,-1.4621 0.4371,-0.46545 0.96934,-0.90846 1.5857,-1.2811 0.61635,-0.37268 1.3168,-0.67494 2.0669,-0.85036 0.2082,-0.0499 0.42331,-0.0899 0.64255,-0.11969 0.75285,-0.10258 1.5085,-0.0774 2.2144,0.044 0.70598,0.12134 1.3623,0.33892 1.9401,0.6192 0.66737,0.31973 1.2424,0.72753 1.7236,1.1418 0.48122,0.41427 0.86868,0.83538 1.1831,1.2024 0.31301,0.36708 0.55568,0.68072 0.75287,0.89249 0.19855,0.21175 0.35436,0.32185 0.47708,0.28667 0.1241,-0.0352 0.20269,-0.21498 0.2151,-0.5297 0.0138,-0.31471 -0.0414,-0.76502 -0.22337,-1.3097 -0.18063,-0.54466 -0.48536,-1.184 -0.9652,-1.8368 -0.47985,-0.65277 -1.1362,-1.3184 -1.9883,-1.8765 -0.74182,-0.48302 -1.6202,-0.87367 -2.5881,-1.1031 -0.96797,-0.22944 -2.0269,-0.29687 -3.0997,-0.15045 z"
         id="path9778" />
      <path
         inkscape:connector-curvature="0"
         style="color:#000000;fill:#00ffff;fill-opacity:0.99990000999999995"
         d="m 305.11,595.05 c 0,0.26387 -0.19442,0.52226 -0.53775,0.78603 -0.34472,0.2638 -0.84111,0.53447 -1.4478,0.84838 -0.60532,0.31388 -1.321,0.67245 -2.089,1.1142 -0.7694,0.4417 -1.5912,0.96729 -2.3923,1.6003 -0.80664,0.63484 -1.6022,1.3864 -2.3262,2.2374 -0.72252,0.85093 -1.3733,1.7999 -1.8946,2.8018 -0.50741,0.96824 -0.90453,2.0019 -1.1872,3.0368 -0.28404,1.0349 -0.45364,2.0697 -0.53086,3.0496 -0.0827,0.98516 -0.069,1.9267 -0.0138,2.78 0.0552,0.8533 0.13789,1.6188 0.19442,2.2725 0.069,0.6537 0.0965,1.1967 0.0552,1.6132 -0.0414,0.4165 -0.15168,0.70727 -0.36678,0.84962 -0.2151,0.14235 -0.53224,0.13596 -0.94038,-0.0525 -0.40677,-0.18851 -0.90316,-0.56059 -1.4271,-1.1459 -0.52534,-0.58528 -1.0769,-1.3856 -1.554,-2.4005 -0.47709,-1.0149 -0.87696,-2.2455 -1.0852,-3.6387 -0.20545,-1.386 -0.2151,-2.9176 0.0276,-4.4787 0.24681,-1.561 0.75285,-3.1486 1.5099,-4.6281 0.78457,-1.5294 1.8256,-2.9174 3.0114,-4.0656 1.1858,-1.1482 2.5123,-2.0556 3.836,-2.7001 1.3168,-0.63954 2.6129,-1.0139 3.7684,-1.1921 1.1569,-0.17814 2.1717,-0.16287 2.9839,-0.0452 0.81215,0.11762 1.423,0.3353 1.8201,0.57956 0.39711,0.24428 0.58325,0.51427 0.5805,0.77812 z"
         id="path9780" />
      <path
         inkscape:connector-curvature="0"
         style="color:#000000;fill:#00ffff;fill-opacity:0.99990000999999995"
         d="m 315.18,583.38 c 0.069,0.29879 -0.1241,0.64477 -0.49087,1.0511 -0.36817,0.40638 -0.91558,0.87784 -1.5485,1.4665 -0.6329,0.58864 -1.3527,1.2984 -2.0393,2.1513 -0.6853,0.85297 -1.3375,1.8492 -1.8063,2.9504 -0.53224,1.2176 -0.85903,2.6173 -0.93901,4.037 -0.0827,1.4197 0.0827,2.8483 0.48399,4.1193 0.34609,1.1537 0.88798,2.2234 1.4836,3.1529 0.59429,0.92955 1.2396,1.7188 1.8118,2.3767 0.57224,0.65787 1.0728,1.1884 1.3982,1.6342 0.32678,0.44586 0.47984,0.81185 0.38469,1.1038 -0.0965,0.29195 -0.44398,0.51079 -1.059,0.57914 -0.61497,0.0684 -1.5016,-0.0185 -2.5661,-0.39192 -1.0645,-0.37346 -2.3068,-1.041 -3.5092,-2.092 -1.201,-1.051 -2.3551,-2.49 -3.1824,-4.2679 -0.45089,-0.98553 -0.79284,-2.0525 -1.0024,-3.1598 -0.20821,-1.1073 -0.28267,-2.2545 -0.21786,-3.3936 0.069,-1.139 0.27026,-2.2694 0.60394,-3.3444 0.33231,-1.0749 0.79285,-2.0939 1.3527,-3.0192 1.0148,-1.6588 2.311,-2.9475 3.6099,-3.8502 1.2989,-0.90274 2.5936,-1.4248 3.6816,-1.6776 1.0879,-0.25279 1.969,-0.24362 2.5688,-0.11059 0.59844,0.13306 0.91695,0.38592 0.98176,0.68472 z"
         id="path9782" />
      <path
         inkscape:connector-curvature="0"
         style="color:#000000;fill:#00ffff;fill-opacity:0.99990000999999995"
         d="m 294.99,634.29 c 0.80525,0.85052 1.7056,1.5763 2.6529,2.1626 0.94728,0.58624 1.9414,1.0329 2.9384,1.3406 1.7856,0.5435 3.5244,0.63087 5.0315,0.46231 1.5071,-0.16853 2.7825,-0.58938 3.7657,-1.0595 0.98313,-0.47012 1.6781,-0.98641 2.1042,-1.3933 0.42607,-0.40691 0.58739,-0.70196 0.50466,-0.81853 -0.0827,-0.1165 -0.40125,-0.0482 -0.92797,0.11845 -0.52535,0.16679 -1.263,0.42893 -2.202,0.65212 -0.939,0.2232 -2.0835,0.40584 -3.3686,0.40117 -1.2851,-0.004 -2.7122,-0.19745 -4.12,-0.72014 -1.5774,-0.57719 -3.1479,-1.5856 -4.4565,-2.9667 -1.1858,-1.2519 -2.0531,-2.7007 -2.5606,-4.1563 -0.52121,-1.4697 -0.68391,-2.9614 -0.64531,-4.3008 0.0414,-1.3395 0.2744,-2.5276 0.55155,-3.4974 0.27715,-0.96983 0.59015,-1.7261 0.79561,-2.2655 0.20544,-0.53932 0.29783,-0.86797 0.18338,-0.95924 -0.11031,-0.0913 -0.43158,0.0635 -0.87696,0.49027 -0.44675,0.42665 -1.0204,1.1316 -1.5512,2.1421 -0.53224,1.0105 -1.0176,2.3319 -1.2355,3.9016 -0.21786,1.5697 -0.1627,3.389 0.3847,5.2549 0.54741,1.8401 1.5719,3.6695 3.0321,5.2114 z"
         id="path9784" />
      <path
         inkscape:connector-curvature="0"
         style="color:#000000;fill:#00ffff;fill-opacity:0.99990000999999995"
         d="m 304.38,637.22 c 0.23854,-0.0837 0.55706,0.0763 0.96383,0.4363 0.40676,0.35996 0.90315,0.91968 1.5305,1.6072 0.626,0.68754 1.3858,1.5032 2.3137,2.3455 0.92659,0.84238 2.0242,1.7111 3.2913,2.4755 1.2479,0.75539 2.6736,1.4159 4.2166,1.892 1.5416,0.47609 3.1962,0.76661 4.8564,0.8087 1.8187,0.0506 3.6747,-0.20212 5.412,-0.69963 1.7387,-0.49751 3.3562,-1.2379 4.7543,-2.1153 1.3789,-0.86093 2.5633,-1.8638 3.5506,-2.8468 0.98864,-0.98298 1.7815,-1.9453 2.4268,-2.7632 0.64531,-0.8179 1.1458,-1.4919 1.5595,-1.936 0.41366,-0.44408 0.74183,-0.65817 1.0024,-0.58878 0.2606,0.0694 0.45088,0.42374 0.51707,1.0726 0.069,0.64887 0,1.5943 -0.30197,2.7732 -0.30473,1.1789 -0.85766,2.5918 -1.7663,4.0804 -0.90868,1.4887 -2.18,3.0504 -3.8498,4.447 -1.696,1.4146 -3.7808,2.6295 -6.1028,3.4381 -2.322,0.80861 -4.8756,1.2063 -7.4114,1.1042 -2.3068,-0.0971 -4.5585,-0.60267 -6.5813,-1.4129 -2.0242,-0.81026 -3.8167,-1.9216 -5.2879,-3.1651 -1.4906,-1.2636 -2.6364,-2.6437 -3.472,-3.9504 -0.83559,-1.3068 -1.3651,-2.5384 -1.6753,-3.5696 -0.31024,-1.0312 -0.40676,-1.8624 -0.37367,-2.4416 0.0276,-0.57916 0.19029,-0.90767 0.42745,-0.99138 z"
         id="path9786" />
      <path
         inkscape:connector-curvature="0"
         style="color:#000000;fill:#00ffff;fill-opacity:0.99990000999999995"
         d="m 332.71,647.42 c 0.2413,-0.0521 0.5157,0.0589 0.82456,0.2959 0.30887,0.23703 0.65634,0.59979 1.0659,1.0403 0.40815,0.44048 0.88247,0.95904 1.4423,1.4947 0.5612,0.53563 1.2093,1.0885 1.947,1.5798 0.71976,0.48198 1.5388,0.91581 2.4254,1.2519 0.888,0.33604 1.8408,0.5738 2.8005,0.66995 1.1127,0.11734 2.2779,0.0414 3.3879,-0.19573 1.1114,-0.23711 2.1621,-0.63454 3.0804,-1.1362 0.89901,-0.48421 1.696,-1.0835 2.3799,-1.6869 0.68529,-0.60337 1.2562,-1.2106 1.7415,-1.7355 0.48399,-0.52491 0.88248,-0.96808 1.2341,-1.2624 0.35161,-0.29428 0.65772,-0.43943 0.92522,-0.3831 0.26887,0.0564 0.50052,0.31598 0.64392,0.80061 0.14479,0.48464 0.19856,1.1966 0.069,2.0943 -0.13789,0.89769 -0.46606,1.9818 -1.0907,3.1237 -0.62463,1.1419 -1.5471,2.3389 -2.8032,3.3903 -1.2906,1.0729 -2.8998,1.957 -4.6812,2.4794 -1.7829,0.5224 -3.7312,0.67907 -5.6244,0.41787 -1.6202,-0.22897 -3.1562,-0.75525 -4.4937,-1.4842 -1.3389,-0.72896 -2.4778,-1.6577 -3.3699,-2.6533 -0.91281,-1.021 -1.5526,-2.0919 -1.9718,-3.0798 -0.42056,-0.98788 -0.6205,-1.8918 -0.68116,-2.6338 -0.0552,-0.74204 0.0138,-1.323 0.15857,-1.721 0.1434,-0.39798 0.35436,-0.61442 0.59567,-0.66659 z"
         id="path9788" />
      <path
         inkscape:connector-curvature="0"
         style="color:#000000;fill:#00ffff;fill-opacity:0.99990000999999995"
         d="m 345.68,566.8 c -0.2482,0.0782 -0.54328,-0.004 -0.88385,-0.21741 -0.34059,-0.21341 -0.72666,-0.55781 -1.1707,-0.99235 -0.88799,-0.86908 -2.0228,-2.1052 -3.4789,-3.2842 -1.0824,-0.87883 -2.3606,-1.7266 -3.7588,-2.4171 -1.3982,-0.69043 -2.908,-1.2196 -4.3903,-1.5344 -1.2548,-0.27099 -2.5123,-0.39434 -3.676,-0.43155 -1.1651,-0.0372 -2.2379,0.011 -3.1562,0.0557 -0.9197,0.0454 -1.6877,0.0863 -2.2682,0.0361 -0.58188,-0.0502 -0.97623,-0.19466 -1.1417,-0.47906 -0.16546,-0.2844 -0.0965,-0.71097 0.25233,-1.2425 0.35162,-0.53157 0.99278,-1.1671 1.9483,-1.7762 0.95555,-0.60916 2.2282,-1.1869 3.7505,-1.5568 1.5236,-0.3699 3.2941,-0.52519 5.1418,-0.33548 1.0907,0.11444 2.1938,0.3461 3.2652,0.69158 1.0714,0.34548 2.1124,0.80458 3.0804,1.3558 0.96797,0.55117 1.8628,1.1941 2.6584,1.8932 0.79561,0.69919 1.4919,1.4542 2.0738,2.2224 0.7763,1.0266 1.3458,2.0658 1.7332,3.0218 0.38883,0.95602 0.59842,1.8279 0.67839,2.553 0.0827,0.72512 0.0414,1.3036 -0.0827,1.712 -0.1241,0.4084 -0.32266,0.64742 -0.57086,0.72554 z"
         id="path9790" />
      <path
         inkscape:connector-curvature="0"
         style="color:#000000;fill:#00ffff;fill-opacity:0.99990000999999995"
         d="m 296.19,560.9 c -0.1434,0.20385 -0.45503,0.28386 -0.91695,0.27536 -0.46054,-0.008 -1.0714,-0.10425 -1.8215,-0.21926 -0.74873,-0.11513 -1.6395,-0.24851 -2.6405,-0.31787 -1.0024,-0.0694 -2.1179,-0.0739 -3.2817,0.0703 -1.1389,0.13855 -2.3427,0.42223 -3.5258,0.87512 -1.1831,0.45288 -2.3454,1.0744 -3.3865,1.8528 -1.1872,0.88128 -2.2434,1.9953 -3.0914,3.2153 -0.84938,1.22 -1.4878,2.5418 -1.9015,3.839 -0.40952,1.2682 -0.61221,2.5392 -0.69908,3.6998 -0.0827,1.1606 -0.0552,2.2114 -0.0138,3.0966 0.0414,0.88527 0.0965,1.6077 0.069,2.1431 -0.0275,0.53536 -0.13788,0.8857 -0.37367,1.0193 -0.23717,0.13361 -0.60532,0.0498 -1.0714,-0.30179 -0.46743,-0.35153 -1.0342,-0.97419 -1.5802,-1.9034 -0.54465,-0.92921 -1.0672,-2.1687 -1.383,-3.6814 -0.31439,-1.5127 -0.4178,-3.2995 -0.1241,-5.2131 0.30197,-1.9543 1.0148,-3.9945 2.1538,-5.8676 1.1376,-1.8732 2.6971,-3.5716 4.5378,-4.877 1.6119,-1.1372 3.3975,-1.9504 5.1818,-2.427 1.7842,-0.47667 3.563,-0.61804 5.1845,-0.49876 1.6546,0.12451 3.1204,0.51419 4.3296,1.0125 1.2079,0.49836 2.1607,1.1025 2.8611,1.6783 0.69909,0.57584 1.1472,1.1221 1.3844,1.5595 0.23579,0.43742 0.26337,0.76625 0.1241,0.9701 z"
         id="path9792" />
      <path
         inkscape:connector-curvature="0"
         style="color:#000000;fill:#00ffff;fill-opacity:0.99990000999999995"
         d="m 321.65,567.32 c -0.24406,-0.0382 -0.44262,-0.33102 -0.6329,-0.83452 -0.19028,-0.5035 -0.37781,-1.2194 -0.6522,-2.0936 -0.27301,-0.87413 -0.63841,-1.9093 -1.1844,-3.0045 -0.54741,-1.0953 -1.2782,-2.2516 -2.2489,-3.29 -0.94176,-1.0192 -2.1359,-1.9491 -3.5092,-2.6602 -1.372,-0.71113 -2.919,-1.2012 -4.4854,-1.3434 -1.8118,-0.18275 -3.7312,0.12107 -5.4727,0.78644 -1.7415,0.66538 -3.2913,1.6878 -4.4661,2.8972 -1.1582,1.1674 -2.0035,2.5498 -2.5992,3.8779 -0.59429,1.3281 -0.94177,2.6023 -1.1693,3.6795 -0.22752,1.0772 -0.34059,1.9624 -0.47709,2.593 -0.13789,0.63066 -0.30335,1.0105 -0.56672,1.0859 -0.26473,0.0754 -0.62738,-0.15549 -1.0217,-0.75219 -0.39574,-0.59671 -0.81767,-1.5658 -1.0631,-2.9045 -0.24406,-1.3387 -0.30335,-3.0526 0.0827,-4.9772 0.39021,-1.9246 1.2382,-4.0584 2.7343,-6.0396 0.77354,-1.0098 1.7015,-1.9546 2.7591,-2.7854 1.0576,-0.8308 2.2462,-1.5472 3.5271,-2.1076 1.2823,-0.56042 2.6543,-0.96448 4.069,-1.1832 1.4133,-0.21873 2.868,-0.2519 4.3062,-0.0874 2.453,0.29666 4.7557,1.1615 6.693,2.3888 1.9359,1.2273 3.5037,2.8109 4.6275,4.4906 1.1445,1.7245 1.8022,3.4959 2.1262,5.0785 0.32541,1.5826 0.32128,2.9767 0.17374,4.0761 -0.14891,1.0995 -0.4371,1.9078 -0.72804,2.419 -0.29094,0.51116 -0.58188,0.72873 -0.82594,0.69051 z"
         id="path9794" />
      <path
         inkscape:connector-curvature="0"
         style="color:#000000;fill:#00ffff;fill-opacity:0.99990000999999995"
         d="m 536.68,557.28 c -0.15029,0.30192 -0.68253,0.40029 -1.5402,0.38078 -0.85903,-0.0195 -2.049,-0.15061 -3.5161,-0.21936 -1.4657,-0.0687 -3.2114,-0.0697 -5.1004,0.16816 -1.889,0.23776 -3.9174,0.7176 -5.8574,1.5397 -1.1844,0.495 -2.3454,1.1199 -3.4458,1.8512 -1.1003,0.7313 -2.1372,1.5684 -3.079,2.4719 -0.94314,0.90348 -1.7884,1.8728 -2.5233,2.8622 -0.73356,0.98942 -1.3554,1.9986 -1.8697,2.9832 -0.60533,1.1508 -1.0741,2.271 -1.4519,3.2882 -0.37781,1.0172 -0.66599,1.9317 -0.91419,2.6928 -0.24819,0.76101 -0.46054,1.3691 -0.67565,1.789 -0.2151,0.41989 -0.43434,0.65182 -0.67288,0.66907 -0.23993,0.0172 -0.49639,-0.18063 -0.74734,-0.61001 -0.25095,-0.42938 -0.49364,-1.0913 -0.66324,-1.9797 -0.1696,-0.88841 -0.26612,-2.0043 -0.19993,-3.303 0.069,-1.2987 0.2937,-2.7802 0.76941,-4.3523 0.41365,-1.3556 1.0093,-2.7665 1.8036,-4.1518 0.79422,-1.3853 1.787,-2.7439 2.9535,-3.9936 1.1679,-1.2496 2.5109,-2.3892 3.9725,-3.3524 1.4616,-0.9632 3.0418,-1.7492 4.6633,-2.3233 1.332,-0.46686 2.6778,-0.78655 3.9877,-0.97372 1.3099,-0.18717 2.5854,-0.24211 3.7864,-0.19242 2.402,0.0994 4.4951,0.61829 6.1111,1.2638 1.616,0.64548 2.7632,1.4071 3.4472,2.0441 0.68392,0.63701 0.91419,1.1457 0.76251,1.4476 z"
         id="path9796" />
      <path
         inkscape:connector-curvature="0"
         style="color:#000000;fill:#00ffff;fill-opacity:0.99990000999999995"
         d="m 494.97,574.88 c -0.27991,0.25661 -0.89625,0.12672 -1.8228,-0.27813 -0.9266,-0.40485 -2.1717,-1.0788 -3.7284,-1.8119 -1.5567,-0.73298 -3.4306,-1.5193 -5.5306,-2.1353 -2.0986,-0.61598 -4.4192,-1.0552 -6.7661,-1.1696 -2.4971,-0.1303 -5.0453,0.11568 -7.3893,0.61135 -2.3441,0.49568 -4.4744,1.2331 -6.2462,1.9595 -1.7718,0.72639 -3.1921,1.4338 -4.2386,1.8632 -1.0479,0.42943 -1.7332,0.57228 -2.02,0.28845 -0.1434,-0.14191 -0.18614,-0.38774 -0.1103,-0.73416 0.0689,-0.34641 0.25785,-0.79343 0.57636,-1.3208 0.31714,-0.52741 0.76665,-1.135 1.3623,-1.7865 0.59428,-0.65146 1.3347,-1.3464 2.2241,-2.0361 0.88799,-0.68976 1.9263,-1.3738 3.0969,-1.9986 1.172,-0.62478 2.4764,-1.1896 3.8829,-1.6455 1.4051,-0.45586 2.9094,-0.80213 4.4648,-1.004 1.554,-0.20188 3.1562,-0.25897 4.7488,-0.15866 1.4919,0.0982 2.9604,0.3329 4.3614,0.68246 1.4009,0.34955 2.7315,0.81348 3.9587,1.3555 1.2272,0.54197 2.3496,1.1615 3.3479,1.8146 0.99692,0.65309 1.8697,1.3393 2.6116,2.0142 1.4836,1.3499 2.4364,2.643 2.937,3.6145 0.50191,0.97145 0.56258,1.6188 0.28405,1.8755 z"
         id="path9798" />
      <path
         inkscape:connector-curvature="0"
         style="color:#000000;fill:#00ffff;fill-opacity:0.99990000999999995"
         d="m 533.12,585.65 c -0.2675,-0.0552 -0.49639,-0.32758 -0.64394,-0.8313 -0.14753,-0.50371 -0.21096,-1.2402 -0.1103,-2.1743 0.0965,-0.93408 0.36677,-2.0661 0.88523,-3.2964 0.51845,-1.2302 1.292,-2.5568 2.3578,-3.8249 1.0962,-1.2986 2.4875,-2.5157 4.098,-3.4922 1.6105,-0.97656 3.4348,-1.7088 5.3155,-2.1104 1.241,-0.25994 2.4888,-0.37353 3.694,-0.35641 1.2051,0.0171 2.3689,0.16459 3.4499,0.4106 1.0796,0.24601 2.078,0.59005 2.9687,0.99111 0.89075,0.40105 1.6739,0.85858 2.3413,1.3299 1.332,0.94267 2.1883,1.9288 2.635,2.6999 0.44537,0.77112 0.49226,1.3247 0.24682,1.5998 -0.24406,0.27508 -0.77769,0.27722 -1.5554,0.11431 -0.77768,-0.16287 -1.8091,-0.48414 -3.068,-0.78457 -1.2589,-0.3004 -2.7522,-0.57588 -4.371,-0.65686 -1.6188,-0.0809 -3.3589,0.0358 -5.0218,0.45751 -1.2865,0.31759 -2.555,0.80339 -3.7298,1.4114 -1.1748,0.60797 -2.2544,1.3367 -3.1948,2.1154 -0.91695,0.75805 -1.7125,1.5725 -2.3937,2.3493 -0.68116,0.77678 -1.2465,1.5154 -1.7305,2.1392 -0.48398,0.62373 -0.88523,1.1327 -1.241,1.4678 -0.35436,0.33514 -0.66323,0.49613 -0.9321,0.441 z"
         id="path9800" />
      <path
         inkscape:connector-curvature="0"
         style="color:#000000;fill:#00ffff;fill-opacity:0.99990000999999995"
         d="m 554,580.67 c -0.1958,-0.0758 -0.35024,-0.26487 -0.43848,-0.57771 -0.0965,-0.31286 -0.11031,-0.75027 -0.0276,-1.2978 0.0827,-0.54755 0.28405,-1.2057 0.64393,-1.9253 0.35851,-0.71961 0.88109,-1.5004 1.6064,-2.2564 0.67289,-0.69998 1.5126,-1.3695 2.5068,-1.925 0.99278,-0.55554 2.1414,-0.99583 3.3948,-1.2427 1.0934,-0.21348 2.2489,-0.27659 3.4086,-0.16819 1.161,0.10838 2.3261,0.38847 3.4334,0.83744 1.1072,0.45104 2.1372,1.0632 3.0445,1.7952 0.90591,0.73191 1.6905,1.5829 2.3234,2.4977 0.72253,1.0468 1.2368,2.1578 1.5609,3.2437 0.32403,1.086 0.45916,2.146 0.45641,3.1122 0,1.0427 -0.17373,1.963 -0.41504,2.7265 -0.2413,0.76347 -0.55568,1.3709 -0.87282,1.8227 -0.31714,0.45178 -0.63566,0.74905 -0.91557,0.91167 -0.28128,0.16261 -0.52258,0.19145 -0.71562,0.11059 -0.19167,-0.0809 -0.33782,-0.27127 -0.45089,-0.5513 -0.11031,-0.28002 -0.19304,-0.65011 -0.27439,-1.0934 -0.0827,-0.44327 -0.16134,-0.96046 -0.27716,-1.5289 -0.12409,-0.56846 -0.26887,-1.1887 -0.49363,-1.8226 -0.20683,-0.58755 -0.47571,-1.1959 -0.81904,-1.7916 -0.34334,-0.59571 -0.75976,-1.1785 -1.2465,-1.7029 -0.84938,-0.9195 -1.958,-1.7059 -3.1548,-2.1896 -1.1955,-0.48711 -2.5371,-0.69522 -3.7877,-0.62726 -0.71701,0.037 -1.4244,0.16591 -2.0876,0.35567 -0.66324,0.18976 -1.2837,0.44031 -1.8422,0.72026 -0.60394,0.30082 -1.1472,0.64209 -1.627,0.97148 -0.47985,0.32939 -0.89902,0.6471 -1.2658,0.91142 -0.36677,0.26431 -0.68253,0.47535 -0.95969,0.59934 -0.27577,0.12397 -0.51293,0.16074 -0.70873,0.0849 z"
         id="path9802" />
      <path
         inkscape:connector-curvature="0"
         style="color:#000000;fill:#00ffff;fill-opacity:0.99990000999999995"
         d="m 589.38,591.78 c -0.0965,-0.20066 -0.0689,-0.46389 0.1241,-0.77835 0.18339,-0.31446 0.52121,-0.68026 1.0341,-1.049 0.51432,-0.36872 1.2051,-0.73968 2.0738,-1.0311 0.86731,-0.29147 1.9125,-0.50193 3.0942,-0.53283 1.1127,-0.0277 2.333,0.10562 3.5795,0.45403 1.2465,0.34835 2.5164,0.9126 3.705,1.7074 0.91418,0.61632 1.7622,1.3578 2.5095,2.1979 0.74596,0.84011 1.3899,1.7786 1.907,2.7763 0.51569,0.99772 0.90453,2.0542 1.1555,3.1241 0.25095,1.0698 0.36402,2.1525 0.34748,3.2033 -0.0414,1.9527 -0.53638,3.7083 -1.2217,5.1199 -0.68668,1.4115 -1.5581,2.4811 -2.3785,3.2148 -0.82181,0.73377 -1.5871,1.1383 -2.1648,1.3031 -0.57637,0.16477 -0.96796,0.0951 -1.1596,-0.13127 -0.19166,-0.22643 -0.18752,-0.6094 -0.0552,-1.128 0.1241,-0.51855 0.37919,-1.1768 0.64393,-1.9786 0.26474,-0.80179 0.54189,-1.7513 0.71425,-2.8092 0.17098,-1.0579 0.23716,-2.224 0.0689,-3.3833 -0.15719,-1.2486 -0.58464,-2.5493 -1.2368,-3.7435 -0.65358,-1.1942 -1.5278,-2.2726 -2.5247,-3.0881 -0.66047,-0.54602 -1.3858,-1.0033 -2.1221,-1.3696 -0.73631,-0.36635 -1.485,-0.64158 -2.202,-0.83968 -0.76251,-0.21181 -1.5016,-0.33869 -2.1745,-0.42453 -0.67288,-0.0859 -1.2823,-0.13099 -1.8008,-0.18011 -0.51984,-0.0491 -0.95004,-0.10272 -1.2768,-0.19856 -0.32541,-0.0958 -0.54603,-0.23452 -0.63979,-0.43516 z"
         id="path9804" />
      <path
         inkscape:connector-curvature="0"
         style="color:#000000;fill:#00ffff;fill-opacity:0.99990000999999995"
         d="m 584.67,586.81 c -2.2476,-0.99878 -4.6316,-1.419 -6.8364,-1.3312 -2.1069,0.0899 -4.0042,0.62835 -5.5706,1.349 -1.565,0.72059 -2.8018,1.6201 -3.7119,2.4678 -0.91006,0.84767 -1.5002,1.6418 -1.8366,2.2238 -0.33782,0.58201 -0.4302,0.95101 -0.31438,1.0386 0.11031,0.0876 0.42882,-0.11016 0.93763,-0.49227 0.5088,-0.38212 1.2189,-0.94708 2.1676,-1.5471 0.94728,-0.60007 2.1386,-1.2348 3.5561,-1.723 1.4175,-0.48824 3.0638,-0.82921 4.8233,-0.8166 1.8408,0.007 3.8208,0.41067 5.7099,1.2504 2.0062,0.89205 3.716,2.1909 4.9874,3.654 1.1279,1.2914 1.9304,2.7151 2.4847,4.063 0.55431,1.3479 0.86041,2.6206 1.041,3.6942 0.17925,1.0736 0.23441,1.9514 0.29094,2.5649 0.0552,0.61351 0.1241,0.96636 0.26198,0.99264 0.14065,0.0263 0.34748,-0.27823 0.5488,-0.89706 0.20269,-0.61885 0.39435,-1.556 0.42469,-2.7604 0.0275,-1.2044 -0.11032,-2.679 -0.58465,-4.2837 -0.47294,-1.6047 -1.2851,-3.3393 -2.5523,-4.9529 -0.71839,-0.91015 -1.5747,-1.769 -2.5536,-2.5324 -0.97899,-0.76341 -2.0807,-1.4312 -3.2734,-1.9617 z"
         id="path9806" />
      <path
         inkscape:connector-curvature="0"
         style="color:#000000;fill:#00ffff;fill-opacity:0.99990000999999995"
         d="m 605.59,607.3 c 0.0414,-0.22432 0.22475,-0.42516 0.56395,-0.57359 0.33921,-0.14843 0.83697,-0.24384 1.4795,-0.22567 0.64393,0.0182 1.4326,0.15167 2.3082,0.4746 0.87558,0.32293 1.838,0.83748 2.7743,1.6011 0.88799,0.72726 1.736,1.6684 2.4296,2.8012 0.69494,1.1328 1.2313,2.4568 1.5126,3.895 0.1958,1.0352 0.25647,2.1048 0.17649,3.1644 -0.0827,1.0597 -0.29783,2.109 -0.64392,3.1049 -0.34748,0.99585 -0.82042,1.9378 -1.3927,2.7902 -0.57222,0.85242 -1.2451,1.6151 -1.9787,2.2653 -1.394,1.212 -2.9356,1.96 -4.3503,2.3444 -1.4161,0.3844 -2.7026,0.41267 -3.716,0.26757 -1.0135,-0.14508 -1.7553,-0.45683 -2.2131,-0.78073 -0.45778,-0.32388 -0.63565,-0.6576 -0.58739,-0.94464 0.0414,-0.28704 0.31989,-0.52989 0.75286,-0.76745 0.43434,-0.23758 1.03,-0.47448 1.7236,-0.78832 0.69357,-0.31385 1.4892,-0.70783 2.2848,-1.2365 0.79561,-0.5287 1.5912,-1.1921 2.2282,-1.9972 0.68943,-0.84325 1.2437,-1.8975 1.5912,-3.0332 0.34747,-1.1356 0.48397,-2.3432 0.36263,-3.4591 -0.0827,-0.79783 -0.27853,-1.5868 -0.55705,-2.3192 -0.27854,-0.73235 -0.63567,-1.4072 -1.03,-2.0015 -0.41228,-0.62723 -0.87834,-1.1783 -1.3306,-1.657 -0.45089,-0.47863 -0.88661,-0.88541 -1.2589,-1.2405 -0.37092,-0.35506 -0.67702,-0.65969 -0.87696,-0.93556 -0.20131,-0.27587 -0.29645,-0.52425 -0.25233,-0.7486 z"
         id="path9808" />
      <path
         inkscape:connector-curvature="0"
         style="color:#000000;fill:#00ffff;fill-opacity:0.99990000999999995"
         d="m 612.59,639.72 c 0.28267,-0.979 0.42331,-1.9748 0.42883,-2.9403 0,-1.6173 -0.37229,-3.0954 -0.91418,-4.3137 -0.5419,-1.2183 -1.2493,-2.1784 -1.9263,-2.8724 -0.67702,-0.69404 -1.3223,-1.1268 -1.8022,-1.3556 -0.47985,-0.22875 -0.79285,-0.25943 -0.88799,-0.13141 -0.0965,0.1281 0.0276,0.4031 0.29646,0.81614 0.26198,0.41304 0.65633,0.96993 1.0659,1.6919 0.40952,0.72196 0.83421,1.6126 1.1431,2.6497 0.30887,1.037 0.50329,2.2204 0.43848,3.4562 -0.0276,0.73792 -0.15994,1.5005 -0.38194,2.2609 -0.33645,1.1511 -0.86455,2.2058 -1.4892,3.1026 -0.62325,0.89678 -1.3403,1.6346 -2.0628,2.2093 -1.121,0.89513 -2.2379,1.4305 -3.0418,1.8018 -0.40124,0.18562 -0.72666,0.33207 -0.95004,0.46306 -0.22337,0.13099 -0.34333,0.24745 -0.33368,0.35801 0,0.11059 0.14754,0.20898 0.4109,0.28048 0.26337,0.0714 0.65083,0.11527 1.1458,0.0968 0.49363,-0.0186 1.0962,-0.10024 1.7718,-0.28811 0.67702,-0.18787 1.4257,-0.48267 2.1924,-0.92355 0.99692,-0.57686 2.0062,-1.4038 2.8749,-2.4795 0.86731,-1.0757 1.5912,-2.4002 2.0214,-3.8823 z"
         id="path9810" />
      <path
         inkscape:connector-curvature="0"
         style="color:#000000;fill:#00ffff;fill-opacity:0.99990000999999995"
         d="m 601.5,643.09 c 0.24957,-0.0906 0.56671,-0.011 0.92384,0.28972 0.35574,0.30022 0.75009,0.82379 1.0741,1.5918 0.32403,0.76807 0.57498,1.7837 0.59566,2.9896 0.0138,1.2059 -0.19717,2.6023 -0.79422,4.0275 -0.60945,1.4317 -1.5884,2.8328 -2.8901,3.9788 -1.3016,1.1461 -2.9246,2.0307 -4.6964,2.4925 -1.6891,0.42926 -3.432,0.45527 -5.0315,0.13981 -1.6009,-0.31545 -3.0528,-0.96883 -4.2345,-1.806 -1.1872,-0.84976 -2.06,-1.8526 -2.6571,-2.8185 -0.59567,-0.96594 -0.9197,-1.8929 -1.0603,-2.6635 -0.14203,-0.77053 -0.11031,-1.3853 0.0138,-1.8083 0.12409,-0.42298 0.3323,-0.65625 0.5805,-0.72179 0.24819,-0.0655 0.53637,0.0349 0.8673,0.2521 0.33093,0.21716 0.70736,0.55066 1.1582,0.94004 0.4495,0.38937 0.97485,0.83529 1.5884,1.2628 0.61497,0.42746 1.3182,0.83685 2.089,1.1294 0.76114,0.29676 1.6202,0.49487 2.5109,0.55725 0.89074,0.0625 1.8104,-0.011 2.6584,-0.2455 0.88937,-0.23439 1.7608,-0.66568 2.5302,-1.2123 0.7694,-0.54658 1.4313,-1.2064 1.9387,-1.905 0.51156,-0.68888 0.89351,-1.453 1.1803,-2.1846 0.2868,-0.73165 0.47985,-1.4314 0.63704,-2.0381 0.15719,-0.60671 0.27991,-1.1225 0.43158,-1.5098 0.1503,-0.38731 0.33369,-0.64752 0.58188,-0.73814 z"
         id="path9812" />
      <path
         inkscape:connector-curvature="0"
         style="color:#000000;fill:#00ffff;fill-opacity:0.99990000999999995"
         d="m 590.07,640.86 c 0.26474,0.0739 0.46468,0.40755 0.54879,1.0088 0.0827,0.60123 0.0552,1.4716 -0.18614,2.5588 -0.23992,1.0872 -0.68943,2.3914 -1.4382,3.7859 -0.7501,1.3945 -1.8008,2.8769 -3.1852,4.2614 -1.4244,1.4219 -3.1879,2.7194 -5.1804,3.7146 -1.9911,0.99524 -4.2069,1.6841 -6.4531,1.9823 -1.9083,0.24852 -3.8057,0.20939 -5.5775,-0.0594 -1.7705,-0.26884 -3.4127,-0.7654 -4.8481,-1.3892 -1.4726,-0.63676 -2.7302,-1.4066 -3.745,-2.1889 -1.0148,-0.78231 -1.787,-1.5752 -2.3386,-2.2801 -0.55154,-0.70493 -0.88247,-1.321 -1.0328,-1.7921 -0.15029,-0.47109 -0.12409,-0.79734 0.0552,-0.96966 0.17511,-0.17233 0.49639,-0.1915 0.95141,-0.0878 0.45365,0.10368 1.0438,0.32933 1.7677,0.62066 0.72529,0.29135 1.5871,0.64756 2.5812,0.99986 0.99416,0.35229 2.1207,0.69995 3.352,0.97266 1.201,0.26271 2.504,0.45381 3.8553,0.51784 1.3513,0.064 2.7494,2.5e-4 4.1242,-0.22876 1.6422,-0.26714 3.2776,-0.75734 4.8012,-1.4193 1.5222,-0.66199 2.9301,-1.494 4.1559,-2.4053 1.1927,-0.88461 2.2269,-1.8514 3.1024,-2.7788 0.87557,-0.92736 1.5953,-1.8146 2.1965,-2.5625 0.5998,-0.74794 1.0824,-1.3567 1.4892,-1.7535 0.40676,-0.39683 0.73907,-0.58136 1.0052,-0.50746 z"
         id="path9814" />
      <path
         inkscape:connector-curvature="0"
         style="color:#000000;fill:#00ffff;fill-opacity:0.99990000999999995"
         d="m 566.21,654.62 c 0.18339,0.23786 0.12409,0.67618 -0.23717,1.2858 -0.35436,0.60966 -1.001,1.3899 -1.9704,2.2385 -0.96797,0.84854 -2.2586,1.7625 -3.8498,2.5935 -1.5912,0.83108 -3.4816,1.5752 -5.5678,2.0919 -2.2682,0.56591 -4.7709,0.85822 -7.2873,0.78916 -2.5164,-0.0691 -5.0411,-0.50075 -7.3452,-1.2372 -2.2296,-0.71676 -4.2331,-1.699 -5.896,-2.7668 -1.6643,-1.0678 -2.9894,-2.2156 -3.9628,-3.2599 -0.97348,-1.0443 -1.5995,-1.9819 -1.9221,-2.6924 -0.32404,-0.7105 -0.34886,-1.1935 -0.12411,-1.4189 0.22476,-0.2254 0.69771,-0.19463 1.3982,0.0414 0.69908,0.23595 1.6284,0.67506 2.777,1.2126 1.1486,0.53748 2.5206,1.1712 4.0828,1.7743 1.5623,0.60313 3.3148,1.1732 5.1804,1.596 1.9097,0.43603 3.9504,0.70338 5.9994,0.77764 2.049,0.0743 4.1007,-0.0435 6.0229,-0.30066 1.7663,-0.23973 3.4279,-0.59516 4.9101,-0.98243 1.4823,-0.38727 2.7881,-0.80463 3.8815,-1.1529 1.0934,-0.34826 1.9773,-0.62535 2.635,-0.74565 0.65771,-0.12038 1.0907,-0.0818 1.2754,0.15604 z"
         id="path9816" />
      <path
         inkscape:connector-curvature="0"
         style="color:#000000;fill:#00ffff;fill-opacity:0.99990000999999995"
         d="m 266.57,610.78 c -0.16685,0.24015 -0.55292,0.31999 -1.1307,0.29241 -0.57636,-0.0275 -1.3458,-0.16005 -2.2875,-0.29773 -0.94176,-0.13775 -2.0586,-0.2786 -3.2982,-0.3114 -1.2396,-0.0328 -2.6033,0.044 -3.9808,0.32811 -1.4671,0.29665 -2.9797,0.8366 -4.3958,1.6019 -1.4161,0.76528 -2.7274,1.7527 -3.8098,2.8762 -1.1693,1.197 -2.0917,2.593 -2.7867,3.9637 -0.69495,1.3708 -1.1638,2.7127 -1.5044,3.8668 -0.34195,1.1541 -0.55981,2.1234 -0.79008,2.8153 -0.23027,0.69192 -0.47709,1.1091 -0.80526,1.1751 -0.32955,0.066 -0.74183,-0.22265 -1.1514,-0.92359 -0.40814,-0.70094 -0.80664,-1.8214 -0.9721,-3.3147 -0.16409,-1.4933 -0.0827,-3.3618 0.47158,-5.3741 0.27714,-1.0061 0.6715,-2.045 1.1982,-3.0724 0.52535,-1.0274 1.1844,-2.0429 1.9745,-2.9985 1.4685,-1.7586 3.3534,-3.256 5.43,-4.3032 2.0766,-1.0472 4.3338,-1.6409 6.4779,-1.7824 2.0145,-0.12727 3.8829,0.13809 5.4534,0.60762 1.5719,0.46955 2.846,1.137 3.7891,1.8055 0.94314,0.66844 1.5595,1.3342 1.8932,1.8684 0.33507,0.53427 0.39022,0.93676 0.22476,1.1769 z"
         id="path9818" />
      <path
         inkscape:connector-curvature="0"
         style="color:#000000;fill:#00ffff;fill-opacity:0.99990000999999995"
         d="m 250.3,630.43 c -0.15443,0.10893 -0.3847,0.10672 -0.6853,0.0205 -0.30059,-0.0862 -0.6715,-0.2558 -1.1238,-0.46588 -0.4509,-0.21008 -0.98451,-0.46067 -1.6022,-0.69479 -0.61774,-0.23414 -1.321,-0.45205 -2.0904,-0.5806 -0.69495,-0.11845 -1.4561,-0.16657 -2.2462,-0.10921 -0.79009,0.0574 -1.6091,0.22008 -2.3882,0.51615 -1.3168,0.4944 -2.606,1.4029 -3.5092,2.5831 -0.86179,1.1151 -1.4313,2.5465 -1.565,3.9581 -0.11031,1.1918 0.069,2.432 0.47709,3.5209 0.44813,1.1864 1.1968,2.2478 2.0545,3.0567 0.51708,0.49075 1.0893,0.90161 1.667,1.2356 0.57775,0.33397 1.1624,0.5911 1.7222,0.78599 0.62876,0.21992 1.2341,0.3633 1.7815,0.4685 0.54741,0.10521 1.0369,0.17254 1.4506,0.23804 0.41227,0.0655 0.75147,0.12961 1.001,0.22053 0.25095,0.091 0.41366,0.20927 0.47571,0.36857 0.0552,0.1593 0.0138,0.35999 -0.14064,0.59417 -0.16133,0.23418 -0.44262,0.50202 -0.86456,0.76944 -0.42054,0.26742 -0.98174,0.53427 -1.6863,0.73999 -0.70598,0.20569 -1.5567,0.3497 -2.5302,0.35042 -0.86593,-2.3e-4 -1.8229,-0.11486 -2.8198,-0.39356 -0.9983,-0.27877 -2.0366,-0.72239 -3.0432,-1.3677 -0.83146,-0.5341 -1.6312,-1.1989 -2.3496,-1.9903 -0.71977,-0.79143 -1.3596,-1.7095 -1.8711,-2.7355 -0.93763,-1.8867 -1.4078,-4.0898 -1.2575,-6.3243 0.0965,-1.3313 0.39986,-2.6438 0.90315,-3.8716 0.50328,-1.2278 1.2024,-2.3701 2.0573,-3.3705 0.90453,-1.0523 1.9621,-1.9216 3.0928,-2.5876 1.132,-0.66597 2.3372,-1.1286 3.5395,-1.3931 1.4271,-0.30988 2.8156,-0.33481 4.0773,-0.15983 1.2616,0.175 2.3965,0.54868 3.3603,1.025 1.0631,0.52789 1.9001,1.1701 2.5357,1.8033 0.63566,0.63322 1.07,1.2572 1.3513,1.7954 0.28128,0.53826 0.40952,0.99131 0.43434,1.3279 0.0275,0.33655 -0.0552,0.55741 -0.20821,0.66634 z"
         id="path9820" />
      <path
         inkscape:connector-curvature="0"
         style="color:#000000;fill:#00ffff;fill-opacity:0.99990000999999995"
         d="m 247.06,658.57 c -0.72804,-0.34765 -1.4009,-0.76897 -1.9994,-1.2479 -0.91281,-0.72641 -1.6726,-1.5864 -2.2682,-2.4838 -0.59705,-0.89734 -1.0314,-1.8316 -1.3237,-2.7317 -0.30473,-0.93406 -0.46054,-1.8376 -0.53362,-2.6494 -0.069,-0.81176 -0.0552,-1.5326 -0.0275,-2.1315 0.0275,-0.5989 0.069,-1.0772 0.0827,-1.4172 0,-0.34002 -0.0276,-0.54305 -0.12409,-0.58397 -0.11031,-0.041 -0.27302,0.0834 -0.48261,0.37475 -0.2082,0.29135 -0.4564,0.75111 -0.67978,1.3791 -0.22337,0.62795 -0.41917,1.4255 -0.50328,2.3686 -0.0827,0.94308 -0.0552,2.0326 0.1889,3.2026 0.23303,1.1268 0.66186,2.3175 1.3265,3.4716 0.66461,1.1541 1.565,2.2707 2.6984,3.222 0.75148,0.62729 1.5967,1.1732 2.5137,1.6125 1.2892,0.61826 2.6474,0.99132 3.9739,1.1394 1.3265,0.14815 2.6212,0.0717 3.807,-0.18057 1.5829,-0.34176 2.937,-0.98385 4.0166,-1.7124 1.0783,-0.72853 1.8849,-1.5418 2.4544,-2.2747 0.56947,-0.73288 0.90591,-1.385 1.0755,-1.8547 0.17098,-0.46972 0.182,-0.75728 0.0689,-0.82425 -0.1103,-0.067 -0.34609,0.0891 -0.69908,0.39646 -0.35299,0.30739 -0.83145,0.76567 -1.474,1.2757 -0.64255,0.51 -1.4519,1.072 -2.4364,1.5586 -0.98451,0.48652 -2.1469,0.8975 -3.4292,1.0734 -0.9597,0.1354 -1.9952,0.13816 -3.0528,-0.019 -1.0562,-0.1572 -2.1359,-0.47424 -3.1604,-0.96355 z"
         id="path9822" />
      <path
         inkscape:connector-curvature="0"
         style="color:#000000;fill:#00ffff;fill-opacity:0.99990000999999995"
         d="m 258.22,648.29 c 0.19166,-0.0598 0.43986,0.071 0.7501,0.36442 0.31162,0.29343 0.68805,0.74959 1.1596,1.323 0.47157,0.57337 1.0424,1.2644 1.7484,2.0056 0.7046,0.74122 1.5471,1.533 2.5454,2.2792 0.91694,0.68574 1.9732,1.3373 3.1521,1.8835 1.1789,0.54623 2.4806,0.98671 3.8539,1.2472 1.3196,0.25208 2.7205,0.33902 4.1311,0.2377 1.412,-0.10135 2.8322,-0.39089 4.1766,-0.87396 1.3251,-0.47368 2.5964,-1.1426 3.7491,-1.9563 1.1514,-0.81371 2.1841,-1.7714 3.0487,-2.8147 0.98726,-1.1862 1.7718,-2.5011 2.3578,-3.8275 0.58464,-1.3264 0.9721,-2.6634 1.1969,-3.9265 0.24268,-1.3552 0.30335,-2.6383 0.28266,-3.777 -0.0276,-1.1388 -0.12409,-2.1346 -0.21923,-2.9593 -0.0965,-0.82473 -0.17788,-1.4802 -0.18202,-1.9564 0,-0.47611 0.069,-0.77405 0.25785,-0.87705 0.18753,-0.10301 0.48674,-0.011 0.87972,0.30788 0.39297,0.31877 0.87971,0.86585 1.3802,1.6727 0.5019,0.8069 1.019,1.876 1.4188,3.2072 0.40125,1.3313 0.68529,2.9265 0.69219,4.7216 0,1.6728 -0.23854,3.5026 -0.80939,5.3642 -0.57223,1.8616 -1.4754,3.7533 -2.7384,5.5074 -1.1114,1.5389 -2.4861,2.9505 -4.0663,4.1371 -1.5802,1.1867 -3.3644,2.1472 -5.2604,2.8108 -1.9221,0.67028 -3.9311,1.0253 -5.9029,1.0756 -1.9718,0.0503 -3.9063,-0.20351 -5.6975,-0.70828 -1.8628,-0.52678 -3.5478,-1.3161 -5.0011,-2.2477 -1.4519,-0.93163 -2.6722,-2.0042 -3.6554,-3.1 -1.0686,-1.1948 -1.8477,-2.4061 -2.402,-3.5113 -0.55292,-1.1052 -0.88246,-2.1044 -1.0631,-2.9278 -0.18063,-0.82349 -0.2151,-1.4721 -0.16408,-1.9214 0.0552,-0.4493 0.18753,-0.70021 0.38057,-0.76001 z"
         id="path9824" />
      <path
         inkscape:connector-curvature="0"
         style="color:#000000;fill:#00ffff;fill-opacity:0.99990000999999995"
         d="m 305.22,662.17 c 1.0796,2e-4 2.14,-0.10962 3.1576,-0.31824 1.6036,-0.331 3.0845,-0.90185 4.382,-1.6141 1.2989,-0.71226 2.413,-1.5651 3.33,-2.4596 0.95004,-0.92841 1.6836,-1.8951 2.2365,-2.7988 0.55154,-0.90365 0.92384,-1.7442 1.1665,-2.4519 0.24406,-0.70762 0.35989,-1.2826 0.39436,-1.6835 0.0414,-0.40085 0,-0.62796 -0.1241,-0.66176 -0.1103,-0.0338 -0.2675,0.12686 -0.49225,0.44207 -0.22338,0.31518 -0.51156,0.78507 -0.89626,1.36 -0.38333,0.5749 -0.86455,1.2552 -1.4768,1.9766 -0.61221,0.72134 -1.3568,1.4839 -2.2544,2.2033 -0.86317,0.69394 -1.8739,1.3493 -3.0128,1.8941 -1.1403,0.54482 -2.4103,0.97888 -3.7615,1.2274 -0.8549,0.15801 -1.7443,0.24023 -2.6529,0.2394 -1.3361,-0.002 -2.6392,-0.18209 -3.8539,-0.50029 -1.2134,-0.3182 -2.3386,-0.77364 -3.3396,-1.318 -1.3251,-0.71748 -2.4434,-1.5919 -3.3575,-2.4671 -0.91281,-0.87519 -1.6229,-1.7512 -2.1745,-2.5097 -0.55154,-0.75845 -0.94866,-1.4001 -1.2465,-1.8368 -0.29783,-0.43669 -0.50053,-0.66884 -0.62601,-0.62803 -0.12409,0.0408 -0.16684,0.35346 -0.0827,0.90208 0.0827,0.54863 0.29094,1.3341 0.70736,2.2743 0.41642,0.94019 1.0452,2.0356 1.9566,3.1467 0.91143,1.1111 2.1083,2.2372 3.6099,3.1836 1.1362,0.7144 2.4378,1.3172 3.8581,1.7382 1.4216,0.42102 2.9632,0.65982 4.5502,0.66011 z"
         id="path9826" />
      <path
         inkscape:connector-curvature="0"
         style="color:#000000;fill:#00ffff;fill-opacity:0.99990000999999995"
         d="m 299.22,598.54 c -0.27439,0.32402 -0.82318,0.40284 -1.5802,0.32145 -0.75837,-0.0814 -1.7277,-0.31641 -2.8611,-0.57058 -1.1334,-0.25416 -2.4323,-0.52397 -3.8057,-0.70101 -1.3734,-0.17706 -2.8184,-0.2588 -4.2166,-0.20558 -1.1858,0.0412 -2.3551,0.17308 -3.4403,0.34388 -1.0865,0.17079 -2.089,0.37915 -2.9604,0.54837 -0.87282,0.16922 -1.616,0.29741 -2.2007,0.30613 -0.58326,0.008 -1.008,-0.10493 -1.2313,-0.38529 -0.22199,-0.28041 -0.24268,-0.72993 0,-1.318 0.23992,-0.58808 0.74597,-1.3139 1.5443,-2.0583 0.79974,-0.74445 1.8973,-1.5026 3.239,-2.1106 1.343,-0.60805 2.9273,-1.0595 4.6013,-1.2357 0.99553,-0.10218 2.0104,-0.10755 3.0073,-0.0174 0.99554,0.0902 1.9704,0.27566 2.886,0.53909 0.91694,0.26344 1.776,0.60441 2.5481,0.99377 0.77217,0.38933 1.4588,0.82655 2.0462,1.2774 1.1734,0.90163 1.9373,1.8484 2.3165,2.611 0.38056,0.76267 0.38332,1.3374 0.11031,1.6614 z"
         id="path9828" />
      <path
         inkscape:connector-curvature="0"
         style="color:#000000;fill:#00ffff;fill-opacity:0.99990000999999995"
         d="m 263.07,584.42 c -0.1696,1.3819 -0.11031,2.7433 0.11031,4.0052 0.23027,1.2619 0.6329,2.4238 1.1389,3.4385 0.55844,1.1182 1.2341,2.0488 1.9139,2.79 0.6784,0.74126 1.3609,1.2945 1.9594,1.6885 0.59842,0.39402 1.1114,0.63064 1.485,0.74611 0.37229,0.1154 0.60394,0.11155 0.67012,0.004 0.069,-0.10686 -0.0414,-0.30953 -0.26198,-0.60344 -0.22476,-0.29391 -0.57361,-0.681 -0.98589,-1.178 -0.41228,-0.49697 -0.88799,-1.1053 -1.3554,-1.8369 -0.46882,-0.73153 -0.92936,-1.587 -1.2989,-2.5564 -0.33507,-0.8789 -0.59567,-1.8566 -0.73493,-2.9004 -0.14065,-1.0438 -0.16134,-2.1532 -0.0276,-3.2735 0.0276,-0.20977 0.0552,-0.41755 0.0965,-0.62299 0.19719,-1.1213 0.54603,-2.1807 0.98728,-3.1375 0.4426,-0.95684 0.97761,-1.8107 1.5484,-2.546 0.58326,-0.75297 1.2051,-1.3863 1.7967,-1.9137 0.59154,-0.52737 1.1527,-0.94935 1.6284,-1.292 0.47571,-0.34268 0.8673,-0.60716 1.1279,-0.81874 0.2606,-0.21159 0.39159,-0.37175 0.35574,-0.4854 -0.0414,-0.11362 -0.23854,-0.17371 -0.59153,-0.16259 -0.35161,0.011 -0.8549,0.0947 -1.4712,0.29148 -0.61636,0.19677 -1.3472,0.50803 -2.129,0.97763 -0.78182,0.4696 -1.6147,1.0986 -2.4102,1.9154 -0.7763,0.79851 -1.5099,1.7725 -2.1124,2.9024 -0.60257,1.1299 -1.0741,2.4155 -1.3306,3.7985 -0.0414,0.25375 -0.0827,0.51028 -0.1241,0.76902 z"
         id="path9830" />
      <path
         inkscape:connector-curvature="0"
         style="color:#000000;fill:#00ffff;fill-opacity:0.99990000999999995"
         d="m 548.22,546.74 c -0.12409,0.005 -0.24267,0.0124 -0.36263,0.0202 -1.9566,0.13706 -3.8029,0.67215 -5.4093,1.4579 -1.6078,0.78576 -2.977,1.8203 -4.0594,2.9466 -1.1003,1.1483 -1.8959,2.3752 -2.4502,3.5219 -0.55568,1.1468 -0.87144,2.2135 -1.0383,3.1015 -0.16822,0.88798 -0.19167,1.5983 -0.15168,2.0817 0.0414,0.48335 0.13789,0.74107 0.25785,0.75306 0.1241,0.0124 0.25647,-0.22119 0.43434,-0.64754 0.17788,-0.42635 0.40125,-1.0469 0.73218,-1.8003 0.3323,-0.75342 0.77492,-1.641 1.3913,-2.5733 0.61635,-0.93235 1.4078,-1.9101 2.4116,-2.8011 0.98451,-0.87649 2.1814,-1.6726 3.5492,-2.2775 1.3692,-0.60491 2.9066,-1.018 4.513,-1.1243 0.0965,-0.007 0.19717,-0.0124 0.29645,-0.0167 1.6022,-0.071 3.1728,0.1662 4.5985,0.6129 1.4257,0.44671 2.704,1.1026 3.7822,1.8659 1.1279,0.79623 2.0462,1.7124 2.777,2.6039 0.73079,0.89152 1.2754,1.7589 1.6891,2.5009 0.41503,0.74203 0.70322,1.3599 0.92521,1.7826 0.222,0.42266 0.38195,0.65097 0.50329,0.62771 0.1241,-0.0233 0.19718,-0.29808 0.18891,-0.79967 0,-0.50159 -0.0965,-1.2312 -0.36678,-2.1278 -0.26337,-0.89658 -0.70047,-1.9611 -1.3954,-3.0786 -0.69495,-1.1174 -1.6505,-2.2876 -2.9149,-3.3343 -1.2093,-0.99922 -2.6902,-1.8697 -4.3765,-2.4653 -1.685,-0.59556 -3.5754,-0.91455 -5.5251,-0.83046 z"
         id="path9832" />
      <path
         inkscape:connector-curvature="0"
         style="color:#000000;fill:#00ffff;fill-opacity:0.99990000999999995"
         d="m 559.1,564.57 c -0.24267,-0.1241 -0.38608,-0.45873 -0.36678,-1.0095 0.0138,-0.5508 0.2027,-1.3197 0.65083,-2.2255 0.44813,-0.90577 1.1665,-1.9478 2.2241,-2.9456 1.059,-0.99782 2.4599,-1.9471 4.1724,-2.605 1.7525,-0.66433 3.7795,-0.99417 5.8491,-0.85455 2.0697,0.13961 4.1738,0.75095 6.0422,1.8053 1.6257,0.92636 3.0211,2.1573 4.0994,3.528 1.0783,1.3707 1.8394,2.877 2.2944,4.3429 0.46054,1.4978 0.59842,2.9209 0.54051,4.1467 -0.0552,1.2259 -0.3061,2.2551 -0.61221,3.0452 -0.30749,0.79018 -0.67289,1.3437 -1.0038,1.6752 -0.3323,0.33154 -0.63013,0.44336 -0.86868,0.37142 -0.23855,-0.072 -0.4178,-0.32688 -0.56395,-0.73109 -0.14754,-0.40423 -0.26475,-0.95867 -0.40953,-1.63 -0.14615,-0.67132 -0.32265,-1.4611 -0.59291,-2.3159 -0.27025,-0.85475 -0.63566,-1.7751 -1.1472,-2.6692 -0.49639,-0.87742 -1.1431,-1.7495 -1.9263,-2.5366 -0.78182,-0.78714 -1.6988,-1.4877 -2.6957,-2.0134 -1.1307,-0.60559 -2.4158,-1.0006 -3.7064,-1.1769 -1.2892,-0.17628 -2.5785,-0.13292 -3.7477,0.0949 -1.1472,0.21492 -2.2158,0.61365 -3.1493,1.0637 -0.93487,0.45002 -1.736,0.95089 -2.4047,1.3918 -0.67013,0.44093 -1.2106,0.82198 -1.6519,1.0551 -0.44124,0.23308 -0.7832,0.31722 -1.0259,0.1931 z"
         id="path9834" />
      <path
         inkscape:connector-curvature="0"
         style="color:#000000;fill:#00ffff;fill-opacity:0.99990000999999995"
         d="m 581.91,569.67 c -0.1103,-0.2374 -0.0414,-0.56702 0.24269,-0.96409 0.29093,-0.39705 0.808,-0.86141 1.5802,-1.297 0.77079,-0.43558 1.8008,-0.83996 3.0556,-1.0653 1.2562,-0.22537 2.7384,-0.26756 4.3269,0.022 1.594,0.29569 3.2555,0.92463 4.786,1.903 1.5292,0.97837 2.9218,2.3055 3.9959,3.8791 1.041,1.5353 1.7484,3.2573 2.1042,4.9755 0.35574,1.7182 0.36126,3.4278 0.0965,4.9639 -0.2675,1.5421 -0.79423,2.8762 -1.4092,3.9455 -0.61498,1.0693 -1.3154,1.8759 -1.9594,2.4393 -0.64392,0.56342 -1.2327,0.88693 -1.6891,1.0253 -0.4564,0.1384 -0.78043,0.094 -0.96521,-0.0865 -0.18614,-0.1805 -0.23302,-0.49694 -0.18339,-0.93007 0.0552,-0.43315 0.19581,-0.98472 0.36817,-1.6504 0.17235,-0.66565 0.37228,-1.4475 0.51707,-2.3252 0.14616,-0.8777 0.23716,-1.852 0.19165,-2.8637 -0.0414,-1.0071 -0.22061,-2.0756 -0.5543,-3.1267 -0.33368,-1.051 -0.82317,-2.082 -1.4547,-2.9936 -0.64256,-0.93873 -1.4602,-1.7843 -2.3579,-2.4842 -0.89626,-0.69985 -1.8711,-1.2519 -2.8377,-1.6431 -0.95969,-0.3943 -1.9359,-0.63828 -2.8377,-0.79354 -0.90316,-0.15527 -1.7319,-0.22252 -2.4378,-0.27431 -0.70736,-0.0519 -1.2948,-0.0896 -1.7332,-0.18089 -0.43986,-0.0913 -0.73218,-0.23797 -0.84662,-0.47536 z"
         id="path9836" />
      <path
         inkscape:connector-curvature="0"
         style="color:#000000;fill:#00ffff;fill-opacity:0.99990000999999995"
         d="m 429.88,559.77 c -0.14753,-0.15896 -0.2992,-0.31366 -0.45364,-0.46396 -1.1155,-1.0803 -2.3799,-1.916 -3.6636,-2.5084 -1.2851,-0.59242 -2.5895,-0.94203 -3.8112,-1.0941 -1.2492,-0.15411 -2.4006,-0.10383 -3.3948,0.0537 -0.99415,0.15757 -1.8311,0.42129 -2.4875,0.70095 -0.65634,0.27967 -1.1348,0.57422 -1.4354,0.81701 -0.3006,0.24279 -0.42469,0.43291 -0.37505,0.54176 0.0552,0.10879 0.27301,0.13044 0.63841,0.0994 0.36678,-0.0309 0.87834,-0.11307 1.5195,-0.18724 0.64117,-0.0742 1.412,-0.13983 2.2848,-0.12864 0.87282,0.011 1.8477,0.0996 2.8694,0.33356 0.99967,0.22808 2.0504,0.59866 3.079,1.1384 1.0286,0.53975 2.0366,1.2484 2.9301,2.1263 0.1241,0.12175 0.24682,0.2468 0.36678,0.3752 0.848,0.90894 1.5305,1.927 2.0462,2.9657 0.51432,1.0388 0.86179,2.0976 1.0659,3.1092 0.222,1.0946 0.27991,2.1408 0.25095,3.0753 -0.0275,0.93455 -0.14201,1.7582 -0.26197,2.4413 -0.1241,0.68311 -0.24544,1.2273 -0.30749,1.6179 -0.0689,0.39058 -0.0552,0.62936 0.0552,0.68937 0.11031,0.06 0.3199,-0.0635 0.59843,-0.37428 0.27853,-0.31074 0.62187,-0.81059 0.95555,-1.5045 0.33369,-0.69393 0.65634,-1.5838 0.86179,-2.647 0.20407,-1.0633 0.29095,-2.3009 0.14754,-3.642 -0.13789,-1.2389 -0.46743,-2.554 -1.0397,-3.847 -0.57223,-1.293 -1.3844,-2.5627 -2.4337,-3.688 z"
         id="path9838" />
      <path
         inkscape:connector-curvature="0"
         style="color:#000000;fill:#00ffff;fill-opacity:0.99990000999999995"
         d="m 383.41,565.6 c -0.19717,0.0916 -0.39159,0.18759 -0.58188,0.28803 -1.3733,0.72441 -2.5605,1.6658 -3.523,2.7026 -0.96245,1.0368 -1.6988,2.168 -2.2241,3.2827 -0.53363,1.1388 -0.84387,2.2497 -1.0038,3.2434 -0.15857,0.99375 -0.16821,1.8707 -0.1103,2.5817 0.0689,0.71102 0.19304,1.2572 0.33092,1.6184 0.13789,0.36126 0.27991,0.53876 0.39849,0.52453 0.1241,-0.0142 0.20821,-0.21828 0.29232,-0.57599 0.0827,-0.35771 0.16547,-0.87002 0.29508,-1.5024 0.12409,-0.63239 0.30611,-1.3858 0.5874,-2.2119 0.28128,-0.82608 0.66875,-1.7253 1.2079,-2.623 0.5281,-0.87967 1.2065,-1.7626 2.0393,-2.5732 0.83283,-0.81063 1.8187,-1.5485 2.9315,-2.1249 0.15443,-0.0803 0.31163,-0.15743 0.47019,-0.23145 1.1279,-0.52399 2.3068,-0.85624 3.454,-1.0232 1.1486,-0.16695 2.2627,-0.16849 3.2872,-0.048 1.11,0.12892 2.1221,0.39987 3.0018,0.71748 0.87835,0.31762 1.6257,0.6817 2.2379,1.008 0.61221,0.32631 1.0907,0.61458 1.4423,0.79487 0.35299,0.18029 0.5805,0.25178 0.67151,0.16613 0.0965,-0.0856 0.0414,-0.32409 -0.1696,-0.68484 -0.20959,-0.36077 -0.57774,-0.84349 -1.1334,-1.3763 -0.55568,-0.53279 -1.3016,-1.1151 -2.2489,-1.6403 -0.94728,-0.52522 -2.0959,-0.99234 -3.4154,-1.2722 -1.2189,-0.25715 -2.573,-0.34926 -3.9794,-0.20717 -1.4064,0.14209 -2.8667,0.51907 -4.2621,1.167 z"
         id="path9840" />
      <path
         inkscape:connector-curvature="0"
         style="color:#000000;fill:#00ffff;fill-opacity:0.99990000999999995"
         d="m 404.64,551.11 c 0,15.801 -0.0965,28.582 2.3703,28.582 h 0.0827 c 2.4668,0 2.6074,-12.949 2.413,-28.582 l -0.26612,-21.144 -2.1896,-174.04 c 0,-12.694 -1.5581,120.98 -2.1703,174.04 -0.14891,12.986 -0.24267,21.144 -0.24267,21.144 z"
         id="path9844" />
      <path
         inkscape:connector-curvature="0"
         style="color:#000000;fill:#00ffff;fill-opacity:0.99990000999999995"
         d="m 398.79,549.16 c 0,15.801 -0.0965,28.582 2.3703,28.582 h 0.0827 c 2.4668,0 2.6074,-12.949 2.413,-28.582 l -0.26612,-21.144 -2.191,-174.04 c 0,-12.694 -1.5567,120.98 -2.169,174.04 -0.1503,12.986 -0.24406,21.144 -0.24406,21.144 z"
         id="path9846" />
      <path
         inkscape:connector-curvature="0"
         style="color:#000000;fill:#00ffff;fill-opacity:0.99990000999999995"
         d="m 409.03,549.16 c 0,15.801 -0.0965,28.582 2.3703,28.582 h 0.0827 c 2.4668,0 2.6074,-12.949 2.413,-28.582 l -0.26612,-21.144 -2.1896,-174.04 c 0,-12.694 -1.5581,120.98 -2.1703,174.04 -0.14892,12.986 -0.24268,21.144 -0.24268,21.144 z"
         id="path9848" />
      <g
         transform="matrix(1.3789,0,0,1.3789,-10918,409.51)"
         id="g9850"
         style="fill:#00ffff">
        <path
           d="m 8212.8,-69.309 c -3.1452,0 -9.375,11.267 -9.375,16.46 v 24.28 l 2.2681,-2.765 v -9.0294 c 0,-2.1514 1.0402,-4.6084 2.2898,-6.8261 0.6249,-1.1088 1.3046,-2.113 2.0305,-2.9162 0.7257,-0.80316 1.4275,-1.5985 2.7866,-1.5985 1.3591,0 2.0609,0.79535 2.7866,1.5985 0.7259,0.80316 1.4056,1.8074 2.0305,2.9162 1.2497,2.2176 2.2898,4.6747 2.2898,6.8261 v 9.0294 l 2.2681,2.765 v -24.28 c 0,-5.1935 -6.2297,-16.46 -9.375,-16.46 z"
           inkscape:connector-curvature="0"
           style="color:#000000;fill:#00ffff"
           id="path9852" />
        <path
           d="m 8197.8,-54.901 c -1.2754,0 -3.8019,6.0375 -3.8019,8.1437 v 28.644 l 7.2365,-6.3508 0.065,-0.0432 0.3024,-0.36722 v -21.882 c 0,-2.1062 -2.5264,-8.1437 -3.8019,-8.1437 z m -3.8019,56.531 v 3.089 h -0.021 l -2.333,6.3508 h 2.3546 v 2.8514 h 7.6037 v -2.8514 h 2.3546 l -2.333,-6.3508 h -0.021 V 1.63 h -7.6037 z"
           inkscape:connector-curvature="0"
           style="color:#000000;fill:#00ffff"
           id="path9854" />
        <path
           d="m 8227.8,-54.901 c -1.2754,0 -3.8019,6.0375 -3.8019,8.1437 v 21.882 l 0.3025,0.36722 0.065,0.0432 7.2364,6.3508 v -28.644 c 0,-2.1062 -2.5263,-8.1437 -3.8018,-8.1437 z m -3.8019,56.531 v 3.089 h -0.021 l -2.333,6.3508 h 2.3546 v 2.8514 h 7.6037 v -2.8514 h 2.3546 l -2.333,-6.3508 h -0.021 V 1.63 h -7.6037 z"
           inkscape:connector-curvature="0"
           style="color:#000000;fill:#00ffff"
           id="path9856" />
        <path
           d="m 8212.7,-49.263 c -1.9321,0.39902 -5.4435,6.836 -5.4435,9.8503 v 34.39 h -16.547 v 5.0979 h 16.892 l -1.3177,1.3393 v 3.8667 h 13.177 V 1.4145 l -1.3177,-1.3393 h 16.892 v -5.0979 h -16.547 v -34.39 c 0,-3.1115 -3.732,-9.8503 -5.6164,-9.8503 -0.059,0 -0.1104,-0.01286 -0.1728,0 z m -6.9341,22.185 -3.2186,3.9099 -11.838,10.369 v 5.4436 h 15.099 c -0.028,-0.11299 -0.043,-0.22926 -0.043,-0.34562 v -19.376 z m 14.214,0 v 19.376 c 0,0.11636 -0.017,0.23263 -0.043,0.34562 h 15.099 v -5.4436 l -11.838,-10.369 -3.2186,-3.9099 z"
           inkscape:connector-curvature="0"
           style="color:#000000;fill:#00ffff"
           id="path9858" />
      </g>
    </g>
  </g>
  <metadata
     id="metadata3374">
    <rdf:RDF>
      <cc:Work>
        <dc:format>image/svg+xml</dc:format>
        <dc:type
           rdf:resource="http://purl.org/dc/dcmitype/StillImage" />
        <cc:license
           rdf:resource="http://creativecommons.org/licenses/publicdomain/" />
        <dc:publisher>
          <cc:Agent
             rdf:about="http://openclipart.org/">
            <dc:title>Openclipart</dc:title>
          </cc:Agent>
        </dc:publisher>
        <dc:title></dc:title>
        <dc:date>2012-02-23T11:11:46</dc:date>
        <dc:description>Space Shuttle</dc:description>
        <dc:source>https://openclipart.org/detail/168493/space-shuttle-by-printerkiller</dc:source>
        <dc:creator>
          <cc:Agent>
            <dc:title>PrinterKiller</dc:title>
          </cc:Agent>
        </dc:creator>
        <dc:subject>
          <rdf:Bag>
            <rdf:li>Space Shuttle Smoke Launch pad cloud rocket</rdf:li>
          </rdf:Bag>
        </dc:subject>
      </cc:Work>
      <cc:License
         rdf:about="http://creativecommons.org/licenses/publicdomain/">
        <cc:permits
           rdf:resource="http://creativecommons.org/ns#Reproduction" />
        <cc:permits
           rdf:resource="http://creativecommons.org/ns#Distribution" />
        <cc:permits
           rdf:resource="http://creativecommons.org/ns#DerivativeWorks" />
      </cc:License>
    </rdf:RDF>
  </metadata>
</svg>
