<?xml version="1.0" encoding="UTF-8" standalone="no"?>
<svg
   xmlns:dc="http://purl.org/dc/elements/1.1/"
   xmlns:cc="http://creativecommons.org/ns#"
   xmlns:rdf="http://www.w3.org/1999/02/22-rdf-syntax-ns#"
   xmlns:svg="http://www.w3.org/2000/svg"
   xmlns="http://www.w3.org/2000/svg"
   xmlns:sodipodi="http://sodipodi.sourceforge.net/DTD/sodipodi-0.dtd"
   xmlns:inkscape="http://www.inkscape.org/namespaces/inkscape"
   id="svg2"
   viewBox="0 0 256 256"
   version="1.1"
   inkscape:version="0.48.4 r9939"
   width="100%"
   height="100%"
   sodipodi:docname="space_suit.svg">
  <sodipodi:namedview
     pagecolor="#ffffff"
     bordercolor="#666666"
     borderopacity="1"
     objecttolerance="10"
     gridtolerance="10"
     guidetolerance="10"
     inkscape:pageopacity="0"
     inkscape:pageshadow="2"
     inkscape:window-width="1680"
     inkscape:window-height="984"
     id="namedview16067"
     showgrid="false"
     inkscape:zoom="2.0214133"
     inkscape:cx="-30.429083"
     inkscape:cy="130.53948"
     inkscape:window-x="0"
     inkscape:window-y="27"
     inkscape:window-maximized="1"
     inkscape:current-layer="svg2" />
  <defs
     id="defs6">
    <filter
       id="filter3085"
       width="1"
       y="0"
       x="0"
       height="1"
       color-interpolation-filters="sRGB">
      <feConvolveMatrix
         id="feConvolveMatrix3087"
         divisor="1"
         kernelMatrix="0 -0.15 0 -0.15 1.6 -0.15 0 -0.15 0"
         in="SourceGraphic"
         targetX="1"
         targetY="1"
         order="3 3" />
    </filter>
  </defs>
  <path
     style="fill:#00ffff;filter:url(#filter3085)"
     inkscape:connector-curvature="0"
     d="m -943.62,1874.2 c -4.1878,-0.2933 -5.4642,-0.7803 -5.8432,-2.2294 -0.43216,-1.6526 -1.3176,-1.8064 -8.1417,-1.4144 -9.2003,0.5286 -29.346,0.382 -30.321,-0.2206 -0.38258,-0.2365 -6.5443,-1.5123 -13.693,-2.8352 -33.676,-6.2323 -37.494,-25.514 -12.486,-63.064 0.7327,-1.1 4.2871,-6.4241 7.8988,-11.831 5.9884,-8.9656 6.6846,-10.56 7.9054,-18.101 0.73627,-4.5482 2.5427,-11.149 4.0142,-14.669 3.9888,-9.5399 3.9945,-9.6134 1.1838,-15.21 -2.9002,-5.775 -2.64,0.063 -2.6159,-58.689 0.006,-14.575 -0.0103,-31 -0.0362,-36.5 -0.0339,-7.197 0.41341,-11.033 1.5958,-13.686 1.572,-3.527 1.5539,-3.7991 -0.4218,-6.3108 -3.1995,-4.0675 -7.8074,-46.415 -7.1275,-65.503 0.1246,-3.4988 -0.7887,-8.9567 -2.51,-15 -1.8667,-6.5536 -2.5549,-10.896 -2.2189,-14 0.5154,-4.7619 -2.473,-17.889 -6.3639,-27.955 -2.3829,-6.1646 -2.9906,-18.252 -1.0957,-21.793 1.0886,-2.034 -0.7351,-17.614 -2.3718,-20.262 -0.5844,-0.9456 0.9197,-8.1764 3.099,-14.898 1.2041,-3.7136 1.2168,-4.7385 0.081,-6.5 -3.2866,-5.0962 -4.4507,-10.881 -3.0201,-15.008 1.1522,-3.3238 1.1459,-4.2405 -0.041,-6.0521 -5.389,-8.2246 -5.8318,-18.404 -1.1908,-27.379 2.2267,-4.306 1.9933,-5.9157 -1.4214,-9.8049 -3.2822,-3.7382 -3.2622,-3.6392 -3.5065,-17.347 -0.093,-5.225 -0.7492,-12.425 -1.4578,-16 -0.7087,-3.575 -1.4054,-8.75 -1.5483,-11.5 -0.1428,-2.75 -0.5918,-7.7395 -0.9977,-11.088 -0.707,-5.8314 0.7158,-14.562 3.6162,-22.191 0.6313,-1.6605 0.4712,-4.0815 -0.5015,-7.5806 -2.8284,-10.175 -3.3343,-14.292 -2.9195,-23.758 0.3735,-8.5248 0.1648,-10.11 -1.8376,-13.951 -2.8028,-5.3774 -3.0159,-15.063 -0.4961,-22.551 1.6745,-4.9761 1.6636,-5.2692 -0.3925,-10.485 -1.5529,-3.9399 -1.947,-6.4872 -1.4828,-9.5833 0.4518,-3.0129 0.1844,-4.9009 -0.9367,-6.6118 -5.2486,-8.0104 -5.4057,-17.602 -0.7484,-45.7 1.9254,-11.617 2.0666,-17.059 0.6177,-23.803 -0.4369,-2.0335 -0.8771,-5.2723 -0.9783,-7.1973 -0.5223,-9.9375 -1.4931,-15.844 -3.1228,-19 -1.3342,-2.5837 -1.8599,-6.118 -2.0079,-13.5 -0.2178,-10.862 -0.1845,-10.612 -3.2674,-24.5 -1.1599,-5.225 -2.3354,-11.75 -2.6122,-14.5 -0.2768,-2.75 -0.6902,-6.8 -0.9186,-9 -3.7391,-36.018 -2.1596,-73.061 3.4381,-80.632 1.342,-1.8151 2.233,-4.8558 2.5167,-8.589 0.7655,-10.072 4.5735,-27.363 8.6481,-39.268 8.2079,-23.982 8.4863,-25.662 10.358,-62.511 0.1676,-3.3 0.7944,-8.475 1.3929,-11.5 1.4624,-7.3916 0.9002,-10.809 -2.1982,-13.363 -4.6279,-3.8139 -6.2953,-12.112 -3.3696,-16.77 1.0923,-1.7387 1.5166,-5.6872 1.5979,-14.867 0.1666,-18.8 1.2093,-32.184 2.7425,-35.2 2.0146,-3.9639 1.6863,-6.364 -1.1224,-8.2043 -7.8756,-5.1603 -6.4518,-22.225 2.3791,-28.513 4.9656,-3.5359 4.4917,-12.915 -0.7351,-14.547 -6.2544,-1.9533 -9.3126,-20.371 -4.8211,-29.035 1.3865,-2.6747 1.4009,-4.0845 0.133,-13 -0.7822,-5.5 -1.4309,-11.66 -1.4416,-13.689 -0.02,-3.6895 -0.02,-3.6895 -8.7695,-6.3282 -4.8125,-1.4513 -10.349,-3.7285 -12.304,-5.0605 -4.0774,-2.7787 -5.9597,-2.9789 -9.7459,-1.0365 -1.4852,0.76194 -6.9753,2.4022 -12.2,3.6451 -5.225,1.2428 -13.858,4.0004 -19.184,6.1279 -13.786,5.507 -28.361,7.708 -35.673,5.3872 -1.2668,-0.40208 -3.3669,0.64537 -6.5232,3.2536 -4.7733,3.9445 -14.221,7.6749 -16.867,6.6597 -4.7228,-1.8123 -8.6967,10.623 -5.0033,15.656 4.6685,6.3622 6.5192,11.674 6.7545,19.385 0.7456,24.441 0.6352,23.513 3.1504,26.502 4.0961,4.8679 6.673,13.776 5.3202,18.391 -1.141,3.893 -1.141,3.893 5.8237,11 26.38,26.918 37.934,60.27 25.046,72.295 -10.749,10.029 -25.984,1.417 -35.787,-20.229 -6.3025,-13.916 -14.888,-18.613 -30.255,-16.553 -5.0878,0.68215 -6.4445,16.831 -2.3182,27.594 4.9732,12.972 11.271,32.944 12.928,41 0.9049,4.4 2.1397,10.301 2.7439,13.114 4.5782,21.314 -20.102,34.78 -33.253,18.144 -3.8681,-4.8934 -5.6804,-4.8732 -4.3795,0.0488 0.7207,2.7266 1.5122,9.6177 1.6303,14.193 0.035,1.375 0.4841,4.5284 0.9969,7.0075 2.3936,11.571 -3.2739,20.681 -15.213,24.452 -10.289,3.2502 -10.784,3.2198 -15.667,-0.95984 -5.0254,-4.3016 -4.7073,-4.3248 -6.1371,0.44748 -4.3063,14.373 -20.224,13.094 -28.164,-2.2635 -2.9253,-5.6583 -4.8768,-7.684 -7.4025,-7.684 -13.767,0 -32.174,-41.922 -36.005,-82 -0.1314,-1.375 -0.5857,-3.5713 -1.0096,-4.8807 -1.303,-4.0247 -1.5781,-7.4899 -2.9073,-36.619 -0.6318,-13.845 -0.7913,-14.215 -9.5834,-22.258 -14.206,-12.995 -13.559,-10.267 -13.583,-57.242 -0.012,-22.275 -0.4047,-42.217 -0.8737,-44.317 -1.0461,-4.6817 0.715,-23.061 3.2752,-34.183 1.0129,-4.4 1.6732,-10.025 1.4674,-12.5 -2.7858,-33.5 -2.098,-54.533 2.1019,-64.276 10.676,-24.766 17.506,-32.532 34.39,-39.112 5.6006,-2.1824 7.7733,-3.601 9.1688,-5.9865 12.164,-20.793 15.811,-24.797 28.308,-31.074 6.4582,-3.244 12.15,-5.2196 19.183,-6.6582 9.898,-2.0247 10.051,-2.1003 15,-7.419 7.1676,-7.703 27.496,-19.475 33.63,-19.475 1.025,0 3.5525,-1.5137 5.6166,-3.3637 3.3903,-3.0387 5.059,-4.1338 12.818,-8.4116 3.1719,-1.7488 23.61,-6.8518 25.65,-6.4046 2.4577,0.53859 5.8027,-2.232 7.8456,-6.4982 10.968,-22.906 32.963,-34.361 74.212,-38.651 4.9286,-0.51258 5.2494,-1.6678 19.204,-69.171 20.426,-98.808 18.644,-92.555 45.324,-159.04 19.685,-49.05 19.003,-47.531 26.126,-58.214 13.403,-20.101 45.659,-54.624 56.357,-60.317 3.4183,-1.8191 9.3652,-5.4041 13.215,-7.9667 14.543,-9.68 25.185,-15.847 41,-23.761 11.246,-5.6273 21.77,-9.3457 33.233,-11.742 13.247,-2.7692 12.627,-2.7116 37.089,-3.4486 9.2206,-0.2778 11.765,-0.69001 13.712,-2.221 6.644,-5.2262 15.378,-5.3526 25.113,-0.36363 1.731,0.88707 11.406,2.9742 21.5,4.638 23.672,3.902 41.897,8.8568 52.353,14.233 9.5723,4.9221 20.906,9.7966 25.137,10.811 2.6748,0.64124 6.3303,1.8829 8.1233,2.7593 2.9184,1.4264 36.346,35.934 44.5,45.938 14.458,17.737 34.904,49.229 45.246,69.69 2.502,4.95 5.3967,10.575 6.4326,12.5 19.279,35.826 50.257,130.25 58.721,178.98 3.1942,18.391 3.6256,22.47 4.6713,44.17 0.71599,14.857 2.9055,18.366 12.669,20.305 1.925,0.38225 4.85,1.286 6.5,2.0083 6.5293,2.8583 21.303,8.5376 22.208,8.5376 2.17,0 15.215,10.136 38.208,29.689 3.5291,3.001 9.9078,7.2117 14.175,9.3571 4.2669,2.1454 12.179,6.7939 17.583,10.33 5.4039,3.5361 11.96,7.5609 14.568,8.9438 2.6087,1.383 6.6587,3.7126 9,5.177 2.3413,1.4644 8.3069,4.9332 13.257,7.7086 39.606,22.206 63.233,47.267 72.434,76.83 1.2277,3.9446 3.3137,7.5587 6.244,10.818 4.1733,4.6416 18.235,30.181 22.032,40.017 4.384,11.354 5.5931,23.786 7.2586,74.63 0.2882,8.8 0.9878,22.525 1.5547,30.5 2.3475,33.028 -2.0392,49.026 -15.878,57.907 -6.6651,4.2769 -6.991,5.1796 -8.6992,24.093 -0.959,10.618 -1.3835,13.983 -2.8379,22.5 -1.6243,9.5117 -3.1267,14.712 -5.2008,18 -0.6939,1.1 -3.7316,11.256 -6.7507,22.57 -11.244,42.134 -18.516,55.261 -32.657,58.95 -3.2497,0.84768 -5.9146,2.6178 -9.5914,6.3712 -10.835,11.06 -26.016,6.6557 -32.368,-9.391 -0.76202,-1.925 -1.4679,-3.6226 -1.5687,-3.7724 -0.10076,-0.14984 -2.8337,1.1218 -6.0732,2.8258 -18.369,9.6625 -33.634,-16.016 -26.188,-44.053 1.7263,-6.5 1.7263,-6.5 -1.3728,-2.7082 -7.8115,9.5576 -25.368,8.9794 -30.682,-1.0104 -1.6851,-3.1682 -4.3751,-15.367 -3.8823,-17.606 0.26326,-1.1963 1.2462,-5.7531 2.1843,-10.126 1.6355,-7.6243 7.445,-22.48 12.925,-33.049 3.8524,-7.4307 3.8833,-10.034 0.11706,-9.8666 -10.426,0.46376 -13.5,2.0273 -13.5,6.8673 0,15.003 -12.635,38.99 -22.5,42.713 -12.338,4.657 -23.691,-13.659 -19.494,-31.45 0.55333,-2.3454 1.9541,-8.2884 3.1129,-13.207 4.4548,-18.908 14.806,-36.195 28.797,-48.095 9.7651,-8.3053 9.8557,-8.5 7.5551,-16.247 -0.84075,-2.8311 -1.4361,-7.9753 -1.323,-11.432 0.38357,-11.719 -1.0896,-42.806 -2.1198,-44.73 -0.56353,-1.053 -2.4165,-2.9056 -4.1176,-4.1169 -1.7012,-1.2113 -4.394,-4.3167 -5.984,-6.9008 -3.1866,-5.1788 -4.1624,-5.7548 -17.927,-10.581 -10.273,-3.602 -20.15,-8.0921 -26.5,-12.047 -3.4311,-2.1371 -4.7112,-2.3953 -9,-1.8153 -12.999,1.7576 -26.394,0.62161 -38.851,-3.2949 -6.2508,-1.9653 -6.5815,-1.5844 -9.6649,11.132 -1.9462,8.0267 -2.1483,10.016 -1.0545,10.381 15.448,5.1493 16.218,39.81 0.95271,42.863 -4.1324,0.82649 -5.9353,3.2904 -3.4551,4.7219 13.303,7.6778 17.212,22.35 9.0962,34.134 -3.8119,5.5348 -3.8119,5.5348 -1.7345,7.7525 3.8679,4.1292 4.119,6.6036 3.7436,36.897 -0.19985,16.127 -0.40153,30.12 -0.44817,31.096 -0.1324,2.7706 -4.8129,4.0229 -14.335,3.8355 -9.175,-0.18058 -9.4312,-0.0321 -7.7186,4.4724 4.1856,11.009 5.954,21.648 6.469,38.917 0.21322,7.15 0.64557,16.6 0.9608,21 0.31522,4.4 0.59772,8.675 0.62778,9.5 0.70034,19.223 13.641,57.736 20.341,60.535 4.2654,1.7822 4.8414,3.4453 3.0004,8.6633 -1.3812,3.9146 -1.7707,6.5109 -3.0462,20.30199 -3.1677,34.249 -3.8988,77.67 -1.3806,82 3.0191,5.1915 3.7734,12.759 2.5417,25.5 -0.34557,3.575 -0.7576,11.225 -0.91561,17 -0.28999,10.599 -1.3583,15.148 -3.9144,16.669 -2.6713,1.5896 -2.5162,5.4762 0.94215,23.599 6.1094,32.015 6.5211,44.281 2.0718,61.732 -2.1411,8.398 -2.8921,13.581 -2.784,19.214 0.11837,6.1713 -0.36199,8.9882 -2.4026,14.089 -2.1816,5.453 -2.3881,6.8413 -1.4276,9.5967 1.0158,2.9141 0.86785,7.2893 -0.59533,17.601 -0.23413,1.65 -1.5509,7.4076 -2.9262,12.795 -2.5005,9.7945 -2.5005,9.7945 -0.4467,16.444 1.6993,5.5017 1.8639,7.2833 0.9537,10.321 -0.60507,2.0196 -1.1001,4.5202 -1.1001,5.5569 0,1.0367 -2.4981,6.7784 -5.5513,12.759 -5.491,10.756 -5.537,10.919 -4.2316,14.999 2.0604,6.4398 1.5449,21.195 -0.92674,26.529 -1.9154,4.1332 -1.9528,4.7793 -0.60784,10.5 0.78826,3.3528 1.2322,7.1732 0.98651,8.4898 -0.24567,1.3167 0.21309,3.973 1.0195,5.9029 5.4035,12.932 3.7198,33.239 -3.7701,45.468 -3.5804,5.8459 -3.5901,5.114 0.2198,16.494 3.6064,10.773 2.6631,17.406 -3.6561,25.708 -4.5664,5.9991 -4.7691,6.4824 -3.4073,8.1233 1.8582,2.239 1.4216,11.645 -1.064,22.917 -1.2118,5.496 -2.3455,11.855 -2.5192,14.131 -0.17812,2.3341 -1.4488,5.8507 -2.9143,8.0652 -2.5984,3.9265 -2.5984,3.9265 -2.8379,28.148 -0.17461,17.663 -0.5674,24.424 -1.4506,24.97 -2.887,1.784 -7.5035,18.205 -8.2029,29.178 -0.88065,13.816 -1.1834,24.916 -1.4455,53 -0.33257,35.63 -0.84215,41.208 -4.5847,50.186 -2.6751,6.4167 -3.3025,4.5313 5.4288,16.314 2.4453,3.3 5.6121,7.719 7.0374,9.8199 1.4253,2.1009 6.0014,8.4009 10.169,14 13.777,18.509 17.846,47.602 9.0539,64.739 -4.2108,8.2071 -4.1087,8.9412 1.2427,8.9412 5.3083,0 8.4385,3.3094 6.2471,6.6048 -1.5714,2.3631 -11.393,3.6107 -26.521,3.3687 -14.234,-0.2277 -20.556,0.043 -36.714,1.5746 -8.4945,0.805 -20.99,1.4184 -39.5,1.9392 -60.769,1.7097 -59.317,1.7078 -64.893,0.087 -3.3686,-0.9793 -7.0308,-1.3405 -9.7758,-0.9643 -6.13,0.8402 -11.831,-1.5804 -11.831,-5.0235 0,-3.1448 2.546,-4.5789 8.1843,-4.6101 12.332,-0.068 17.114,-3.5107 13.827,-9.9534 -1.191,-2.3345 -2.8576,-7.4572 -3.7036,-11.384 -1.4174,-6.5786 -1.8723,-12.173 -2.6541,-32.639 -0.27767,-7.2689 -1.9061,-12.224 -5.2887,-16.094 -3.3677,-3.853 -4.5649,-12.808 -4.1102,-30.744 0.38636,-15.239 0.22294,-17.763 -1.3497,-20.848 -2.9574,-5.8007 -3.686,-11.597 -4.4392,-35.314 -0.4083,-12.856 -1.0163,-23.089 -1.9904,-33.5 -1.0961,-11.714 -0.94722,-16.564 0.83918,-27.34 2.0814,-12.556 1.4214,-15.867 -4.3878,-22.012 -7.7538,-8.2016 -8.8694,-16.039 -4.2456,-29.826 2.7422,-8.1767 2.7422,-8.1767 0.97117,-15.005 -1.6531,-6.3737 -1.665,-7.342 -0.17816,-14.54 1.5929,-7.7118 1.5929,-7.7118 -1.0017,-12.832 -2.1352,-4.2137 -2.6955,-7.0081 -3.1643,-15.783 -0.43717,-8.1828 -1.1084,-11.826 -2.886,-15.663 -5.1616,-11.142 -5.7367,-22.607 -1.9604,-39.086 1.6238,-7.086 1.6238,-7.086 -1.8521,-14 -5.8626,-11.661 -7.2365,-22.232 -4.5378,-34.914 1.7284,-8.1224 1.6845,-15.928 -0.12932,-23 -0.70534,-2.75 -1.3518,-7.475 -1.4366,-10.5 -0.11362,-4.0519 -1.1129,-7.496 -3.7956,-13.081 -3.7154,-7.7353 -6.6179,-20.216 -7.2159,-31.028 -0.28946,-5.2332 -0.90028,-6.8198 -6.4568,-16.772 -2.1232,-3.8027 -2.5772,-15.892 -0.76007,-20.241 1.3551,-3.2432 1.2982,-4.0787 -0.69648,-10.235 -1.8916,-5.8378 -2.0672,-7.7959 -1.36,-15.164 0.74944,-7.8076 0.6168,-8.9243 -1.7194,-14.475 -3.9598,-9.408 -6.4778,-22.227 -6.8103,-34.671 -0.31746,-11.881 -3.8993,-7.2389 -7.073,9.1665 -0.85123,4.4 -2.4379,10.3 -3.526,13.11 -1.088,2.8107 -1.7512,5.9788 -1.4736,7.0401 0.27755,1.0614 -0.34697,5.105 -1.3878,8.9858 -1.8924,7.056 -1.8924,7.056 0.43825,9.7656 3.365,3.9121 1.708,8.9723 -3.5072,10.711 -0.85606,0.2854 -1.1908,3.1117 -1.113,9.3978 0.31715,25.637 0.10218,33.501 -1.0076,36.864 -0.6636,2.0107 -1.4302,7.8116 -1.7034,12.891 -0.99106,18.419 -1.562,21.224 -5.9919,29.442 -3.8102,7.0682 -3.9569,8.7258 -1.7516,19.793 1.2894,6.4707 2.4464,17.029 2.5202,23 0.0815,6.596 -1.9859,18.223 -3.9119,22 -0.84142,1.65 -1.8413,6.5076 -2.222,10.795 -0.57214,6.4435 -1.1362,8.2635 -3.2541,10.5 -2.3289,2.4592 -2.6094,3.6698 -3.0826,13.304 -0.48006,9.7731 -2.7903,20.07 -5.6289,25.09 -0.61488,1.0873 -0.58534,2.7469 0.083,4.6642 1.6501,4.7334 -2.0156,15.086 -10.088,28.491 -6.9776,11.587 -6.9776,11.587 -6.9369,35.872 0.0457,27.247 -0.29707,33.902 -2.0143,39.106 -1.0671,3.2334 -0.9341,4.0413 1.2994,7.8909 2.2806,3.9306 5.8717,15.225 5.0896,16.007 -2.5905,2.5906 -4.3569,58.33 -2.3296,73.514 1.7698,13.256 -0.71785,28.681 -6.8296,42.349 -3.1384,7.0186 -2.8144,16.082 1.1584,32.407 1.4708,6.0438 2.5572,12.892 2.4142,15.218 -0.34354,5.5864 -0.14865,5.6826 7.4227,3.6651 8.9757,-2.3917 15.232,1.2717 9.9656,5.8352 -1.9395,1.6805 -13.906,7.8465 -19.041,9.811 -4.9196,1.8823 -8.2091,4.8476 -8.2091,7.4002 0,2.6753 -1.9574,4.574 -7.6822,7.4516 -3.9807,2.001 -7.0363,4.7275 -3.9865,3.5572 5.6996,-2.1872 10.927,5.1064 5.9187,8.2577 -1.5125,0.9516 -4.022,2.762 -5.5767,4.023 -1.5547,1.2611 -3.9786,2.2929 -5.3864,2.2929 -4.113,0 -19.246,8.0973 -20.849,11.156 -2.107,4.0201 -39.289,6.9284 -65.296,5.1074 z m 348.97,-312.07 c 1.3117,-0.9965 4.4548,-3.0009 6.9847,-4.4542 14.753,-8.475 22.225,-23.641 22.746,-46.169 0.34542,-14.935 0.34542,-14.935 3.7845,-19.439 2.2885,-2.9972 3.1886,-5.0263 2.6906,-6.0651 -2.8017,-5.8431 -1.4429,-31.093 2.0488,-38.072 4.1444,-8.2843 5.2866,-14.26 3.5335,-18.489 -3.1534,-7.6057 -5.0292,-44.421 -2.5115,-49.29 1.2089,-2.3378 1.3574,-3.7408 0.60524,-5.719 -0.54814,-1.4417 -0.99662,-5.7898 -0.99662,-9.6624 0,-7.041 0,-7.041 -9.25,-6.1849 -15.346,1.4204 -44.156,1.0978 -46.098,-0.5162 -6.6612,-5.5346 -0.77552,-7.4023 25.848,-8.2025 35.457,-1.0656 39.5,-4.5991 39.5,-34.522 0,-11.584 0.42385,-15.62 2.5,-23.804 1.9757,-7.7885 2.5,-12.355 2.5,-21.777 0,-9.2146 0.38061,-12.648 1.6763,-15.122 1.4034,-2.6792 3.6052,-24.091 2.5821,-25.11 -0.1329,-0.1324 -3.2829,0.5293 -7,1.4704 -19.413,4.915 -33.758,4.2498 -33.758,-1.5655 0,-3.4973 3.857,-5.3421 11.372,-5.4392 2.4044,-0.031 8.9294,-0.7152 14.5,-1.5204 5.5706,-0.8051 11.92,-1.5926 14.11,-1.75 7.5623,-0.5432 7.839,-9.1988 1.3678,-42.786 -1.6425,-8.525 -3.4108,-15.933 -3.9296,-16.461 -0.52906,-0.5393 -18.376,-1.5112 -40.644,-2.2134 -43.526,-1.3726 -44.355,-1.5125 -45.086,-7.6068 -0.51695,-4.3098 1.8981,-4.7215 45.129,-7.6933 47.788,-3.2851 41.681,-2.5391 41.681,-5.0918 0,-1.1367 1.125,-3.5417 2.5,-5.3444 1.8772,-2.4611 2.502,-4.4998 2.5082,-8.1833 0.005,-2.6981 0.45733,-8.8253 1.0063,-13.616 1.77,-15.447 -2.0736,-20.008 -13.606,-16.145 -3.4375,1.1516 -9.1055,1.714 -18.909,1.876 -7.7,0.1273 -28.482,0.5838 -46.183,1.0144 -35.383,0.8607 -37.317,0.6023 -37.317,-4.9865 0,-6.1111 1.7885,-6.3573 51.362,-7.0719 61.159,-0.8815 59.928,0.01 61.579,-44.476 0.58157,-15.675 1.553,-33.845 2.1588,-40.378 1.384,-14.926 0.76919,-16.624 -6.0181,-16.617 -17.743,0.018 -68.53,4.4926 -74.677,6.5795 -2.33,0.79105 -13.353,2.9993 -24.496,4.9072 -34.924,5.9798 -108.02,35.007 -106.26,42.198 0.29542,1.2072 -0.6273,5.0958 -2.0574,8.6706 -6.3488,15.869 -3.1239,29.477 7.7551,32.722 3.9335,1.1734 8.9518,2.994 11.152,4.0457 3.5579,1.7008 7.4941,1.9943 35.612,2.6553 34.131,0.8024 35.289,1.0059 34.689,6.1001 -0.32042,2.7222 0.0189,2.5952 -13.301,4.9773 -3.7702,0.6743 -13.99,0.8617 -27.5,0.5043 -21.5,-0.5688 -21.5,-0.5688 -30,2.8995 -13.114,5.3511 -12.296,11.867 1.6609,13.222 9.2555,0.8987 11.588,1.7295 13.28,4.729 2.334,4.1392 -0.61617,7.7851 -6.2995,7.7851 -3.7666,0 -4.7678,0.5067 -7.9038,4 -1.975,2.2 -4.2437,4 -5.0416,4 -4.9082,0 -3.8078,7.3677 1.3701,9.1727 10.275,3.582 5.4444,15.364 -5.8708,14.319 -16.637,-1.5373 -25.153,7.1006 -25.148,25.508 0.004,16.066 0.61033,17.696 9.8854,26.557 7.9249,7.5715 7.9249,7.5715 8.4136,15.757 0.86296,14.456 2.5032,24.191 5.2696,31.273 2.2601,5.7866 2.8063,9.1111 3.3534,20.412 0.35944,7.425 1.1886,14.767 1.8426,16.315 0.70685,1.6735 1.1891,7.9237 1.1891,15.412 0,11.497 0.20981,12.955 2.4032,16.698 1.3217,2.2553 2.7207,6.2179 3.1087,8.8056 0.38806,2.5877 1.2191,5.0935 1.8468,5.5683 2.378,1.7988 13.447,5.0173 21.141,6.147 4.4,0.6461 9.457,1.3919 11.238,1.6574 9.7477,1.4534 4.9517,8.8027 -8.7378,13.39 -9.3173,3.122 -5.826,14.894 7.2177,24.337 3.4552,2.5013 7.4073,5.664 8.7823,7.0282 2.9924,2.969 5.0509,3.2838 30.518,4.6666 17.802,0.9666 30.934,3.0507 36.06,5.7228 2.5662,1.3376 16.97,0.06 35.87,-3.183 17.916,-3.0737 19.188,-3.1132 20.514,-0.6368 1.3156,2.4583 0.50654,4.5359 -2.5452,6.5355 -1.3288,0.8706 -2.416,2.1692 -2.416,2.8856 0,3.2308 -10.833,9.1598 -24,13.135 -3.025,0.9133 -6.9582,2.2937 -8.7405,3.0676 -13.14,5.7056 -37.986,5.4973 -55.64,-0.4665 -38.082,-12.865 -66.685,0.012 -54.23,24.415 3.0341,5.9447 3.5755,8.0105 3.5914,13.703 0.0186,6.6711 0.0354,6.711 3.5187,8.3639 4.9381,2.3433 5.0262,6.7742 0.16653,8.378 -5.846,1.9294 -7.4199,13.784 -3.0609,23.055 1.4224,3.025 2.8304,8.087 3.129,11.249 0.5429,5.7489 0.5429,5.7489 4.6541,6.8052 2.2612,0.581 6.1362,1.6897 8.6112,2.4638 28.436,8.894 74.955,11.218 93.619,4.6778 12.578,-4.4078 15.961,-3.7475 13.91,2.7149 -4.4467,14.01 -82.086,14.331 -115.43,0.4773 -10.782,-4.4798 6.1617,13.594 20.21,21.556 14.702,8.3338 75.128,15.079 82.809,9.2443 z m -30.075,-65.282 c -2.453,-0.4807 -10.553,-1.5565 -18,-2.3906 -7.447,-0.8341 -16.015,-2.1861 -19.04,-3.0045 -3.025,-0.8183 -6.6678,-1.4932 -8.095,-1.4997 -2.862,-0.013 -5.905,-2.7521 -5.905,-5.315 0,-0.905 -1.35,-2.3437 -3,-3.1969 -10.279,-5.3157 -1.916,-8.9448 14.639,-6.3522 18.632,2.9179 56.947,3.6912 67.361,1.3595 16.786,-3.7584 22.58,-2.0109 16.122,4.8625 -1.1673,1.2425 -2.1223,3.3723 -2.1223,4.7329 0,9.1961 -21.681,14.779 -41.96,10.804 z m -55.54,-168.81 c -32.19,-4.2755 -30.461,-3.9136 -31.7,-6.6329 -2.886,-6.334 4.1412,-7.3941 27.2,-4.103 42.608,6.0812 85.439,2.5839 115.73,-9.4498 12.178,-4.8375 19.218,-0.818 9.5785,5.4688 -22.608,14.745 -73.72,20.971 -120.81,14.717 z m -23.651,-34.677 c -18.909,-1.9256 -23.377,-4.1148 -17.766,-8.7043 2.2864,-1.8701 3.2528,-1.9298 17.917,-1.1055 24.433,1.3735 51.462,-0.8096 70.085,-5.6605 5.2176,-1.3592 55.582,-10.167 61.123,-10.689 4.3966,-0.4145 4.7506,-0.2717 5.3617,2.1628 1.392,5.5464 -4.941,7.9231 -33.569,12.598 -10.175,1.6617 -23,3.8999 -28.5,4.9739 -34.031,6.6451 -54.871,8.4386 -74.651,6.4243 z m 24.151,-48.375 c -25.771,-2.2113 -38.461,-7.1794 -32.8,-12.841 1.659,-1.659 4.7684,-1.5165 18.451,0.8459 27.48,4.7446 64.462,3.6477 86.349,-2.5612 13.412,-3.8047 19.56,-4.1595 21.393,-1.2347 2.4643,3.9322 0.19,5.2538 -18.393,10.688 -16.575,4.8471 -50.824,7.1772 -75,5.1027 z m -222.88,316.48 c 8.0384,-0.8092 15.913,-1.969 17.5,-2.5773 1.5866,-0.6083 4.6575,-0.8262 6.8242,-0.4843 11.454,1.8075 24.836,-3.3321 25.371,-9.7448 0.35253,-4.223 0.27549,-4.2499 -6.4014,-2.2404 -21.511,6.4742 -64.723,5.4919 -70.659,-1.6063 -5.7225,-6.843 -1.6132,-8.8711 17.974,-8.8711 11.284,0 17.574,-0.4563 21.816,-1.5826 3.2781,-0.8704 10.685,-1.9124 16.46,-2.3157 12.308,-0.8594 14.706,-1.9222 24.678,-10.936 3.1216,-2.8218 3.0048,-13.649 -0.18519,-17.174 -7.1123,-7.859 -12.097,-9.4261 -21.234,-6.6759 -19.794,5.9578 -59.43,8.0882 -89.759,4.8245 -8.3319,-0.8966 -12.81,-0.9818 -14.65,-0.2786 -1.8287,0.6989 -3.7652,0.6704 -6.2492,-0.092 -4.9321,-1.5137 -5.0735,-1.0751 -2.6915,8.3446 1.1498,4.5466 2.0904,11.136 2.0904,14.642 0,6.6954 1.0987,9.879 4.1587,12.051 1.0831,0.7686 1.8413,2.532 1.8413,4.2821 0,3.5175 2.1034,8.9246 4.1232,10.6 2.0514,1.7011 43.408,11.088 49.377,11.207 2.75,0.055 11.577,-0.5621 19.615,-1.3714 z m 20.385,-71.028 c 11.861,-2.4892 18.177,-5.2842 20.38,-9.0179 1.072,-1.8169 3.5714,-4.0733 5.5541,-5.0142 3.2572,-1.5457 7.5656,-6.1162 7.5656,-8.026 0,-0.4142 -7.9875,-0.3684 -17.75,0.1018 -38.662,1.862 -61.25,-1.922 -61.25,-10.261 0,-6.3724 5.2288,-8.3504 9.9972,-3.782 4.7892,4.5883 33.001,6.0614 49.503,2.5848 2.75,-0.5794 8.7976,-1.7658 13.439,-2.6365 4.6415,-0.8707 11.166,-2.7356 14.5,-4.1443 3.3335,-1.4087 7.8552,-2.8403 10.048,-3.1813 8.2566,-1.2839 13.656,-24.95 7.6948,-33.726 -0.93464,-1.376 -14.037,-4.394 -19.075,-4.394 -2.7736,0 -4.7562,-0.6493 -6.1069,-2 -2.4072,-2.4072 -2.3275,-2.4043 -11.121,-0.4043 -6.5546,1.4908 -6.9127,1.7096 -5.4474,3.3287 4.5481,5.0256 1.8166,8.166 -8.4316,9.6935 -4.125,0.6149 -10.2,2.1283 -13.5,3.3631 -7.4101,2.7727 -28.022,2.2309 -43,-1.1304 -4.95,-1.1109 -12.15,-2.615 -16,-3.3427 -7.5342,-1.4239 -10.389,-2.4951 -23.5,-8.8181 -24.538,-11.834 -23.036,-19.516 2.5,-12.791 2.2,0.5794 9.5493,1.0642 16.332,1.0773 12.271,0.024 12.361,0.041 18.304,3.5239 7.2737,4.263 15.843,4.7514 26.709,1.5222 3.8256,-1.1368 14.096,-2.6347 24.155,-3.5229 28.285,-2.4975 58,-11.764 58,-18.087 0,-1.2887 1.6059,-5.2647 3.5686,-8.8355 3.3183,-6.0368 3.6366,-7.3899 4.5376,-19.284 0.53294,-7.0357 1.4566,-15.267 2.0525,-18.292 1.1554,-5.8649 1.1732,-15.124 0.0308,-16.072 -0.37927,-0.3148 -10.815,-0.2907 -23.19,0.054 -12.375,0.3443 -23.4,0.3212 -24.5,-0.051 -1.1,-0.3725 -10.1,-0.2726 -20,0.2221 -60.073,3.0016 -119.2,-4.8358 -112.86,-14.961 1.5664,-2.5024 5.8403,-2.5405 17.448,-0.1556 34.246,7.0361 126.21,0.8216 149.68,-10.114 3.4479,-1.6068 7.3533,-2.9214 8.6786,-2.9214 3.6709,0 5.5525,-2.558 5.5525,-7.5486 0,-2.4232 1.135,-7.4211 2.5221,-11.106 3.4863,-9.2622 7.6119,-8.9187 -65.022,-5.413 -22.681,1.0947 -80.296,3.215 -85.859,3.1597 -3.6053,-0.036 -5.6406,-1.693 -5.6406,-4.5928 0,-5.4776 11.396,-6.7568 78.5,-8.812 5.1134,-0.1566 2.277,-0.3644 -6.5682,-0.4813 -32.005,-0.4227 -97.71,-15.782 -96.73,-22.611 0.64633,-4.5029 4.4456,-4.8991 21.028,-2.1927 25.332,4.1345 34.959,4.7062 93.27,5.5391 31.033,0.4433 57.338,1.233 59,1.7713 2.1408,0.6932 3.8592,0.6 6,-0.3254 1.65,-0.7132 4.3725,-1.3171 6.05,-1.3419 3.3777,-0.05 5.45,-1.5951 5.45,-4.0636 0,-4.6879 3.4305,-12.4 7.6088,-17.104 9.4258,-10.613 9.523,-49.297 0.12906,-51.33 -5.7338,-1.2409 -100.34,-4.2204 -122.74,-3.8656 -6.325,0.1002 -14.425,0.1118 -18,0.026 -3.575,-0.086 -13.573,0.057 -22.219,0.3179 -15.306,0.4616 -15.778,0.4146 -17.986,-1.7898 -6.9074,-6.897 -2.0083,-7.6128 94.205,-13.763 54.598,-3.4902 70.893,-4.9967 74.5,-6.8878 1.7925,-0.9398 5.5155,-1.5753 9.25,-1.5789 10.193,-0.01 8.3175,-9.1413 -2.2806,-11.102 -10.475,-1.9375 -9.6991,-8.0564 1.2806,-10.096 6.25,-1.1612 6.25,-1.1612 6.25,-10.426 0,-11.338 1.6322,-10.615 -17.5,-7.7553 -19.495,2.9139 -38.277,3.108 -89.252,0.9219 -82.859,-3.5534 -90.13,-3.7053 -99.248,-2.0733 -4.67496,0.8368 -10.41296,1.5221 -12.74996,1.5228 -6.8559,0 -5.3094,3.5493 4.4971,10.314 3.7529,2.589 3.7529,2.589 56.25296,5.1403 58.417,2.8389 56.35,2.6251 58.602,6.0627 5.8617,8.9461 -19.595,10.348 -106.5,5.8657 -12.40196,-0.6397 -12.40196,-0.6397 -11.72996,3.2394 0.3693,2.1334 0.9561,6.804 1.304,10.379 0.7317,7.5199 1.1291,7.9303 7.82806,8.0844 7.6671,0.1763 9.7644,1.1127 12.226,5.4589 3.8244,6.7521 0.98669,11.447 -6.9306,11.468 -12.58296,0.032 -12.57896,0.026 -15.31096,18.54 -1.7668,11.971 -1.7667,11.976 0.3741,16.172 1.4348,2.8124 2.1415,6.0477 2.1415,9.8033 0,3.0831 0.5625,6.5885 1.25,7.7898 0.7678,1.3416 1.5361,8.7431 1.9915,19.184 1.7548,40.236 2.4231,50.16 3.55656,52.815 1.8982,4.4461 1.5711,27.838 -0.4803,34.346 -1.50406,4.7716 -1.53976,6.263 -0.3377,14.088 0.73948,4.8132 1.609,14.22 1.9322,20.904 0.5744,11.878 0.66242,12.246 3.8917,16.258 3.304,4.1058 3.304,4.1058 2.8146,17.847 -0.26918,7.5578 -0.51253,14.641 -0.54078,15.741 -0.33768,13.151 3.2792,29.185 5.8771,26.054 1.7891,-2.1558 5.6586,-1.9441 7.3,0.3992 1.7366,2.4794 8.3155,3.9767 22.006,5.0083 11.408,0.8596 13.739,1.8245 13.739,5.6854 0,4.3418 -6.0093,5.3339 -23.631,3.9015 -9.0484,-0.7355 -19.369,-4.7685 -19.369,-7.5689 0,-0.5389 -0.45,-0.9798 -1,-0.9798 -1.4731,0 -1.2741,21.283 0.23099,24.703 8.8726,20.16 14.472,22.572 56.022,24.127 13.826,0.5175 21.153,1.1762 21.95,1.9735 1.687,1.687 17.686,1.5002 26.297,-0.307 z m -51.5,-121.54 c -28.903,-3.3023 -45.523,-10.331 -44.796,-18.947 0.41012,-4.862 3.2911,-5.0746 9.4622,-0.6984 8.2488,5.8498 17.964,8.0702 40.334,9.2183 23.095,1.1853 42.436,-0.9439 65.216,-7.1799 15.57,-4.2621 19.153,-4.1991 19.593,0.3445 0.84448,8.7237 -60.813,20.575 -89.809,17.262 z m 64,-241.62 c -5.5608,-1.153 -7.9036,-6.2468 -3.8668,-8.4073 8.9646,-4.7977 47.867,-3.0778 47.867,2.1162 0,3.8068 -33.134,8.5443 -44,6.2911 z m 62,-39.337 c 12.168,-0.8154 14.661,-1.2553 15.5,-2.7352 0.55,-0.9699 2.8378,-3.5635 5.084,-5.7635 12.206,-11.955 8.842,-31.406 -7.6463,-44.21 -3.2657,-2.5361 -5.9376,-4.967 -5.9376,-5.4021 0,-0.4351 -3.2259,-2.8779 -7.1686,-5.4285 -7.4685,-4.8313 -10.125,-5.79 -45.831,-16.538 -11.275,-3.3939 -26.35,-8.3213 -33.5,-10.95 -19.103,-7.0223 -38.084,-11.377 -75.974,-17.432 -5.4858,-0.87654 -10.824,-2.1582 -11.863,-2.848 -6.2362,-4.1407 -38.634,5.6205 -42.876,12.918 -5.4954,9.4549 -3.3306,64.442 3.3557,85.237 1.3021,4.0493 5.5926,6.1506 12.575,6.1588 2.6302,0 6.3571,0.3983 8.2821,0.8783 12.063,3.0077 14.986,3.1889 104,6.4444 20.02,0.7322 69.099,0.5349 82,-0.3296 z m 101.91,-86.499 c 15.935,-5.775 30.237,-10.515 31.783,-10.533 1.5459,-0.018 5.2858,-0.91595 8.3108,-1.9956 6.4182,-2.2906 33.297,-6.8624 47,-7.994 5.225,-0.4315 17.15,-1.9514 26.5,-3.3774 13.201,-2.0134 20.767,-2.5937 33.857,-2.5966 15.644,-0.003 16.808,-0.12964 16.181,-1.7537 -3.7005,-9.5801 -9.785,-36.874 -10.979,-49.25 -1.7056,-17.678 -0.24773,-15.999 -13.903,-16.007 -11.537,-0.007 -29.227,1.7993 -40.156,4.0996 -2.75,0.5788 -7.8192,1.6566 -11.265,2.3952 -11.148,2.3895 -20.599,-5.0338 -9.7352,-7.646 29.234,-7.029 42.118,-8.5904 72.9,-8.8346 1.4652,-0.0116 -0.23839,-21.025 -2.3598,-29.108 -2.048,-7.8026 -3.0388,-9.0559 -10.717,-13.555 -7.1482,-4.1891 -302.72,-4.9753 -318.32,-0.84673 -8.9096,2.3577 -13.605,2.9126 -31,3.6636 -52.5,2.2666 -54.637,2.6142 -63.88,10.392 -3.5743,3.0076 -4.2499,8.8071 -1.7288,14.841 1.3781,3.2982 1.469,3.3359 9.75,4.0432 19.998,1.708 38.449,6.0727 42.971,10.165 4.3864,3.9696 0.41237,8.0573 -6.2292,6.4074 -1.8606,-0.46224 -7.8282,-2.0034 -13.261,-3.4247 -10.176,-2.6622 -19.672,-3.2872 -25.051,-1.6488 -1.689,0.51451 -4.9541,1.4238 -7.2557,2.0206 -5.6396,1.4624 -14.967,10.896 -16.358,16.544 -0.54191,2.2 -3.2819,11.067 -6.0889,19.704 -8.7949,27.063 -9.0412,26.492 11.825,27.419 13.776,0.61204 18.307,1.7771 18.307,4.7074 0,0.95062 2.5339,1.3128 9.75,1.3934 10.854,0.12137 30.411,2.913 48.095,6.8653 11.381,2.5437 18.926,4.9359 41.96,13.304 23.583,8.5677 35.196,6.2415 35.196,-7.05 0,-9.3026 2.3492,-6.4429 -21,-25.563 -7.975,-6.5306 -15.4,-13.247 -16.5,-14.924 -1.1,-1.6778 -3.8413,-4.4671 -6.0918,-6.1984 -8.659,-6.6616 -11.542,-10.134 -11.214,-13.509 0.52708,-5.4267 4.5832,-4.8789 12.074,1.6308 7.2301,6.2828 17.133,13.014 31.231,21.228 5.5,3.2045 11.825,7.0629 14.056,8.5742 7.5935,5.1447 26.931,15.239 30.907,16.133 2.1793,0.49022 7.6682,3.1639 12.198,5.9415 24.671,15.13 55.866,9.3057 80.962,-15.116 25.778,-25.084 56.956,-45.062 62.178,-39.84 4.7978,4.7978 2.0106,8.0116 -26.3,30.326 -31.643,24.941 -58.5,51.84503 -58.5,58.60203 0,1.2681 -1.4342,1.7298 29.906,-9.6283 z M -1220,920.612 c 0.6031,-0.75497 0.6998,-3.2301 0.2442,-6.25 -2.2595,-14.976 -3.3849,-21.166 -7.9993,-44 -6.3331,-31.339 -6.5158,-34.435 -2.0518,-34.771 1.6921,-0.12747 2.0374,-0.61336 1.5609,-2.1964 -1.7363,-5.7675 -1.7287,-9.2339 0.022,-9.9056 3.8909,-1.4931 6.5833,2.2999 17.197,24.228 11.554,23.869 10.99,23.108 17.148,23.13 5.3947,0.0189 5.4117,0.19773 -1.846,-19.406 -6.2539,-16.893 -7.4487,-22.25 -6.5721,-29.466 0.3749,-3.0867 0.9952,-9.2122 1.3783,-13.612 0.7291,-8.3722 1.6066,-10.78 5.0721,-13.916 2.6204,-2.3714 2.6636,-3.5838 0.1279,-3.5838 -2.3569,0 -4.0352,-2.8063 -4.0352,-6.7472 0,-7.5544 15.876,-13.581 17.607,-6.6835 0.6556,2.6123 2.6265,3.0529 6.7103,1.5002 1.57,-0.5969 4.8187,-0.52425 9.0625,0.20266 7.692,1.3176 10.285,0.22422 7.2968,-3.0773 -1.1978,-1.3236 -1.6808,-3.6855 -1.6917,-8.2736 -0.024,-10.257 -5.8861,-14.056 -38.428,-24.902 -23.669,-7.8893 -24.102,-7.9684 -24.957,-4.562 -1.0605,4.2254 -6.6372,8.3866 -20.362,15.194 -26.273,13.03 -36.873,30.264 -35.715,58.062 1.127,27.052 1.249,27.683 5.477,28.287 6.1802,0.88289 7.0059,4.3262 10,41.703 1.8767,23.427 4.9885,32.068 12.43,34.518 5.5961,1.8423 5.4762,4.8923 1.0696,-27.221 -1.9245,-14.025 -3.5004,-27.525 -3.5021,-30 0,-2.475 -1.0779,-8.55 -2.3918,-13.5 -1.3139,-4.95 -2.7023,-10.912 -3.0854,-13.25 -0.3831,-2.3375 -1.0629,-4.25 -1.5108,-4.25 -1.5047,0 -2.7049,-5.4522 -1.8708,-8.4988 1.5529,-5.6722 7.3443,-7.2685 12.281,-3.3851 3.1676,2.4916 3.2067,6.5619 0.08,8.2831 -1.1,0.60547 -2.1714,1.1973 -2.3809,1.3151 -0.2095,0.11784 0.4285,1.9178 1.4179,4 2.7702,5.8303 8.2732,27.059 11.609,44.786 2.922,15.526 8.598,39.161 10.747,44.75 1.1685,3.0392 7.8222,4.0514 9.8605,1.5 z m -17.295,-97.816 c -2.1087,-3.4119 0.2326,-11.535 4.416,-15.321 2.9978,-2.713 8.7945,-1.6038 12.375,2.3679 5.737,6.3639 1.6204,14.078 -5.2298,9.7995 -1.6699,-1.0429 -2.3637,-0.82564 -4.7911,1.5 -2.9523,2.8284 -5.6383,3.4843 -6.7701,1.6531 z m 26.801,-21.184 c -9.6253,-10.37 -16.26,-42.75 -8.7601,-42.75 1.3968,0 2.8794,-0.84046 3.4877,-1.9771 4.7302,-8.8384 8.3576,-3.8713 8.1144,11.111 -0.1535,9.4508 0.2886,14.641 1.8403,21.607 2.8006,12.573 0.7422,17.853 -4.6823,12.009 z m 906.01,108.35 c 1.5235,-0.5888 3.2505,-2.3136 3.8376,-3.8328 2.4042,-6.221 6.9329,-25.422 8.2828,-35.118 1.1826,-8.4947 2.0257,-11.28 4.6918,-15.5 12.54,-19.849 13.739,-23.449 16.367,-49.145 1.9872,-19.424 2.5169,-22.592 4.1756,-24.973 2.4542,-3.5215 1.5074,-5.2559 -7.1917,-13.175 -20.27,-18.452 -32.696,-23.887 -54.434,-23.807 -22.232,0.0817 -51,13.743 -51,24.219 0,3.2032 -0.86497,4.5561 -6.622,10.358 -7.8562,7.9169 -7.6499,8.877 1.9075,8.877 20.893,0 28.402,24.982 15.707,52.259 -6.6492,14.286 -6.6707,14.748 -0.68337,14.726 5.754,-0.021 5.348,0.4362 15.526,-17.485 13.922,-24.513 15.829,-27.378 18.695,-28.097 4.0601,-1.019 6.7512,2.0736 6.1579,7.0765 -0.2623,2.2112 -0.9549,8.3244 -1.5392,13.585 -0.66647,6.0003 -2.2279,12.708 -4.1902,18 -4.2393,11.433 -8.9311,32.101 -8.9524,39.436 -0.01,3.3 -0.49455,7.7182 -1.0777,9.8182 -1.3225,4.7626 -0.01,6.6818 4.5714,6.6818 4.3058,0 4.8217,-0.80354 7.9638,-12.404 7.6914,-28.396 21.279,-60.596 25.569,-60.596 6.1534,0 5.976,6.8676 -0.9985,38.655 -9.9742,45.459 -9.3807,42.223 -8.0394,43.839 1.045,1.2592 1.6884,1.2012 4.855,-0.43813 2.0077,-1.0393 4.8969,-2.3714 6.4205,-2.9602 z m 9.3293,-77.903 c -1.2583,-2.4333 -1.925,-2.7526 -4.9987,-2.3938 -7.5041,0.87606 -6.9362,-8.9351 0.581,-10.038 7.1411,-1.0481 12.818,2.4777 12.818,7.9607 0,7.2839 -5.447,10.183 -8.4006,4.4715 z m -29.124,-19.942 c -5.5125,-6.3254 -6.4749,-7.7781 -6.4749,-9.7736 0,-5.282 8.4311,-7.2814 11.942,-2.832 4.8891,6.1964 -0.4081,18.411 -5.467,12.606 z m -862.66,-27.183 c 0.6531,-1.9594 -3.4323,0.50371 -4.2139,2.5406 -0.577,1.5035 -0.4253,1.522 1.5775,0.1922 1.2187,-0.80921 2.4051,-2.039 2.6364,-2.7328 z m 808.19,-44.117 c 0,-0.57731 -0.76486,-2.4898 -1.6997,-4.25 -1.8869,-3.5528 -3.0389,-1.7792 -1.8698,2.8788 0.58865,2.3454 3.5695,3.4905 3.5695,1.3712 z m -790.21,-13.122 c 0.3375,-10.171 -0.6925,-11.862 -12.596,-20.685 -13.682,-10.14 -28.435,-16.744 -44.643,-19.984 -12.121,-2.423 -16.764,-6.544 -12.348,-10.96 4.4486,-4.4486 31.295,4.3813 52.931,17.409 7.8954,4.7542 7.8692,4.7732 7.8692,-5.7246 0,-11.949 -0.8231,-12.71 -28.636,-26.498 -22.155,-10.982 -24.734,-12.747 -24.195,-16.555 0.599,-4.2286 5.2543,-3.5485 17.776,2.597 10.412,5.1102 11.433,5.419 13.386,4.0512 1.1626,-0.81436 3.5888,-1.4807 5.3914,-1.4807 3.8301,0 4.2495,-1.9935 1.8501,-8.7941 -0.785,-2.225 -1.176,-5.0067 -0.8688,-6.1814 1.0445,-3.9939 -28.929,-28.255 -42.112,-34.087 -15.151,-6.702 -39.975,-6.187 -53.68,1.1136 -1.7435,0.92874 -7.3394,14.294 -8.4209,20.113 -1.0773,5.7962 7.0804,8.2247 18.039,5.3703 10.994,-2.8637 18.683,-1.4375 19.271,3.5745 0.4756,4.0555 -1.7691,4.9758 -13.667,5.6035 -12.323,0.6501 -17.874,3.8689 -23.64,13.709 -2.8582,4.8772 -3.719,20.346 -1.2432,22.341 2.8305,2.2802 7.6543,2.4584 10.296,0.38041 2.8838,-2.2684 15.334,-6.6273 23.086,-8.0826 8.9348,-1.6773 15.08,1.4993 13.63,7.0456 -0.4717,1.8038 -4.3029,2.8965 -10.137,2.8914 -7.8677,-0.007 -18.11,4.0194 -20.713,8.1421 -2.0977,3.323 -3.0037,3.8707 -7.3586,4.4484 -8.2756,1.0978 -13.235,11.535 -14.515,30.549 -0.8839,13.132 -1.7771,12.675 15.067,7.7022 13.894,-4.1018 13.894,-4.1018 41.394,-4.2838 15.125,-0.10014 28.713,-0.5335 30.195,-0.96303 3.9142,-1.1342 19.923,4.1137 33.275,10.908 14.592,7.4251 14.952,7.3386 15.318,-3.6715 z m 921.97,-1.0869 c 1.3521,-32.646 -3.3336,-55.064 -14.897,-71.271 -10.598,-14.854 -12.19,-19.714 -7.4708,-22.807 3.4894,-2.2864 3.8693,-14.24 0.609,-19.163 -1.0928,-1.65 -1.9898,-4.1315 -1.9934,-5.5144 -0.0229,-8.7488 -27.051,-30.986 -37.662,-30.986 -0.9436,0 -2.6884,-0.91379 -3.8772,-2.0306 -4.1411,-3.8904 -40.313,10.663 -48.159,19.376 -4.4804,4.9754 -7.5798,5.8847 -9.2732,2.7204 -5.1992,-9.7149 14.095,-21.769 53.645,-33.515 16.586,-4.9256 17.717,-6.3391 11.436,-14.286 -5.5324,-6.999 -21.203,-17.411 -53.116,-35.292 -5.225,-2.9276 -14.63,-8.6489 -20.901,-12.714 -35.917,-23.285 -50.307,-22.22 -82.029,6.0707 -7.2335,6.451 -12.259,11.865 -14.619,15.75 -1.9778,3.2558 -4.0207,5.9196 -4.5398,5.9196 -5.2715,0 -15.494,37.204 -16.88,61.435 -1.2681,22.166 -2.1056,25.807 -5.8365,25.376 -7.3631,-0.85001 -6.0008,-38.157 2.312,-63.311 11.215,-33.935 16.93,-46.891 21.154,-47.951 1.3784,-0.34596 3.9311,-3.4209 6.8896,-8.2993 9.2357,-15.229 19.35,-24.588 32.231,-29.823 3.1452,-1.2783 5.7186,-2.771 5.7186,-3.3172 0,-4.4213 -28.114,-18.457 -32.388,-16.17 -4.6456,2.4863 -38.896,1.3263 -42.523,-1.4402 -13.058,-9.9596 -46.347,8.4318 -46.567,25.727 -0.0121,0.94982 -1.1585,2.4716 -2.5476,3.3818 -4.2388,2.7774 -6.4744,-0.17612 -6.4744,-8.5536 0,-10.265 2.4032,-18.002 8.7783,-28.259 1.6103,-2.5909 1.5864,-2.8212 -0.57026,-5.5 -1.238,-1.5377 -2.7278,-4.012 -3.3108,-5.4985 -1.0241,-2.6114 -8.3698,-5.7973 -13.367,-5.7973 -0.91401,0 -2.5492,-0.47491 -3.6338,-1.0554 -3.6858,-1.9726 -35.329,11.846 -46.688,20.389 -25.46,19.148 -32.553,31.936 -39.205,70.69 -4.7315,27.563 -5.8415,31.282 -9.1915,30.798 -5.4442,-0.78677 -3.7125,-26.399 3.8005,-56.208 7.4841,-29.695 32.001,-54.258 68.888,-69.02 6.05,-2.4211 13.882,-5.6164 17.405,-7.1005 3.5225,-1.4842 10.443,-3.5085 15.378,-4.4986 8.9514,-1.7957 8.9914,-1.8174 16.095,-8.7183 3.917,-3.805 8.372,-7.445 9.8999,-8.089 1.5279,-0.64397 3.067,-1.9622 3.4202,-2.9295 0.35319,-0.96726 1.4363,-2.7946 2.4068,-4.0607 3.4035,-4.44 7.7985,-20.139 7.7542,-27.698 -0.029,-4.95 0.77908,-9.6357 2.7593,-16 3.509,-11.277 3.8596,-24.296 0.93801,-34.824 -2.0955,-7.5514 -2.623,-7.306 -4.5573,2.1203 -1.6716,8.1454 -3.1717,9.2042 -13.041,9.2042 -7.597,0 -7.597,0 -9.0275,3.25 -0.83123,1.8885 -2.7245,3.8203 -4.5195,4.6113 -3.3664,1.4835 -7.411,11.312 -7.411,18.009 0,11.624 -38.38,53.129 -49.128,53.129 -3.2324,0 -4.5685,-2.8293 -2.8513,-6.0379 1.5447,-2.8863 0.70953,-2.385 -17.52,10.515 -67.654,47.876 -172.97,58.767 -246.11,25.45 -10.778,-4.9099 -19.931,-8.927 -20.34,-8.927 -0.40961,0 -1.602,-0.95721 -2.6497,-2.1271 -1.0478,-1.1699 -5.0966,-3.587 -8.9976,-5.3714 -8.7605,-4.0072 -42.46,-25.446 -47.907,-30.478 -2.2,-2.0321 -5.2431,-4.6254 -6.7625,-5.7629 -3.3648,-2.519 -23.737,-25.36 -23.737,-26.613 0,-1.6064 -7.2183,-17.099 -8.8249,-18.941 -3.71855,-4.2633 -10.88705,3.0395 -13.63005,13.886 -2.5941,10.257 -9.5453,53.148 -9.5453,58.898 0,5.9798 0.082,6.0864 3.3157,4.3104 1.8567,-1.0196 32.48105,-3.0518 43.30405,-2.8735 1.7159,0.0283 6.4162,1.4541 10.445,3.1686 5.6533,2.4057 9.7012,3.3235 17.734,4.021 21.156,1.837 44.999,14.038 44.027,22.529 -0.51788,4.5275 -3.9168,4.2525 -11.741,-0.95002 -13.151,-8.7449 -17.031,-10.1 -33.291,-11.63 -7.6715,-0.72161 -12.915,-1.8592 -18.503,-4.014 -16.721,-6.4483 -53.49505,-2.5814 -56.92305,5.9856 -1.474,3.6838 -1.8642,3.9623 -5.5511,3.9623 -3.4137,0 -4.7557,0.74112 -9.6414,5.3243 -5.6758,5.3243 -5.6758,5.3243 -20.735,7.4948 -26.849,3.8696 -42.194,10.935 -47.914,22.061 -4.2661,8.2992 -18.111,20.777 -23.97,21.603 -14.37,2.0264 -26.456,6.7364 -34.558,13.467 -2.4751,2.0564 -6.1716,4.0511 -8.2149,4.433 -7.2828,1.3611 -5.809,5.6334 4.7804,13.858 11.778,9.1475 10.5441,18.957 -1.4475,11.513 -12.4269,-7.7151 -30.3089,-9.5181 -37.294,-3.7604 -2.56,2.1102 -5.7994,3.4443 -10.978,4.5213 -19.503,4.0561 -32.66,11.228 -29.936,16.318 1.4819,2.7688 0.4308,4.9487 -3.2819,6.8061 -1.7208,0.86094 -7.046,5.4272 -11.834,10.147 -6.7999,6.7039 -10.52,9.4716 -17,12.648 -8.2951,4.0658 -8.2951,4.0658 -13.966,15.066 -5.912,11.469 -6.0027,12.983 -0.5814,9.6907 16.629,-10.098 45.7851,-9.4475 67.095,1.4967 6.8149,3.4998 0.9886,-4.0432 -7.7117,-9.9841 -3.0386,-2.0749 -3.3182,-3.8735 -0.9675,-6.2242 2.7536,-2.7536 15.98,1.417 22.2171,7.0054 1.9906,1.7836 5.1941,4.0415 7.1192,5.0175 9.1188,4.6233 24.933,24.572 33.732,42.551 4.7722,9.7515 9.4039,14.727 14.896,16.001 19.205,4.4558 26.332,-7.3244 16.3699,-27.059 -3.5731,-7.0782 -3.6785,-8.4043 -0.828,-10.401 1.9859,-1.3909 2.0706,-1.8498 1,-5.4227 -2.4582,-8.205 -0.4952,-11.925 4.5489,-8.6201 2.7467,1.7998 7.5323,11.246 9.4111,18.576 1.0346,4.037 1.6391,4.8727 3.5246,4.8727 5.7253,0 5.621,11.955 -0.1646,18.83 -3.0741,3.6534 -2.5029,4.1698 4.6122,4.1698 6.6632,0 10.898,-1.3222 10.898,-3.4023 0,-0.79852 2.6384,-4.0722 5.8631,-7.2748 7.0604,-7.0119 8.9689,-11.619 13.157,-31.76 4.0182,-19.322 5.0083,-21.984 8.3232,-22.379 5.4128,-0.64491 5.3163,8.0422 -0.3597,32.385 -3.7447,16.06 -1.9228,22.418 5.7438,20.045 14.363,-4.4467 24.822,-10.913 29.257,-18.089 1.1869,-1.9205 3.3523,-4.4313 4.8122,-5.5795 1.4944,-1.1755 3.6477,-4.7312 4.9285,-8.1381 2.872,-7.6396 2.8683,-9.0613 -0.014,-5.4592 -5.9435,7.4274 -8.2171,3.0879 -9.204,-17.567 -1.9688,-41.208 -14.465,-70.107 -42.119,-97.403 -11.686,-11.535 -13.17,-14.417 -8.1048,-15.742 7.5379,-1.9712 32.063,23.372 42.445,43.861 7.2607,14.329 15.898,45.71 17.822,64.753 0.6554,6.4857 1.848,8.4797 3.108,5.1962 0.8167,-2.1279 -3.0923,-27.611 -6.204,-40.446 -2.8875,-11.91 -2.9269,-17.299 -0.1305,-17.829 8.527,-1.617 17.666,39.723 18.152,82.113 0.2308,20.112 0.3124,20.863 2.5246,23.217 1.5276,1.6261 2.4442,4.0793 2.7627,7.3942 0.8265,8.6013 11.363,13.909 27.92095,14.065 8.3928,0.079 24.315,-12.671 24.315,-19.471 0,-1.7446 0.67013,-5.3811 1.4892,-8.081 1.9999,-6.5925 1.9609,-6.7489 -1.51,-6.0548 -3.8661,0.77321 -7.5029,-2.4045 -6.5197,-5.6966 0.35441,-1.1866 0.87138,-10.033 1.1488,-19.658 0.60758,-21.077 0.65403,-21.343 3.9997,-22.867 3.2619,-1.4862 3.1986,-32.491 -0.0878,-43.025 -6.6754,-21.398 -23.571,-55.683 -35.041,-71.107 -8.72855,-11.738 -9.89695,-14.015 -9.31175,-18.148 0.4326,-3.0567 5.0727,-3.805 7.2175,-1.1639 23.91995,29.455 50.87595,80.402 55.19195,104.31 3.1676,17.55 0.9381,68.714 -3.4997,80.315 -2.6898,7.0316 -0.94671,8.0656 7.6145,4.5172 3.5471,-1.4702 5.5683,-2.9986 6.2814,-4.75 0.57832,-1.4203 2.7742,-4.9188 4.8797,-7.7746 11.886,-16.121 12.472,-45.93 1.5362,-78.086 -7.6336,-22.446 0.34735,-29.089 8.4482,-7.0324 11.378,30.979 12.223,63.883 2.1527,83.832 -3.5554,7.0433 -3.547,6.9793 -0.92383,6.9793 4.5202,0 11.892,-10.306 11.951,-16.708 0.009,-0.98543 1.1106,-3.5917 2.448,-5.7917 8.4531,-13.906 9.5825,-17.723 10.248,-34.641 0.4258,-10.82 0.17606,-15.262 -1.2079,-21.483 -2.2431,-10.082 -12.688,-42.806 -16.064,-50.328 -3.0617,-6.8224 -2.9878,-11.399 0.19149,-11.852 9.1544,-1.3057 28.023,55.153 27.339,81.804 -0.7163,27.912 -0.40655,29.664 4.3506,24.62 1.8779,-1.9912 3.9398,-3.6203 4.5819,-3.6203 1.3615,0 4.03,-5.896 8.373,-18.5 2.9939,-8.6887 3.1206,-9.751 3.6623,-30.715 0.61018,-23.613 1.2775,-26.345 5.8393,-23.904 20.698,11.077 -17.787,125.57 -43.969,130.81 -1.781,0.3562 -3.9391,1.9884 -5.5497,4.1974 -10.044,13.775 -15.518,16.615 -45.792,23.756 -6.6089,1.5588 -7.6979,2.1718 -18.859,10.616 -9.936,7.5176 -10.001,9.0126 -0.3592,8.2614 3.9875,-0.31063 19.625,-1.4765 34.75,-2.5907 15.125,-1.1143 37.85,-2.9482 50.5,-4.0754 18.895,-1.6838 33.797,-2.1417 83.5,-2.5662 58.853,-0.50263 70.728,-0.27027 163.5,3.1993 86.377,3.2304 91.5,3.2164 91.5,-0.24973 0,-5.0712 -0.94034,-6.1819 -8.3766,-9.8943 -3.9178,-1.9559 -8.0234,-4.3561 -9.1234,-5.3339 -1.1,-0.9778 -5.5158,-2.4813 -9.8129,-3.341 -27.887,-5.5797 -72.197,-32.661 -84.999,-51.949 -14.245,-21.463 -20.54,-60.061 -8.7671,-53.76 2.2328,1.1949 2.5009,2.0362 4.0263,12.631 2.5315,17.583 11.781,37.236 21.879,46.489 14.075,12.897 30.996,22.922 38.689,22.922 3.6917,0 5.7071,0.8849 12.409,5.4483 10.879,7.4075 17.881,9.4845 29.7,8.8096 8.4552,-0.48278 9.4337,-0.33659 13.34,1.993 4.2158,2.514 4.2158,2.514 12.263,-5.8684 8.5871,-8.9445 25.357,-11.846 38.896,-6.7288 3.5789,1.3525 7.6922,1.6139 22.587,1.4354 17.931,-0.21488 18.279,-0.17864 22.588,2.3463 9.3286,5.467 19.7,2.9801 19.7,-4.7237 0,-3.3269 1.5108,-6.6033 4.0172,-8.7118 0.98071,-0.825 3.4859,-5.55 5.5671,-10.5 7.0199,-16.696 12.997,-23.4 18.323,-20.55 3.4603,1.8519 3.1339,5.6769 -0.99673,11.68 -1.6277,2.3658 -2.9101,5.5524 -2.9101,7.2313 0,1.6509 -1.3703,6.7181 -3.0452,11.261 -5.8286,15.808 -5.5627,29.877 0.56453,29.877 0.19569,0 1.5515,-2.1969 3.0129,-4.8819 1.4614,-2.6851 3.9645,-5.8485 5.5624,-7.0299 1.68,-1.242 2.9093,-3.0844 2.9147,-4.3681 0.0243,-5.7417 20.342,-35.108 24.576,-35.521 8.1716,-0.79742 7.3922,4.5907 -3.0088,20.801 -7.1609,11.16 -8.5679,13.998 -8.1192,16.375 0.29856,1.5812 0.54283,4.4354 0.54283,6.3426 0,3.4676 0,3.4676 5.75,2.8666 12.675,-1.3248 12.724,-1.3195 13.028,1.4159 0.22203,1.9993 -2.031,4.8989 -11.25,14.479 -12.592,13.084 -12.931,13.802 -8.5276,18.021 1.65,1.5808 3,3.3808 3,4 0,1.692 5.1047,6.2234 8.4237,7.4777 3.4106,1.2889 5.2354,0.96784 20.421,-3.5928 23.804,-7.149 46.339,-8.2921 54.905,-2.7852 2.4624,1.5829 3.2216,7.2997 1,7.5296 -0.6875,0.0711 -10.025,0.18471 -20.75,0.25239 -20.657,0.13035 -38.056,3.7393 -44.012,9.1292 -2.712,2.4543 -2.5158,3.881 0.28169,2.0481 11.165,-7.3154 49.222,-10.135 68.859,-5.1024 24.709,6.3326 34.881,12.623 45.753,28.293 2.8217,4.0671 2.5732,4.3269 2.8771,-3.0091 z m -118.65,-85.986 c -5.4623,-14.766 59.026,-32.902 76.094,-21.4 8.3274,5.6118 2.8751,10.498 -8.8748,7.9536 -16.788,-3.6355 -46.301,2.7386 -58.848,12.71 -4.4755,3.5567 -7.2381,3.7998 -8.3713,0.73647 z m -190.38,-3.5309 c -4.8575,-1.0399 -13.712,-18.505 -13.723,-27.069 -0.003,-2.3896 -0.90043,-7.3396 -1.9941,-11 -6.7766,-22.68 -6.1742,-63.076 1.2383,-83.049 1.607,-4.3302 1.8612,-6.5986 1.2889,-11.5 -1.0594,-9.0716 -0.905,-10.865 1.0589,-12.301 4.3284,-3.165 8.7991,-0.0643 9.861,6.8392 0.36853,2.3957 1.5816,7.4029 2.6956,11.127 2.2058,7.3739 1.5866,21.311 -1.7874,40.229 -2.6451,14.831 -2.8362,29.624 -0.56214,43.5 1.1267,6.875 2.3486,15.425 2.7154,19 0.43261,4.2169 1.7551,8.6713 3.7651,12.682 4.1136,8.2075 2.2238,12.994 -4.5569,11.543 z m -607.09,-25.974 c -2.9954,-3.7125 -9.347,-10.575 -14.115,-15.25 -4.7677,-4.675 -10.964,-11.362 -13.771,-14.861 -5.6189,-7.0052 -21.555,-20.824 -31.871,-27.637 -7.1267,-4.7065 -8.4546,-6.5643 -6.8435,-9.5746 2.652,-4.9554 10.078,-1.4717 27.134,12.729 4.2203,3.5137 9.8453,7.3327 12.5,8.4867 13.27,5.7685 41.818,43.093 38.512,50.351 -2.0786,4.5622 -5.4371,3.3278 -11.546,-4.2434 z m 765.03,-16.917 c -5.2699,-5.2699 7.6221,-18.799 26.564,-27.877 18.175,-8.7102 20.006,-0.12673 2.0742,9.7269 -5.8211,3.1988 -12.585,8.0051 -16.98,12.066 -6.6921,6.1834 -9.8897,7.852 -11.658,6.0833 z m -384.79,-9.25 c -7.5763,-0.87335 -22.613,-6.7402 -27.668,-10.795 -1.9211,-1.5411 -4.5344,-3.642 -5.8073,-4.6687 -2.2627,-1.8249 -2.4562,-1.8214 -8.6697,0.15641 -9.1832,2.9232 -10.796,3.1831 -13.463,2.1694 -5.1013,-1.9395 -2.0452,-6.6606 7.3573,-11.366 5.9832,-2.994 5.9615,-2.9016 3.1871,-13.605 -13.383,-51.631 44.193,-90.227 88.031,-59.011 4.1412,2.9488 7.0203,2.5139 13.346,-2.0159 13.754,-9.8492 18.348,-8.4891 15.093,4.4687 -1.5387,6.1256 -1.5414,6.7642 -0.036,8.4276 3.3577,3.7103 2.1005,11.409 -2.362,14.463 -2.422,1.6577 -2.4919,2.0432 -2.5281,13.942 -0.12244,40.202 -25.784,62.526 -66.481,57.834 z m -336.84,-25.847 c -1.3224,-1.1211 -2.7959,-4.749 -4.1004,-10.096 -2.6238,-10.754 -5.2621,-15.467 -16.71,-29.854 -9.8895,-12.428 -12.714,-17.182 -11.73,-19.745 4.0504,-10.555 39.898,34.11 42.066,52.413 0.8863,7.4828 -4.4637,11.572 -9.5252,7.281 z m 250.04,-75 c -0.47989,-0.9625 -1.6413,-4.679 -2.581,-8.2589 -1.0703,-4.0777 -3.7396,-9.6806 -7.1461,-15 -11.117,-17.359 -12.67,-22.178 -7.3458,-22.795 6.425,-0.74497 24.782,28.89 24.851,40.12 0.0422,6.7765 -5.3192,10.867 -7.7784,5.9343 z m -68.504,-39.432 c -14.065,-14.299 -15.42,-17.046 -8.6934,-17.613 8.135,-0.68672 30.206,22.804 27.02,28.758 -2.1786,4.0707 -5.1207,2.2816 -18.327,-11.144 z m 116.81,-57.421 c 80.171,-19.117 37.463,-152.69 -58.5,-182.96 -35.985,-11.353 -70.738,3.5575 -80.385,34.488 -21.691,69.551 67.957,165.39 138.88,148.48 z m 275.65,-90.07 c 7.1407,-0.74635 7.525,-1.1896 9.3632,-10.797 2.452,-12.816 2.0197,-19.189 -2.0634,-30.414 -0.40694,-1.1188 -0.88154,-1.0446 -2.4607,0.38451 -1.4245,1.2892 -2.9144,1.6152 -5.4792,1.199 -2.6238,-0.42578 -3.5226,-0.21471 -3.5226,0.82725 0,1.5782 -3.7074,30.793 -4.6776,36.861 -0.56482,3.5322 -0.43969,3.8736 1.1906,3.248 1.0019,-0.38448 4.4443,-0.97317 7.6498,-1.3082 z m -439.16,-7.2174 c 0,-2.7916 -8.1159,-25.108 -9.1311,-25.108 -0.47788,0 -0.86887,1.5894 -0.86887,3.5321 0,1.9427 -0.69686,5.1999 -1.5486,7.2384 -0.85809,2.0537 -1.2793,4.8262 -0.94459,6.2179 2.553,10.616 2.098,10.012 7.5317,10.012 4.2006,0 4.9615,-0.29018 4.9615,-1.8922 z m 177.04,-80.128 c 17.086,-8.7168 10.916,-36.158 -8.4923,-37.768 -18.17,-1.5068 -28.782,18.777 -17.396,33.252 5.0874,6.4676 17.737,8.674 25.888,4.5156 z m 239.96,-26.279 c 0,-0.82959 -14.391,-27.311 -18.858,-34.701 -5.5489,-9.1801 -6.093,-8.8547 -4.18,2.5 1.1074,6.5729 0.33562,10.5 -2.0636,10.5 -3.0764,0 -4.7698,-3.9405 -11.035,-25.678 -8.2301,-28.554 -17.142,-43.524 -11.394,-19.139 9.5352,40.449 10.661,53.13 4.5753,51.539 -1.6259,-0.42518 -2.083,-0.16213 -1.8471,1.0629 0.19001,0.98663 1.852,1.9476 4.2189,2.4394 2.148,0.44628 5.4009,1.7357 7.2287,2.8653 4.5981,2.8418 7.5283,2.2206 8.5688,-1.8163 1.5398,-5.974 7.0504,-6.6787 10.467,-1.3385 2.6049,4.0715 14.32,13.698 14.32,11.767 z m -47.781,-20.968 c -2.628,-2.7974 -3.3089,-4.3936 -17.326,-40.617 -21.125,-54.593 -41.652,-70.914 -101.18,-80.441 -16.882,-2.7021 -15.491,-3.3154 -17.649,7.7789 -1.4456,7.4316 -1.7627,8.0694 -4.1508,8.347 -4.6562,0.54125 -6.118,-4.8964 -4.6509,-17.301 0.19746,-1.6696 -0.25909,-1.9445 -2.7635,-1.664 -4.1709,0.46716 -4.2109,0.53865 -6.489,11.611 -1.1196,5.4413 -2.9301,12.789 -4.0233,16.329 -2.3139,7.4914 -2.5727,17.706 -0.61377,24.225 3.907,13.002 2.5809,36.151 -2.109,36.818 -9.1229,1.2963 -17.92,-36.508 -16.119,-69.27 1.084,-19.721 1.4864,-19.043 -10.17,-17.14 -23.768,3.8808 -48.866,15.058 -79.476,35.393 -5.5,3.6538 -12.066,7.6732 -14.591,8.9319 -15.92,7.9363 -20.986,17.565 -28.862,54.863 -5.0757,24.035 -5.8397,23.006 12.826,17.28 9.5821,-2.9393 14.989,-3.5782 16.677,-1.9706 1.2687,1.208 27.449,-7.0128 27.45,-8.6194 10e-4,-4.122 32.629,-7.2852 75.146,-7.2852 18.4,0 18.896,-0.0536 17.889,-1.9343 -2.6933,-5.0325 -1.0574,-8.9838 4.4556,-10.762 5.5428,-1.7876 6.6786,-5.4724 7.5895,-24.622 1.4143,-29.733 2.16,-33.682 6.3597,-33.682 4.4388,0 5.0806,2.8461 4.8479,21.5 -0.38928,31.208 -2.7301,42.112 -10.121,47.145 -3.1494,2.1445 -3.1494,2.1445 6.092,2.8055 29.637,2.1199 42.583,4.549 44.228,8.299 1.1215,2.5562 2.583,2.8876 16.795,3.8085 7.4752,0.48435 10.165,0.31646 11.406,-0.7119 4.9691,-4.1189 53.332,4.3589 65.835,11.541 4.6963,2.6975 5.6311,2.4712 2.6964,-0.65274 z"
     id="path3047"
     transform="matrix(0.12837563,0,0,0.12837563,227.52995,7.1044082)" />
  <metadata
     id="metadata16065">
    <rdf:RDF>
      <cc:Work>
        <dc:format>image/svg+xml</dc:format>
        <dc:type
           rdf:resource="http://purl.org/dc/dcmitype/StillImage" />
        <cc:license
           rdf:resource="http://creativecommons.org/licenses/publicdomain/" />
        <dc:publisher>
          <cc:Agent
             rdf:about="http://openclipart.org/">
            <dc:title>Openclipart</dc:title>
          </cc:Agent>
        </dc:publisher>
        <dc:title />
        <dc:date>2013-09-04T09:32:38</dc:date>
        <dc:description>The newest incarnation of the space suit worn by United States NASA Astronauts.</dc:description>
        <dc:source>https://openclipart.org/detail/182926/nasa-mark-iii-astronaut-space-suit-by-jpneok-182926</dc:source>
        <dc:creator>
          <cc:Agent>
            <dc:title>jpneok</dc:title>
          </cc:Agent>
        </dc:creator>
        <dc:subject>
          <rdf:Bag>
            <rdf:li>3</rdf:li>
            <rdf:li>III</rdf:li>
            <rdf:li>NASA</rdf:li>
            <rdf:li>astronaut</rdf:li>
            <rdf:li>mark</rdf:li>
            <rdf:li>space</rdf:li>
            <rdf:li>spacesuit</rdf:li>
          </rdf:Bag>
        </dc:subject>
      </cc:Work>
      <cc:License
         rdf:about="http://creativecommons.org/licenses/publicdomain/">
        <cc:permits
           rdf:resource="http://creativecommons.org/ns#Reproduction" />
        <cc:permits
           rdf:resource="http://creativecommons.org/ns#Distribution" />
        <cc:permits
           rdf:resource="http://creativecommons.org/ns#DerivativeWorks" />
      </cc:License>
    </rdf:RDF>
  </metadata>
</svg>
