<?xml version="1.0" encoding="UTF-8" standalone="no"?>
<!-- Generator: Adobe Illustrator 12.0.1, SVG Export Plug-In . SVG Version: 6.00 Build 51448)  -->

<svg
   xmlns:dc="http://purl.org/dc/elements/1.1/"
   xmlns:cc="http://creativecommons.org/ns#"
   xmlns:rdf="http://www.w3.org/1999/02/22-rdf-syntax-ns#"
   xmlns:svg="http://www.w3.org/2000/svg"
   xmlns="http://www.w3.org/2000/svg"
   xmlns:sodipodi="http://sodipodi.sourceforge.net/DTD/sodipodi-0.dtd"
   xmlns:inkscape="http://www.inkscape.org/namespaces/inkscape"
   id="Layer_1"
   xml:space="preserve"
   overflow="visible"
   viewBox="0 0 256 256"
   version="1.1"
   enable-background="new 0 0 522.312 310.689"
   inkscape:version="0.48.4 r9939"
   width="100%"
   height="100%"
   sodipodi:docname="johnny_automatic_raygun.svg"
   style="overflow:visible"><defs
     id="defs5851" /><sodipodi:namedview
     pagecolor="#ffffff"
     bordercolor="#666666"
     borderopacity="1"
     objecttolerance="10"
     gridtolerance="10"
     guidetolerance="10"
     inkscape:pageopacity="0"
     inkscape:pageshadow="2"
     inkscape:window-width="1680"
     inkscape:window-height="984"
     id="namedview5849"
     showgrid="false"
     inkscape:zoom="1.1957295"
     inkscape:cx="86.129093"
     inkscape:cy="123.37388"
     inkscape:window-x="0"
     inkscape:window-y="27"
     inkscape:window-maximized="1"
     inkscape:current-layer="Layer_1" /><g
     id="g6109"
     transform="translate(0.02466568,0.58718644)"><path
       d="m 185.48281,66.813053 c -0.0694,-0.895803 1.4656,-0.187176 2.06556,-0.413193 0.0702,0.895803 -1.46684,0.187176 -2.06597,0.413193 z"
       id="path5671"
       inkscape:connector-curvature="0"
       style="fill-rule:evenodd" /><path
       d="m 169.36826,67.63944 c -1.90027,0.9677 -7.1061,0.15784 -2.47875,0 0.78094,-0.02686 1.59906,0.02025 2.47917,0 z"
       id="path5673"
       inkscape:connector-curvature="0"
       style="fill-rule:evenodd" /><path
       d="m 184.65643,68.878608 c 0.29419,1.909368 0.83465,3.572472 1.65277,4.95791 -6.69704,0.961915 -15.29849,0.0054 -21.07039,0.826387 0.46195,-1.879204 1.5536,-3.128702 2.06596,-4.95791 6.04916,-0.0066 11.2554,-0.859029 17.35,-0.826387 z"
       id="path5675"
       inkscape:connector-curvature="0"
       style="fill:#eff0f0;fill-rule:evenodd" /><path
       d="m 44.600326,75.902073 v 14.046929 c -3.246875,0.746641 -5.909081,2.077951 -9.089432,2.891942 3.841461,-4.007978 5.823137,-9.876153 6.610271,-16.938871 h 2.479161 z"
       id="path5677"
       inkscape:connector-curvature="0"
       style="fill:#666666;fill-rule:evenodd" /><path
       d="m 206.96475,86.643867 c -2.66469,0.121478 -4.9608,-3.5295 -6.61027,-5.784298 -0.92432,-0.590453 -1.70319,-1.326351 -2.47875,-2.065554 1.43213,-1.957298 2.65849,0.368155 3.71833,1.23958 1.52468,1.251564 5.25995,4.910393 5.37151,6.610272 z"
       id="path5679"
       inkscape:connector-curvature="0"
       style="fill:#eff0f0;fill-rule:evenodd" /><path
       d="m 69.38781,78.794015 c 1.549476,1.414361 0.815231,4.10797 0.826387,6.197077 0.03471,6.458216 -0.02603,14.244436 0,21.070398 H 119.3801 v 2.47874 l -49.165903,0.82639 c -0.692512,9.82698 1.01563,14.87497 0.413194,23.96192 -0.04504,0.68053 0.649127,2.5209 -0.826388,2.47917 -2.188686,-0.29172 -1.23958,-4.24846 -1.23958,-6.61027 0,-15.7464 0.23676,-38.34437 -0.413194,-49.161779 -0.11652,-0.667307 0.390468,-0.711106 0.413194,-1.23958 0.276839,-0.0025 0.553679,-0.0025 0.826387,-0.0025 z"
       id="path5681"
       inkscape:connector-curvature="0"
       style="fill:#00ffff;fill-rule:evenodd" /><path
       d="m 63.6031,79.207208 c 2.21637,0.408649 1.23958,4.343905 1.23958,6.610271 0,17.402471 0.90696,32.916241 0,49.988161 -2.918799,-0.56814 -1.590382,-4.43315 -1.652774,-6.19708 -0.429721,-12.20615 -0.521037,-32.151417 -0.413194,-49.161771 v -1.239581 c 0.27684,0.0017 0.55368,0.0017 0.826388,0.0017 z"
       id="path5683"
       inkscape:connector-curvature="0"
       style="fill:#00ffff;fill-rule:evenodd" /><path
       d="M 116.07455,88.709421 C 102.171,90.091967 86.138265,89.345326 71.040584,89.535808 v -10.3286 c 18.064824,0.112389 31.258096,5.098396 45.033966,9.502213 z"
       id="path5685"
       inkscape:connector-curvature="0"
       style="fill:#00ffff;fill-rule:evenodd" /><path
       d="m 175.97936,81.685957 c 2.09283,3.041104 0.66772,8.013889 -3.30514,8.676239 -6.58341,1.097029 -9.17124,-10.153406 -1.65236,-10.741794 1.42552,-0.111562 4.07822,0.784654 4.95833,2.065555 z m -4.54513,8.263045 c 0.28428,0.0099 2.04283,-1.294949 2.47916,-1.652774 4.03484,-3.310094 -0.70408,-10.092667 -4.95791,-5.784297 -2.6527,2.686584 -0.16941,7.344516 2.47916,7.437071 z"
       id="path5687"
       inkscape:connector-curvature="0"
       style="fill:#eff0f0;fill-rule:evenodd" /><path
       d="m 181.76407,89.122615 c -1.55609,-1.572615 -1.66724,-3.962113 -1.23917,-5.783884 1.0396,-4.425717 9.97367,-5.032698 10.32819,1.239581 0.16941,3.027469 -4.68975,8.993985 -9.09026,4.544303 z m 7.85068,-4.131523 c -0.10661,-4.037314 -6.20947,-5.185993 -7.43666,-0.826387 -1.95027,6.925125 7.56558,5.778926 7.43749,0.826387 z"
       id="path5689"
       inkscape:connector-curvature="0"
       style="fill:#eff0f0;fill-rule:evenodd" /><path
       d="m 58.233649,80.033595 c 1.512702,1.010259 0.826387,4.134829 0.826387,6.610272 0,14.564243 1.534188,28.536393 0.413194,45.447163 -0.04091,0.61648 0.649127,2.43826 -0.826387,2.47875 -2.826658,-0.22767 -1.600299,-3.93278 -1.652775,-5.37069 -0.546242,-15.02413 -0.277253,-32.553046 -0.413193,-48.339521 0.30287,-0.385922 0.751186,-0.625988 1.23958,-0.826387 0.138007,0.0017 0.2756,0.0017 0.413194,0.0017 z"
       id="path5691"
       inkscape:connector-curvature="0"
       style="fill:#00ffff;fill-rule:evenodd" /><path
       d="m 160.6912,80.859569 c 3.8708,2.662207 1.39081,9.640633 -2.89194,9.915407 -9.55304,0.613179 -5.42524,-15.636072 2.89235,-9.915407 z m -2.88823,0.413194 c -5.29218,-0.428482 -6.2669,9.227852 1.65237,7.849852 3.01631,-2.535356 1.66103,-7.581276 -1.65278,-7.849852 z"
       id="path5693"
       inkscape:connector-curvature="0"
       style="fill:#eff0f0;fill-rule:evenodd" /><path
       d="m 52.862959,133.32978 c -2.68328,-0.2413 -1.58749,-3.80468 -1.652775,-5.37069 -0.453273,-10.9488 0.544176,-23.60533 0,-35.116906 -0.190895,-4.044752 -1.561045,-8.916305 0.826387,-11.154988 2.142409,0.08594 1.182974,3.36133 1.239581,4.95791 0.511947,14.491114 -0.05041,32.665844 -0.413193,46.686744 z"
       id="path5695"
       inkscape:connector-curvature="0"
       style="fill:#00ffff;fill-rule:evenodd" /><path
       d="m 207.37794,86.230673 c 1.21686,-0.0083 0.77557,2.508498 -0.82597,2.065968 -0.062,-1.028026 0.64871,-1.279247 0.82638,-2.065968 z"
       id="path5697"
       inkscape:connector-curvature="0"
       style="fill:#eff0f0;fill-rule:evenodd" /><path
       d="m 208.20433,87.469841 c 1.17347,0.04958 0.79416,1.761857 -0.4132,1.652774 0.3223,-0.367742 0.44625,-0.932991 0.4132,-1.652774 z"
       id="path5699"
       inkscape:connector-curvature="0"
       style="fill:#eff0f0;fill-rule:evenodd" /><path
       d="m 139.62246,87.883034 c -4.62033,3.091514 -10.16085,5.262847 -11.15458,11.981375 -0.95985,-2.620474 -0.1409,-7.020573 -0.41319,-10.328601 4.87155,0.464843 7.96224,-0.851591 11.56942,-1.652774 z"
       id="path5701"
       inkscape:connector-curvature="0"
       style="fill:#eff0f0;fill-rule:evenodd" /><path
       d="m 120.20649,88.296228 c 0.48013,-0.06735 0.73507,0.09132 0.82639,0.413193 0.41608,5.037243 0.3227,12.031369 0.41319,20.657199 0.0211,2.01184 -0.97514,5.2645 1.23958,6.19708 1.5189,-1.32801 0.82639,-4.54513 0.82639,-7.02347 v -7.84985 c -0.007,-3.364633 0.05,-8.966298 0.82639,-12.394152 0.11362,6.520608 -0.14958,14.301042 0,21.483592 0.0392,1.89201 -0.95407,5.04261 1.23958,5.78388 1.89036,-0.095 0.87762,-2.76633 0.82638,-4.54472 -0.188,-6.51854 -0.17684,-16.664095 0.4132,-22.722752 0.93671,8.654339 0.29874,19.686192 0.41319,26.441082 -0.16362,1.5408 2.58081,0.17354 2.89236,1.23958 -1.17306,1.85648 -5.73183,0.32725 -8.26305,0.82639 -0.94539,0.70697 -0.15164,3.15349 -0.41319,4.54472 2.75848,0.27146 6.60448,-0.54501 8.67624,0.41319 -1.43709,1.87507 -6.83712,0.31775 -9.91541,0.82639 V 88.297054 z"
       id="path5703"
       inkscape:connector-curvature="0"
       style="fill:#eff0f0;fill-rule:evenodd" /><path
       d="m 49.971017,89.535808 c 0.351627,-0.07603 0.389641,0.161146 0.413193,0.413194 -0.283037,12.435058 0.863162,16.415768 0.413194,31.398578 -0.03719,1.24289 0.75821,3.34811 -0.826387,4.13153 -2.085802,0.2318 -1.455681,-1.49494 -1.652775,-2.89195 -1.251976,-8.88407 0.120653,-19.72007 -0.413193,-32.638158 0.60037,-0.225604 2.135384,0.483023 2.065968,-0.41278 z"
       id="path5705"
       inkscape:connector-curvature="0"
       style="fill:#666666;fill-rule:evenodd" /><path
       d="m 55.754901,89.535808 c 0.351214,-0.07603 0.389641,0.161146 0.413193,0.413194 -0.734245,10.067048 0.807794,25.196958 0.413194,32.638158 -0.05082,0.96109 0.527235,2.96632 -1.239581,2.47875 -2.099437,0.17313 -1.224293,-3.39149 -1.239581,-6.19708 -0.05371,-9.9968 -0.172301,-23.858207 0,-28.919828 0.654499,-0.03388 1.575921,0.199573 1.652775,-0.412367 z"
       id="path5707"
       inkscape:connector-curvature="0"
       style="fill:#666666;fill-rule:evenodd" /><path
       d="m 67.321842,89.535808 c 0.351628,-0.07603 0.389642,0.161146 0.413194,0.413194 -0.451621,12.666448 1.193716,22.532268 0,35.116908 -2.429992,0.70243 -1.560633,-2.31264 -1.652775,-3.30513 -0.990425,-10.71742 -0.157013,-20.36756 0,-31.811778 0.586735,0.03595 1.169338,0.06859 1.239581,-0.41278 z"
       id="path5709"
       inkscape:connector-curvature="0"
       style="fill:#666666;fill-rule:evenodd" /><path
       d="m 118.14052,89.535808 h 0.82639 c 0.88506,4.23978 0.23428,12.119792 0.41319,15.699292 -15.68276,0.5198 -34.971464,0.88299 -48.335384,0 V 90.362196 c 11.193415,-0.971005 32.191914,0.22519 47.095804,-0.82804 z"
       id="path5711"
       inkscape:connector-curvature="0"
       style="fill:#eff0f0;fill-rule:evenodd" /><path
       d="m 61.537132,89.949002 c 1.518899,0.302458 0.79705,2.401068 0.826387,3.305136 0.270642,8.340312 0.295433,19.046162 0,28.093442 -0.03429,1.04869 0.733832,3.25142 -0.826387,3.71833 -2.162656,0.17354 -1.140001,-2.80021 -1.239581,-3.71833 -0.721023,-6.66481 -0.295847,-18.83047 -0.413194,-30.15941 v -1.239581 c 1.129258,-0.03636 0.833412,0.688794 1.652775,8.26e-4 z"
       id="path5713"
       inkscape:connector-curvature="0"
       style="fill:#666666;fill-rule:evenodd" /><path
       d="m 125.16068,89.949002 c 0.48013,-0.06735 0.73507,0.09132 0.82639,0.413194 v 24.788314 c -1.49742,-3.36216 -0.82639,-8.11678 -0.82639,-12.80735 0,-4.426133 -0.12396,-8.955148 0,-12.392918 z"
       id="path5715"
       inkscape:connector-curvature="0"
       style="fill:#666666;fill-rule:evenodd" /><path
       d="m 43.773939,90.774976 c 1.739958,0.05041 0.410301,3.170434 0.826387,4.544716 H 31.792978 c 3.406781,-2.101502 8.041987,-2.97458 11.980961,-4.544716 z"
       id="path5717"
       inkscape:connector-curvature="0"
       style="fill:#eff0f0;fill-rule:evenodd" /><path
       d="M 44.600326,96.972467 H 26.421874 c 0.486329,-1.553195 2.713443,-0.789613 4.131523,-0.826388 2.208933,-0.05702 4.963695,0 7.436658,0 2.327107,0 5.328545,-0.686727 6.610271,0.826388 z"
       id="path5719"
       inkscape:connector-curvature="0"
       style="fill:#eff0f0;fill-rule:evenodd" /><path
       d="m 199.94046,96.146079 c -0.0698,-0.895803 1.46518,-0.187176 2.06555,-0.413193 0.0702,0.895804 -1.4627,0.187177 -2.06597,0.413193 z"
       id="path5721"
       inkscape:connector-curvature="0"
       style="fill-rule:evenodd" /><path
       d="m 135.90371,96.972467 c 0.15743,-0.786721 0.52559,0.263617 0.4132,0.826387 -0.15702,0.786307 -0.52476,-0.264031 -0.4132,-0.826387 z"
       id="path5723"
       inkscape:connector-curvature="0"
       style="fill-rule:evenodd" /><path
       d="m 132.18497,97.798441 c 0.91233,0.611113 0.17561,6.428049 0.4132,9.089019 -0.91316,-0.60739 -0.17355,-6.42599 -0.4132,-9.086953 z"
       id="path5725"
       inkscape:connector-curvature="0"
       style="fill-rule:evenodd" /><path
       d="m 130.119,98.624828 c 0.15702,-0.786308 0.52559,0.264031 0.4132,0.826387 -0.15702,0.786305 -0.52476,-0.264031 -0.4132,-0.826387 z"
       id="path5727"
       inkscape:connector-curvature="0"
       style="fill-rule:evenodd" /><path
       d="m 135.90371,99.864409 c 0.91688,1.261481 0.17024,8.441131 0.4132,11.980961 -0.91729,-1.26024 -0.16941,-8.43948 -0.4132,-11.979309 z"
       id="path5729"
       inkscape:connector-curvature="0"
       style="fill-rule:evenodd" /><path
       d="m 21.050771,104.40912 c 0.733419,2.66221 0.574339,6.83795 0.413194,8.26305 -1.534188,-1.16934 -0.881756,-6.43342 -0.413194,-8.26098 z"
       id="path5731"
       inkscape:connector-curvature="0"
       style="fill:#eff0f0;fill-rule:evenodd" /><path
       d="m 189.20156,106.47633 c 0.58549,1.31768 -3.67247,1.0586 -5.3707,0.82639 -2.73451,-0.37435 3.17416,-0.53219 1.23917,-0.41319 0.94208,-0.062 3.43777,0.38427 4.13194,-0.4132 z"
       id="path5733"
       inkscape:connector-curvature="0"
       style="fill-rule:evenodd" /><path
       d="m 189.20156,108.12911 c -2.73163,0.97885 -9.51585,0.12395 -3.30514,0 1.09083,-0.0248 2.24777,0.0124 3.30555,0 z"
       id="path5735"
       inkscape:connector-curvature="0"
       style="fill-rule:evenodd" /><path
       d="m 142.10162,116.38885 h -7.43666 c 0.57434,-1.06646 3.32332,-1.25363 4.5443,-1.23958 1.04538,0.0124 2.99152,0.1818 2.89236,1.23958 z"
       id="path5737"
       inkscape:connector-curvature="0"
       style="fill:#00ffff;fill-rule:evenodd" /><path
       d="m 131.35858,115.56246 h 0.82639 v 0.82639 h -0.82639 v -0.82639 z"
       id="path5739"
       inkscape:connector-curvature="0"
       style="fill:#00ffff;fill-rule:evenodd" /><path
       d="m 132.59817,115.56246 h 1.65236 c 0.4165,1.24247 -0.9206,0.73218 -1.65236,0.82639 v -0.82639 z"
       id="path5741"
       inkscape:connector-curvature="0"
       style="fill:#00ffff;fill-rule:evenodd" /><path
       d="m 189.61475,116.80204 h 5.37069 c -1.74905,0.62971 -6.18427,0.55575 -8.26263,0.41319 -4.1526,-0.2851 -0.90077,-0.47104 2.89235,-0.41319 z"
       id="path5743"
       inkscape:connector-curvature="0"
       style="fill-rule:evenodd" /><path
       d="m 122.27246,117.21523 h 7.43666 c -0.12809,1.64286 0.95447,2.07506 0.82638,3.71833 h -8.26304 v -3.71874 z"
       id="path5745"
       inkscape:connector-curvature="0"
       style="fill:#00ffff;fill-rule:evenodd" /><path
       d="m 173.91339,117.62843 c 2.4833,-0.95985 6.74456,-0.1409 9.91541,-0.4132 -2.48329,0.95861 -6.74745,0.14049 -9.91665,0.4132 z"
       id="path5747"
       inkscape:connector-curvature="0"
       style="fill-rule:evenodd" /><path
       d="m 134.25094,118.04162 c 0.90324,0.0607 0.88671,1.04125 0.82639,2.06597 -0.61153,-0.35122 -0.595,-1.33048 -0.82639,-2.06597 z"
       id="path5749"
       inkscape:connector-curvature="0"
       style="fill-rule:evenodd" /><path
       d="m 136.7301,118.45481 c 1.89243,0.27684 -0.33055,2.50396 0,0 z"
       id="path5751"
       inkscape:connector-curvature="0"
       style="fill-rule:evenodd" /><path
       d="m 211.92307,120.52078 c -1.15777,1.72219 -4.83023,1.21892 -8.67583,1.23958 -21.82199,0.11735 -49.62041,0.71607 -68.16867,0.4132 0.62846,-1.58088 2.775,-0.79953 3.71833,-0.82639 23.12644,-0.66111 48.97996,-0.0868 73.127,-0.82639 z"
       id="path5753"
       inkscape:connector-curvature="0"
       style="fill:#eff0f0;fill-rule:evenodd" /><path
       d="m 119.7933,121.34717 c -1.44659,1.56807 -3.92576,0.79953 -5.7843,0.82639 -14.379964,0.20907 -26.507609,0.45038 -42.554809,0.41319 1.447004,-1.57014 3.924926,-0.79664 5.783884,-0.82639 14.751011,-0.23552 27.060045,-0.36361 42.554805,-0.41319 z"
       id="path5755"
       inkscape:connector-curvature="0"
       style="fill:#eff0f0;fill-rule:evenodd" /><path
       d="m 132.59817,121.34717 h 2.06555 c 0.40493,1.66517 -2.46677,1.66517 -2.06597,0 z"
       id="path5757"
       inkscape:connector-curvature="0"
       style="fill:#00ffff;fill-rule:evenodd" /><path
       d="m 71.453778,124.23952 c 0.05041,-1.73995 3.170021,-0.4103 4.544716,-0.82638 1.004061,0.76565 -2.723359,0.2789 -3.718329,0.41319 -0.38427,0.23552 -0.623922,1.14868 -0.826387,0.41319 z"
       id="path5759"
       inkscape:connector-curvature="0"
       style="fill:#eff0f0;fill-rule:evenodd" /><path
       d="m 168.95507,124.65272 c 1.59617,-0.081 3.04441,-0.0149 4.13152,0.41319 0.54005,2.3519 1.16108,4.62281 1.65236,7.02347 -1.35569,-1.05447 -2.88202,0.48219 -4.95749,0 -0.91316,-1.83871 0,-5.50787 -0.82639,-7.43749 z"
       id="path5761"
       inkscape:connector-curvature="0"
       style="fill:#eff0f0;fill-rule:evenodd" /><path
       d="m 116.48775,125.06591 c 1.88375,0.57517 -1.2338,1.43833 -0.82639,1.23958 -5.35003,2.61387 -12.49002,4.4563 -19.004839,6.19749 -7.637884,2.04118 -16.310404,3.4981 -25.201504,3.30514 v -10.3286 c 10.110848,0.1033 30.675493,0.29337 45.029833,-0.41319 z"
       id="path5763"
       inkscape:connector-curvature="0"
       style="fill:#00ffff;fill-rule:evenodd" /><path
       d="m 124.74749,125.06591 h 11.56776 c 1.82508,0.0554 -0.76854,1.6755 -1.23916,2.06597 -5.06162,6.59002 -3.14936,20.21591 4.5443,22.30956 10.11415,-0.90324 24.50734,2.47338 29.74622,-3.30472 0.75738,-1.6817 -0.38179,-2.80352 0.41319,-4.13152 h 7.02347 c 0.91233,2.25479 1.11232,5.22235 2.06555,7.43624 -3.87121,-0.47145 -4.95006,2.3643 -7.43666,2.89236 -1.58955,0.33716 -3.78361,-0.0719 -5.37069,0 -8.87457,0.40079 -20.28573,1.5784 -27.26705,0.41278 -5.35665,-0.89374 -9.06217,-6.18716 -10.3286,-10.74138 -1.19165,-4.28441 0.69334,-8.7878 -0.82639,-12.80735 -0.65698,-1.73955 -1.96267,-2.7684 -2.89236,-4.12781 z"
       id="path5765"
       inkscape:connector-curvature="0"
       style="fill:#eff0f0;fill-rule:evenodd" /><path
       d="m 182.59046,142.00685 c 1.04083,-2.40231 3.59685,-2.9688 4.95749,-5.3711 1.98333,-3.50058 1.09497,-8.33949 3.71833,-11.56777 3.03408,0.19255 3.97823,3.34191 5.7843,4.9575 3.85138,3.44727 8.23991,5.47729 13.63332,7.43665 3.1535,16.95953 8.38081,34.02691 10.7418,50.40136 -10.0311,-0.48303 -18.2144,0.93877 -27.68025,0 -4.00798,-14.99893 -7.28461,-30.72508 -11.15623,-45.85623 z"
       id="path5767"
       inkscape:connector-curvature="0"
       style="fill:#00ffff;fill-rule:evenodd" /><path
       d="m 144.99397,125.8923 c 0.57269,-0.94208 2.87542,-0.15412 4.13111,-0.41319 4.00922,4.59223 5.16905,16.27197 1.23958,21.89636 h -3.71833 c 3.15267,-5.98304 2.4709,-17.08968 -1.65277,-21.48193 z"
       id="path5769"
       inkscape:connector-curvature="0"
       style="fill:#666666;fill-rule:evenodd" /><path
       d="m 174.73978,132.5034 c 0.74044,2.35975 1.82466,6.34293 1.65277,8.26263 -2.00357,-0.47517 -5.95577,0.99786 -6.61027,-0.82639 h 5.37069 c -0.97761,-0.95034 -3.708,-0.14751 -5.37069,-0.41278 -0.78465,-2.22752 -0.038,-4.79304 -0.41319,-6.61027 1.11562,-0.81399 3.61131,-0.24792 5.37152,-0.41319 z"
       id="path5771"
       inkscape:connector-curvature="0"
       style="fill:#eff0f0;fill-rule:evenodd" /><path
       d="m 168.95507,134.15617 v 4.54472 c -3.92782,-1.30735 -9.75674,0.0314 -15.2861,-0.4132 0.12768,-1.50485 -0.0657,-2.68865 -0.41319,-3.71832 5.17318,-0.19421 11.18102,0.43798 15.69722,-0.4132 z"
       id="path5773"
       inkscape:connector-curvature="0"
       style="fill:#666666;fill-rule:evenodd" /><path
       d="m 166.8891,138.7013 c -2.44528,0.67392 -6.5706,0.49707 -10.3286,0.41319 -6.00081,-0.1347 0.38138,-0.376 4.13152,-0.41319 2.6651,-0.0289 4.72694,-0.15288 6.19791,0 z"
       id="path5775"
       inkscape:connector-curvature="0"
       style="fill:#666666;fill-rule:evenodd" /><path
       d="m 178.04533,149.8534 c -2.96632,0.614 -4.44142,2.71964 -7.02305,3.71833 -12.80983,-0.86027 -21.66746,1.021 -31.399,0.41319 -5.40787,-0.33758 -11.24217,-8.35891 -11.98096,-14.04693 -0.34873,-2.68535 0.70243,-5.85495 0,-9.08902 -0.65037,-2.994 -4.08607,-5.71282 -6.61027,-5.78388 -1.88705,-0.0529 -6.79621,2.38247 -10.3286,3.71833 -12.387957,4.68478 -28.069893,8.83614 -42.968001,7.84943 0.262791,-2.66014 1.544517,-9.39147 -0.826387,-10.74138 -2.158937,1.83458 0.240891,8.22834 -1.239581,10.74138 -0.04008,1.63914 -2.128774,-0.93877 -3.718329,-0.41278 0.537565,-2.68121 1.039182,-8.69442 -0.413194,-10.74179 -2.739473,1.25404 -0.181805,7.80564 -1.652774,10.3286 -0.945387,-0.4322 -2.491971,-0.26238 -3.305136,-0.82639 -0.331381,-3.24894 0.906547,-8.0676 -1.239581,-9.50221 -2.568411,0.73672 -0.641689,5.96817 -1.23958,8.67583 -1.532122,0.29254 -1.773014,-0.70574 -3.305136,-0.4132 -0.476412,-2.69071 1.276768,-7.61144 -1.652774,-7.84944 -1.678393,0.80077 -0.451621,4.50588 -0.826387,6.61027 -0.86812,0.74665 -2.116791,-0.63094 -3.305136,-0.82638 v -5.37111 c -4.58149,-2.44156 -9.966643,-3.26133 -14.195679,-6.05535 -1.239581,0 -3.156386,-0.14172 -4.395553,-0.14172 -0.439225,-2.17753 -2.439495,-2.79361 -4.131523,-3.71833 -0.223951,-1.70401 -0.768127,-3.0878 -2.065555,-3.71833 -0.592519,-4.99923 0.654499,-8.15892 1.239581,-11.98138 1.413948,-1.939528 5.159962,-2.64361 4.544716,-5.3711 11.427282,0.271881 14.634078,-9.87822 14.873317,-19.41762 0.706974,-0.945387 3.153493,-0.151229 4.544716,-0.413194 -0.877623,1.738719 -0.200399,5.032698 -0.413194,7.436659 0.706561,1.204872 1.503612,-0.936297 2.892356,-0.413194 0.223124,2.393217 -0.628055,5.861151 0.826387,7.023465 2.682039,-0.48509 1.325525,-5.009146 1.652774,-7.849852 0.650367,-0.726808 2.212652,-0.541697 2.891942,-1.239581 1.216442,2.226287 -0.535499,7.42137 1.239581,9.08902 3.008876,-0.709454 1.121407,-6.315251 1.652774,-9.502214 0.969766,-0.407408 2.029607,-0.724741 3.305136,-0.826387 1.391223,2.465113 -0.819776,8.531622 1.23958,10.328601 2.898554,-0.986707 0.456166,-6.502841 1.239581,-10.328601 1.071411,-0.443356 2.025888,-1.003647 3.718329,-0.826387 0.245024,3.611312 -0.509054,8.221313 0.413194,11.154988 3.285302,-0.983814 0.949106,-7.589127 1.652774,-11.154988 18.906913,-0.02314 36.082132,5.219462 50.814552,10.741794 0.60615,-2.543207 3.52164,-2.428752 3.97905,-0.142139 0.34295,-2.000683 2.74361,-2.286613 3.04441,0.142139 0.35741,-0.744575 0.0996,-1.628396 1.12843,-1.68583 1.54328,-0.05702 1.25611,0.953651 1.35032,1.68583 11.95617,-0.0252 19.24656,-4.715365 21.48317,-14.460123 h 14.46013 c 1.40155,-0.939602 1.66227,-3.019619 2.47874,-4.544716 -5.59546,-0.371048 -15.91787,0.902001 -19.83081,-2.478749 -0.99951,-3.521649 4.76247,-3.822454 8.67583,-4.131522 11.30911,-0.893325 27.60216,0.614832 37.18288,0.826387 v 4.131523 c -2.49032,-0.01157 -5.08642,-0.128917 -7.02347,0.413193 -0.36361,1.067279 1.32966,3.616684 1.65277,5.371104 5.25128,-0.706975 8.37709,0.711519 9.91541,3.718329 2.55974,-1.33131 4.28358,0.664002 5.37069,2.065968 1.60361,-1.403206 0.7359,-1.564764 0,-3.305136 1.24,-0.41278 2.06597,-1.239167 2.47875,-2.478748 3.05515,2.453543 5.43019,5.58679 8.26263,8.262632 -0.36981,3.139858 -3.18696,2.617581 -4.95749,2.479162 -0.82557,1.391222 3.31422,3.179524 1.23958,5.783883 3.92988,4.840977 9.81748,7.914724 10.32818,16.112484 0.47022,7.53335 -5.66116,12.51977 -5.78388,19.41762 -0.0649,3.66585 1.73913,8.89234 2.89194,14.04693 1.92962,8.62459 4.13814,17.77104 6.19749,26.85428 2.0858,9.19934 3.46298,17.02151 12.80735,19.00442 -0.76399,1.99077 -1.78252,3.72618 -3.30555,4.95791 -16.23809,-0.31072 -28.82356,0.57682 -44.62077,0.41278 -2.59073,-3.52784 1.88912,-8.88077 0,-14.04651 -1.29454,-3.54066 -5.21203,-5.08972 -5.37069,-7.84985 -0.1,-1.7412 1.81805,-3.20763 2.06555,-4.54431 0.45658,-5.82768 -1.38998,-9.35181 -4.9575,-11.15498 -0.54128,-1.3842 -0.11569,-3.73527 -1.65277,-4.12781 z m 23.5479,-69.821457 c -1.05984,-0.871426 -2.2862,-3.196466 -3.71833,-1.239581 0.77557,0.739203 1.55444,1.475101 2.47875,2.065555 1.64947,2.254384 3.94559,5.905776 6.61027,5.784297 -0.11156,-1.699879 -3.84683,-5.358708 -5.37152,-6.610271 z m 20.24649,87.175587 c -1.88045,-8.8754 -3.67577,-17.89624 -5.78389,-26.85428 -1.15653,-4.91329 -2.93078,-10.06085 -2.89235,-13.63374 0.0674,-6.23509 5.23557,-11.51942 5.78429,-16.52567 1.1491,-10.488511 -7.05528,-15.789372 -11.98137,-21.070399 -2.5275,-2.709723 -4.46828,-4.769907 -7.02305,-7.436658 -2.06845,-2.158937 -5.06947,-6.387147 -7.43666,-7.023465 -2.64072,-0.709866 -5.83801,0.31568 -8.67583,0.413194 -11.19465,0.384683 -22.47979,-0.290062 -33.46454,0 -2.05688,5.054184 -4.00509,8.868787 -8.67583,12.394155 -3.41711,2.579154 -8.06347,4.054669 -10.3286,7.023464 -2.56387,3.359678 -1.82921,10.336869 -1.65277,16.525679 0.0277,0.97968 -0.69624,3.37083 0.82638,3.71833 0.27312,-3.85799 -0.54789,-8.81053 0.4132,-11.98096 v 11.98096 c 2.26017,1.07471 12.37514,-2.24158 12.39415,2.06597 -3.17209,1.23462 -9.22207,-0.40824 -12.39415,0.82638 0.93299,0.71979 0.27023,3.03491 1.65277,3.30514 0.47724,-1.47428 -1.25074,-2.83699 -0.41319,-3.30514 1.11645,0.67351 0.30948,3.27084 2.06555,3.30514 19.33457,-0.88919 39.11745,0.39873 58.25203,-0.41319 5.45953,-0.23181 10.41372,-0.51278 16.11249,-0.4132 1.2871,0.0227 3.43033,-1.05116 4.13152,0.82639 -0.6388,2.07423 -3.11093,1.14041 -4.54472,1.23958 -11.56694,0.79664 -25.95145,-0.2004 -40.07482,0.41319 -14.40516,0.62599 -31.54237,-0.095 -42.5548,0.4132 -1.56022,0.0719 -4.84181,0.15081 -5.37069,1.23958 18.74948,0.24089 33.91203,-0.71689 52.88051,-0.4132 3.06425,9.05473 4.53604,19.70149 7.02347,29.33303 4.66371,2.37297 6.66481,10.78518 3.30513,16.52568 2.33,3.75551 6.04626,6.88132 5.78389,12.39415 -0.13677,2.87335 -2.11142,4.92692 -1.65278,8.26305 14.57954,1.21561 30.10487,-0.188 45.03397,0 0.58426,-1.48171 1.78706,-2.34446 2.47916,-3.71833 -9.08612,-2.13208 -11.23473,-10.09432 -13.2098,-19.41597 z m -94.19988,-38.00968 c 1.51973,4.01996 -0.36526,8.52294 0.82639,12.80735 1.26644,4.55422 4.97196,9.84764 10.3286,10.74138 6.98132,1.16562 18.3929,-0.012 27.26706,-0.41278 1.58707,-0.0719 3.78113,0.33716 5.37069,0 2.4866,-0.52806 3.56545,-3.36381 7.43666,-2.89236 -0.95324,-2.21389 -1.15323,-5.18145 -2.06556,-7.43624 h -7.02346 c -0.79499,1.328 0.34419,2.44982 -0.4132,4.13152 -5.23888,5.7781 -19.63248,2.40148 -29.74622,3.30472 -7.69366,-2.09324 -9.60592,-15.71954 -4.5443,-22.30956 0.47063,-0.39005 3.06424,-2.0106 1.23917,-2.06597 H 124.7479 c 0.92969,1.35528 2.23538,2.38413 2.89236,4.12781 z m -82.213126,-13.2222 v 8.26305 c 0,2.52131 -1.106533,6.81728 1.652774,7.02346 0.854484,-13.75356 0.442117,-32.876571 0,-42.141611 -0.0876,-1.837059 0.786721,-4.378613 -0.826387,-5.783884 -1.746156,0.408235 -1.24206,2.033739 -1.239581,3.305136 0.02562,12.065666 0.413194,29.332199 0.413194,29.332199 z M 71.040997,79.207208 v 10.3286 C 86.137025,89.345739 102.16976,90.09238 116.07497,88.709421 102.29909,84.305604 89.105821,79.319597 71.040997,79.207208 z M 151.19229,68.052221 c 3.72163,0.535499 8.07711,0.685075 11.56777,1.239581 5.83801,-1.598646 13.69571,-1.178015 20.6572,-1.652775 0.99001,0.163625 -0.22932,-1.881683 1.23917,-1.23958 -0.47848,0.611113 -0.47848,1.041247 0,1.652774 1.78706,-1.118515 4.65917,-0.894564 7.02346,-0.413194 v -2.892355 c -11.34134,-0.08801 -23.91069,-1.671781 -35.5301,-0.826387 -3.35844,0.244611 -6.68961,0.646235 -9.08902,2.065968 -0.43386,2.653529 2.40892,1.818465 4.13193,2.065968 z m 16.11042,1.652774 c -0.51236,1.828795 -1.60402,3.078292 -2.06597,4.95791 5.7719,-0.820602 14.37335,0.135528 21.07039,-0.826387 -0.81812,-1.385025 -1.35858,-3.048129 -1.65277,-4.95791 -6.09047,-0.03264 -11.29671,0.819776 -17.35,0.826387 z M 42.121578,75.902073 c -0.787134,7.062718 -2.76881,12.930893 -6.610271,16.938871 3.179938,-0.813991 5.842144,-2.145301 9.089433,-2.891942 V 75.902073 h -2.479162 z m 26.440258,2.891942 c -0.02273,0.528061 -0.529714,0.572273 -0.413194,1.23958 0.649954,10.819475 0.413194,33.417445 0.413194,49.161775 0,2.36181 -0.949106,6.31856 1.239581,6.61027 1.475514,0.0417 0.781349,-1.79863 0.826387,-2.47916 0.602436,-9.08696 -1.105293,-14.13494 -0.413194,-23.96192 l 49.16591,-0.82639 v -2.47875 H 70.21461 c -0.02603,-6.825958 0.03471,-14.612178 0,-21.070394 -0.01116,-2.089107 0.723089,-4.782716 -0.826387,-6.197077 -0.272708,0.0025 -0.549547,0.0025 -0.826387,0.0025 z m -5.78471,0.413193 v 1.239581 c -0.107844,17.01242 -0.01653,36.958101 0.413193,49.161771 0.06198,1.76393 -1.266438,5.62894 1.652775,6.19708 0.90696,-17.07399 0,-32.58775 0,-49.988161 0,-2.266366 0.976789,-6.201622 -1.239581,-6.610271 -0.272708,8.27e-4 -0.549548,8.27e-4 -0.826387,8.27e-4 z m -4.956257,0.826387 c -0.487982,0.200399 -0.93671,0.440465 -1.239581,0.826388 0.13594,15.784821 -0.133049,33.313737 0.413193,48.339517 0.05206,1.43791 -1.173883,5.14302 1.652775,5.37069 1.475514,-0.0405 0.785481,-1.86226 0.826387,-2.47875 1.120994,-16.90912 -0.413194,-30.88126 -0.413194,-45.44716 0,-2.475443 0.686315,-5.600013 -0.826387,-6.610271 -0.137593,8.26e-4 -0.275187,8.26e-4 -0.413193,8.26e-4 z m -4.544304,6.610272 c -0.05619,-1.596167 0.903242,-4.871966 -1.23958,-4.95791 -2.387433,2.238269 -1.017283,7.110235 -0.826388,11.154987 0.544176,11.511576 -0.453273,24.168516 0,35.116906 0.06487,1.56601 -1.030918,5.12939 1.652775,5.37069 0.362784,-14.01965 0.92514,-32.19439 0.413193,-46.686739 z m 74.775645,2.891941 c 0.27229,3.308028 -0.54666,7.708127 0.41319,10.328601 0.99373,-6.718115 6.53425,-8.889447 11.15458,-11.981375 -3.60718,0.801183 -6.69787,2.117617 -11.56942,1.652774 z m -7.84655,33.050942 c 3.0783,-0.50864 8.47874,1.04869 9.91541,-0.82639 -2.07134,-0.95819 -5.91776,-0.14172 -8.67624,-0.41319 0.26155,-1.39081 -0.53219,-3.83733 0.41319,-4.54472 2.53082,-0.49872 7.08999,1.03051 8.26305,-0.82638 -0.31114,-1.06604 -3.05598,0.30121 -2.89236,-1.23958 -0.11404,-6.75489 0.52393,-17.786749 -0.41319,-26.441089 -0.59004,6.059071 -0.6012,16.204209 -0.41319,22.722759 0.0512,1.77838 1.06397,4.44968 -0.82639,4.54471 -2.19364,-0.74127 -1.19991,-3.89187 -1.23958,-5.78388 -0.14958,-7.18255 0.11363,-14.962568 0,-21.483589 -1.00489,2.684932 -0.82639,17.538419 -0.82639,20.244009 0,2.47833 0.69251,5.69546 -0.82638,7.02346 -2.21431,-0.93258 -1.21851,-4.18524 -1.23959,-6.19707 -0.0905,-8.62542 0.003,-15.619549 -0.41319,-20.657205 -0.0913,-0.321878 -0.34584,-0.480544 -0.82639,-0.413194 V 122.58799 z M 47.905049,89.949002 c 0.533846,12.918088 -0.838783,23.754088 0.413193,32.638158 0.197094,1.39701 -0.433027,3.12375 1.652775,2.89195 1.584597,-0.78342 0.789199,-2.88864 0.826387,-4.13153 0.449968,-14.98322 -0.696231,-18.96352 -0.413194,-31.398578 -0.02355,-0.252048 -0.06157,-0.489221 -0.413193,-0.413194 0.069,0.896217 -1.466011,0.18759 -2.065968,0.413607 z m 6.197077,0 c -0.172301,5.061621 -0.05371,18.923028 0,28.919828 0.01488,2.80559 -0.860269,6.37021 1.239581,6.19708 1.766403,0.48757 1.188345,-1.51766 1.239581,-2.47875 0.3946,-7.4412 -1.147439,-22.57111 -0.413194,-32.638158 -0.02355,-0.252048 -0.06157,-0.489221 -0.413193,-0.413194 -0.07727,0.612353 -0.998689,0.378899 -1.652775,0.413607 z m 11.979722,0 c -0.157014,11.444218 -0.990425,21.094358 0,31.811778 0.09173,0.99249 -0.77763,4.00756 1.652774,3.30513 1.193717,-12.58505 -0.45162,-22.45046 0,-35.116908 -0.02355,-0.252048 -0.06157,-0.489221 -0.413193,-0.413194 -0.07024,0.481371 -0.652846,0.448729 -1.239581,0.413194 z m 4.958323,0.413194 V 105.2351 c 0,0 48.384969,0.18387 48.335389,0 -0.17892,-3.5795 0.47228,-11.459512 -0.4132,-15.699292 h -0.82638 c -14.89976,1.051578 -35.869339,0.56401 -47.095809,0.824735 z M 59.88601,89.949002 v 1.239581 c 0.117347,11.328527 -0.307829,23.494597 0.413194,30.159417 0.09917,0.91811 -0.923488,3.89187 1.23958,3.71833 1.560219,-0.46691 0.792093,-2.66965 0.826388,-3.71833 0.295433,-9.04729 0.270641,-19.75355 0,-28.093449 -0.02934,-0.904068 0.692512,-3.002678 -0.826388,-3.305136 -0.819362,0.688381 -0.523516,-0.03677 -1.650708,4.13e-4 z m 65.27632,12.394158 c 0,4.69098 -0.67102,9.44519 0.82639,12.80735 V 90.362196 c -0.0913,-0.321878 -0.34584,-0.480544 -0.82639,-0.413194 -0.12395,3.43901 0,7.968025 0,12.395398 z M 31.792978,95.319692 h 12.807348 c -0.416086,-1.374282 0.913571,-4.493893 -0.826387,-4.544716 -3.938974,1.570136 -8.57418,2.443214 -11.980961,4.544716 z m 6.197077,0.826387 c -2.472963,0 -5.227725,-0.05702 -7.436658,0 -1.417667,0.03678 -3.644781,-0.726807 -4.131523,0.826388 H 44.600326 C 43.3186,95.459352 40.317162,96.146079 37.990055,96.146079 z M 21.463965,112.6701 c 0.161145,-1.42469 0.320225,-5.60083 -0.413194,-8.26304 -0.468562,1.82962 -1.120994,7.09371 0.413194,8.26304 z m 117.743645,2.47917 c -1.22099,-0.0145 -3.96996,0.17271 -4.5443,1.23958 h 7.43666 c 0.0992,-1.05778 -1.84698,-1.22719 -2.89236,-1.23958 z m -7.85068,1.23958 h 0.82639 v -0.82639 h -0.82639 v 0.82639 z m 1.23958,0 c 0.73177,-0.0942 2.06886,0.4165 1.65236,-0.82639 h -1.65236 v 0.82639 z m -10.32571,4.54513 h 8.26305 c 0.1285,-1.64327 -0.95448,-2.07548 -0.82639,-3.71833 h -7.43666 v 3.71874 z m 16.52362,0.41319 c -0.94332,0.0269 -3.08987,-0.75449 -3.71833,0.82639 18.54826,0.30287 46.34792,-0.29585 68.16868,-0.4132 3.84559,-0.0207 7.51805,0.48261 8.67582,-1.23958 -24.14703,0.73962 -50.00055,0.16528 -73.127,0.82639 z m -61.557585,0.41319 c -1.858958,0.0297 -4.33688,-0.74375 -5.783884,0.82639 16.045547,0.0372 28.173605,-0.20412 42.554809,-0.41319 1.85854,-0.0269 4.33729,0.74168 5.7843,-0.82639 -15.49476,0.0496 -27.8038,0.17767 -42.554811,0.41319 z m 57.425645,-0.41319 h -2.06555 c -0.4008,1.66517 2.47089,1.66517 2.06596,0 z m -62.383968,2.47916 c 0.99497,-0.13429 4.72239,0.35246 3.718329,-0.41319 -1.374282,0.41608 -4.494306,-0.91357 -4.544716,0.82638 0.202465,0.73549 0.442117,-0.17767 0.826387,-0.41319 z m 97.501288,8.26387 c 2.07548,0.4822 3.60181,-1.05447 4.9575,0 -0.49129,-2.40065 -1.11232,-4.67156 -1.65236,-7.02346 -1.08711,-0.42807 -2.53536,-0.49418 -4.13152,-0.4132 0.82638,1.92962 -0.0868,5.59878 0.82638,7.43749 z m -98.327675,-6.61109 v 10.3286 c 8.8911,0.19296 17.56362,-1.26396 25.201504,-3.30514 6.514821,-1.7412 13.654391,-3.58363 19.004841,-6.19749 -0.40741,0.19916 2.71013,-0.66442 0.82638,-1.23958 -14.35021,0.70656 -34.914853,0.51649 -45.029833,0.41319 z m 66.102715,0.82638 c -4.83891,4.37283 -6.53507,16.23066 -0.4132,21.0704 3.57619,2.82707 10.39389,1.52386 17.35207,1.23958 7.12635,-0.2913 12.18053,0.70077 14.45971,-2.89194 v -5.37111 h -15.2861 c -0.76978,4.19061 -2.04035,10.07531 -8.26263,7.43666 1.37511,-2.90971 2.88037,-6.15741 2.89194,-9.91541 0.0149,-4.90956 -2.6337,-9.30305 -4.13152,-12.80734 -3.71048,-0.37601 -5.35086,0.10329 -6.6111,1.24371 z m 15.70135,7.85068 c 5.37937,0.0149 8.90061,-0.39501 15.69929,-0.41319 -0.29089,-2.73865 0.73177,-6.79084 -0.82638,-8.26263 -5.11204,-0.67351 -13.06973,-0.69913 -18.17804,0 1.80565,2.18166 2.68989,5.29301 3.30141,8.67706 z m -6.6111,13.21806 h 3.71833 c 3.92947,-5.62439 2.76964,-17.30413 -1.23958,-21.89636 -1.25569,0.25907 -3.55842,-0.52889 -4.13111,0.41319 4.12368,4.39225 4.80544,15.49889 1.65278,21.48193 z m 22.72152,-14.45764 c 0.37518,1.81723 -0.37146,4.38275 0.41319,6.61027 1.66269,0.26527 4.39308,-0.53756 5.37069,0.41278 h -5.37069 c 0.6545,1.82425 4.6067,0.35122 6.61027,0.82639 0.17189,-1.9197 -0.91233,-5.90288 -1.65277,-8.26263 -1.7602,0.16527 -4.25589,-0.4008 -5.37152,0.41319 z m -16.11042,1.65278 c 0.3475,1.02967 0.54087,2.21347 0.4132,3.71832 5.52935,0.4446 11.35827,-0.89415 15.28609,0.4132 v -4.54472 c -4.52034,0.85118 -10.52817,0.21899 -15.70135,0.4132 z m 7.43335,4.13193 c -3.75014,0.0372 -10.13233,0.27849 -4.13152,0.41319 3.758,0.0839 7.88332,0.26073 10.3286,-0.41319 -1.47097,-0.15288 -3.5328,-0.0289 -6.1979,0 z m 44.20759,-63.210355 c -0.64954,0.31444 -0.61731,1.31065 -1.65236,1.239581 1.62302,2.921692 4.29928,4.78974 6.61027,7.023465 0.61689,-0.484676 0.48674,-1.71682 1.65236,-1.652775 -0.27973,0.959849 -1.37263,1.105706 -1.65236,2.065555 1.38626,-0.128503 1.6474,-1.381719 2.06555,-2.478748 -2.64857,-1.757313 -4.03277,-4.782303 -7.02429,-6.197078 z m 1.65277,12.807349 c 1.60154,0.44253 2.04283,-2.073819 0.82598,-2.065968 -0.17768,0.787134 -0.88837,1.038355 -0.82639,2.065968 z m -2.06597,-9.08902 c -1.05116,0.05041 -1.60195,0.60161 -1.65236,1.652775 1.49866,0.507401 4.0588,4.884361 4.13111,2.892355 -0.0236,0.252048 -0.0616,0.489221 -0.41278,0.413193 2.08663,-2.246946 -1.79326,-2.678321 -2.06597,-4.958323 z m 3.30555,9.915407 c 1.20735,0.109496 1.58667,-1.602778 0.4132,-1.652774 0.0331,0.719783 -0.0909,1.285032 -0.4132,1.652774 z"
       id="path5777"
       inkscape:connector-curvature="0"
       style="fill-rule:evenodd" /><path
       d="m 147.05994,65.986666 c 2.39942,-1.41932 5.73058,-1.821357 9.08902,-2.065968 11.61942,-0.845807 24.18877,0.738377 35.5301,0.826387 v 2.892355 c -2.36429,-0.48137 -5.2364,-0.705734 -7.02346,0.413194 -0.47848,-0.611113 -0.47848,-1.041248 0,-1.652774 -1.46849,-0.642103 -0.24957,1.403205 -1.23917,1.23958 -6.9619,0.47476 -14.81919,0.05372 -20.6572,1.652775 -3.49066,-0.554506 -7.84613,-0.704082 -11.56777,-1.239581 -1.72301,-0.247916 -4.56579,0.587148 -4.13193,-2.065968 z m 25.61387,1.239581 c -2.17712,0.281798 -2.51056,0.197506 -0.41319,0.413193 3.34315,0.344191 7.06685,-0.292541 8.26304,-0.826387 -3.28075,0.434267 -6.44168,0.230562 -7.85067,0.413194 z m 14.87497,-0.826387 c -0.59996,0.226017 -2.13497,-0.48261 -2.06555,0.413193 0.59913,-0.226017 2.13621,0.48261 2.06596,-0.413193 z m -20.65968,1.23958 c -4.62735,0.15784 0.57847,0.9677 2.47875,0 -0.8801,0.02025 -1.69823,-0.02686 -2.47916,0 z"
       id="path5779"
       inkscape:connector-curvature="0"
       style="fill:#00ffff;fill-rule:evenodd" /><path
       d="m 180.52449,66.813053 c -1.19661,0.533846 -4.9199,1.170578 -8.26305,0.826387 -2.09737,-0.215687 -1.76392,-0.131395 0.4132,-0.413193 1.40899,-0.182632 4.56992,0.02107 7.85068,-0.413194 z"
       id="path5781"
       inkscape:connector-curvature="0"
       style="fill-rule:evenodd" /><path
       d="m 211.92307,81.685957 c -0.41815,1.097029 -0.67929,2.350245 -2.06555,2.478748 0.27973,-0.959849 1.37263,-1.105706 1.65236,-2.065555 -1.16562,-0.06446 -1.03547,1.168099 -1.65236,1.652775 -2.311,-2.233725 -4.98725,-4.101773 -6.61028,-7.023465 1.03505,0.07107 1.00283,-0.925141 1.65237,-1.239581 2.99152,1.414775 4.37572,4.439765 7.02429,6.197078 z"
       id="path5783"
       inkscape:connector-curvature="0"
       style="fill:#666666;fill-rule:evenodd" /><path
       d="m 206.55155,84.164705 c 0.35122,0.07603 0.38923,-0.161145 0.41278,-0.413194 -0.0723,1.992007 -2.63245,-2.384953 -4.13111,-2.892355 0.0504,-1.051164 0.6012,-1.601951 1.65237,-1.652774 0.2727,2.280828 4.15259,2.712203 2.06596,4.958323 z"
       id="path5785"
       inkscape:connector-curvature="0"
       style="fill:#666666;fill-rule:evenodd" /><path
       d="m 154.49743,80.446789 c 2.36388,-1.400726 7.54367,-1.447417 8.67582,2.891942 0.95861,3.674944 -1.39742,8.13165 -5.37069,8.263045 -5.42523,0.178913 -8.94151,-7.818035 -3.30555,-11.154987 z m 3.30554,10.328187 c 4.28276,-0.274774 6.76274,-7.2532 2.89195,-9.915407 -8.32172,-5.720665 -12.44953,10.528586 -2.89236,9.915407 z"
       id="path5787"
       inkscape:connector-curvature="0"
       style="fill-rule:evenodd" /><path
       d="m 166.47591,83.338731 c 0.82556,-2.544859 1.5784,-3.741055 3.71833,-4.131523 9.60014,-1.750701 9.38734,13.175504 0.41319,11.981375 -4.05343,-0.539631 -5.47068,-3.725354 -4.13194,-7.849852 z m 4.54513,-3.718329 c -7.51889,0.588388 -4.93106,11.838823 1.65236,10.741794 3.97285,-0.66235 5.39796,-5.634721 3.30513,-8.676239 -0.8801,-1.280901 -3.5328,-2.177117 -4.95832,-2.065555 z"
       id="path5789"
       inkscape:connector-curvature="0"
       style="fill-rule:evenodd" /><path
       d="m 180.93768,82.09915 c 1.47593,-2.959706 3.85055,-3.793117 7.02347,-2.892355 5.76859,1.638313 4.39886,11.753292 -2.06556,11.981375 -4.69801,0.16569 -7.21849,-4.557526 -4.95832,-9.08902 z m 9.91252,2.478749 c -0.35452,-6.272279 -9.28859,-5.664885 -10.32819,-1.239581 -0.42807,1.82177 -0.31692,4.211269 1.23917,5.783884 4.40464,4.450095 9.2638,-1.516421 9.09026,-4.544303 z"
       id="path5791"
       inkscape:connector-curvature="0"
       style="fill-rule:evenodd" /><path
       d="m 159.45162,89.122615 c -7.91927,1.378414 -6.94455,-8.278334 -1.65236,-7.849852 3.31794,0.268576 4.67322,5.314496 1.65277,7.849852 z m -5.36739,-3.718329 c 0.0641,2.49197 2.77047,4.341012 5.78389,2.478748 3.50801,-6.332192 -5.92933,-8.060581 -5.78471,-2.478748 z"
       id="path5793"
       inkscape:connector-curvature="0"
       style="fill-rule:evenodd" /><path
       d="m 168.95507,82.512344 c 4.25383,-4.308783 8.99274,2.474203 4.95791,5.784297 -0.43633,0.357826 -2.19489,1.662278 -2.47916,1.652774 -2.64857,-0.09297 -5.13187,-4.7509 -2.47916,-7.437071 z m 0.82639,5.783884 c 5.23723,2.813435 6.88008,-6.296657 2.06555,-6.610271 -0.14214,-0.0091 -2.26967,-0.240066 -3.30513,1.652774 -1.19413,2.187447 0.35947,4.485216 1.23958,4.957497 z"
       id="path5795"
       inkscape:connector-curvature="0"
       style="fill-rule:evenodd" /><path
       d="m 182.17726,84.164705 c 1.22719,-4.359606 7.33006,-3.210927 7.43666,0.826387 0.12809,4.952539 -9.38776,6.098738 -7.43748,-0.826387 z m 2.89236,4.544716 c 4.62859,0.597478 5.33144,-6.668118 0.82639,-7.023464 -1.97961,-0.156188 -3.37662,0.925967 -3.71833,2.478748 -0.66111,2.999785 1.54121,4.370762 2.89235,4.544716 z"
       id="path5797"
       inkscape:connector-curvature="0"
       style="fill-rule:evenodd" /><path
       d="m 151.19188,95.319692 c -0.076,-0.351214 0.16114,-0.389641 0.41319,-0.413193 14.3246,-2.237857 30.74243,-0.413194 46.68261,-0.413194 1.59576,0 3.63735,-0.0938 5.37111,0 1.08752,0.05867 3.82038,-0.852831 4.13111,1.239581 0.15081,2.389498 -2.64858,1.488323 -3.71833,1.652774 -4.39266,0.674332 -9.47412,1.001995 -14.45971,1.239581 -10.21456,0.486329 -19.98122,1.890359 -30.9858,1.239581 -2.90558,-0.171889 -6.31567,-0.290475 -8.26264,-2.065968 -0.32642,-1.429237 0.46278,-1.744504 0.83052,-2.479162 z m 0.41319,0.413194 c -0.32188,0.09132 -0.48054,0.345843 -0.41319,0.826387 -1.23752,0.271881 0.39501,0.882995 0,1.652774 2.12918,0.01074 2.44445,0.603676 3.71833,-0.413193 0.67515,1.32883 3.66213,0.360718 5.78388,0.413193 3.32662,0.08223 7.44534,1.432956 9.50221,-0.413193 1.11356,0.951998 3.98484,0.146684 5.78389,0.413193 -0.84746,-1.218507 -4.52365,0.392121 -5.37069,-0.826387 2.72418,0.03016 5.70289,-0.194201 7.84944,0.413194 1.3532,-0.179739 5.62687,0.417739 4.9579,-0.413194 -1.79904,-0.26651 -4.67032,0.538805 -5.78388,-0.413193 4.83023,-0.558638 9.49064,1.246192 13.63332,0 -1.79904,-0.26651 -4.67032,0.538804 -5.78388,-0.413194 3.66172,-0.540044 9.51833,1.23297 11.15499,0 -1.12141,-0.25618 -3.27911,0.524343 -3.71833,-0.413194 5.34342,-0.320225 11.13474,1.259415 14.45971,-0.413193 -15.75507,-0.899109 -39.3195,-2.506846 -55.78114,0 z"
       id="path5799"
       inkscape:connector-curvature="0"
       style="fill-rule:evenodd" /><path
       d="m 142.51481,108.95136 c -0.0211,-1.81144 -0.28882,-3.86956 1.23958,-4.13152 13.04411,-4.57075 28.10254,-3.22415 44.20758,-1.65278 2.12671,0.20743 5.8405,0.45245 10.7418,0.82639 3.42744,0.26114 8.44981,0.52104 8.67582,2.47916 0.35907,3.10929 -6.47722,2.67832 -9.08902,2.89195 -15.71995,1.2842 -29.41979,3.5076 -45.44716,2.06555 -3.946,-0.35121 -7.85894,-0.60326 -10.32984,-2.47916 z m 47.09994,-1.23545 c 5.63926,0.14958 13.8081,-1.97589 16.93887,-0.41319 -0.42889,-3.58115 -5.94007,-2.2924 -8.67624,-2.47875 -16.84838,-1.14909 -40.86567,-5.818591 -54.94648,1.23958 v 2.06597 c 2.07464,2.23827 4.11045,0.30452 5.3711,2.06555 1.87053,0.30783 -0.63177,-1.13421 1.23917,-0.82638 17.69419,2.15811 38.05058,-0.27147 53.29371,-2.06597 -4.67735,-0.40493 -9.0696,1.66517 -13.21807,0.41319 z"
       id="path5801"
       inkscape:connector-curvature="0"
       style="fill-rule:evenodd" /><path
       d="m 202.83281,107.30272 c -15.24519,1.7945 -35.60117,4.22366 -53.29371,2.06597 -1.87094,-0.30783 0.63136,1.13421 -1.23917,0.82638 -1.26065,-1.76103 -3.29687,0.17231 -5.3711,-2.06555 v -2.06597 c 14.08205,-7.058171 38.09934,-2.38826 54.94649,-1.23958 2.73616,0.18635 8.24734,-1.1024 8.67623,2.47875 -3.13076,-1.5627 -11.2996,0.56277 -16.93887,0.41319 4.1526,1.25198 8.54485,-0.81812 13.2222,-0.41319 z m -17.76319,-0.41319 c 1.93498,-0.119 -3.97368,0.0388 -1.23917,0.41319 1.69823,0.23263 5.95619,0.49129 5.37069,-0.82639 -0.69416,0.79747 -3.18985,0.35122 -4.13193,0.4132 z m -12.809,1.23958 c 1.70649,-0.0686 3.41091,0.0917 4.95791,0 1.20983,-0.0719 6.8743,-0.37477 4.5443,-0.82639 -1.99118,-0.38592 -9.8869,0.24048 -9.91541,1.23958 0.0248,-0.25205 0.062,-0.4917 0.4132,-0.41319 z m 13.63539,0 c -6.21072,0.12395 0.57351,0.97885 3.30513,0 -1.05777,0.0124 -2.21472,-0.0248 -3.30555,0 z m -3.71875,0.40906 c -4.77321,0.1847 -9.82987,0.0855 -13.63373,1.23958 4.60298,-0.35122 9.42081,-0.4917 13.63539,-1.23958 z"
       id="path5803"
       inkscape:connector-curvature="0"
       style="fill:#00ffff;fill-rule:evenodd" /><path
       d="m 171.84742,108.53817 c 0.0285,-0.99869 7.92423,-1.62551 9.91541,-1.23958 2.33,0.45162 -3.33447,0.75449 -4.5443,0.82638 -1.547,0.0917 -3.25142,-0.0686 -4.95791,0 -0.35122,-0.0744 -0.3884,0.16528 -0.4132,0.4132 z"
       id="path5805"
       inkscape:connector-curvature="0"
       style="fill-rule:evenodd" /><path
       d="m 168.54188,109.77775 c 3.80386,-1.15405 8.86052,-1.05488 13.63373,-1.23958 -4.21457,0.74788 -9.03241,0.88836 -13.63539,1.23958 z"
       id="path5807"
       inkscape:connector-curvature="0"
       style="fill-rule:evenodd" /><path
       d="m 155.32381,118.86801 c 2.0825,-2.05027 -4.05425,0.93588 -4.13111,-1.65278 1.15612,-3.46545 6.05701,-2.60807 9.08902,-2.89194 11.37605,-1.06438 27.05509,0.67103 39.24844,1.23958 2.64154,0.12313 5.63348,-0.77432 7.84943,0.82639 -0.8049,1.59162 -2.80641,0.36898 -4.13111,0.41319 -8.47129,0.28221 -20.10434,0.80408 -29.33302,1.65278 -0.74706,0.0686 -1.30735,0.82969 -1.23958,0.82638 -3.86915,0.2033 -10.3629,-0.90985 -12.80735,-0.41319 h 0.82639 c -1.33049,-1.1652 -3.7518,0.0909 -5.37152,0 z m 31.39858,-1.65278 c 2.07837,0.14256 6.51359,0.21652 8.26264,-0.41319 h -5.37069 c -3.79312,-0.0579 -7.04496,0.12809 -2.89236,0.41319 z m -16.94093,0.82639 h 3.30513 c 0.16115,-0.44873 0.49583,-0.99166 0,-0.41319 -0.98753,0.25205 -2.99565,-0.51649 -3.30555,0.41319 z m 14.04858,-0.82639 c -3.17085,0.2723 -7.43211,-0.54665 -9.91541,0.4132 3.1692,-0.27271 7.43335,0.54541 9.91665,-0.4132 z"
       id="path5809"
       inkscape:connector-curvature="0"
       style="fill:#00ffff;fill-rule:evenodd" /><path
       d="m 173.08701,117.62843 c 0.49583,-0.57889 0.16114,-0.0355 0,0.41319 h -3.30514 c 0.30989,-0.92968 2.31802,-0.16114 3.30555,-0.41319 z"
       id="path5811"
       inkscape:connector-curvature="0"
       style="fill-rule:evenodd" /><path
       d="m 181.76407,141.59366 c 1.40279,-2.18869 3.56132,-2.66345 4.95791,-4.95791 2.22092,-3.64933 1.50526,-8.53617 4.13111,-11.98097 3.88154,-0.48632 5.0703,3.58239 7.02346,5.3707 3.45513,3.16341 7.50277,5.19549 13.22055,6.19749 1.80937,8.69607 3.93401,17.25165 5.78388,26.02747 1.80979,8.58327 4.85585,17.15663 4.95791,26.02789 -6.11568,0.48303 -11.50703,0.6231 -16.52568,0.82639 -3.29852,0.13388 -8.46964,0.48178 -12.39415,-1.23917 -3.77659,-15.3708 -6.90034,-31.39031 -11.16036,-46.26941 z m 11.97848,46.26941 c 9.46585,0.93878 17.64915,-0.48302 27.68025,0 -2.36098,-16.37692 -7.5883,-33.44388 -10.74179,-50.40135 -5.39342,-1.95936 -9.78194,-3.98938 -13.63332,-7.43666 -1.80607,-1.61559 -2.75022,-4.76495 -5.7843,-4.9575 -2.62336,3.22829 -1.735,8.0672 -3.71833,11.56777 -1.36064,2.40231 -3.91666,2.9688 -4.95749,5.37111 3.87575,15.13115 7.15238,30.85729 11.15622,45.85622 z"
       id="path5813"
       inkscape:connector-curvature="0"
       style="fill-rule:evenodd" /><path
       d="m 159.86481,87.883034 c -3.01342,1.862264 -5.71984,0.01322 -5.78388,-2.478748 -0.14049,-5.581833 9.29685,-3.853444 5.78471,2.478748 z"
       id="path5815"
       inkscape:connector-curvature="0"
       style="fill:#00ffff;fill-rule:evenodd" /><path
       d="m 168.54188,83.338731 c 1.03546,-1.89284 3.16299,-1.661865 3.30513,-1.652774 4.81453,0.313614 3.17168,9.423706 -2.06555,6.610271 -0.88011,-0.472281 -2.43371,-2.77005 -1.23958,-4.957497 z"
       id="path5817"
       inkscape:connector-curvature="0"
       style="fill:#00ffff;fill-rule:evenodd" /><path
       d="m 182.17726,84.164705 c 0.34172,-1.552781 1.73872,-2.634936 3.71833,-2.478748 4.50505,0.355346 3.80221,7.620942 -0.82638,7.023464 -1.35115,-0.173954 -3.55347,-1.544931 -2.89236,-4.544716 z"
       id="path5819"
       inkscape:connector-curvature="0"
       style="fill:#00ffff;fill-rule:evenodd" /><path
       d="m 235.05778,186.62349 c -0.6921,1.37387 -1.89491,2.23662 -2.47916,3.71833 -14.92745,-0.188 -30.45278,1.21562 -45.03397,0 -0.45865,-3.33612 1.51601,-5.38969 1.65277,-8.26304 0.26238,-5.51283 -3.45388,-8.63864 -5.78388,-12.39416 3.35968,-5.74091 1.35858,-14.1527 -3.30514,-16.52568 -2.48783,-9.63154 -3.95922,-20.2783 -7.02346,-29.33302 -18.97013,-0.3037 -34.13227,0.65408 -52.88052,0.41319 0.52889,-1.08876 3.81047,-1.16768 5.37069,-1.23958 11.0112,-0.50823 28.1484,0.2128 42.55481,-0.41319 14.12378,-0.6136 28.50788,0.38344 40.07482,-0.4132 1.43378,-0.0988 3.90592,0.83465 4.54472,-1.23958 -0.70119,-1.87755 -2.84443,-0.80366 -4.13152,-0.82638 -5.69877,-0.0996 -10.65296,0.18139 -16.11249,0.41319 -19.13582,0.81192 -38.91829,-0.476 -58.25203,0.41319 -1.75607,-0.0343 -0.94911,-2.63163 -2.06556,-3.30513 -0.83754,0.46815 0.89044,1.83086 0.4132,3.30513 -1.38255,-0.27023 -0.71979,-2.58535 -1.65278,-3.30513 3.17209,-1.23463 9.22207,0.40823 12.39416,-0.82639 -0.019,-4.30713 -10.13399,-0.99125 -12.39416,-2.06597 v -11.98096 c -0.96108,3.17044 -0.14007,8.12297 -0.41319,11.98096 -1.52221,-0.34708 -0.79829,-2.73864 -0.82639,-3.71833 -0.17643,-6.18922 -0.9115,-13.165997 1.65278,-16.525674 2.26512,-2.968796 6.9119,-4.444311 10.3286,-7.023465 4.67074,-3.525368 6.61936,-7.339971 8.67582,-12.394155 10.98475,-0.290062 22.2699,0.384683 33.46455,0 2.83782,-0.09751 6.03511,-1.12306 8.67583,-0.413194 2.36718,0.636732 5.36821,4.864529 7.43666,7.023465 2.55477,2.666338 4.49554,4.726935 7.02305,7.436658 4.92609,5.281028 13.13046,10.581475 11.98137,21.070395 -0.54872,5.00625 -5.71694,10.29059 -5.7843,16.52568 -0.0384,3.57288 1.73583,8.72045 2.89236,13.63373 2.10811,8.95845 3.90344,17.97888 5.78388,26.85428 1.97094,9.32991 4.11954,17.29215 13.21393,19.42423 z M 157.80297,91.601363 c 3.97327,-0.131395 6.3293,-4.588101 5.37069,-8.263045 -1.13215,-4.339359 -6.31194,-4.292668 -8.67582,-2.891942 -5.63596,3.337365 -2.11968,11.334313 3.30555,11.154987 z m 12.80487,-0.413193 c 8.97416,1.194129 9.18695,-13.731663 -0.41319,-11.981375 -2.13993,0.390468 -2.89277,1.586663 -3.71833,4.131523 -1.33875,4.124911 0.0785,7.310634 4.13194,7.849852 z m 15.28817,0 c 6.46482,-0.228083 7.83415,-10.343062 2.06555,-11.981375 -3.17291,-0.900762 -5.54754,-0.06776 -7.02346,2.892355 -2.26017,4.531494 0.26031,9.25471 4.95832,9.08902 z m -35.53052,6.610271 c 1.94697,1.775492 5.35705,1.893666 8.26263,2.065968 11.00459,0.650781 20.77166,-0.753252 30.9858,-1.239581 4.9856,-0.237173 10.06705,-0.564836 14.45971,-1.239581 1.06976,-0.164038 3.86915,0.736724 3.71833,-1.652774 -0.31072,-2.091999 -3.04358,-1.180494 -4.13111,-1.239581 -1.73376,-0.0938 -3.77535,0 -5.3711,0 -15.94225,0 -32.36008,-1.824663 -46.68261,0.413194 -0.25205,0.02355 -0.48922,0.06157 -0.4132,0.413193 -0.36774,0.735071 -1.15694,1.050338 -0.82638,2.479162 z m -14.04858,0 c 0.11239,-0.562357 -0.25577,-1.612695 -0.4132,-0.826388 -0.11156,0.56277 0.25618,1.613108 0.4132,0.826388 z m -3.71874,9.091089 c -0.23759,-2.66097 0.49913,-8.47791 -0.4132,-9.089023 0.23965,2.658903 -0.49996,8.477493 0.4132,9.089023 z m -2.06597,-7.438315 c 0.11239,-0.562356 -0.25577,-1.612695 -0.4132,-0.826387 -0.11156,0.562356 0.25618,1.612692 0.4132,0.826387 z m 5.78471,12.392505 c -0.24296,-3.53983 0.50368,-10.71948 -0.4132,-11.980964 0.24379,3.541484 -0.50409,10.720724 0.4132,11.980964 z m 16.52774,-0.4132 c 16.02571,1.44205 29.72556,-0.78135 45.44716,-2.06555 2.6118,-0.21362 9.44809,0.21734 9.08902,-2.89194 -0.22601,-1.95813 -5.24838,-2.21761 -8.67582,-2.47916 -4.9013,-0.37353 -8.61509,-0.61897 -10.7418,-0.82639 -16.1038,-1.57138 -31.16182,-2.91839 -44.20758,1.65277 -1.5284,0.26197 -1.26065,2.32008 -1.23958,4.13153 2.4709,1.87589 6.38384,2.12794 10.32984,2.47916 z m 47.509,3.30555 c -10.68808,-0.4855 -20.04154,-0.38551 -29.74581,-0.82638 -4.00715,-0.18181 -7.35773,-0.7702 -10.3286,-0.4132 -2.45106,0.29461 -9.45511,0.3727 -9.50221,3.30514 -0.0537,3.33777 8.71839,3.19481 12.80735,3.30513 12.6243,0.34089 25.48826,-1.21189 38.00885,-2.06597 2.14448,-0.14627 5.59836,0.92721 6.61027,-1.65277 -2.00399,-1.81805 -5.16905,-1.52882 -7.85068,-1.65277 z m -65.27632,5.37152 c 0.0603,-1.02472 0.0769,-2.00482 -0.82639,-2.06597 0.23139,0.73549 0.21486,1.71475 0.82639,2.06597 z m 1.65277,-1.65278 c -0.33055,2.50396 1.89243,0.27684 0,0 z m 56.18607,69.40826 c 3.92451,1.72096 9.09563,1.37305 12.39415,1.23917 5.01865,-0.20329 10.41,-0.34336 16.52568,-0.82639 -0.10206,-8.87126 -3.14812,-17.44462 -4.95791,-26.02789 -1.85028,-8.77581 -3.97451,-17.3314 -5.78389,-26.02747 -5.71777,-1.002 -9.76541,-3.03408 -13.22054,-6.19749 -1.95358,-1.78831 -3.14192,-5.85702 -7.02346,-5.37069 -2.62585,3.44479 -1.9102,8.33163 -4.13111,11.98096 -1.3966,2.29446 -3.55512,2.76922 -4.95791,4.95791 4.26416,14.8791 7.3879,30.89861 11.15623,46.26942 z"
       id="path5821"
       inkscape:connector-curvature="0"
       style="fill:#eff0f0;fill-rule:evenodd" /><path
       d="m 207.37794,95.732886 c -3.32497,1.672608 -9.11629,0.09297 -14.45971,0.413193 0.43923,0.937537 2.59692,0.157014 3.71833,0.413194 -1.63666,1.23297 -7.49327,-0.540044 -11.15499,0 1.11356,0.951998 3.98484,0.146684 5.78389,0.413194 -4.14268,1.246192 -8.80309,-0.558638 -13.63333,0 1.11356,0.951998 3.98484,0.14627 5.78389,0.413193 0.66896,0.830933 -3.6047,0.233455 -4.95791,0.413194 -2.14654,-0.607395 -5.12525,-0.383031 -7.84944,-0.413194 0.84705,1.218508 4.52323,-0.39212 5.37069,0.826387 -1.79904,-0.266509 -4.67033,0.538805 -5.78388,-0.413193 -2.05729,1.846149 -6.17559,0.495419 -9.50222,0.413193 -2.12175,-0.05248 -5.10872,0.915637 -5.78388,-0.413193 -1.27388,1.016869 -1.58914,0.423936 -3.71833,0.413193 0.39501,-0.769366 -1.23751,-1.380893 0,-1.652774 -0.0673,-0.480544 0.0913,-0.735071 0.41319,-0.826387 16.4699,-2.506846 40.03433,-0.899109 55.78114,0 z m -5.37152,0 c -0.60037,0.226017 -2.13538,-0.48261 -2.06555,0.413193 0.60326,-0.226016 2.13621,0.482611 2.06597,-0.413193 z"
       id="path5823"
       inkscape:connector-curvature="0"
       style="fill:#00ffff;fill-rule:evenodd" /><path
       d="m 208.20433,116.38885 c -1.01191,2.57998 -4.4658,1.5065 -6.61027,1.65277 -12.52101,0.85366 -25.38496,2.40644 -38.00885,2.06597 -4.08897,-0.11032 -12.86107,0.0326 -12.80735,-3.30514 0.0471,-2.93243 7.05115,-3.01053 9.50221,-3.30513 2.97086,-0.357 6.32145,0.23139 10.3286,0.41319 9.70426,0.44088 19.05773,0.34089 29.74581,0.82639 2.68162,0.12396 5.84669,-0.16528 7.85067,1.65277 z m -47.51313,2.47916 h -0.82639 c 2.44445,-0.49666 8.9382,0.61648 12.80735,0.41319 -0.0678,0.003 0.49253,-0.7578 1.23958,-0.82639 9.22868,-0.84828 20.86173,-1.37015 29.33303,-1.65277 1.32469,-0.0442 3.3262,1.17843 4.13111,-0.41319 -2.21596,-1.60072 -5.2079,-0.70326 -7.84944,-0.82639 -12.19376,-0.56814 -27.87239,-2.30355 -39.24844,-1.23958 -3.03201,0.28386 -7.9329,-0.57351 -9.08902,2.89194 0.0773,2.58866 6.21361,-0.3979 4.13111,1.65277 1.62385,0.0909 4.04517,-1.1652 5.37152,0 z"
       id="path5825"
       inkscape:connector-curvature="0"
       style="fill-rule:evenodd" /><rect
       style="fill:#eff0f0;fill-rule:evenodd"
       id="rect5827"
       x="76.684807"
       y="123.29331"
       clip-rule="evenodd"
       width="42.629181"
       height="0.54087043" /><rect
       style="fill:#eff0f0;fill-rule:evenodd"
       id="rect5829"
       x="72.680962"
       y="124.23126"
       clip-rule="evenodd"
       width="46.794174"
       height="0.21610025" /><polygon
       transform="matrix(0.41319359,0,0,0.41319359,20.069023,63.227359)"
       style="fill:#eff0f0;fill-rule:evenodd"
       id="polygon5831"
       clip-rule="evenodd"
       points="123.32,136.3 123.3,114.4 240.5,111.68 240.52,133.58 " /><polygon
       transform="matrix(0.41319359,0,0,0.41319359,20.069023,63.227359)"
       style="fill:#eff0f0;fill-rule:evenodd"
       id="polygon5833"
       clip-rule="evenodd"
       points="240.46,139.34 123.73,140.1 123.57,137.8 240.46,135.35 " /><path
       style="fill:#eff0f0;fill-rule:evenodd"
       inkscape:connector-curvature="0"
       id="path5835"
       d="m 26.255771,118.17797 h 18.178452 c -0.486329,1.5532 -2.713443,0.78962 -4.131523,0.82639 -2.208933,0.057 -4.963695,0 -7.436658,0 -2.32752,0 -5.328958,0.6859 -6.610271,-0.82639 z"
       clip-rule="evenodd" /><path
       style="fill:#eff0f0;fill-rule:evenodd"
       inkscape:connector-curvature="0"
       id="path5837"
       d="m 44.62016,117.32266 -0.209076,-19.519261 -17.776415,0.06942 c 0,0 -3.973269,2.021757 -4.252588,2.927891 -0.279319,0.90613 0,12.75735 0,12.75735 0,0 2.997719,3.4857 3.973682,3.62494 0.975964,0.13925 18.264397,0.14049 18.264397,0.14049 z"
       clip-rule="evenodd" /><polygon
       transform="matrix(0.41319359,0,0,0.41319359,20.069023,63.227359)"
       style="fill-rule:evenodd"
       id="polygon5839"
       clip-rule="evenodd"
       points="11.402,111.72 11.402,103.35 57.022,95.522 57.292,94.172 7.083,100.92 7.083,114.42 58.103,123.6 58.373,121.98 " /><path
       inkscape:connector-curvature="0"
       style="fill:#00ffff;fill-rule:evenodd"
       id="path5841"
       d="m 45.430019,115.90954 v 8.26305 c 0,2.5213 -1.106532,6.81728 1.652775,7.02305 0.854484,-13.75315 0.442117,-32.876162 0,-42.141615 -0.0876,-1.837059 0.78672,-4.378613 -0.826388,-5.783884 -1.746156,0.408235 -1.24206,2.033739 -1.23958,3.305135 0.0252,12.064427 0.413193,29.332204 0.413193,29.332204 z"
       clip-rule="evenodd" /><path
       style="fill:#eff0f0;fill-rule:evenodd"
       inkscape:connector-curvature="0"
       id="path5843"
       d="m 32.737952,119.72332 c 0,0 -1.22264,0.0145 0.01446,0.43674 1.237102,0.42229 11.031856,4.35176 11.031856,4.35176 0,0 0.538391,0.26196 0.538391,-0.61111 0,-0.87308 0,-3.59479 0,-3.59479 0,0 0.05826,-0.43674 -0.407409,-0.43674 -0.465669,0 -11.177299,-0.14462 -11.177299,-0.14462 z"
       clip-rule="evenodd" /><path
       style="fill:#666666;fill-rule:evenodd"
       inkscape:connector-curvature="0"
       id="path5845"
       d="m 122.1609,101.86922 c 0,4.69099 -0.67103,9.4452 0.82638,12.80735 V 89.888263 c -0.0913,-0.321878 -0.34584,-0.480545 -0.82638,-0.413194 -0.12396,3.436118 0,7.965133 0,12.392501 z"
       clip-rule="evenodd" /></g><metadata
     id="metadata5847"><rdf:RDF><cc:Work><dc:format>image/svg+xml</dc:format><dc:type
           rdf:resource="http://purl.org/dc/dcmitype/StillImage" /><cc:license
           rdf:resource="http://creativecommons.org/licenses/publicdomain/" /><dc:publisher><cc:Agent
             rdf:about="http://openclipart.org/"><dc:title>Openclipart</dc:title></cc:Agent></dc:publisher><dc:title></dc:title><dc:date>2007-01-03T16:50:54</dc:date><dc:description>a toy space raygun from a U.S. patent drawing</dc:description><dc:source>https://openclipart.org/detail/2768/raygun-by-johnny_automatic</dc:source><dc:creator><cc:Agent><dc:title>johnny_automatic</dc:title></cc:Agent></dc:creator><dc:subject><rdf:Bag><rdf:li>costume</rdf:li><rdf:li>externalsource</rdf:li><rdf:li>gun</rdf:li><rdf:li>ray gun</rdf:li><rdf:li>scifi</rdf:li><rdf:li>space</rdf:li><rdf:li>toy</rdf:li><rdf:li>uspto</rdf:li><rdf:li>weapon</rdf:li></rdf:Bag></dc:subject></cc:Work><cc:License
         rdf:about="http://creativecommons.org/licenses/publicdomain/"><cc:permits
           rdf:resource="http://creativecommons.org/ns#Reproduction" /><cc:permits
           rdf:resource="http://creativecommons.org/ns#Distribution" /><cc:permits
           rdf:resource="http://creativecommons.org/ns#DerivativeWorks" /></cc:License></rdf:RDF></metadata></svg>