<?xml version="1.0" encoding="UTF-8" standalone="no"?>
<svg
   xmlns:dc="http://purl.org/dc/elements/1.1/"
   xmlns:cc="http://creativecommons.org/ns#"
   xmlns:rdf="http://www.w3.org/1999/02/22-rdf-syntax-ns#"
   xmlns:svg="http://www.w3.org/2000/svg"
   xmlns="http://www.w3.org/2000/svg"
   xmlns:sodipodi="http://sodipodi.sourceforge.net/DTD/sodipodi-0.dtd"
   xmlns:inkscape="http://www.inkscape.org/namespaces/inkscape"
   version="1.1"
   id="Layer_1"
   x="0px"
   y="0px"
   width="256"
   height="256"
   viewBox="-3.86 -16.3965 256 345.6"
   enable-background="new -8.86 -6.505 100 98.915"
   xml:space="preserve"
   inkscape:version="0.48.5 r10040"
   sodipodi:docname="noun_1320_cc.svg"><metadata
     id="metadata13"><rdf:RDF><cc:Work
         rdf:about=""><dc:format>image/svg+xml</dc:format><dc:type
           rdf:resource="http://purl.org/dc/dcmitype/StillImage" /></cc:Work></rdf:RDF></metadata><defs
     id="defs11" /><sodipodi:namedview
     pagecolor="#ffffff"
     bordercolor="#666666"
     borderopacity="1"
     objecttolerance="10"
     gridtolerance="10"
     guidetolerance="10"
     inkscape:pageopacity="0"
     inkscape:pageshadow="2"
     inkscape:window-width="1096"
     inkscape:window-height="747"
     id="namedview9"
     showgrid="false"
     inkscape:zoom="0.84353839"
     inkscape:cx="-211.29386"
     inkscape:cy="-14.625869"
     inkscape:window-x="344"
     inkscape:window-y="263"
     inkscape:window-maximized="0"
     inkscape:current-layer="Layer_1" /><path
     d="m 251.32529,242.98379 c 10.70283,10.71093 10.27083,27.84248 -0.4293,38.9827 -11.13213,10.70283 -28.27987,10.70283 -38.9827,-0.432 L 76.980443,143.16994 C 65.400114,132.02971 58.558296,128.6007 49.132572,131.59771 39.706847,135.02672 26.420113,135.02672 13.994681,126.8835 -12.559887,109.75465 -10.837283,77.621865 -10.837283,77.621865 l 2.1384057,-3.429009 c 0,0 23.9868623,15.42244 26.9865693,17.13964 3.86101,2.99701 17.131544,8.996434 29.124975,-9.42572 C 59.838099,63.484628 49.567273,51.923198 46.138264,49.776693 43.138556,48.062188 19.151695,32.218548 19.151695,32.218548 L 21.2901,28.786839 c 0,0 27.847872,-14.139937 53.973139,1.285203 0,0.861302 6.428717,4.714212 8.996423,6.858018 16.715738,14.993138 16.715738,31.700781 13.716036,45.408717 -2.583907,12.425429 0,16.707639 9.841522,27.418573 l 143.50807,133.22644 z m -9.85773,8.99643 c -5.56741,-5.57282 -14.56383,-5.57282 -20.55785,0 -5.13541,5.56741 -5.13541,14.99314 0,20.12585 5.99672,5.57551 14.99314,6.42872 20.55785,0.432 5.56742,-5.13811 5.56742,-14.99314 0,-20.55785 z"
     id="path3"
     inkscape:connector-curvature="0" /></svg>